<?xml version="1.0" encoding="UTF-8" standalone="no"?>
<!DOCTYPE svg PUBLIC "-//W3C//DTD SVG 1.1//EN"
 "http://www.w3.org/Graphics/SVG/1.1/DTD/svg11.dtd">
<!-- Generated by graphviz version 14.1.2 (0)
 -->
<!-- Pages: 1 -->
<svg width="1059pt" height="344pt"
 viewBox="0.00 0.00 1059.00 344.00" xmlns="http://www.w3.org/2000/svg" xmlns:xlink="http://www.w3.org/1999/xlink">
<g id="graph0" class="graph" transform="scale(1 1) rotate(0) translate(4 339.74)">
<polygon fill="white" stroke="none" points="-4,4 -4,-339.74 1055.39,-339.74 1055.39,4 -4,4"/>
<!-- g -->
<g id="node1" class="node">
<title>g</title>
<ellipse fill="#eef3e8" stroke="#737373" cx="502.01" cy="-253.36" rx="82.38" ry="82.38"/>
<text xml:space="preserve" text-anchor="middle" x="502.01" y="-256.56" font-family="Times,serif" font-size="14.00">General ability (g)</text>
<text xml:space="preserve" text-anchor="middle" x="502.01" y="-240.06" font-family="Times,serif" font-size="14.00">[latent, FITTED]</text>
</g>
<!-- ls -->
<g id="node2" class="node">
<title>ls</title>
<ellipse fill="none" stroke="black" cx="80.01" cy="-105.99" rx="80.01" ry="18"/>
<text xml:space="preserve" text-anchor="middle" x="80.01" y="-100.94" font-family="Times,serif" font-size="14.00">Letter sounds (T1)</text>
</g>
<!-- g&#45;&gt;ls -->
<g id="edge1" class="edge">
<title>g&#45;&gt;ls</title>
<path fill="none" stroke="black" d="M424.12,-225.53C339.51,-196.38 206.65,-150.61 133.23,-125.32"/>
<polygon fill="black" stroke="black" points="134.43,-122.03 123.83,-122.09 132.15,-128.65 134.43,-122.03"/>
</g>
<!-- lang -->
<g id="node3" class="node">
<title>lang</title>
<ellipse fill="none" stroke="black" cx="299.01" cy="-105.99" rx="121.09" ry="28.99"/>
<text xml:space="preserve" text-anchor="middle" x="299.01" y="-109.19" font-family="Times,serif" font-size="14.00">Language (T1)</text>
<text xml:space="preserve" text-anchor="middle" x="299.01" y="-92.69" font-family="Times,serif" font-size="14.00">ROWPVT/EOWPVT/CELF</text>
</g>
<!-- g&#45;&gt;lang -->
<g id="edge2" class="edge">
<title>g&#45;&gt;lang</title>
<path fill="none" stroke="black" d="M435.26,-204.56C405.9,-183.54 372.14,-159.36 345.56,-140.33"/>
<polygon fill="black" stroke="black" points="347.88,-137.68 337.71,-134.7 343.8,-143.37 347.88,-137.68"/>
</g>
<!-- blend -->
<g id="node4" class="node">
<title>blend</title>
<ellipse fill="none" stroke="black" cx="502.01" cy="-105.99" rx="63.63" ry="18"/>
<text xml:space="preserve" text-anchor="middle" x="502.01" y="-100.94" font-family="Times,serif" font-size="14.00">Blending (T1)</text>
</g>
<!-- g&#45;&gt;blend -->
<g id="edge3" class="edge">
<title>g&#45;&gt;blend</title>
<path fill="none" stroke="black" d="M502.01,-170.75C502.01,-158.24 502.01,-146.08 502.01,-135.8"/>
<polygon fill="black" stroke="black" points="505.51,-135.8 502.01,-125.8 498.51,-135.8 505.51,-135.8"/>
</g>
<!-- nvma -->
<g id="node5" class="node">
<title>nvma</title>
<ellipse fill="none" stroke="black" cx="676.01" cy="-105.99" rx="92.45" ry="28.99"/>
<text xml:space="preserve" text-anchor="middle" x="676.01" y="-109.19" font-family="Times,serif" font-size="14.00">Non&#45;verbal MA (T1)</text>
<text xml:space="preserve" text-anchor="middle" x="676.01" y="-92.69" font-family="Times,serif" font-size="14.00">block design</text>
</g>
<!-- g&#45;&gt;nvma -->
<g id="edge4" class="edge">
<title>g&#45;&gt;nvma</title>
<path fill="none" stroke="black" d="M564.83,-199.88C588.51,-180.1 614.78,-158.14 635.84,-140.55"/>
<polygon fill="black" stroke="black" points="637.94,-143.36 643.37,-134.27 633.45,-137.99 637.94,-143.36"/>
</g>
<!-- wgain -->
<g id="node6" class="node">
<title>wgain</title>
<polygon fill="#e8eef7" stroke="black" points="855.39,-41 736.64,-41 736.64,0 855.39,0 855.39,-41"/>
<text xml:space="preserve" text-anchor="middle" x="796.01" y="-23.7" font-family="Times,serif" font-size="14.00">Word&#45;reading gain</text>
<text xml:space="preserve" text-anchor="middle" x="796.01" y="-7.2" font-family="Times,serif" font-size="14.00">(W_last | W_T1)</text>
</g>
<!-- g&#45;&gt;wgain -->
<g id="edge5" class="edge">
<title>g&#45;&gt;wgain</title>
<path fill="none" stroke="black" d="M583.46,-239.26C646.16,-224.75 729.83,-194.95 777.01,-134.98 795.27,-111.78 798.78,-77.54 798.48,-52.74"/>
<polygon fill="black" stroke="black" points="801.99,-52.8 798.13,-42.93 794.99,-53.05 801.99,-52.8"/>
</g>
<!-- ls&#45;&gt;wgain -->
<g id="edge6" class="edge">
<title>ls&#45;&gt;wgain</title>
<path fill="none" stroke="#737373" stroke-dasharray="5,2" d="M120.74,-90.15C135.73,-85.22 152.97,-80.19 169.01,-77 367.9,-37.41 607.91,-26.05 724.92,-22.8"/>
<polygon fill="#737373" stroke="#737373" points="724.77,-26.31 734.68,-22.54 724.59,-19.31 724.77,-26.31"/>
</g>
<!-- lang&#45;&gt;wgain -->
<g id="edge7" class="edge">
<title>lang&#45;&gt;wgain</title>
<path fill="none" stroke="#737373" stroke-dasharray="5,2" d="M385.92,-85.5C400.29,-82.5 415.05,-79.56 429.01,-77 531.66,-58.21 651.29,-40.98 725.35,-30.86"/>
<polygon fill="#737373" stroke="#737373" points="725.45,-34.38 734.89,-29.56 724.51,-27.44 725.45,-34.38"/>
</g>
<!-- age -->
<g id="node7" class="node">
<title>age</title>
<ellipse fill="none" stroke="black" cx="869.01" cy="-105.99" rx="45.21" ry="18"/>
<text xml:space="preserve" text-anchor="middle" x="869.01" y="-100.94" font-family="Times,serif" font-size="14.00">Age (T1)</text>
</g>
<!-- age&#45;&gt;wgain -->
<g id="edge8" class="edge">
<title>age&#45;&gt;wgain</title>
<path fill="none" stroke="black" d="M854.59,-88.5C845,-77.53 832.16,-62.84 820.94,-50.01"/>
<polygon fill="black" stroke="black" points="823.71,-47.86 814.49,-42.63 818.44,-52.47 823.71,-47.86"/>
</g>
<!-- wpre -->
<g id="node8" class="node">
<title>wpre</title>
<polygon fill="none" stroke="black" points="1051.39,-126.49 932.64,-126.49 932.64,-85.49 1051.39,-85.49 1051.39,-126.49"/>
<text xml:space="preserve" text-anchor="middle" x="992.01" y="-109.19" font-family="Times,serif" font-size="14.00">Word reading (T1)</text>
<text xml:space="preserve" text-anchor="middle" x="992.01" y="-92.69" font-family="Times,serif" font-size="14.00">W_pre</text>
</g>
<!-- wpre&#45;&gt;wgain -->
<g id="edge9" class="edge">
<title>wpre&#45;&gt;wgain</title>
<path fill="none" stroke="black" d="M945.07,-84.99C917.53,-73.26 882.53,-58.36 853.37,-45.93"/>
<polygon fill="black" stroke="black" points="854.88,-42.77 844.31,-42.07 852.14,-49.21 854.88,-42.77"/>
</g>
</g>
</svg>
