<?xml version="1.0" encoding="UTF-8" standalone="no"?>
<!DOCTYPE svg PUBLIC "-//W3C//DTD SVG 1.1//EN"
 "http://www.w3.org/Graphics/SVG/1.1/DTD/svg11.dtd">
<!-- Generated by graphviz version 15.1.0 (20260618.0150)
 -->
<!-- Title: COPYPASTE Pages: 1 -->
<svg width="1535pt" height="1138pt"
 viewBox="0.00 0.00 1535.00 1138.00" xmlns="http://www.w3.org/2000/svg" xmlns:xlink="http://www.w3.org/1999/xlink">
<g id="graph0" class="graph" transform="scale(1 1) rotate(0) translate(4 1134)">
<title>COPYPASTE</title>
<polygon fill="white" stroke="none" points="-4,4 -4,-1134 1531.13,-1134 1531.13,4 -4,4"/>
<text xml:space="preserve" text-anchor="middle" x="763.57" y="-1109.85" font-family="Helvetica,sans-Serif" font-weight="bold" font-size="17.00">Language &amp; reading causal DAG — TIME&#45;LAGGED unroll, Option A (ADOPTED 2026&#45;07&#45;13): the base cascade, copied per wave, linked across time</text>
<g id="clust1" class="cluster">
<title>cluster_1</title>
<path fill="#fbfbfc" stroke="#c9ced6" d="M194.88,-577.3C194.88,-577.3 1336.54,-577.3 1336.54,-577.3 1342.54,-577.3 1348.54,-583.3 1348.54,-589.3 1348.54,-589.3 1348.54,-1032.3 1348.54,-1032.3 1348.54,-1038.3 1342.54,-1044.3 1336.54,-1044.3 1336.54,-1044.3 194.88,-1044.3 194.88,-1044.3 188.88,-1044.3 182.88,-1038.3 182.88,-1032.3 182.88,-1032.3 182.88,-589.3 182.88,-589.3 182.88,-583.3 188.88,-577.3 194.88,-577.3"/>
<text xml:space="preserve" text-anchor="middle" x="765.71" y="-1027" font-family="Helvetica,sans-Serif" font-weight="bold" font-size="14.00" fill="#404650">WAVE t &#160;· &#160;the base DAG (a copy)</text>
</g>
<g id="clust6" class="cluster">
<title>cluster_2</title>
<path fill="#fbfbfc" stroke="#c9ced6" d="M556.34,-102.3C556.34,-102.3 1507.13,-102.3 1507.13,-102.3 1513.13,-102.3 1519.13,-108.3 1519.13,-114.3 1519.13,-114.3 1519.13,-557.3 1519.13,-557.3 1519.13,-563.3 1513.13,-569.3 1507.13,-569.3 1507.13,-569.3 556.34,-569.3 556.34,-569.3 550.34,-569.3 544.34,-563.3 544.34,-557.3 544.34,-557.3 544.34,-114.3 544.34,-114.3 544.34,-108.3 550.34,-102.3 556.34,-102.3"/>
<text xml:space="preserve" text-anchor="middle" x="1031.74" y="-552" font-family="Helvetica,sans-Serif" font-weight="bold" font-size="14.00" fill="#404650">WAVE t+1 &#160;· &#160;the base DAG (a copy)</text>
</g>
<!-- SP_1 -->
<g id="node1" class="node">
<title>SP_1</title>
<path fill="#fbe1e0" stroke="#d0433f" stroke-width="1.3" d="M288.47,-892.3C288.47,-892.3 208.88,-892.3 208.88,-892.3 202.88,-892.3 196.88,-886.3 196.88,-880.3 196.88,-880.3 196.88,-868.3 196.88,-868.3 196.88,-862.3 202.88,-856.3 208.88,-856.3 208.88,-856.3 288.47,-856.3 288.47,-856.3 294.47,-856.3 300.47,-862.3 300.47,-868.3 300.47,-868.3 300.47,-880.3 300.47,-880.3 300.47,-886.3 294.47,-892.3 288.47,-892.3"/>
<text xml:space="preserve" text-anchor="middle" x="248.67" y="-875.85" font-family="Helvetica,sans-Serif" font-size="11.00">SP</text>
<text xml:space="preserve" text-anchor="middle" x="248.67" y="-863.85" font-family="Helvetica,sans-Serif" font-size="11.00">speech production</text>
</g>
<!-- EV_1 -->
<g id="node4" class="node">
<title>EV_1</title>
<path fill="#d6ebe4" stroke="#2f9e78" stroke-width="1.3" d="M810.02,-775.3C810.02,-775.3 735.68,-775.3 735.68,-775.3 729.68,-775.3 723.68,-769.3 723.68,-763.3 723.68,-763.3 723.68,-751.3 723.68,-751.3 723.68,-745.3 729.68,-739.3 735.68,-739.3 735.68,-739.3 810.02,-739.3 810.02,-739.3 816.02,-739.3 822.02,-745.3 822.02,-751.3 822.02,-751.3 822.02,-763.3 822.02,-763.3 822.02,-769.3 816.02,-775.3 810.02,-775.3"/>
<text xml:space="preserve" text-anchor="middle" x="772.85" y="-758.85" font-family="Helvetica,sans-Serif" font-size="11.00">EV</text>
<text xml:space="preserve" text-anchor="middle" x="772.85" y="-746.85" font-family="Helvetica,sans-Serif" font-size="11.00">expressive vocab</text>
</g>
<!-- SP_1&#45;&gt;EV_1 -->
<g id="edge28" class="edge">
<title>SP_1&#45;&gt;EV_1</title>
<path fill="none" stroke="#d0433f" stroke-width="1.15" d="M300.84,-862.16C351.9,-849.13 431.95,-826.21 497.34,-796.3 519.66,-786.09 520.88,-774.52 544.34,-767.3 574.98,-757.88 658.1,-756.38 714.92,-756.55"/>
<polygon fill="#d0433f" stroke="#d0433f" stroke-width="1.15" points="714.7,-759 721.71,-756.58 714.72,-754.1 714.7,-759"/>
</g>
<!-- TE_1 -->
<g id="node10" class="node">
<title>TE_1</title>
<path fill="#e7ddf5" stroke="#7a52b3" stroke-width="1.3" d="M648.05,-811.3C648.05,-811.3 572.22,-811.3 572.22,-811.3 566.22,-811.3 560.22,-805.3 560.22,-799.3 560.22,-799.3 560.22,-787.3 560.22,-787.3 560.22,-781.3 566.22,-775.3 572.22,-775.3 572.22,-775.3 648.05,-775.3 648.05,-775.3 654.05,-775.3 660.05,-781.3 660.05,-787.3 660.05,-787.3 660.05,-799.3 660.05,-799.3 660.05,-805.3 654.05,-811.3 648.05,-811.3"/>
<text xml:space="preserve" text-anchor="middle" x="610.13" y="-794.85" font-family="Helvetica,sans-Serif" font-size="11.00">TE</text>
<text xml:space="preserve" text-anchor="middle" x="610.13" y="-782.85" font-family="Helvetica,sans-Serif" font-size="11.00">taught expressive</text>
</g>
<!-- SP_1&#45;&gt;TE_1 -->
<g id="edge27" class="edge">
<title>SP_1&#45;&gt;TE_1</title>
<path fill="none" stroke="#d0433f" stroke-width="1.15" d="M300.79,-862.78C367.01,-847.86 482.13,-821.92 551.42,-806.31"/>
<polygon fill="#d0433f" stroke="#d0433f" stroke-width="1.15" points="551.65,-808.77 557.94,-804.84 550.57,-803.99 551.65,-808.77"/>
</g>
<!-- LS_1 -->
<g id="node11" class="node">
<title>LS_1</title>
<path fill="#fdecd2" stroke="#c2872a" stroke-width="1.3" d="M798.39,-953.3C798.39,-953.3 747.31,-953.3 747.31,-953.3 741.31,-953.3 735.31,-947.3 735.31,-941.3 735.31,-941.3 735.31,-929.3 735.31,-929.3 735.31,-923.3 741.31,-917.3 747.31,-917.3 747.31,-917.3 798.39,-917.3 798.39,-917.3 804.39,-917.3 810.39,-923.3 810.39,-929.3 810.39,-929.3 810.39,-941.3 810.39,-941.3 810.39,-947.3 804.39,-953.3 798.39,-953.3"/>
<text xml:space="preserve" text-anchor="middle" x="772.85" y="-936.85" font-family="Helvetica,sans-Serif" font-size="11.00">LS</text>
<text xml:space="preserve" text-anchor="middle" x="772.85" y="-924.85" font-family="Helvetica,sans-Serif" font-size="11.00">letter–sound</text>
</g>
<!-- SP_1&#45;&gt;LS_1 -->
<g id="edge29" class="edge">
<title>SP_1&#45;&gt;LS_1</title>
<path fill="none" stroke="#d0433f" stroke-width="1.15" d="M300.69,-880.26C402.45,-892.15 629.2,-918.64 726.3,-929.98"/>
<polygon fill="#d0433f" stroke="#d0433f" stroke-width="1.15" points="725.76,-932.39 733,-930.76 726.33,-927.52 725.76,-932.39"/>
</g>
<!-- PA_1 -->
<g id="node12" class="node">
<title>PA_1</title>
<path fill="#fdecd2" stroke="#c2872a" stroke-width="1.3" d="M973.11,-899.62C973.11,-899.62 900.27,-899.62 900.27,-899.62 894.27,-899.62 888.27,-893.62 888.27,-887.62 888.27,-887.62 888.27,-866.98 888.27,-866.98 888.27,-860.98 894.27,-854.98 900.27,-854.98 900.27,-854.98 973.11,-854.98 973.11,-854.98 979.11,-854.98 985.11,-860.98 985.11,-866.98 985.11,-866.98 985.11,-887.62 985.11,-887.62 985.11,-893.62 979.11,-899.62 973.11,-899.62"/>
<text xml:space="preserve" text-anchor="middle" x="936.69" y="-884.85" font-family="Helvetica,sans-Serif" font-size="11.00">PA</text>
<text xml:space="preserve" text-anchor="middle" x="936.69" y="-872.85" font-family="Helvetica,sans-Serif" font-size="11.00">phoneme aware.</text>
<text xml:space="preserve" text-anchor="middle" x="936.69" y="-860.85" font-family="Helvetica,sans-Serif" font-size="11.00">(blending)</text>
</g>
<!-- SP_1&#45;&gt;PA_1 -->
<g id="edge30" class="edge">
<title>SP_1&#45;&gt;PA_1</title>
<path fill="none" stroke="#d0433f" stroke-width="1.15" d="M301.07,-877.77C401.41,-884.03 630.38,-895.81 822.77,-887.3 841.1,-886.49 861.06,-884.95 879.03,-883.31"/>
<polygon fill="#d0433f" stroke="#d0433f" stroke-width="1.15" points="879.2,-885.75 885.94,-882.66 878.74,-880.87 879.2,-885.75"/>
</g>
<!-- NW_1 -->
<g id="node13" class="node">
<title>NW_1</title>
<path fill="#fdecd2" stroke="#c2872a" stroke-width="1.3" d="M1143.7,-987.3C1143.7,-987.3 1070.86,-987.3 1070.86,-987.3 1064.86,-987.3 1058.86,-981.3 1058.86,-975.3 1058.86,-975.3 1058.86,-963.3 1058.86,-963.3 1058.86,-957.3 1064.86,-951.3 1070.86,-951.3 1070.86,-951.3 1143.7,-951.3 1143.7,-951.3 1149.7,-951.3 1155.7,-957.3 1155.7,-963.3 1155.7,-963.3 1155.7,-975.3 1155.7,-975.3 1155.7,-981.3 1149.7,-987.3 1143.7,-987.3"/>
<text xml:space="preserve" text-anchor="middle" x="1107.28" y="-970.85" font-family="Helvetica,sans-Serif" font-size="11.00">NW</text>
<text xml:space="preserve" text-anchor="middle" x="1107.28" y="-958.85" font-family="Helvetica,sans-Serif" font-size="11.00">nonword reading</text>
</g>
<!-- SP_1&#45;&gt;NW_1 -->
<g id="edge31" class="edge">
<title>SP_1&#45;&gt;NW_1</title>
<path fill="none" stroke="#d0433f" stroke-width="1.15" d="M290.03,-892.94C345.79,-917.55 450.19,-959.62 544.34,-975.3 727.16,-1005.76 948.08,-987.71 1049.89,-976.38"/>
<polygon fill="#d0433f" stroke="#d0433f" stroke-width="1.15" points="1050.07,-978.82 1056.75,-975.6 1049.52,-973.95 1050.07,-978.82"/>
</g>
<!-- SP_2 -->
<g id="node16" class="node">
<title>SP_2</title>
<path fill="#fbe1e0" stroke="#d0433f" stroke-width="1.3" d="M649.93,-357.3C649.93,-357.3 570.34,-357.3 570.34,-357.3 564.34,-357.3 558.34,-351.3 558.34,-345.3 558.34,-345.3 558.34,-333.3 558.34,-333.3 558.34,-327.3 564.34,-321.3 570.34,-321.3 570.34,-321.3 649.93,-321.3 649.93,-321.3 655.93,-321.3 661.93,-327.3 661.93,-333.3 661.93,-333.3 661.93,-345.3 661.93,-345.3 661.93,-351.3 655.93,-357.3 649.93,-357.3"/>
<text xml:space="preserve" text-anchor="middle" x="610.13" y="-340.85" font-family="Helvetica,sans-Serif" font-size="11.00">SP</text>
<text xml:space="preserve" text-anchor="middle" x="610.13" y="-328.85" font-family="Helvetica,sans-Serif" font-size="11.00">speech production</text>
</g>
<!-- SP_1&#45;&gt;SP_2 -->
<g id="edge81" class="edge">
<title>SP_1&#45;&gt;SP_2</title>
<path fill="none" stroke="#aeb4bd" stroke-width="1.1" d="M301.08,-872.73C357.58,-868.12 446.99,-851.81 497.34,-796.3 565.39,-721.28 520.37,-671.71 544.34,-573.3 562.77,-497.63 588.35,-409.29 601.16,-365.99"/>
<polygon fill="#aeb4bd" stroke="#aeb4bd" stroke-width="1.1" points="603.5,-366.71 603.14,-359.3 598.8,-365.32 603.5,-366.71"/>
</g>
<!-- RW_1 -->
<g id="node2" class="node">
<title>RW_1</title>
<path fill="#d6ebe4" stroke="#2f9e78" stroke-width="1.3" d="M282.84,-788.62C282.84,-788.62 214.5,-788.62 214.5,-788.62 208.5,-788.62 202.5,-782.62 202.5,-776.62 202.5,-776.62 202.5,-755.98 202.5,-755.98 202.5,-749.98 208.5,-743.98 214.5,-743.98 214.5,-743.98 282.84,-743.98 282.84,-743.98 288.84,-743.98 294.84,-749.98 294.84,-755.98 294.84,-755.98 294.84,-776.62 294.84,-776.62 294.84,-782.62 288.84,-788.62 282.84,-788.62"/>
<text xml:space="preserve" text-anchor="middle" x="248.67" y="-773.85" font-family="Helvetica,sans-Serif" font-size="11.00">RW</text>
<text xml:space="preserve" text-anchor="middle" x="248.67" y="-761.85" font-family="Helvetica,sans-Serif" font-size="11.00">word repetition</text>
<text xml:space="preserve" text-anchor="middle" x="248.67" y="-749.85" font-family="Helvetica,sans-Serif" font-size="11.00">(phon. memory)</text>
</g>
<!-- RV_1 -->
<g id="node3" class="node">
<title>RV_1</title>
<path fill="#d6ebe4" stroke="#2f9e78" stroke-width="1.3" d="M806.27,-687.3C806.27,-687.3 739.43,-687.3 739.43,-687.3 733.43,-687.3 727.43,-681.3 727.43,-675.3 727.43,-675.3 727.43,-663.3 727.43,-663.3 727.43,-657.3 733.43,-651.3 739.43,-651.3 739.43,-651.3 806.27,-651.3 806.27,-651.3 812.27,-651.3 818.27,-657.3 818.27,-663.3 818.27,-663.3 818.27,-675.3 818.27,-675.3 818.27,-681.3 812.27,-687.3 806.27,-687.3"/>
<text xml:space="preserve" text-anchor="middle" x="772.85" y="-670.85" font-family="Helvetica,sans-Serif" font-size="11.00">RV</text>
<text xml:space="preserve" text-anchor="middle" x="772.85" y="-658.85" font-family="Helvetica,sans-Serif" font-size="11.00">receptive vocab</text>
</g>
<!-- RW_1&#45;&gt;RV_1 -->
<g id="edge15" class="edge">
<title>RW_1&#45;&gt;RV_1</title>
<path fill="none" stroke="#2f9e78" stroke-width="1.15" d="M295.3,-749.05C352.53,-728.3 454.11,-694.37 544.34,-679.3 603.32,-669.45 672.03,-667.75 718.38,-668.01"/>
<polygon fill="#2f9e78" stroke="#2f9e78" stroke-width="1.15" points="718.29,-670.46 725.31,-668.07 718.33,-665.56 718.29,-670.46"/>
</g>
<!-- RW_1&#45;&gt;EV_1 -->
<g id="edge13" class="edge">
<title>RW_1&#45;&gt;EV_1</title>
<path fill="none" stroke="#2f9e78" stroke-width="1.15" d="M295.33,-763.66C353.24,-760.46 456.16,-755.25 544.34,-753.3 596.59,-752.15 609.68,-752.35 661.93,-753.3 679,-753.61 697.56,-754.2 714.48,-754.82"/>
<polygon fill="#2f9e78" stroke="#2f9e78" stroke-width="1.15" points="714.33,-757.27 721.42,-755.08 714.52,-752.37 714.33,-757.27"/>
</g>
<!-- TR_1 -->
<g id="node9" class="node">
<title>TR_1</title>
<path fill="#e7ddf5" stroke="#7a52b3" stroke-width="1.3" d="M644.3,-723.3C644.3,-723.3 575.97,-723.3 575.97,-723.3 569.97,-723.3 563.97,-717.3 563.97,-711.3 563.97,-711.3 563.97,-699.3 563.97,-699.3 563.97,-693.3 569.97,-687.3 575.97,-687.3 575.97,-687.3 644.3,-687.3 644.3,-687.3 650.3,-687.3 656.3,-693.3 656.3,-699.3 656.3,-699.3 656.3,-711.3 656.3,-711.3 656.3,-717.3 650.3,-723.3 644.3,-723.3"/>
<text xml:space="preserve" text-anchor="middle" x="610.13" y="-706.85" font-family="Helvetica,sans-Serif" font-size="11.00">TR</text>
<text xml:space="preserve" text-anchor="middle" x="610.13" y="-694.85" font-family="Helvetica,sans-Serif" font-size="11.00">taught receptive</text>
</g>
<!-- RW_1&#45;&gt;TR_1 -->
<g id="edge14" class="edge">
<title>RW_1&#45;&gt;TR_1</title>
<path fill="none" stroke="#2f9e78" stroke-width="1.15" d="M295.2,-758.58C361.46,-747.33 484.26,-726.49 555.04,-714.48"/>
<polygon fill="#2f9e78" stroke="#2f9e78" stroke-width="1.15" points="555.2,-716.94 561.7,-713.35 554.38,-712.11 555.2,-716.94"/>
</g>
<!-- RW_1&#45;&gt;TE_1 -->
<g id="edge12" class="edge">
<title>RW_1&#45;&gt;TE_1</title>
<path fill="none" stroke="#2f9e78" stroke-width="1.15" d="M295.2,-769.72C360.28,-774.61 479.91,-783.6 551.21,-788.95"/>
<polygon fill="#2f9e78" stroke="#2f9e78" stroke-width="1.15" points="550.76,-791.38 557.93,-789.46 551.13,-786.49 550.76,-791.38"/>
</g>
<!-- RW_1&#45;&gt;PA_1 -->
<g id="edge16" class="edge">
<title>RW_1&#45;&gt;PA_1</title>
<path fill="none" stroke="#2f9e78" stroke-width="1.15" d="M295.29,-778.34C352.93,-793.17 455.37,-818.24 544.34,-833.3 662.8,-853.37 803.03,-866.62 879.33,-872.96"/>
<polygon fill="#2f9e78" stroke="#2f9e78" stroke-width="1.15" points="878.95,-875.38 886.12,-873.51 879.35,-870.5 878.95,-875.38"/>
</g>
<!-- RW_1&#45;&gt;NW_1 -->
<g id="edge17" class="edge">
<title>RW_1&#45;&gt;NW_1</title>
<path fill="none" stroke="#2f9e78" stroke-width="1.15" d="M295.13,-779.2C345.35,-793.94 428.28,-819.75 497.34,-848.3 600.97,-891.15 614.08,-934.36 722.93,-961.3 783.1,-976.2 958.62,-973.65 1049.8,-971.16"/>
<polygon fill="#2f9e78" stroke="#2f9e78" stroke-width="1.15" points="1049.69,-973.62 1056.62,-970.97 1049.55,-968.72 1049.69,-973.62"/>
</g>
<!-- PS_1 -->
<g id="node14" class="node">
<title>PS_1</title>
<path fill="#fdecd2" stroke="#c2872a" stroke-width="2.2" d="M1142.95,-857.3C1142.95,-857.3 1071.61,-857.3 1071.61,-857.3 1065.61,-857.3 1059.61,-851.3 1059.61,-845.3 1059.61,-845.3 1059.61,-833.3 1059.61,-833.3 1059.61,-827.3 1065.61,-821.3 1071.61,-821.3 1071.61,-821.3 1142.95,-821.3 1142.95,-821.3 1148.95,-821.3 1154.95,-827.3 1154.95,-833.3 1154.95,-833.3 1154.95,-845.3 1154.95,-845.3 1154.95,-851.3 1148.95,-857.3 1142.95,-857.3"/>
<text xml:space="preserve" text-anchor="middle" x="1107.28" y="-840.85" font-family="Helvetica,sans-Serif" font-size="11.00">PS</text>
<text xml:space="preserve" text-anchor="middle" x="1107.28" y="-828.85" font-family="Helvetica,sans-Serif" font-size="11.00">phonetic spelling</text>
</g>
<!-- RW_1&#45;&gt;PS_1 -->
<g id="edge18" class="edge">
<title>RW_1&#45;&gt;PS_1</title>
<path fill="none" stroke="#2f9e78" stroke-width="1.15" d="M295.31,-776.6C352.98,-789.13 455.45,-809.78 544.34,-819.3 728.73,-839.07 948.89,-840.51 1050.2,-839.94"/>
<polygon fill="#2f9e78" stroke="#2f9e78" stroke-width="1.15" points="1050.03,-842.39 1057.01,-839.9 1050,-837.49 1050.03,-842.39"/>
</g>
<!-- RW_2 -->
<g id="node17" class="node">
<title>RW_2</title>
<path fill="#d6ebe4" stroke="#2f9e78" stroke-width="1.3" d="M644.3,-305.62C644.3,-305.62 575.97,-305.62 575.97,-305.62 569.97,-305.62 563.97,-299.62 563.97,-293.62 563.97,-293.62 563.97,-272.98 563.97,-272.98 563.97,-266.98 569.97,-260.98 575.97,-260.98 575.97,-260.98 644.3,-260.98 644.3,-260.98 650.3,-260.98 656.3,-266.98 656.3,-272.98 656.3,-272.98 656.3,-293.62 656.3,-293.62 656.3,-299.62 650.3,-305.62 644.3,-305.62"/>
<text xml:space="preserve" text-anchor="middle" x="610.13" y="-290.85" font-family="Helvetica,sans-Serif" font-size="11.00">RW</text>
<text xml:space="preserve" text-anchor="middle" x="610.13" y="-278.85" font-family="Helvetica,sans-Serif" font-size="11.00">word repetition</text>
<text xml:space="preserve" text-anchor="middle" x="610.13" y="-266.85" font-family="Helvetica,sans-Serif" font-size="11.00">(phon. memory)</text>
</g>
<!-- RW_1&#45;&gt;RW_2 -->
<g id="edge82" class="edge">
<title>RW_1&#45;&gt;RW_2</title>
<path fill="none" stroke="#aeb4bd" stroke-width="1.1" d="M258.93,-743.58C289.36,-671.39 393.12,-444.3 544.34,-313.3 548,-310.13 552.06,-307.23 556.3,-304.59"/>
<polygon fill="#aeb4bd" stroke="#aeb4bd" stroke-width="1.1" points="557.29,-306.84 562.13,-301.22 554.84,-302.6 557.29,-306.84"/>
</g>
<!-- RV_1&#45;&gt;EV_1 -->
<g id="edge19" class="edge">
<title>RV_1&#45;&gt;EV_1</title>
<path fill="none" stroke="#2f9e78" stroke-width="1.15" d="M772.85,-687.87C772.85,-702.07 772.85,-716.28 772.85,-730.49"/>
<polygon fill="#2f9e78" stroke="#2f9e78" stroke-width="1.15" points="770.4,-730.12 772.85,-737.12 775.3,-730.12 770.4,-730.12"/>
</g>
<!-- LF_1 -->
<g id="node5" class="node">
<title>LF_1</title>
<path fill="#eceef1" stroke="#9aa0a8" stroke-width="1.3" d="M968.24,-627.3C968.24,-627.3 905.15,-627.3 905.15,-627.3 899.15,-627.3 893.15,-621.3 893.15,-615.3 893.15,-615.3 893.15,-603.3 893.15,-603.3 893.15,-597.3 899.15,-591.3 905.15,-591.3 905.15,-591.3 968.24,-591.3 968.24,-591.3 974.24,-591.3 980.24,-597.3 980.24,-603.3 980.24,-603.3 980.24,-615.3 980.24,-615.3 980.24,-621.3 974.24,-627.3 968.24,-627.3"/>
<text xml:space="preserve" text-anchor="middle" x="936.69" y="-610.85" font-family="Helvetica,sans-Serif" font-size="11.00">LF</text>
<text xml:space="preserve" text-anchor="middle" x="936.69" y="-598.85" font-family="Helvetica,sans-Serif" font-size="11.00">language fund.</text>
</g>
<!-- RV_1&#45;&gt;LF_1 -->
<g id="edge20" class="edge">
<title>RV_1&#45;&gt;LF_1</title>
<path fill="none" stroke="#2f9e78" stroke-width="1.15" d="M818.5,-652.75C838.99,-645.15 863.4,-636.1 884.62,-628.24"/>
<polygon fill="#2f9e78" stroke="#2f9e78" stroke-width="1.15" points="885.24,-630.62 890.95,-625.89 883.53,-626.03 885.24,-630.62"/>
</g>
<!-- RG_1 -->
<g id="node6" class="node">
<title>RG_1</title>
<path fill="#eceef1" stroke="#9aa0a8" stroke-width="1.3" d="M977.61,-697.3C977.61,-697.3 895.77,-697.3 895.77,-697.3 889.77,-697.3 883.77,-691.3 883.77,-685.3 883.77,-685.3 883.77,-673.3 883.77,-673.3 883.77,-667.3 889.77,-661.3 895.77,-661.3 895.77,-661.3 977.61,-661.3 977.61,-661.3 983.61,-661.3 989.61,-667.3 989.61,-673.3 989.61,-673.3 989.61,-685.3 989.61,-685.3 989.61,-691.3 983.61,-697.3 977.61,-697.3"/>
<text xml:space="preserve" text-anchor="middle" x="936.69" y="-680.85" font-family="Helvetica,sans-Serif" font-size="11.00">RG</text>
<text xml:space="preserve" text-anchor="middle" x="936.69" y="-668.85" font-family="Helvetica,sans-Serif" font-size="11.00">receptive grammar</text>
</g>
<!-- RV_1&#45;&gt;RG_1 -->
<g id="edge21" class="edge">
<title>RV_1&#45;&gt;RG_1</title>
<path fill="none" stroke="#2f9e78" stroke-width="1.15" d="M818.5,-672.06C835.79,-673.13 855.86,-674.37 874.45,-675.52"/>
<polygon fill="#2f9e78" stroke="#2f9e78" stroke-width="1.15" points="874.28,-677.96 881.42,-675.95 874.58,-673.07 874.28,-677.96"/>
</g>
<!-- WR_1 -->
<g id="node15" class="node">
<title>WR_1</title>
<path fill="#cfe0f7" stroke="#2f6fdb" stroke-width="2.6" d="M1322.54,-856.3C1322.54,-856.3 1240.7,-856.3 1240.7,-856.3 1234.7,-856.3 1228.7,-850.3 1228.7,-844.3 1228.7,-844.3 1228.7,-832.3 1228.7,-832.3 1228.7,-826.3 1234.7,-820.3 1240.7,-820.3 1240.7,-820.3 1322.54,-820.3 1322.54,-820.3 1328.54,-820.3 1334.54,-826.3 1334.54,-832.3 1334.54,-832.3 1334.54,-844.3 1334.54,-844.3 1334.54,-850.3 1328.54,-856.3 1322.54,-856.3"/>
<text xml:space="preserve" text-anchor="middle" x="1281.62" y="-839.85" font-family="Helvetica,sans-Serif" font-weight="bold" font-size="11.00">WR</text>
<text xml:space="preserve" text-anchor="middle" x="1281.62" y="-827.85" font-family="Helvetica,sans-Serif" font-weight="bold" font-size="11.00">WORD READING</text>
</g>
<!-- RV_1&#45;&gt;WR_1 -->
<g id="edge22" class="edge">
<title>RV_1&#45;&gt;WR_1</title>
<path fill="none" stroke="#2f9e78" stroke-width="1.15" d="M818.88,-661.25C838.71,-658.09 862.32,-654.86 883.77,-653.3 1008.03,-644.31 1055.74,-600.56 1163.95,-662.3 1221.92,-695.38 1256.44,-770.42 1271.55,-811.01"/>
<polygon fill="#2f9e78" stroke="#2f9e78" stroke-width="1.15" points="1269.21,-811.73 1273.89,-817.48 1273.81,-810.07 1269.21,-811.73"/>
</g>
<!-- RV_2 -->
<g id="node18" class="node">
<title>RV_2</title>
<path fill="#d6ebe4" stroke="#2f9e78" stroke-width="1.3" d="M970.11,-444.3C970.11,-444.3 903.27,-444.3 903.27,-444.3 897.27,-444.3 891.27,-438.3 891.27,-432.3 891.27,-432.3 891.27,-420.3 891.27,-420.3 891.27,-414.3 897.27,-408.3 903.27,-408.3 903.27,-408.3 970.11,-408.3 970.11,-408.3 976.11,-408.3 982.11,-414.3 982.11,-420.3 982.11,-420.3 982.11,-432.3 982.11,-432.3 982.11,-438.3 976.11,-444.3 970.11,-444.3"/>
<text xml:space="preserve" text-anchor="middle" x="936.69" y="-427.85" font-family="Helvetica,sans-Serif" font-size="11.00">RV</text>
<text xml:space="preserve" text-anchor="middle" x="936.69" y="-415.85" font-family="Helvetica,sans-Serif" font-size="11.00">receptive vocab</text>
</g>
<!-- RV_1&#45;&gt;RV_2 -->
<g id="edge83" class="edge">
<title>RV_1&#45;&gt;RV_2</title>
<path fill="none" stroke="#aeb4bd" stroke-width="1.1" d="M783.24,-650.85C808.52,-601.23 876.6,-468.19 883.77,-460.3 887.11,-456.63 890.94,-453.17 894.96,-449.97"/>
<polygon fill="#aeb4bd" stroke="#aeb4bd" stroke-width="1.1" points="896.37,-451.98 900.53,-445.84 893.45,-448.04 896.37,-451.98"/>
</g>
<!-- EI_1 -->
<g id="node7" class="node">
<title>EI_1</title>
<path fill="#eceef1" stroke="#9aa0a8" stroke-width="1.3" d="M968.24,-785.3C968.24,-785.3 905.15,-785.3 905.15,-785.3 899.15,-785.3 893.15,-779.3 893.15,-773.3 893.15,-773.3 893.15,-761.3 893.15,-761.3 893.15,-755.3 899.15,-749.3 905.15,-749.3 905.15,-749.3 968.24,-749.3 968.24,-749.3 974.24,-749.3 980.24,-755.3 980.24,-761.3 980.24,-761.3 980.24,-773.3 980.24,-773.3 980.24,-779.3 974.24,-785.3 968.24,-785.3"/>
<text xml:space="preserve" text-anchor="middle" x="936.69" y="-768.85" font-family="Helvetica,sans-Serif" font-size="11.00">EI</text>
<text xml:space="preserve" text-anchor="middle" x="936.69" y="-756.85" font-family="Helvetica,sans-Serif" font-size="11.00">expressive info</text>
</g>
<!-- EV_1&#45;&gt;EI_1 -->
<g id="edge24" class="edge">
<title>EV_1&#45;&gt;EI_1</title>
<path fill="none" stroke="#2f9e78" stroke-width="1.15" d="M822.41,-760.3C841.87,-761.51 864.33,-762.89 884.09,-764.11"/>
<polygon fill="#2f9e78" stroke="#2f9e78" stroke-width="1.15" points="883.79,-766.55 890.93,-764.54 884.09,-761.66 883.79,-766.55"/>
</g>
<!-- EG_1 -->
<g id="node8" class="node">
<title>EG_1</title>
<path fill="#eceef1" stroke="#9aa0a8" stroke-width="1.3" d="M1151.95,-706.3C1151.95,-706.3 1062.61,-706.3 1062.61,-706.3 1056.61,-706.3 1050.61,-700.3 1050.61,-694.3 1050.61,-694.3 1050.61,-682.3 1050.61,-682.3 1050.61,-676.3 1056.61,-670.3 1062.61,-670.3 1062.61,-670.3 1151.95,-670.3 1151.95,-670.3 1157.95,-670.3 1163.95,-676.3 1163.95,-682.3 1163.95,-682.3 1163.95,-694.3 1163.95,-694.3 1163.95,-700.3 1157.95,-706.3 1151.95,-706.3"/>
<text xml:space="preserve" text-anchor="middle" x="1107.28" y="-689.85" font-family="Helvetica,sans-Serif" font-size="11.00">EG</text>
<text xml:space="preserve" text-anchor="middle" x="1107.28" y="-677.85" font-family="Helvetica,sans-Serif" font-size="11.00">expressive grammar</text>
</g>
<!-- EV_1&#45;&gt;EG_1 -->
<g id="edge23" class="edge">
<title>EV_1&#45;&gt;EG_1</title>
<path fill="none" stroke="#2f9e78" stroke-width="1.15" d="M822.54,-747.2C880.54,-735.16 977.6,-715.01 1041.79,-701.69"/>
<polygon fill="#2f9e78" stroke="#2f9e78" stroke-width="1.15" points="1042.17,-704.11 1048.52,-700.29 1041.17,-699.32 1042.17,-704.11"/>
</g>
<!-- EV_1&#45;&gt;PA_1 -->
<g id="edge25" class="edge">
<title>EV_1&#45;&gt;PA_1</title>
<path fill="none" stroke="#2f9e78" stroke-width="1.15" d="M798.78,-775.79C825.33,-795.47 867.63,-826.84 898.2,-849.5"/>
<polygon fill="#2f9e78" stroke="#2f9e78" stroke-width="1.15" points="896.44,-851.25 903.52,-853.45 899.36,-847.31 896.44,-851.25"/>
</g>
<!-- EV_1&#45;&gt;WR_1 -->
<g id="edge26" class="edge">
<title>EV_1&#45;&gt;WR_1</title>
<path fill="none" stroke="#2f9e78" stroke-width="1.15" d="M821.87,-775.86C840.87,-782.45 863.08,-789.24 883.77,-793.3 1006.27,-817.36 1040.35,-795.74 1163.95,-813.3 1181.93,-815.86 1201.27,-819.59 1218.94,-823.4"/>
<polygon fill="#2f9e78" stroke="#2f9e78" stroke-width="1.15" points="1218.4,-825.79 1225.77,-824.9 1219.45,-821.01 1218.4,-825.79"/>
</g>
<!-- EV_2 -->
<g id="node19" class="node">
<title>EV_2</title>
<path fill="#d6ebe4" stroke="#2f9e78" stroke-width="1.3" d="M973.86,-338.3C973.86,-338.3 899.52,-338.3 899.52,-338.3 893.52,-338.3 887.52,-332.3 887.52,-326.3 887.52,-326.3 887.52,-314.3 887.52,-314.3 887.52,-308.3 893.52,-302.3 899.52,-302.3 899.52,-302.3 973.86,-302.3 973.86,-302.3 979.86,-302.3 985.86,-308.3 985.86,-314.3 985.86,-314.3 985.86,-326.3 985.86,-326.3 985.86,-332.3 979.86,-338.3 973.86,-338.3"/>
<text xml:space="preserve" text-anchor="middle" x="936.69" y="-321.85" font-family="Helvetica,sans-Serif" font-size="11.00">EV</text>
<text xml:space="preserve" text-anchor="middle" x="936.69" y="-309.85" font-family="Helvetica,sans-Serif" font-size="11.00">expressive vocab</text>
</g>
<!-- EV_1&#45;&gt;EV_2 -->
<g id="edge84" class="edge">
<title>EV_1&#45;&gt;EV_2</title>
<path fill="none" stroke="#aeb4bd" stroke-width="1.1" d="M792.27,-738.77C802.75,-727.2 815.24,-711.46 822.77,-695.3 879.31,-573.94 832.89,-524.15 883.77,-400.3 891.85,-380.65 904.87,-360.59 915.86,-345.48"/>
<polygon fill="#aeb4bd" stroke="#aeb4bd" stroke-width="1.1" points="917.54,-347.32 919.74,-340.24 913.61,-344.4 917.54,-347.32"/>
</g>
<!-- LF_2 -->
<g id="node20" class="node">
<title>LF_2</title>
<path fill="#eceef1" stroke="#9aa0a8" stroke-width="1.3" d="M1138.83,-408.3C1138.83,-408.3 1075.74,-408.3 1075.74,-408.3 1069.74,-408.3 1063.74,-402.3 1063.74,-396.3 1063.74,-396.3 1063.74,-384.3 1063.74,-384.3 1063.74,-378.3 1069.74,-372.3 1075.74,-372.3 1075.74,-372.3 1138.83,-372.3 1138.83,-372.3 1144.83,-372.3 1150.83,-378.3 1150.83,-384.3 1150.83,-384.3 1150.83,-396.3 1150.83,-396.3 1150.83,-402.3 1144.83,-408.3 1138.83,-408.3"/>
<text xml:space="preserve" text-anchor="middle" x="1107.28" y="-391.85" font-family="Helvetica,sans-Serif" font-size="11.00">LF</text>
<text xml:space="preserve" text-anchor="middle" x="1107.28" y="-379.85" font-family="Helvetica,sans-Serif" font-size="11.00">language fund.</text>
</g>
<!-- LF_1&#45;&gt;LF_2 -->
<g id="edge85" class="edge">
<title>LF_1&#45;&gt;LF_2</title>
<path fill="none" stroke="#aeb4bd" stroke-width="1.1" d="M970.47,-590.68C977.4,-585.68 984.24,-579.82 989.61,-573.3 1032.5,-521.23 1009.37,-487.69 1050.61,-434.3 1056.32,-426.91 1063.53,-420.04 1070.85,-414.03"/>
<polygon fill="#aeb4bd" stroke="#aeb4bd" stroke-width="1.1" points="1072.26,-416.04 1076.25,-409.79 1069.23,-412.18 1072.26,-416.04"/>
</g>
<!-- RG_1&#45;&gt;EG_1 -->
<g id="edge40" class="edge">
<title>RG_1&#45;&gt;EG_1</title>
<path fill="none" stroke="#9aa0a8" stroke-width="1.15" d="M990.11,-682.1C1006.47,-682.98 1024.72,-683.95 1041.81,-684.86"/>
<polygon fill="#9aa0a8" stroke="#9aa0a8" stroke-width="1.15" points="1041.23,-687.28 1048.35,-685.21 1041.5,-682.39 1041.23,-687.28"/>
</g>
<!-- RG_2 -->
<g id="node21" class="node">
<title>RG_2</title>
<path fill="#eceef1" stroke="#9aa0a8" stroke-width="1.3" d="M1148.2,-478.3C1148.2,-478.3 1066.36,-478.3 1066.36,-478.3 1060.36,-478.3 1054.36,-472.3 1054.36,-466.3 1054.36,-466.3 1054.36,-454.3 1054.36,-454.3 1054.36,-448.3 1060.36,-442.3 1066.36,-442.3 1066.36,-442.3 1148.2,-442.3 1148.2,-442.3 1154.2,-442.3 1160.2,-448.3 1160.2,-454.3 1160.2,-454.3 1160.2,-466.3 1160.2,-466.3 1160.2,-472.3 1154.2,-478.3 1148.2,-478.3"/>
<text xml:space="preserve" text-anchor="middle" x="1107.28" y="-461.85" font-family="Helvetica,sans-Serif" font-size="11.00">RG</text>
<text xml:space="preserve" text-anchor="middle" x="1107.28" y="-449.85" font-family="Helvetica,sans-Serif" font-size="11.00">receptive grammar</text>
</g>
<!-- RG_1&#45;&gt;RG_2 -->
<g id="edge86" class="edge">
<title>RG_1&#45;&gt;RG_2</title>
<path fill="none" stroke="#aeb4bd" stroke-width="1.1" d="M962.48,-660.68C971.53,-653.29 981.51,-644.39 989.61,-635.3 1032.7,-586.95 1072.09,-521.58 1092.22,-486"/>
<polygon fill="#aeb4bd" stroke="#aeb4bd" stroke-width="1.1" points="1094.12,-487.63 1095.4,-480.32 1089.84,-485.23 1094.12,-487.63"/>
</g>
<!-- EI_2 -->
<g id="node22" class="node">
<title>EI_2</title>
<path fill="#eceef1" stroke="#9aa0a8" stroke-width="1.3" d="M1138.83,-320.3C1138.83,-320.3 1075.74,-320.3 1075.74,-320.3 1069.74,-320.3 1063.74,-314.3 1063.74,-308.3 1063.74,-308.3 1063.74,-296.3 1063.74,-296.3 1063.74,-290.3 1069.74,-284.3 1075.74,-284.3 1075.74,-284.3 1138.83,-284.3 1138.83,-284.3 1144.83,-284.3 1150.83,-290.3 1150.83,-296.3 1150.83,-296.3 1150.83,-308.3 1150.83,-308.3 1150.83,-314.3 1144.83,-320.3 1138.83,-320.3"/>
<text xml:space="preserve" text-anchor="middle" x="1107.28" y="-303.85" font-family="Helvetica,sans-Serif" font-size="11.00">EI</text>
<text xml:space="preserve" text-anchor="middle" x="1107.28" y="-291.85" font-family="Helvetica,sans-Serif" font-size="11.00">expressive info</text>
</g>
<!-- EI_1&#45;&gt;EI_2 -->
<g id="edge87" class="edge">
<title>EI_1&#45;&gt;EI_2</title>
<path fill="none" stroke="#aeb4bd" stroke-width="1.1" d="M957.69,-748.78C968.82,-737.33 981.94,-721.71 989.61,-705.3 1054.78,-565.82 983.04,-502.65 1050.61,-364.3 1057.4,-350.39 1068.24,-337.28 1078.56,-326.73"/>
<polygon fill="#aeb4bd" stroke="#aeb4bd" stroke-width="1.1" points="1080.1,-328.66 1083.36,-321.99 1076.65,-325.17 1080.1,-328.66"/>
</g>
<!-- EG_2 -->
<g id="node23" class="node">
<title>EG_2</title>
<path fill="#eceef1" stroke="#9aa0a8" stroke-width="1.3" d="M1326.29,-469.3C1326.29,-469.3 1236.95,-469.3 1236.95,-469.3 1230.95,-469.3 1224.95,-463.3 1224.95,-457.3 1224.95,-457.3 1224.95,-445.3 1224.95,-445.3 1224.95,-439.3 1230.95,-433.3 1236.95,-433.3 1236.95,-433.3 1326.29,-433.3 1326.29,-433.3 1332.29,-433.3 1338.29,-439.3 1338.29,-445.3 1338.29,-445.3 1338.29,-457.3 1338.29,-457.3 1338.29,-463.3 1332.29,-469.3 1326.29,-469.3"/>
<text xml:space="preserve" text-anchor="middle" x="1281.62" y="-452.85" font-family="Helvetica,sans-Serif" font-size="11.00">EG</text>
<text xml:space="preserve" text-anchor="middle" x="1281.62" y="-440.85" font-family="Helvetica,sans-Serif" font-size="11.00">expressive grammar</text>
</g>
<!-- EG_1&#45;&gt;EG_2 -->
<g id="edge88" class="edge">
<title>EG_1&#45;&gt;EG_2</title>
<path fill="none" stroke="#aeb4bd" stroke-width="1.1" d="M1121.8,-669.71C1152.45,-627.57 1227.21,-524.75 1262.11,-476.76"/>
<polygon fill="#aeb4bd" stroke="#aeb4bd" stroke-width="1.1" points="1264.05,-478.26 1266.18,-471.16 1260.08,-475.38 1264.05,-478.26"/>
</g>
<!-- TR_1&#45;&gt;RV_1 -->
<g id="edge2" class="edge">
<title>TR_1&#45;&gt;RV_1</title>
<path fill="none" stroke="#7a52b3" stroke-width="1.15" d="M656.76,-695.08C676,-690.77 698.54,-685.72 718.54,-681.24"/>
<polygon fill="#7a52b3" stroke="#7a52b3" stroke-width="1.15" points="718.95,-683.66 725.25,-679.74 717.88,-678.88 718.95,-683.66"/>
</g>
<!-- TR_1&#45;&gt;EV_1 -->
<g id="edge3" class="edge">
<title>TR_1&#45;&gt;EV_1</title>
<path fill="none" stroke="#7a52b3" stroke-width="1.15" d="M656.76,-720.07C674.95,-725.95 696.08,-732.79 715.23,-738.98"/>
<polygon fill="#7a52b3" stroke="#7a52b3" stroke-width="1.15" points="714.23,-741.24 721.65,-741.06 715.74,-736.57 714.23,-741.24"/>
</g>
<!-- TR_1&#45;&gt;LF_1 -->
<g id="edge4" class="edge">
<title>TR_1&#45;&gt;LF_1</title>
<path fill="none" stroke="#7a52b3" stroke-width="1.15" d="M638.35,-686.66C660.25,-672.56 692.3,-653.88 722.93,-643.3 776.13,-624.94 840.3,-616.41 884.16,-612.51"/>
<polygon fill="#7a52b3" stroke="#7a52b3" stroke-width="1.15" points="884.15,-614.97 890.91,-611.94 883.73,-610.09 884.15,-614.97"/>
</g>
<!-- TR_1&#45;&gt;RG_1 -->
<g id="edge5" class="edge">
<title>TR_1&#45;&gt;RG_1</title>
<path fill="none" stroke="#7a52b3" stroke-width="1.15" d="M656.63,-704.38C699.55,-703.22 765.64,-700.69 822.77,-695.3 839.64,-693.71 857.85,-691.4 874.62,-689.02"/>
<polygon fill="#7a52b3" stroke="#7a52b3" stroke-width="1.15" points="874.94,-691.45 881.52,-688.02 874.24,-686.6 874.94,-691.45"/>
</g>
<!-- TR_1&#45;&gt;TE_1 -->
<g id="edge1" class="edge">
<title>TR_1&#45;&gt;TE_1</title>
<path fill="none" stroke="#7a52b3" stroke-width="1.15" d="M610.13,-723.87C610.13,-738.07 610.13,-752.28 610.13,-766.49"/>
<polygon fill="#7a52b3" stroke="#7a52b3" stroke-width="1.15" points="607.69,-766.12 610.14,-773.12 612.59,-766.12 607.69,-766.12"/>
</g>
<!-- TR_1&#45;&gt;WR_1 -->
<g id="edge6" class="edge">
<title>TR_1&#45;&gt;WR_1</title>
<path fill="none" stroke="#7a52b3" stroke-width="1.15" d="M656.79,-706.31C728.42,-708.64 871.27,-716.29 989.61,-741.3 1074.08,-759.16 1168.28,-793.3 1226,-815.94"/>
<polygon fill="#7a52b3" stroke="#7a52b3" stroke-width="1.15" points="1224.87,-818.13 1232.28,-818.42 1226.67,-813.57 1224.87,-818.13"/>
</g>
<!-- TR_2 -->
<g id="node24" class="node">
<title>TR_2</title>
<path fill="#e7ddf5" stroke="#7a52b3" stroke-width="1.3" d="M807.02,-391.3C807.02,-391.3 738.68,-391.3 738.68,-391.3 732.68,-391.3 726.68,-385.3 726.68,-379.3 726.68,-379.3 726.68,-367.3 726.68,-367.3 726.68,-361.3 732.68,-355.3 738.68,-355.3 738.68,-355.3 807.02,-355.3 807.02,-355.3 813.02,-355.3 819.02,-361.3 819.02,-367.3 819.02,-367.3 819.02,-379.3 819.02,-379.3 819.02,-385.3 813.02,-391.3 807.02,-391.3"/>
<text xml:space="preserve" text-anchor="middle" x="772.85" y="-374.85" font-family="Helvetica,sans-Serif" font-size="11.00">TR</text>
<text xml:space="preserve" text-anchor="middle" x="772.85" y="-362.85" font-family="Helvetica,sans-Serif" font-size="11.00">taught receptive</text>
</g>
<!-- TR_1&#45;&gt;TR_2 -->
<g id="edge89" class="edge">
<title>TR_1&#45;&gt;TR_2</title>
<path fill="none" stroke="#aeb4bd" stroke-width="1.1" d="M620,-686.98C646.95,-631.32 727.92,-464.05 759.27,-399.3"/>
<polygon fill="#aeb4bd" stroke="#aeb4bd" stroke-width="1.1" points="761.44,-400.44 762.28,-393.07 757.03,-398.3 761.44,-400.44"/>
</g>
<!-- TE_1&#45;&gt;EV_1 -->
<g id="edge7" class="edge">
<title>TE_1&#45;&gt;EV_1</title>
<path fill="none" stroke="#7a52b3" stroke-width="1.15" d="M660.67,-782.21C677.71,-778.39 696.93,-774.09 714.54,-770.14"/>
<polygon fill="#7a52b3" stroke="#7a52b3" stroke-width="1.15" points="715.04,-772.54 721.34,-768.62 713.97,-767.76 715.04,-772.54"/>
</g>
<!-- TE_1&#45;&gt;EI_1 -->
<g id="edge9" class="edge">
<title>TE_1&#45;&gt;EI_1</title>
<path fill="none" stroke="#7a52b3" stroke-width="1.15" d="M660.4,-792.28C703.36,-791.08 767.29,-788.53 822.77,-783.3 842.86,-781.41 864.84,-778.49 884.03,-775.66"/>
<polygon fill="#7a52b3" stroke="#7a52b3" stroke-width="1.15" points="884.36,-778.09 890.92,-774.63 883.63,-773.24 884.36,-778.09"/>
</g>
<!-- TE_1&#45;&gt;EG_1 -->
<g id="edge8" class="edge">
<title>TE_1&#45;&gt;EG_1</title>
<path fill="none" stroke="#7a52b3" stroke-width="1.15" d="M660.66,-804.22C734.96,-818.22 878.42,-835.97 989.61,-793.3 1031.18,-777.35 1067.22,-738.99 1087.84,-713.32"/>
<polygon fill="#7a52b3" stroke="#7a52b3" stroke-width="1.15" points="1089.52,-715.15 1091.92,-708.13 1085.67,-712.12 1089.52,-715.15"/>
</g>
<!-- TE_1&#45;&gt;PA_1 -->
<g id="edge10" class="edge">
<title>TE_1&#45;&gt;PA_1</title>
<path fill="none" stroke="#7a52b3" stroke-width="1.15" d="M660.43,-806.06C719.4,-821.32 817.9,-846.82 879.69,-862.81"/>
<polygon fill="#7a52b3" stroke="#7a52b3" stroke-width="1.15" points="878.71,-865.09 886.1,-864.47 879.94,-860.34 878.71,-865.09"/>
</g>
<!-- TE_1&#45;&gt;WR_1 -->
<g id="edge11" class="edge">
<title>TE_1&#45;&gt;WR_1</title>
<path fill="none" stroke="#7a52b3" stroke-width="1.15" d="M643.36,-811.78C693.04,-839.1 792.21,-889 883.77,-907.3 1005.51,-931.65 1149.25,-889.04 1225.93,-860.64"/>
<polygon fill="#7a52b3" stroke="#7a52b3" stroke-width="1.15" points="1226.72,-862.96 1232.42,-858.21 1225,-858.37 1226.72,-862.96"/>
</g>
<!-- TE_2 -->
<g id="node25" class="node">
<title>TE_2</title>
<path fill="#e7ddf5" stroke="#7a52b3" stroke-width="1.3" d="M810.77,-303.3C810.77,-303.3 734.93,-303.3 734.93,-303.3 728.93,-303.3 722.93,-297.3 722.93,-291.3 722.93,-291.3 722.93,-279.3 722.93,-279.3 722.93,-273.3 728.93,-267.3 734.93,-267.3 734.93,-267.3 810.77,-267.3 810.77,-267.3 816.77,-267.3 822.77,-273.3 822.77,-279.3 822.77,-279.3 822.77,-291.3 822.77,-291.3 822.77,-297.3 816.77,-303.3 810.77,-303.3"/>
<text xml:space="preserve" text-anchor="middle" x="772.85" y="-286.85" font-family="Helvetica,sans-Serif" font-size="11.00">TE</text>
<text xml:space="preserve" text-anchor="middle" x="772.85" y="-274.85" font-family="Helvetica,sans-Serif" font-size="11.00">taught expressive</text>
</g>
<!-- TE_1&#45;&gt;TE_2 -->
<g id="edge90" class="edge">
<title>TE_1&#45;&gt;TE_2</title>
<path fill="none" stroke="#aeb4bd" stroke-width="1.1" d="M630.81,-774.76C641.74,-763.29 654.58,-747.68 661.93,-731.3 732.7,-573.65 653.61,-505.6 722.93,-347.3 728.85,-333.78 738.44,-320.67 747.57,-310.01"/>
<polygon fill="#aeb4bd" stroke="#aeb4bd" stroke-width="1.1" points="749.24,-311.82 752.06,-304.96 745.58,-308.57 749.24,-311.82"/>
</g>
<!-- LS_1&#45;&gt;PA_1 -->
<g id="edge33" class="edge">
<title>LS_1&#45;&gt;PA_1</title>
<path fill="none" stroke="#c2872a" stroke-width="1.15" d="M810.98,-922C831.26,-914.73 856.79,-905.58 879.46,-897.45"/>
<polygon fill="#c2872a" stroke="#c2872a" stroke-width="1.15" points="880.27,-899.77 886.03,-895.1 878.62,-895.16 880.27,-899.77"/>
</g>
<!-- LS_1&#45;&gt;NW_1 -->
<g id="edge32" class="edge">
<title>LS_1&#45;&gt;NW_1</title>
<path fill="none" stroke="#c2872a" stroke-width="1.15" d="M811.02,-939.1C869.1,-945.05 981.79,-956.57 1049.91,-963.54"/>
<polygon fill="#c2872a" stroke="#c2872a" stroke-width="1.15" points="1049.45,-965.95 1056.66,-964.23 1049.95,-961.08 1049.45,-965.95"/>
</g>
<!-- LS_1&#45;&gt;PS_1 -->
<g id="edge34" class="edge">
<title>LS_1&#45;&gt;PS_1</title>
<path fill="none" stroke="#c2872a" stroke-width="1.15" d="M810.73,-934.93C854.51,-933.5 929.19,-927.89 989.61,-907.3 1020.05,-896.93 1051.36,-878.16 1073.87,-862.96"/>
<polygon fill="#c2872a" stroke="#c2872a" stroke-width="1.15" points="1075.04,-865.13 1079.43,-859.15 1072.27,-861.09 1075.04,-865.13"/>
</g>
<!-- LS_1&#45;&gt;WR_1 -->
<g id="edge35" class="edge">
<title>LS_1&#45;&gt;WR_1</title>
<path fill="none" stroke="#c2872a" stroke-width="1.15" d="M808.86,-953.85C879.88,-988.75 1044.26,-1055.48 1163.95,-995.3 1218.11,-968.07 1253.46,-902.49 1269.91,-865.27"/>
<polygon fill="#c2872a" stroke="#c2872a" stroke-width="1.15" points="1272.11,-866.34 1272.63,-858.94 1267.61,-864.41 1272.11,-866.34"/>
</g>
<!-- LS_2 -->
<g id="node26" class="node">
<title>LS_2</title>
<path fill="#fdecd2" stroke="#c2872a" stroke-width="1.3" d="M962.24,-504.3C962.24,-504.3 911.15,-504.3 911.15,-504.3 905.15,-504.3 899.15,-498.3 899.15,-492.3 899.15,-492.3 899.15,-480.3 899.15,-480.3 899.15,-474.3 905.15,-468.3 911.15,-468.3 911.15,-468.3 962.24,-468.3 962.24,-468.3 968.24,-468.3 974.24,-474.3 974.24,-480.3 974.24,-480.3 974.24,-492.3 974.24,-492.3 974.24,-498.3 968.24,-504.3 962.24,-504.3"/>
<text xml:space="preserve" text-anchor="middle" x="936.69" y="-487.85" font-family="Helvetica,sans-Serif" font-size="11.00">LS</text>
<text xml:space="preserve" text-anchor="middle" x="936.69" y="-475.85" font-family="Helvetica,sans-Serif" font-size="11.00">letter–sound</text>
</g>
<!-- LS_1&#45;&gt;LS_2 -->
<g id="edge91" class="edge">
<title>LS_1&#45;&gt;LS_2</title>
<path fill="none" stroke="#aeb4bd" stroke-width="1.1" d="M779.89,-917.11C789.3,-888.64 807.92,-831.81 822.77,-783.3 851.22,-690.37 845,-662.42 883.77,-573.3 893.23,-551.57 907.11,-528.61 918.15,-511.74"/>
<polygon fill="#aeb4bd" stroke="#aeb4bd" stroke-width="1.1" points="919.93,-513.48 921.76,-506.29 915.85,-510.77 919.93,-513.48"/>
</g>
<!-- PA_1&#45;&gt;NW_1 -->
<g id="edge37" class="edge">
<title>PA_1&#45;&gt;NW_1</title>
<path fill="none" stroke="#c2872a" stroke-width="1.15" d="M979.36,-900.04C1005.37,-914.23 1038.71,-932.43 1064.7,-946.61"/>
<polygon fill="#c2872a" stroke="#c2872a" stroke-width="1.15" points="1063.32,-948.65 1070.64,-949.85 1065.67,-944.35 1063.32,-948.65"/>
</g>
<!-- PA_1&#45;&gt;PS_1 -->
<g id="edge39" class="edge">
<title>PA_1&#45;&gt;PS_1</title>
<path fill="none" stroke="#c2872a" stroke-width="1.15" d="M985.55,-866.52C1005.66,-861.98 1029.19,-856.68 1050.11,-851.96"/>
<polygon fill="#c2872a" stroke="#c2872a" stroke-width="1.15" points="1050.6,-854.36 1056.89,-850.43 1049.53,-849.58 1050.6,-854.36"/>
</g>
<!-- PA_1&#45;&gt;WR_1 -->
<g id="edge38" class="edge">
<title>PA_1&#45;&gt;WR_1</title>
<path fill="none" stroke="#c2872a" stroke-width="1.15" d="M985.6,-877.18C1031.55,-876.49 1102.8,-873.93 1163.95,-865.3 1182.16,-862.73 1201.71,-858.72 1219.51,-854.56"/>
<polygon fill="#c2872a" stroke="#c2872a" stroke-width="1.15" points="1219.62,-857.05 1225.86,-853.05 1218.48,-852.28 1219.62,-857.05"/>
</g>
<!-- PA_2 -->
<g id="node27" class="node">
<title>PA_2</title>
<path fill="#fdecd2" stroke="#c2872a" stroke-width="1.3" d="M1143.7,-232.62C1143.7,-232.62 1070.86,-232.62 1070.86,-232.62 1064.86,-232.62 1058.86,-226.62 1058.86,-220.62 1058.86,-220.62 1058.86,-199.98 1058.86,-199.98 1058.86,-193.98 1064.86,-187.98 1070.86,-187.98 1070.86,-187.98 1143.7,-187.98 1143.7,-187.98 1149.7,-187.98 1155.7,-193.98 1155.7,-199.98 1155.7,-199.98 1155.7,-220.62 1155.7,-220.62 1155.7,-226.62 1149.7,-232.62 1143.7,-232.62"/>
<text xml:space="preserve" text-anchor="middle" x="1107.28" y="-217.85" font-family="Helvetica,sans-Serif" font-size="11.00">PA</text>
<text xml:space="preserve" text-anchor="middle" x="1107.28" y="-205.85" font-family="Helvetica,sans-Serif" font-size="11.00">phoneme aware.</text>
<text xml:space="preserve" text-anchor="middle" x="1107.28" y="-193.85" font-family="Helvetica,sans-Serif" font-size="11.00">(blending)</text>
</g>
<!-- PA_1&#45;&gt;PA_2 -->
<g id="edge92" class="edge">
<title>PA_1&#45;&gt;PA_2</title>
<path fill="none" stroke="#aeb4bd" stroke-width="1.1" d="M955.65,-854.45C967.34,-838.31 981.82,-815.64 989.61,-793.3 1065.79,-574.83 958.58,-488.58 1050.61,-276.3 1056.49,-262.74 1066.11,-249.83 1075.7,-239.08"/>
<polygon fill="#aeb4bd" stroke="#aeb4bd" stroke-width="1.1" points="1077.23,-241.04 1080.19,-234.24 1073.64,-237.71 1077.23,-241.04"/>
</g>
<!-- NW_1&#45;&gt;WR_1 -->
<g id="edge36" class="edge">
<title>NW_1&#45;&gt;WR_1</title>
<path fill="none" stroke="#c2872a" stroke-width="1.15" d="M1145.49,-950.72C1151.8,-947.16 1158.17,-943.29 1163.95,-939.3 1197.61,-916.08 1232.61,-884.64 1255.39,-863.04"/>
<polygon fill="#c2872a" stroke="#c2872a" stroke-width="1.15" points="1256.85,-865.03 1260.22,-858.43 1253.46,-861.49 1256.85,-865.03"/>
</g>
<!-- NW_2 -->
<g id="node28" class="node">
<title>NW_2</title>
<path fill="#fdecd2" stroke="#c2872a" stroke-width="1.3" d="M1318.04,-224.3C1318.04,-224.3 1245.2,-224.3 1245.2,-224.3 1239.2,-224.3 1233.2,-218.3 1233.2,-212.3 1233.2,-212.3 1233.2,-200.3 1233.2,-200.3 1233.2,-194.3 1239.2,-188.3 1245.2,-188.3 1245.2,-188.3 1318.04,-188.3 1318.04,-188.3 1324.04,-188.3 1330.04,-194.3 1330.04,-200.3 1330.04,-200.3 1330.04,-212.3 1330.04,-212.3 1330.04,-218.3 1324.04,-224.3 1318.04,-224.3"/>
<text xml:space="preserve" text-anchor="middle" x="1281.62" y="-207.85" font-family="Helvetica,sans-Serif" font-size="11.00">NW</text>
<text xml:space="preserve" text-anchor="middle" x="1281.62" y="-195.85" font-family="Helvetica,sans-Serif" font-size="11.00">nonword reading</text>
</g>
<!-- NW_1&#45;&gt;NW_2 -->
<g id="edge93" class="edge">
<title>NW_1&#45;&gt;NW_2</title>
<path fill="none" stroke="#aeb4bd" stroke-width="1.1" d="M1120.99,-950.7C1134.05,-930.59 1153.86,-897.13 1163.95,-865.3 1231.05,-653.58 1175.24,-585.77 1224.95,-369.3 1236.32,-319.81 1257.1,-264.25 1269.81,-232.45"/>
<polygon fill="#aeb4bd" stroke="#aeb4bd" stroke-width="1.1" points="1272.04,-233.47 1272.38,-226.06 1267.49,-231.64 1272.04,-233.47"/>
</g>
<!-- PS_2 -->
<g id="node29" class="node">
<title>PS_2</title>
<path fill="#fdecd2" stroke="#c2872a" stroke-width="2.2" d="M1317.29,-413.3C1317.29,-413.3 1245.95,-413.3 1245.95,-413.3 1239.95,-413.3 1233.95,-407.3 1233.95,-401.3 1233.95,-401.3 1233.95,-389.3 1233.95,-389.3 1233.95,-383.3 1239.95,-377.3 1245.95,-377.3 1245.95,-377.3 1317.29,-377.3 1317.29,-377.3 1323.29,-377.3 1329.29,-383.3 1329.29,-389.3 1329.29,-389.3 1329.29,-401.3 1329.29,-401.3 1329.29,-407.3 1323.29,-413.3 1317.29,-413.3"/>
<text xml:space="preserve" text-anchor="middle" x="1281.62" y="-396.85" font-family="Helvetica,sans-Serif" font-size="11.00">PS</text>
<text xml:space="preserve" text-anchor="middle" x="1281.62" y="-384.85" font-family="Helvetica,sans-Serif" font-size="11.00">phonetic spelling</text>
</g>
<!-- PS_1&#45;&gt;PS_2 -->
<g id="edge94" class="edge">
<title>PS_1&#45;&gt;PS_2</title>
<path fill="none" stroke="#aeb4bd" stroke-width="1.1" d="M1118.26,-820.32C1130.55,-796.24 1151.35,-753.17 1163.95,-714.3 1204.43,-589.43 1146.31,-530.42 1224.95,-425.3 1226.4,-423.37 1228.01,-421.54 1229.75,-419.82"/>
<polygon fill="#aeb4bd" stroke="#aeb4bd" stroke-width="1.1" points="1231.1,-421.89 1234.81,-415.47 1227.91,-418.17 1231.1,-421.89"/>
</g>
<!-- WR_1&#45;&gt;RW_2 -->
<g id="edge99" class="edge">
<title>WR_1&#45;&gt;RW_2</title>
<path fill="none" stroke="#d6006e" stroke-width="2.3" stroke-dasharray="5,2" d="M1276.02,-819.12C1265.72,-775.62 1240.47,-666.04 1224.95,-573.3 1206.95,-465.73 1245.62,-158.59 1163.95,-86.3 976.65,79.49 806.77,-36.36 722.93,-85.3 661.73,-121.03 631.39,-204.01 618.72,-250.41"/>
<polygon fill="#d6006e" stroke="#d6006e" stroke-width="2.3" points="616.35,-249.79 616.95,-257.18 621.09,-251.02 616.35,-249.79"/>
</g>
<!-- WR_1&#45;&gt;TR_2 -->
<g id="edge97" class="edge">
<title>WR_1&#45;&gt;TR_2</title>
<path fill="none" stroke="#d6006e" stroke-width="2.3" stroke-dasharray="5,2" d="M1276.15,-819.1C1266.11,-775.55 1241.36,-665.88 1224.95,-573.3 1208.45,-480.22 1235.43,-214.17 1163.95,-152.3 1125.86,-119.34 1098.15,-135.65 1050.61,-152.3 938.47,-191.58 837.93,-297.49 795.37,-347.05"/>
<polygon fill="#d6006e" stroke="#d6006e" stroke-width="2.3" points="793.73,-345.21 791.07,-352.13 797.46,-348.38 793.73,-345.21"/>
</g>
<!-- WR_1&#45;&gt;TE_2 -->
<g id="edge96" class="edge">
<title>WR_1&#45;&gt;TE_2</title>
<path fill="none" stroke="#d6006e" stroke-width="2.3" stroke-dasharray="5,2" d="M1276.1,-819.11C1265.96,-775.58 1241.02,-665.94 1224.95,-573.3 1207.92,-475.18 1239.01,-194.76 1163.95,-129.3 1068.73,-46.27 992.88,-113.61 883.77,-177.3 847.44,-198.51 814.28,-234.4 794.09,-258.95"/>
<polygon fill="#d6006e" stroke="#d6006e" stroke-width="2.3" points="792.43,-257.1 789.94,-264.09 796.24,-260.18 792.43,-257.1"/>
</g>
<!-- WR_1&#45;&gt;LS_2 -->
<g id="edge100" class="edge">
<title>WR_1&#45;&gt;LS_2</title>
<path fill="none" stroke="#d6006e" stroke-width="2.3" stroke-dasharray="5,2" d="M1276.22,-819.09C1266.31,-775.51 1241.83,-665.8 1224.95,-573.3 1209.08,-486.36 1231.07,-237.8 1163.95,-180.3 1125.7,-147.53 1089.93,-148.82 1050.61,-180.3 953.89,-257.73 1060.16,-350.46 989.61,-452.3 987.43,-455.46 984.85,-458.39 982.02,-461.1"/>
<polygon fill="#d6006e" stroke="#d6006e" stroke-width="2.3" points="980.53,-459.16 976.75,-465.54 983.68,-462.91 980.53,-459.16"/>
</g>
<!-- WR_1&#45;&gt;PA_2 -->
<g id="edge98" class="edge">
<title>WR_1&#45;&gt;PA_2</title>
<path fill="none" stroke="#d6006e" stroke-width="2.3" stroke-dasharray="5,2" d="M1276.54,-819.02C1267.29,-775.32 1244.07,-665.36 1224.95,-573.3 1197.54,-441.36 1222.76,-397.55 1163.95,-276.3 1157.75,-263.51 1148.5,-251.14 1139.32,-240.64"/>
<polygon fill="#d6006e" stroke="#d6006e" stroke-width="2.3" points="1141.22,-239.09 1134.7,-235.56 1137.6,-242.39 1141.22,-239.09"/>
</g>
<!-- WR_2 -->
<g id="node30" class="node">
<title>WR_2</title>
<path fill="#cfe0f7" stroke="#2f6fdb" stroke-width="2.6" d="M1493.13,-325.3C1493.13,-325.3 1411.29,-325.3 1411.29,-325.3 1405.29,-325.3 1399.29,-319.3 1399.29,-313.3 1399.29,-313.3 1399.29,-301.3 1399.29,-301.3 1399.29,-295.3 1405.29,-289.3 1411.29,-289.3 1411.29,-289.3 1493.13,-289.3 1493.13,-289.3 1499.13,-289.3 1505.13,-295.3 1505.13,-301.3 1505.13,-301.3 1505.13,-313.3 1505.13,-313.3 1505.13,-319.3 1499.13,-325.3 1493.13,-325.3"/>
<text xml:space="preserve" text-anchor="middle" x="1452.21" y="-308.85" font-family="Helvetica,sans-Serif" font-weight="bold" font-size="11.00">WR</text>
<text xml:space="preserve" text-anchor="middle" x="1452.21" y="-296.85" font-family="Helvetica,sans-Serif" font-weight="bold" font-size="11.00">WORD READING</text>
</g>
<!-- WR_1&#45;&gt;WR_2 -->
<g id="edge95" class="edge">
<title>WR_1&#45;&gt;WR_2</title>
<path fill="none" stroke="#aeb4bd" stroke-width="1.1" d="M1288.72,-819.09C1314.25,-738.68 1412.59,-428.93 1442.52,-334.67"/>
<polygon fill="#aeb4bd" stroke="#aeb4bd" stroke-width="1.1" points="1444.83,-335.49 1444.61,-328.08 1440.16,-334.01 1444.83,-335.49"/>
</g>
<!-- SP_2&#45;&gt;EV_2 -->
<g id="edge68" class="edge">
<title>SP_2&#45;&gt;EV_2</title>
<path fill="none" stroke="#d0433f" stroke-width="1.15" d="M662.56,-336.29C721.37,-332.85 817.39,-327.23 878.51,-323.65"/>
<polygon fill="#d0433f" stroke="#d0433f" stroke-width="1.15" points="878.31,-326.12 885.15,-323.26 878.02,-321.23 878.31,-326.12"/>
</g>
<!-- SP_2&#45;&gt;TE_2 -->
<g id="edge67" class="edge">
<title>SP_2&#45;&gt;TE_2</title>
<path fill="none" stroke="#d0433f" stroke-width="1.15" d="M662.43,-322.07C678.93,-316.53 697.32,-310.35 714.24,-304.66"/>
<polygon fill="#d0433f" stroke="#d0433f" stroke-width="1.15" points="714.91,-307.02 720.76,-302.47 713.35,-302.38 714.91,-307.02"/>
</g>
<!-- SP_2&#45;&gt;LS_2 -->
<g id="edge69" class="edge">
<title>SP_2&#45;&gt;LS_2</title>
<path fill="none" stroke="#d0433f" stroke-width="1.15" d="M632.5,-357.75C654.08,-375.6 688.98,-402.35 722.93,-419.3 777.78,-446.69 846.14,-465.82 890.34,-476.44"/>
<polygon fill="#d0433f" stroke="#d0433f" stroke-width="1.15" points="889.51,-478.76 896.88,-477.99 890.63,-473.99 889.51,-478.76"/>
</g>
<!-- SP_2&#45;&gt;PA_2 -->
<g id="edge70" class="edge">
<title>SP_2&#45;&gt;PA_2</title>
<path fill="none" stroke="#d0433f" stroke-width="1.15" d="M650,-320.71C654.11,-318.36 658.17,-315.87 661.93,-313.3 691.84,-292.89 690.26,-274.9 722.93,-259.3 830.06,-208.15 972.22,-204.3 1049.82,-206.8"/>
<polygon fill="#d0433f" stroke="#d0433f" stroke-width="1.15" points="1049.67,-209.25 1056.76,-207.05 1049.85,-204.35 1049.67,-209.25"/>
</g>
<!-- SP_2&#45;&gt;NW_2 -->
<g id="edge71" class="edge">
<title>SP_2&#45;&gt;NW_2</title>
<path fill="none" stroke="#d0433f" stroke-width="1.15" d="M652.03,-320.82C655.54,-318.52 658.9,-316.01 661.93,-313.3 698.51,-280.62 681.23,-247.15 722.93,-221.3 881.63,-122.93 1117.57,-164.21 1224.42,-190.6"/>
<polygon fill="#d0433f" stroke="#d0433f" stroke-width="1.15" points="1223.74,-192.95 1231.12,-192.28 1224.93,-188.2 1223.74,-192.95"/>
</g>
<!-- RW_2&#45;&gt;RV_2 -->
<g id="edge55" class="edge">
<title>RW_2&#45;&gt;RV_2</title>
<path fill="none" stroke="#2f9e78" stroke-width="1.15" d="M653.19,-306.16C656.26,-308.42 659.22,-310.81 661.93,-313.3 696.42,-345.03 682.74,-375.21 722.93,-399.3 771.23,-428.26 836.73,-432.42 882.24,-430.99"/>
<polygon fill="#2f9e78" stroke="#2f9e78" stroke-width="1.15" points="882.14,-433.44 889.04,-430.71 881.95,-428.55 882.14,-433.44"/>
</g>
<!-- RW_2&#45;&gt;EV_2 -->
<g id="edge53" class="edge">
<title>RW_2&#45;&gt;EV_2</title>
<path fill="none" stroke="#2f9e78" stroke-width="1.15" d="M656.95,-297.01C677.01,-302.43 700.95,-308.12 722.93,-311.3 775.3,-318.89 835.62,-320.81 878.63,-321.02"/>
<polygon fill="#2f9e78" stroke="#2f9e78" stroke-width="1.15" points="878.52,-323.47 885.53,-321.04 878.53,-318.57 878.52,-323.47"/>
</g>
<!-- RW_2&#45;&gt;TR_2 -->
<g id="edge54" class="edge">
<title>RW_2&#45;&gt;TR_2</title>
<path fill="none" stroke="#2f9e78" stroke-width="1.15" d="M652.11,-306.25C676.36,-319.83 706.97,-336.97 731.17,-350.52"/>
<polygon fill="#2f9e78" stroke="#2f9e78" stroke-width="1.15" points="729.96,-352.65 737.27,-353.94 732.36,-348.38 729.96,-352.65"/>
</g>
<!-- RW_2&#45;&gt;TE_2 -->
<g id="edge52" class="edge">
<title>RW_2&#45;&gt;TE_2</title>
<path fill="none" stroke="#2f9e78" stroke-width="1.15" d="M656.76,-283.87C674.54,-284.09 695.14,-284.35 713.95,-284.58"/>
<polygon fill="#2f9e78" stroke="#2f9e78" stroke-width="1.15" points="713.68,-287.03 720.71,-284.67 713.74,-282.13 713.68,-287.03"/>
</g>
<!-- RW_2&#45;&gt;PA_2 -->
<g id="edge56" class="edge">
<title>RW_2&#45;&gt;PA_2</title>
<path fill="none" stroke="#2f9e78" stroke-width="1.15" d="M636.98,-260.49C658.35,-243.23 690.39,-220.92 722.93,-211.3 835.09,-178.15 973.9,-190.04 1049.92,-200.76"/>
<polygon fill="#2f9e78" stroke="#2f9e78" stroke-width="1.15" points="1049.43,-203.16 1056.71,-201.74 1050.13,-198.31 1049.43,-203.16"/>
</g>
<!-- RW_2&#45;&gt;NW_2 -->
<g id="edge57" class="edge">
<title>RW_2&#45;&gt;NW_2</title>
<path fill="none" stroke="#2f9e78" stroke-width="1.15" d="M619.76,-260.6C634.63,-225.12 668.81,-157.79 722.93,-130.3 897.7,-41.55 976.05,-74.5 1163.95,-130.3 1198.18,-140.47 1231.75,-164.21 1254.03,-182.47"/>
<polygon fill="#2f9e78" stroke="#2f9e78" stroke-width="1.15" points="1252.29,-184.21 1259.24,-186.83 1255.44,-180.45 1252.29,-184.21"/>
</g>
<!-- RW_2&#45;&gt;PS_2 -->
<g id="edge58" class="edge">
<title>RW_2&#45;&gt;PS_2</title>
<path fill="none" stroke="#2f9e78" stroke-width="1.15" d="M621.88,-260.57C638.42,-228.57 673.5,-171.55 722.93,-148.3 816.77,-104.18 1005.46,-75.66 1163.95,-180.3 1231.01,-224.58 1262.68,-320.87 1274.63,-368.09"/>
<polygon fill="#2f9e78" stroke="#2f9e78" stroke-width="1.15" points="1272.19,-368.4 1276.23,-374.62 1276.95,-367.24 1272.19,-368.4"/>
</g>
<!-- RV_2&#45;&gt;EV_2 -->
<g id="edge59" class="edge">
<title>RV_2&#45;&gt;EV_2</title>
<path fill="none" stroke="#2f9e78" stroke-width="1.15" d="M936.69,-407.87C936.69,-387.77 936.69,-367.66 936.69,-347.55"/>
<polygon fill="#2f9e78" stroke="#2f9e78" stroke-width="1.15" points="939.14,-347.68 936.69,-340.68 934.24,-347.68 939.14,-347.68"/>
</g>
<!-- RV_2&#45;&gt;LF_2 -->
<g id="edge60" class="edge">
<title>RV_2&#45;&gt;LF_2</title>
<path fill="none" stroke="#2f9e78" stroke-width="1.15" d="M982.43,-416.75C1004.75,-411.98 1031.87,-406.19 1055.03,-401.25"/>
<polygon fill="#2f9e78" stroke="#2f9e78" stroke-width="1.15" points="1055.34,-403.69 1061.67,-399.83 1054.31,-398.9 1055.34,-403.69"/>
</g>
<!-- RV_2&#45;&gt;RG_2 -->
<g id="edge61" class="edge">
<title>RV_2&#45;&gt;RG_2</title>
<path fill="none" stroke="#2f9e78" stroke-width="1.15" d="M982.43,-435.33C1001.72,-439.22 1024.58,-443.83 1045.38,-448.02"/>
<polygon fill="#2f9e78" stroke="#2f9e78" stroke-width="1.15" points="1044.8,-450.4 1052.14,-449.39 1045.77,-445.6 1044.8,-450.4"/>
</g>
<!-- RV_2&#45;&gt;WR_2 -->
<g id="edge62" class="edge">
<title>RV_2&#45;&gt;WR_2</title>
<path fill="none" stroke="#2f9e78" stroke-width="1.15" d="M968.49,-444.85C995.8,-460.89 1033.86,-482.13 1050.61,-486.3 1097.39,-497.96 1340.91,-481.86 1348.54,-477.3 1401.94,-445.43 1431.06,-374.09 1443.6,-334.71"/>
<polygon fill="#2f9e78" stroke="#2f9e78" stroke-width="1.15" points="1445.94,-335.43 1445.66,-328.02 1441.26,-333.99 1445.94,-335.43"/>
</g>
<!-- EV_2&#45;&gt;EI_2 -->
<g id="edge64" class="edge">
<title>EV_2&#45;&gt;EI_2</title>
<path fill="none" stroke="#2f9e78" stroke-width="1.15" d="M986.45,-315.1C1007.92,-312.81 1033.14,-310.11 1054.9,-307.79"/>
<polygon fill="#2f9e78" stroke="#2f9e78" stroke-width="1.15" points="1054.93,-310.25 1061.63,-307.07 1054.41,-305.38 1054.93,-310.25"/>
</g>
<!-- EV_2&#45;&gt;EG_2 -->
<g id="edge63" class="edge">
<title>EV_2&#45;&gt;EG_2</title>
<path fill="none" stroke="#2f9e78" stroke-width="1.15" d="M986.11,-322.01C1033.72,-325.42 1107.27,-335.39 1163.95,-364.3 1197,-381.17 1194.81,-399.66 1224.95,-421.3 1228.37,-423.76 1232.02,-426.16 1235.75,-428.46"/>
<polygon fill="#2f9e78" stroke="#2f9e78" stroke-width="1.15" points="1234.22,-430.39 1241.49,-431.85 1236.71,-426.18 1234.22,-430.39"/>
</g>
<!-- EV_2&#45;&gt;PA_2 -->
<g id="edge65" class="edge">
<title>EV_2&#45;&gt;PA_2</title>
<path fill="none" stroke="#2f9e78" stroke-width="1.15" d="M964.39,-301.85C987.13,-286.24 1020.77,-263.44 1050.61,-244.3 1054.01,-242.12 1057.53,-239.89 1061.09,-237.67"/>
<polygon fill="#2f9e78" stroke="#2f9e78" stroke-width="1.15" points="1062.28,-239.82 1066.93,-234.04 1059.69,-235.66 1062.28,-239.82"/>
</g>
<!-- EV_2&#45;&gt;WR_2 -->
<g id="edge66" class="edge">
<title>EV_2&#45;&gt;WR_2</title>
<path fill="none" stroke="#2f9e78" stroke-width="1.15" d="M975.06,-301.69C996.57,-292.02 1024.45,-281.22 1050.61,-276.3 1169.34,-253.99 1310.77,-276.05 1389.85,-292.67"/>
<polygon fill="#2f9e78" stroke="#2f9e78" stroke-width="1.15" points="1389.18,-295.03 1396.54,-294.09 1390.2,-290.24 1389.18,-295.03"/>
</g>
<!-- RG_2&#45;&gt;EG_2 -->
<g id="edge80" class="edge">
<title>RG_2&#45;&gt;EG_2</title>
<path fill="none" stroke="#9aa0a8" stroke-width="1.15" d="M1160.46,-457.58C1177.98,-456.66 1197.74,-455.63 1216.1,-454.67"/>
<polygon fill="#9aa0a8" stroke="#9aa0a8" stroke-width="1.15" points="1215.82,-457.14 1222.69,-454.33 1215.57,-452.25 1215.82,-457.14"/>
</g>
<!-- TR_2&#45;&gt;RV_2 -->
<g id="edge42" class="edge">
<title>TR_2&#45;&gt;RV_2</title>
<path fill="none" stroke="#7a52b3" stroke-width="1.15" d="M819.36,-388.21C839,-394.64 862.11,-402.21 882.53,-408.89"/>
<polygon fill="#7a52b3" stroke="#7a52b3" stroke-width="1.15" points="881.73,-411.21 889.14,-411.06 883.26,-406.55 881.73,-411.21"/>
</g>
<!-- TR_2&#45;&gt;EV_2 -->
<g id="edge43" class="edge">
<title>TR_2&#45;&gt;EV_2</title>
<path fill="none" stroke="#7a52b3" stroke-width="1.15" d="M819.36,-358.4C837.85,-352.34 859.41,-345.28 878.91,-338.9"/>
<polygon fill="#7a52b3" stroke="#7a52b3" stroke-width="1.15" points="879.58,-341.26 885.47,-336.75 878.06,-336.6 879.58,-341.26"/>
</g>
<!-- TR_2&#45;&gt;LF_2 -->
<g id="edge44" class="edge">
<title>TR_2&#45;&gt;LF_2</title>
<path fill="none" stroke="#7a52b3" stroke-width="1.15" d="M819.38,-375.63C880.9,-378.78 990.27,-384.37 1054.74,-387.67"/>
<polygon fill="#7a52b3" stroke="#7a52b3" stroke-width="1.15" points="1054.29,-390.1 1061.41,-388.01 1054.54,-385.2 1054.29,-390.1"/>
</g>
<!-- TR_2&#45;&gt;RG_2 -->
<g id="edge45" class="edge">
<title>TR_2&#45;&gt;RG_2</title>
<path fill="none" stroke="#7a52b3" stroke-width="1.15" d="M819.57,-378.82C881.7,-386.35 985.57,-399.06 989.61,-400.3 1017.96,-409.06 1047.67,-424.45 1070.01,-437.44"/>
<polygon fill="#7a52b3" stroke="#7a52b3" stroke-width="1.15" points="1068.52,-439.41 1075.8,-440.86 1071.02,-435.19 1068.52,-439.41"/>
</g>
<!-- TR_2&#45;&gt;TE_2 -->
<g id="edge41" class="edge">
<title>TR_2&#45;&gt;TE_2</title>
<path fill="none" stroke="#7a52b3" stroke-width="1.15" d="M772.85,-354.86C772.85,-340.65 772.85,-326.44 772.85,-312.23"/>
<polygon fill="#7a52b3" stroke="#7a52b3" stroke-width="1.15" points="775.3,-312.61 772.85,-305.61 770.4,-312.61 775.3,-312.61"/>
</g>
<!-- TR_2&#45;&gt;WR_2 -->
<g id="edge46" class="edge">
<title>TR_2&#45;&gt;WR_2</title>
<path fill="none" stroke="#7a52b3" stroke-width="1.15" d="M819.61,-368.84C938.12,-357.3 1255.12,-326.41 1389.57,-313.31"/>
<polygon fill="#7a52b3" stroke="#7a52b3" stroke-width="1.15" points="1389.69,-315.76 1396.42,-312.64 1389.22,-310.88 1389.69,-315.76"/>
</g>
<!-- TE_2&#45;&gt;EV_2 -->
<g id="edge47" class="edge">
<title>TE_2&#45;&gt;EV_2</title>
<path fill="none" stroke="#7a52b3" stroke-width="1.15" d="M823.29,-295.99C840.86,-299.8 860.78,-304.1 878.92,-308.03"/>
<polygon fill="#7a52b3" stroke="#7a52b3" stroke-width="1.15" points="878.05,-310.34 885.41,-309.43 879.09,-305.56 878.05,-310.34"/>
</g>
<!-- TE_2&#45;&gt;EI_2 -->
<g id="edge49" class="edge">
<title>TE_2&#45;&gt;EI_2</title>
<path fill="none" stroke="#7a52b3" stroke-width="1.15" d="M823.14,-286.98C866.88,-288.56 932.52,-291.16 989.61,-294.3 1010.98,-295.48 1034.54,-297.05 1054.86,-298.48"/>
<polygon fill="#7a52b3" stroke="#7a52b3" stroke-width="1.15" points="1054.46,-300.91 1061.62,-298.96 1054.81,-296.02 1054.46,-300.91"/>
</g>
<!-- TE_2&#45;&gt;EG_2 -->
<g id="edge48" class="edge">
<title>TE_2&#45;&gt;EG_2</title>
<path fill="none" stroke="#7a52b3" stroke-width="1.15" d="M823.2,-277.36C915.42,-263.62 1109.49,-240.13 1163.95,-276.3 1222.19,-314.99 1177.94,-369.55 1224.95,-421.3 1227.03,-423.59 1229.32,-425.74 1231.76,-427.75"/>
<polygon fill="#7a52b3" stroke="#7a52b3" stroke-width="1.15" points="1230.02,-429.51 1237.1,-431.72 1232.94,-425.58 1230.02,-429.51"/>
</g>
<!-- TE_2&#45;&gt;PA_2 -->
<g id="edge50" class="edge">
<title>TE_2&#45;&gt;PA_2</title>
<path fill="none" stroke="#7a52b3" stroke-width="1.15" d="M823.26,-274.16C883.84,-260.49 986.29,-237.37 1049.9,-223.02"/>
<polygon fill="#7a52b3" stroke="#7a52b3" stroke-width="1.15" points="1050.23,-225.46 1056.52,-221.53 1049.16,-220.68 1050.23,-225.46"/>
</g>
<!-- TE_2&#45;&gt;WR_2 -->
<g id="edge51" class="edge">
<title>TE_2&#45;&gt;WR_2</title>
<path fill="none" stroke="#7a52b3" stroke-width="1.15" d="M805.51,-266.75C895.26,-216.75 1157.25,-88.97 1348.54,-180.3 1391.76,-200.94 1422.64,-249.63 1438.65,-280.37"/>
<polygon fill="#7a52b3" stroke="#7a52b3" stroke-width="1.15" points="1436.45,-281.46 1441.8,-286.6 1440.83,-279.25 1436.45,-281.46"/>
</g>
<!-- LS_2&#45;&gt;PA_2 -->
<g id="edge73" class="edge">
<title>LS_2&#45;&gt;PA_2</title>
<path fill="none" stroke="#c2872a" stroke-width="1.15" d="M973.01,-467.77C979.16,-463.34 985.04,-458.17 989.61,-452.3 1040.52,-387.02 1009.68,-348.26 1050.61,-276.3 1057.98,-263.35 1068.01,-250.51 1077.53,-239.65"/>
<polygon fill="#c2872a" stroke="#c2872a" stroke-width="1.15" points="1079.35,-241.29 1082.21,-234.45 1075.7,-238.02 1079.35,-241.29"/>
</g>
<!-- LS_2&#45;&gt;NW_2 -->
<g id="edge72" class="edge">
<title>LS_2&#45;&gt;NW_2</title>
<path fill="none" stroke="#c2872a" stroke-width="1.15" d="M971.33,-467.85C993.29,-456.55 1022.93,-442.7 1050.61,-434.3 1099.42,-419.5 1122.16,-445.55 1163.95,-416.3 1228.31,-371.26 1261.12,-278.81 1273.97,-233.1"/>
<polygon fill="#c2872a" stroke="#c2872a" stroke-width="1.15" points="1276.28,-233.95 1275.75,-226.55 1271.55,-232.67 1276.28,-233.95"/>
</g>
<!-- LS_2&#45;&gt;PS_2 -->
<g id="edge74" class="edge">
<title>LS_2&#45;&gt;PS_2</title>
<path fill="none" stroke="#c2872a" stroke-width="1.15" d="M974.62,-494.65C1020.85,-503.27 1101.53,-512.16 1163.95,-486.3 1199.37,-471.63 1194.19,-448.2 1224.95,-425.3 1227.95,-423.07 1231.15,-420.89 1234.42,-418.81"/>
<polygon fill="#c2872a" stroke="#c2872a" stroke-width="1.15" points="1235.5,-421.02 1240.2,-415.29 1232.95,-416.84 1235.5,-421.02"/>
</g>
<!-- LS_2&#45;&gt;WR_2 -->
<g id="edge75" class="edge">
<title>LS_2&#45;&gt;WR_2</title>
<path fill="none" stroke="#c2872a" stroke-width="1.15" d="M974.79,-498.25C1051.13,-520.45 1228.65,-559.57 1348.54,-487.3 1404.92,-453.32 1433.16,-375.95 1444.68,-334.59"/>
<polygon fill="#c2872a" stroke="#c2872a" stroke-width="1.15" points="1446.99,-335.41 1446.44,-328.01 1442.26,-334.14 1446.99,-335.41"/>
</g>
<!-- PA_2&#45;&gt;NW_2 -->
<g id="edge77" class="edge">
<title>PA_2&#45;&gt;NW_2</title>
<path fill="none" stroke="#c2872a" stroke-width="1.15" d="M1156.29,-209.19C1177.3,-208.7 1202.11,-208.13 1224.02,-207.62"/>
<polygon fill="#c2872a" stroke="#c2872a" stroke-width="1.15" points="1223.89,-210.07 1230.83,-207.46 1223.78,-205.17 1223.89,-210.07"/>
</g>
<!-- PA_2&#45;&gt;PS_2 -->
<g id="edge79" class="edge">
<title>PA_2&#45;&gt;PS_2</title>
<path fill="none" stroke="#c2872a" stroke-width="1.15" d="M1133.73,-233.08C1143.39,-241.99 1154.38,-252.43 1163.95,-262.3 1198.83,-298.29 1236.65,-342.44 1259.48,-369.72"/>
<polygon fill="#c2872a" stroke="#c2872a" stroke-width="1.15" points="1257.47,-371.14 1263.84,-374.94 1261.24,-368 1257.47,-371.14"/>
</g>
<!-- PA_2&#45;&gt;WR_2 -->
<g id="edge78" class="edge">
<title>PA_2&#45;&gt;WR_2</title>
<path fill="none" stroke="#c2872a" stroke-width="1.15" d="M1156.22,-219.46C1177.3,-223.45 1202.34,-228.16 1224.95,-232.3 1279.83,-242.36 1295.69,-236.42 1348.54,-254.3 1370.68,-261.8 1393.94,-273.45 1412.71,-283.92"/>
<polygon fill="#c2872a" stroke="#c2872a" stroke-width="1.15" points="1411.12,-285.84 1418.42,-287.16 1413.54,-281.58 1411.12,-285.84"/>
</g>
<!-- NW_2&#45;&gt;WR_2 -->
<g id="edge76" class="edge">
<title>NW_2&#45;&gt;WR_2</title>
<path fill="none" stroke="#c2872a" stroke-width="1.15" d="M1326.43,-224.91C1333.92,-228.47 1341.54,-232.33 1348.54,-236.3 1373.22,-250.3 1399.51,-268.55 1419.31,-283.05"/>
<polygon fill="#c2872a" stroke="#c2872a" stroke-width="1.15" points="1417.8,-284.98 1424.89,-287.17 1420.71,-281.04 1417.8,-284.98"/>
</g>
<!-- NOTE -->
<g id="node31" class="node">
<title>NOTE</title>
<polygon fill="#f7f7f9" stroke="#6b7280" stroke-width="1.3" stroke-dasharray="5,2" points="491.34,-1104 0,-1104 0,-1058.61 497.34,-1058.61 497.34,-1098 491.34,-1104"/>
<polyline fill="none" stroke="#6b7280" stroke-width="1.3" stroke-dasharray="5,2" points="491.34,-1104 491.34,-1098"/>
<polyline fill="none" stroke="#6b7280" stroke-width="1.3" stroke-dasharray="5,2" points="497.34,-1098 491.34,-1098"/>
<text xml:space="preserve" text-anchor="middle" x="248.67" y="-1090.18" font-family="Helvetica,sans-Serif" font-size="10.00">Within each wave: the full base cascade (SP→LS→PA→NW→WR, RV→EV…).</text>
<text xml:space="preserve" text-anchor="middle" x="248.67" y="-1077.43" font-family="Helvetica,sans-Serif" font-size="10.00">Across waves: grey = carry&#45;over (same skill next wave); dashed pink = reverse (WR → TE, TR, PA, RW, LS).</text>
<text xml:space="preserve" text-anchor="middle" x="248.67" y="-1064.68" font-family="Helvetica,sans-Serif" font-size="10.00">Omitted: intervention (IG/IS), hearing (HS), age (A), ability (GA) feed the skills each wave.</text>
</g>
</g>
</svg>
