<?xml version="1.0" encoding="UTF-8" standalone="no"?>
<!DOCTYPE svg PUBLIC "-//W3C//DTD SVG 1.1//EN"
 "http://www.w3.org/Graphics/SVG/1.1/DTD/svg11.dtd">
<!-- Generated by graphviz version 15.1.0 (20260618.0150)
 -->
<!-- Title: COPYPASTE Pages: 1 -->
<svg width="1518pt" height="1105pt"
 viewBox="0.00 0.00 1518.00 1105.00" xmlns="http://www.w3.org/2000/svg" xmlns:xlink="http://www.w3.org/1999/xlink">
<g id="graph0" class="graph" transform="scale(1 1) rotate(0) translate(4 1101.08)">
<title>COPYPASTE</title>
<polygon fill="white" stroke="none" points="-4,4 -4,-1101.08 1513.88,-1101.08 1513.88,4 -4,4"/>
<text xml:space="preserve" text-anchor="middle" x="754.94" y="-1076.93" font-family="Helvetica,sans-Serif" font-weight="bold" font-size="17.00">Language &amp; reading causal DAG — TIME&#45;LAGGED unroll, Option A (ADOPTED 2026&#45;07&#45;13): the base cascade, copied per wave, linked across time</text>
<g id="clust1" class="cluster">
<title>cluster_1</title>
<path fill="#fbfbfc" stroke="#c9ced6" d="M186.25,-544.38C186.25,-544.38 1319.29,-544.38 1319.29,-544.38 1325.29,-544.38 1331.29,-550.38 1331.29,-556.38 1331.29,-556.38 1331.29,-999.38 1331.29,-999.38 1331.29,-1005.38 1325.29,-1011.38 1319.29,-1011.38 1319.29,-1011.38 186.25,-1011.38 186.25,-1011.38 180.25,-1011.38 174.25,-1005.38 174.25,-999.38 174.25,-999.38 174.25,-556.38 174.25,-556.38 174.25,-550.38 180.25,-544.38 186.25,-544.38"/>
<text xml:space="preserve" text-anchor="middle" x="752.77" y="-994.08" font-family="Helvetica,sans-Serif" font-weight="bold" font-size="14.00" fill="#404650">WAVE t &#160;· &#160;the base DAG (a copy)</text>
</g>
<g id="clust6" class="cluster">
<title>cluster_2</title>
<path fill="#fbfbfc" stroke="#c9ced6" d="M539.09,-69.38C539.09,-69.38 1489.88,-69.38 1489.88,-69.38 1495.88,-69.38 1501.88,-75.38 1501.88,-81.38 1501.88,-81.38 1501.88,-524.38 1501.88,-524.38 1501.88,-530.38 1495.88,-536.38 1489.88,-536.38 1489.88,-536.38 539.09,-536.38 539.09,-536.38 533.09,-536.38 527.09,-530.38 527.09,-524.38 527.09,-524.38 527.09,-81.38 527.09,-81.38 527.09,-75.38 533.09,-69.38 539.09,-69.38"/>
<text xml:space="preserve" text-anchor="middle" x="1014.49" y="-519.08" font-family="Helvetica,sans-Serif" font-weight="bold" font-size="14.00" fill="#404650">WAVE t+1 &#160;· &#160;the base DAG (a copy)</text>
</g>
<!-- SP_1 -->
<g id="node1" class="node">
<title>SP_1</title>
<path fill="#fbe1e0" stroke="#d0433f" stroke-width="1.3" d="M279.84,-850.38C279.84,-850.38 200.25,-850.38 200.25,-850.38 194.25,-850.38 188.25,-844.38 188.25,-838.38 188.25,-838.38 188.25,-826.38 188.25,-826.38 188.25,-820.38 194.25,-814.38 200.25,-814.38 200.25,-814.38 279.84,-814.38 279.84,-814.38 285.84,-814.38 291.84,-820.38 291.84,-826.38 291.84,-826.38 291.84,-838.38 291.84,-838.38 291.84,-844.38 285.84,-850.38 279.84,-850.38"/>
<text xml:space="preserve" text-anchor="middle" x="240.05" y="-833.93" font-family="Helvetica,sans-Serif" font-size="11.00">SP</text>
<text xml:space="preserve" text-anchor="middle" x="240.05" y="-821.93" font-family="Helvetica,sans-Serif" font-size="11.00">speech production</text>
</g>
<!-- EV_1 -->
<g id="node4" class="node">
<title>EV_1</title>
<path fill="#d6ebe4" stroke="#2f9e78" stroke-width="1.3" d="M792.77,-752.38C792.77,-752.38 718.43,-752.38 718.43,-752.38 712.43,-752.38 706.43,-746.38 706.43,-740.38 706.43,-740.38 706.43,-728.38 706.43,-728.38 706.43,-722.38 712.43,-716.38 718.43,-716.38 718.43,-716.38 792.77,-716.38 792.77,-716.38 798.77,-716.38 804.77,-722.38 804.77,-728.38 804.77,-728.38 804.77,-740.38 804.77,-740.38 804.77,-746.38 798.77,-752.38 792.77,-752.38"/>
<text xml:space="preserve" text-anchor="middle" x="755.6" y="-735.93" font-family="Helvetica,sans-Serif" font-size="11.00">EV</text>
<text xml:space="preserve" text-anchor="middle" x="755.6" y="-723.93" font-family="Helvetica,sans-Serif" font-size="11.00">expressive vocab</text>
</g>
<!-- SP_1&#45;&gt;EV_1 -->
<g id="edge28" class="edge">
<title>SP_1&#45;&gt;EV_1</title>
<path fill="none" stroke="#d0433f" stroke-width="1.15" d="M292.37,-834.36C370.33,-835.89 522.46,-833.06 644.68,-795.38 672.11,-786.93 700.36,-771.06 721.35,-757.63"/>
<polygon fill="#d0433f" stroke="#d0433f" stroke-width="1.15" points="722.48,-759.82 727,-753.95 719.8,-755.72 722.48,-759.82"/>
</g>
<!-- TE_1 -->
<g id="node10" class="node">
<title>TE_1</title>
<path fill="#e7ddf5" stroke="#7a52b3" stroke-width="1.3" d="M630.8,-787.38C630.8,-787.38 554.97,-787.38 554.97,-787.38 548.97,-787.38 542.97,-781.38 542.97,-775.38 542.97,-775.38 542.97,-763.38 542.97,-763.38 542.97,-757.38 548.97,-751.38 554.97,-751.38 554.97,-751.38 630.8,-751.38 630.8,-751.38 636.8,-751.38 642.8,-757.38 642.8,-763.38 642.8,-763.38 642.8,-775.38 642.8,-775.38 642.8,-781.38 636.8,-787.38 630.8,-787.38"/>
<text xml:space="preserve" text-anchor="middle" x="592.88" y="-770.93" font-family="Helvetica,sans-Serif" font-size="11.00">TE</text>
<text xml:space="preserve" text-anchor="middle" x="592.88" y="-758.93" font-family="Helvetica,sans-Serif" font-size="11.00">taught expressive</text>
</g>
<!-- SP_1&#45;&gt;TE_1 -->
<g id="edge27" class="edge">
<title>SP_1&#45;&gt;TE_1</title>
<path fill="none" stroke="#d0433f" stroke-width="1.15" d="M292.37,-823.54C340.8,-815.16 415.42,-802.14 480.09,-790.38 497.62,-787.19 516.68,-783.65 534.02,-780.39"/>
<polygon fill="#d0433f" stroke="#d0433f" stroke-width="1.15" points="534.24,-782.84 540.67,-779.13 533.33,-778.02 534.24,-782.84"/>
</g>
<!-- LS_1 -->
<g id="node11" class="node">
<title>LS_1</title>
<path fill="#fdecd2" stroke="#c2872a" stroke-width="1.3" d="M781.14,-919.38C781.14,-919.38 730.06,-919.38 730.06,-919.38 724.06,-919.38 718.06,-913.38 718.06,-907.38 718.06,-907.38 718.06,-895.38 718.06,-895.38 718.06,-889.38 724.06,-883.38 730.06,-883.38 730.06,-883.38 781.14,-883.38 781.14,-883.38 787.14,-883.38 793.14,-889.38 793.14,-895.38 793.14,-895.38 793.14,-907.38 793.14,-907.38 793.14,-913.38 787.14,-919.38 781.14,-919.38"/>
<text xml:space="preserve" text-anchor="middle" x="755.6" y="-902.93" font-family="Helvetica,sans-Serif" font-size="11.00">LS</text>
<text xml:space="preserve" text-anchor="middle" x="755.6" y="-890.93" font-family="Helvetica,sans-Serif" font-size="11.00">letter–sound</text>
</g>
<!-- SP_1&#45;&gt;LS_1 -->
<g id="edge29" class="edge">
<title>SP_1&#45;&gt;LS_1</title>
<path fill="none" stroke="#d0433f" stroke-width="1.15" d="M292.25,-842.76C349.32,-854 444.47,-871.73 527.09,-882.38 589.87,-890.47 662.87,-895.86 708.9,-898.77"/>
<polygon fill="#d0433f" stroke="#d0433f" stroke-width="1.15" points="708.57,-901.21 715.71,-899.2 708.88,-896.32 708.57,-901.21"/>
</g>
<!-- PA_1 -->
<g id="node12" class="node">
<title>PA_1</title>
<path fill="#fdecd2" stroke="#c2872a" stroke-width="1.3" d="M955.86,-866.7C955.86,-866.7 883.02,-866.7 883.02,-866.7 877.02,-866.7 871.02,-860.7 871.02,-854.7 871.02,-854.7 871.02,-834.06 871.02,-834.06 871.02,-828.06 877.02,-822.06 883.02,-822.06 883.02,-822.06 955.86,-822.06 955.86,-822.06 961.86,-822.06 967.86,-828.06 967.86,-834.06 967.86,-834.06 967.86,-854.7 967.86,-854.7 967.86,-860.7 961.86,-866.7 955.86,-866.7"/>
<text xml:space="preserve" text-anchor="middle" x="919.44" y="-851.93" font-family="Helvetica,sans-Serif" font-size="11.00">PA</text>
<text xml:space="preserve" text-anchor="middle" x="919.44" y="-839.93" font-family="Helvetica,sans-Serif" font-size="11.00">phoneme aware.</text>
<text xml:space="preserve" text-anchor="middle" x="919.44" y="-827.93" font-family="Helvetica,sans-Serif" font-size="11.00">(blending)</text>
</g>
<!-- SP_1&#45;&gt;PA_1 -->
<g id="edge30" class="edge">
<title>SP_1&#45;&gt;PA_1</title>
<path fill="none" stroke="#d0433f" stroke-width="1.15" d="M292.43,-835.65C349.67,-839.12 444.95,-844.37 527.09,-846.38 650.8,-849.41 681.78,-847.48 805.52,-846.38 823.89,-846.22 843.93,-845.91 861.96,-845.58"/>
<polygon fill="#d0433f" stroke="#d0433f" stroke-width="1.15" points="861.95,-848.03 868.9,-845.45 861.86,-843.13 861.95,-848.03"/>
</g>
<!-- NW_1 -->
<g id="node13" class="node">
<title>NW_1</title>
<path fill="#fdecd2" stroke="#c2872a" stroke-width="1.3" d="M1126.45,-902.38C1126.45,-902.38 1053.61,-902.38 1053.61,-902.38 1047.61,-902.38 1041.61,-896.38 1041.61,-890.38 1041.61,-890.38 1041.61,-878.38 1041.61,-878.38 1041.61,-872.38 1047.61,-866.38 1053.61,-866.38 1053.61,-866.38 1126.45,-866.38 1126.45,-866.38 1132.45,-866.38 1138.45,-872.38 1138.45,-878.38 1138.45,-878.38 1138.45,-890.38 1138.45,-890.38 1138.45,-896.38 1132.45,-902.38 1126.45,-902.38"/>
<text xml:space="preserve" text-anchor="middle" x="1090.03" y="-885.93" font-family="Helvetica,sans-Serif" font-size="11.00">NW</text>
<text xml:space="preserve" text-anchor="middle" x="1090.03" y="-873.93" font-family="Helvetica,sans-Serif" font-size="11.00">nonword reading</text>
</g>
<!-- SP_1&#45;&gt;NW_1 -->
<g id="edge31" class="edge">
<title>SP_1&#45;&gt;NW_1</title>
<path fill="none" stroke="#d0433f" stroke-width="1.15" d="M278.65,-850.94C387.77,-902.26 713.19,-1037.35 972.36,-960.38 1006.59,-950.22 1040.16,-926.48 1062.44,-908.21"/>
<polygon fill="#d0433f" stroke="#d0433f" stroke-width="1.15" points="1063.85,-910.23 1067.65,-903.86 1060.7,-906.47 1063.85,-910.23"/>
</g>
<!-- SP_2 -->
<g id="node16" class="node">
<title>SP_2</title>
<path fill="#fbe1e0" stroke="#d0433f" stroke-width="1.3" d="M632.68,-270.38C632.68,-270.38 553.09,-270.38 553.09,-270.38 547.09,-270.38 541.09,-264.38 541.09,-258.38 541.09,-258.38 541.09,-246.38 541.09,-246.38 541.09,-240.38 547.09,-234.38 553.09,-234.38 553.09,-234.38 632.68,-234.38 632.68,-234.38 638.68,-234.38 644.68,-240.38 644.68,-246.38 644.68,-246.38 644.68,-258.38 644.68,-258.38 644.68,-264.38 638.68,-270.38 632.68,-270.38"/>
<text xml:space="preserve" text-anchor="middle" x="592.88" y="-253.93" font-family="Helvetica,sans-Serif" font-size="11.00">SP</text>
<text xml:space="preserve" text-anchor="middle" x="592.88" y="-241.93" font-family="Helvetica,sans-Serif" font-size="11.00">speech production</text>
</g>
<!-- SP_1&#45;&gt;SP_2 -->
<g id="edge81" class="edge">
<title>SP_1&#45;&gt;SP_2</title>
<path fill="none" stroke="#aeb4bd" stroke-width="1.1" d="M292.33,-839.62C347.3,-844.19 432.99,-841.53 480.09,-790.38 557.49,-706.33 458.82,-370 527.09,-278.38 529.01,-275.8 531.24,-273.47 533.67,-271.38"/>
<polygon fill="#aeb4bd" stroke="#aeb4bd" stroke-width="1.1" points="535.01,-273.43 539.23,-267.33 532.13,-269.47 535.01,-273.43"/>
</g>
<!-- RW_1 -->
<g id="node2" class="node">
<title>RW_1</title>
<path fill="#d6ebe4" stroke="#2f9e78" stroke-width="1.3" d="M274.22,-782.7C274.22,-782.7 205.88,-782.7 205.88,-782.7 199.88,-782.7 193.88,-776.7 193.88,-770.7 193.88,-770.7 193.88,-750.06 193.88,-750.06 193.88,-744.06 199.88,-738.06 205.88,-738.06 205.88,-738.06 274.22,-738.06 274.22,-738.06 280.22,-738.06 286.22,-744.06 286.22,-750.06 286.22,-750.06 286.22,-770.7 286.22,-770.7 286.22,-776.7 280.22,-782.7 274.22,-782.7"/>
<text xml:space="preserve" text-anchor="middle" x="240.05" y="-767.93" font-family="Helvetica,sans-Serif" font-size="11.00">RW</text>
<text xml:space="preserve" text-anchor="middle" x="240.05" y="-755.93" font-family="Helvetica,sans-Serif" font-size="11.00">word repetition</text>
<text xml:space="preserve" text-anchor="middle" x="240.05" y="-743.93" font-family="Helvetica,sans-Serif" font-size="11.00">(phon. memory)</text>
</g>
<!-- RV_1 -->
<g id="node3" class="node">
<title>RV_1</title>
<path fill="#d6ebe4" stroke="#2f9e78" stroke-width="1.3" d="M789.02,-628.38C789.02,-628.38 722.18,-628.38 722.18,-628.38 716.18,-628.38 710.18,-622.38 710.18,-616.38 710.18,-616.38 710.18,-604.38 710.18,-604.38 710.18,-598.38 716.18,-592.38 722.18,-592.38 722.18,-592.38 789.02,-592.38 789.02,-592.38 795.02,-592.38 801.02,-598.38 801.02,-604.38 801.02,-604.38 801.02,-616.38 801.02,-616.38 801.02,-622.38 795.02,-628.38 789.02,-628.38"/>
<text xml:space="preserve" text-anchor="middle" x="755.6" y="-611.93" font-family="Helvetica,sans-Serif" font-size="11.00">RV</text>
<text xml:space="preserve" text-anchor="middle" x="755.6" y="-599.93" font-family="Helvetica,sans-Serif" font-size="11.00">receptive vocab</text>
</g>
<!-- RW_1&#45;&gt;RV_1 -->
<g id="edge15" class="edge">
<title>RW_1&#45;&gt;RV_1</title>
<path fill="none" stroke="#2f9e78" stroke-width="1.15" d="M286.53,-738.58C342.07,-712.83 439.46,-670.45 527.09,-646.38 585.72,-630.28 654.95,-620.6 701.52,-615.4"/>
<polygon fill="#2f9e78" stroke="#2f9e78" stroke-width="1.15" points="701.52,-617.87 708.21,-614.67 700.99,-613 701.52,-617.87"/>
</g>
<!-- RW_1&#45;&gt;EV_1 -->
<g id="edge13" class="edge">
<title>RW_1&#45;&gt;EV_1</title>
<path fill="none" stroke="#2f9e78" stroke-width="1.15" d="M286.61,-757.39C343.04,-753.76 442.12,-747.59 527.09,-743.38 585.14,-740.51 651.55,-737.97 697.57,-736.32"/>
<polygon fill="#2f9e78" stroke="#2f9e78" stroke-width="1.15" points="697.56,-738.78 704.47,-736.08 697.39,-733.88 697.56,-738.78"/>
</g>
<!-- TR_1 -->
<g id="node9" class="node">
<title>TR_1</title>
<path fill="#e7ddf5" stroke="#7a52b3" stroke-width="1.3" d="M627.05,-690.38C627.05,-690.38 558.72,-690.38 558.72,-690.38 552.72,-690.38 546.72,-684.38 546.72,-678.38 546.72,-678.38 546.72,-666.38 546.72,-666.38 546.72,-660.38 552.72,-654.38 558.72,-654.38 558.72,-654.38 627.05,-654.38 627.05,-654.38 633.05,-654.38 639.05,-660.38 639.05,-666.38 639.05,-666.38 639.05,-678.38 639.05,-678.38 639.05,-684.38 633.05,-690.38 627.05,-690.38"/>
<text xml:space="preserve" text-anchor="middle" x="592.88" y="-673.93" font-family="Helvetica,sans-Serif" font-size="11.00">TR</text>
<text xml:space="preserve" text-anchor="middle" x="592.88" y="-661.93" font-family="Helvetica,sans-Serif" font-size="11.00">taught receptive</text>
</g>
<!-- RW_1&#45;&gt;TR_1 -->
<g id="edge14" class="edge">
<title>RW_1&#45;&gt;TR_1</title>
<path fill="none" stroke="#2f9e78" stroke-width="1.15" d="M286.55,-748.97C351.14,-732.77 469.17,-703.16 538.03,-685.89"/>
<polygon fill="#2f9e78" stroke="#2f9e78" stroke-width="1.15" points="538.3,-688.35 544.49,-684.27 537.11,-683.6 538.3,-688.35"/>
</g>
<!-- RW_1&#45;&gt;TE_1 -->
<g id="edge12" class="edge">
<title>RW_1&#45;&gt;TE_1</title>
<path fill="none" stroke="#2f9e78" stroke-width="1.15" d="M286.55,-761.55C349.85,-763.17 464.49,-766.11 533.86,-767.89"/>
<polygon fill="#2f9e78" stroke="#2f9e78" stroke-width="1.15" points="533.7,-770.34 540.76,-768.07 533.83,-765.44 533.7,-770.34"/>
</g>
<!-- RW_1&#45;&gt;PA_1 -->
<g id="edge16" class="edge">
<title>RW_1&#45;&gt;PA_1</title>
<path fill="none" stroke="#2f9e78" stroke-width="1.15" d="M286.44,-769.57C342.7,-780.66 441.61,-799.22 527.09,-810.38 645.76,-825.88 785.63,-836.11 861.87,-841.01"/>
<polygon fill="#2f9e78" stroke="#2f9e78" stroke-width="1.15" points="861.52,-843.44 868.66,-841.44 861.83,-838.55 861.52,-843.44"/>
</g>
<!-- RW_1&#45;&gt;NW_1 -->
<g id="edge17" class="edge">
<title>RW_1&#45;&gt;NW_1</title>
<path fill="none" stroke="#2f9e78" stroke-width="1.15" d="M286.62,-765C335.53,-770.91 414.97,-783.26 480.09,-806.38 587.3,-844.45 595.34,-899.66 705.68,-927.38 748.72,-938.19 761.27,-930.72 805.52,-927.38 884.85,-921.4 975.61,-906.13 1032.62,-895.5"/>
<polygon fill="#2f9e78" stroke="#2f9e78" stroke-width="1.15" points="1032.99,-897.92 1039.41,-894.22 1032.08,-893.11 1032.99,-897.92"/>
</g>
<!-- PS_1 -->
<g id="node14" class="node">
<title>PS_1</title>
<path fill="#fdecd2" stroke="#c2872a" stroke-width="2.2" d="M1125.7,-832.38C1125.7,-832.38 1054.36,-832.38 1054.36,-832.38 1048.36,-832.38 1042.36,-826.38 1042.36,-820.38 1042.36,-820.38 1042.36,-808.38 1042.36,-808.38 1042.36,-802.38 1048.36,-796.38 1054.36,-796.38 1054.36,-796.38 1125.7,-796.38 1125.7,-796.38 1131.7,-796.38 1137.7,-802.38 1137.7,-808.38 1137.7,-808.38 1137.7,-820.38 1137.7,-820.38 1137.7,-826.38 1131.7,-832.38 1125.7,-832.38"/>
<text xml:space="preserve" text-anchor="middle" x="1090.03" y="-815.93" font-family="Helvetica,sans-Serif" font-size="11.00">PS</text>
<text xml:space="preserve" text-anchor="middle" x="1090.03" y="-803.93" font-family="Helvetica,sans-Serif" font-size="11.00">phonetic spelling</text>
</g>
<!-- RW_1&#45;&gt;PS_1 -->
<g id="edge18" class="edge">
<title>RW_1&#45;&gt;PS_1</title>
<path fill="none" stroke="#2f9e78" stroke-width="1.15" d="M286.5,-767.2C342.82,-775.35 441.8,-788.73 527.09,-795.38 711.96,-809.79 931.89,-813.28 1033.05,-814.12"/>
<polygon fill="#2f9e78" stroke="#2f9e78" stroke-width="1.15" points="1032.83,-816.57 1039.85,-814.17 1032.87,-811.67 1032.83,-816.57"/>
</g>
<!-- RW_2 -->
<g id="node17" class="node">
<title>RW_2</title>
<path fill="#d6ebe4" stroke="#2f9e78" stroke-width="1.3" d="M627.05,-330.7C627.05,-330.7 558.72,-330.7 558.72,-330.7 552.72,-330.7 546.72,-324.7 546.72,-318.7 546.72,-318.7 546.72,-298.06 546.72,-298.06 546.72,-292.06 552.72,-286.06 558.72,-286.06 558.72,-286.06 627.05,-286.06 627.05,-286.06 633.05,-286.06 639.05,-292.06 639.05,-298.06 639.05,-298.06 639.05,-318.7 639.05,-318.7 639.05,-324.7 633.05,-330.7 627.05,-330.7"/>
<text xml:space="preserve" text-anchor="middle" x="592.88" y="-315.93" font-family="Helvetica,sans-Serif" font-size="11.00">RW</text>
<text xml:space="preserve" text-anchor="middle" x="592.88" y="-303.93" font-family="Helvetica,sans-Serif" font-size="11.00">word repetition</text>
<text xml:space="preserve" text-anchor="middle" x="592.88" y="-291.93" font-family="Helvetica,sans-Serif" font-size="11.00">(phon. memory)</text>
</g>
<!-- RW_1&#45;&gt;RW_2 -->
<g id="edge82" class="edge">
<title>RW_1&#45;&gt;RW_2</title>
<path fill="none" stroke="#aeb4bd" stroke-width="1.1" d="M258.68,-737.66C317,-662.52 503.61,-422.11 568.99,-337.88"/>
<polygon fill="#aeb4bd" stroke="#aeb4bd" stroke-width="1.1" points="570.83,-339.5 573.19,-332.47 566.96,-336.49 570.83,-339.5"/>
</g>
<!-- RV_1&#45;&gt;EV_1 -->
<g id="edge19" class="edge">
<title>RV_1&#45;&gt;EV_1</title>
<path fill="none" stroke="#2f9e78" stroke-width="1.15" d="M755.6,-628.79C755.6,-654.97 755.6,-681.14 755.6,-707.32"/>
<polygon fill="#2f9e78" stroke="#2f9e78" stroke-width="1.15" points="753.15,-707.08 755.6,-714.08 758.05,-707.08 753.15,-707.08"/>
</g>
<!-- LF_1 -->
<g id="node5" class="node">
<title>LF_1</title>
<path fill="#eceef1" stroke="#9aa0a8" stroke-width="1.3" d="M950.99,-612.38C950.99,-612.38 887.9,-612.38 887.9,-612.38 881.9,-612.38 875.9,-606.38 875.9,-600.38 875.9,-600.38 875.9,-588.38 875.9,-588.38 875.9,-582.38 881.9,-576.38 887.9,-576.38 887.9,-576.38 950.99,-576.38 950.99,-576.38 956.99,-576.38 962.99,-582.38 962.99,-588.38 962.99,-588.38 962.99,-600.38 962.99,-600.38 962.99,-606.38 956.99,-612.38 950.99,-612.38"/>
<text xml:space="preserve" text-anchor="middle" x="919.44" y="-595.93" font-family="Helvetica,sans-Serif" font-size="11.00">LF</text>
<text xml:space="preserve" text-anchor="middle" x="919.44" y="-583.93" font-family="Helvetica,sans-Serif" font-size="11.00">language fund.</text>
</g>
<!-- RV_1&#45;&gt;LF_1 -->
<g id="edge20" class="edge">
<title>RV_1&#45;&gt;LF_1</title>
<path fill="none" stroke="#2f9e78" stroke-width="1.15" d="M801.25,-605.97C821.56,-603.96 845.72,-601.57 866.81,-599.49"/>
<polygon fill="#2f9e78" stroke="#2f9e78" stroke-width="1.15" points="866.87,-601.94 873.6,-598.81 866.39,-597.07 866.87,-601.94"/>
</g>
<!-- RG_1 -->
<g id="node6" class="node">
<title>RG_1</title>
<path fill="#eceef1" stroke="#9aa0a8" stroke-width="1.3" d="M960.36,-664.38C960.36,-664.38 878.52,-664.38 878.52,-664.38 872.52,-664.38 866.52,-658.38 866.52,-652.38 866.52,-652.38 866.52,-640.38 866.52,-640.38 866.52,-634.38 872.52,-628.38 878.52,-628.38 878.52,-628.38 960.36,-628.38 960.36,-628.38 966.36,-628.38 972.36,-634.38 972.36,-640.38 972.36,-640.38 972.36,-652.38 972.36,-652.38 972.36,-658.38 966.36,-664.38 960.36,-664.38"/>
<text xml:space="preserve" text-anchor="middle" x="919.44" y="-647.93" font-family="Helvetica,sans-Serif" font-size="11.00">RG</text>
<text xml:space="preserve" text-anchor="middle" x="919.44" y="-635.93" font-family="Helvetica,sans-Serif" font-size="11.00">receptive grammar</text>
</g>
<!-- RV_1&#45;&gt;RG_1 -->
<g id="edge21" class="edge">
<title>RV_1&#45;&gt;RG_1</title>
<path fill="none" stroke="#2f9e78" stroke-width="1.15" d="M801.25,-620.31C818.61,-624.18 838.79,-628.66 857.45,-632.81"/>
<polygon fill="#2f9e78" stroke="#2f9e78" stroke-width="1.15" points="856.84,-635.19 864.2,-634.32 857.9,-630.41 856.84,-635.19"/>
</g>
<!-- WR_1 -->
<g id="node15" class="node">
<title>WR_1</title>
<path fill="#cfe0f7" stroke="#2f6fdb" stroke-width="2.6" d="M1305.29,-832.38C1305.29,-832.38 1223.45,-832.38 1223.45,-832.38 1217.45,-832.38 1211.45,-826.38 1211.45,-820.38 1211.45,-820.38 1211.45,-808.38 1211.45,-808.38 1211.45,-802.38 1217.45,-796.38 1223.45,-796.38 1223.45,-796.38 1305.29,-796.38 1305.29,-796.38 1311.29,-796.38 1317.29,-802.38 1317.29,-808.38 1317.29,-808.38 1317.29,-820.38 1317.29,-820.38 1317.29,-826.38 1311.29,-832.38 1305.29,-832.38"/>
<text xml:space="preserve" text-anchor="middle" x="1264.37" y="-815.93" font-family="Helvetica,sans-Serif" font-weight="bold" font-size="11.00">WR</text>
<text xml:space="preserve" text-anchor="middle" x="1264.37" y="-803.93" font-family="Helvetica,sans-Serif" font-weight="bold" font-size="11.00">WORD READING</text>
</g>
<!-- RV_1&#45;&gt;WR_1 -->
<g id="edge22" class="edge">
<title>RV_1&#45;&gt;WR_1</title>
<path fill="none" stroke="#2f9e78" stroke-width="1.15" d="M795.02,-591.73C815.68,-582.74 841.91,-572.92 866.52,-568.38 912.78,-559.84 927.12,-555.5 972.36,-568.38 1060.03,-593.33 1077.68,-616.85 1146.7,-676.38 1186.34,-710.58 1223.87,-758.82 1245.2,-788.28"/>
<polygon fill="#2f9e78" stroke="#2f9e78" stroke-width="1.15" points="1243.18,-789.66 1249.25,-793.92 1247.16,-786.81 1243.18,-789.66"/>
</g>
<!-- RV_2 -->
<g id="node18" class="node">
<title>RV_2</title>
<path fill="#d6ebe4" stroke="#2f9e78" stroke-width="1.3" d="M952.86,-465.38C952.86,-465.38 886.02,-465.38 886.02,-465.38 880.02,-465.38 874.02,-459.38 874.02,-453.38 874.02,-453.38 874.02,-441.38 874.02,-441.38 874.02,-435.38 880.02,-429.38 886.02,-429.38 886.02,-429.38 952.86,-429.38 952.86,-429.38 958.86,-429.38 964.86,-435.38 964.86,-441.38 964.86,-441.38 964.86,-453.38 964.86,-453.38 964.86,-459.38 958.86,-465.38 952.86,-465.38"/>
<text xml:space="preserve" text-anchor="middle" x="919.44" y="-448.93" font-family="Helvetica,sans-Serif" font-size="11.00">RV</text>
<text xml:space="preserve" text-anchor="middle" x="919.44" y="-436.93" font-family="Helvetica,sans-Serif" font-size="11.00">receptive vocab</text>
</g>
<!-- RV_1&#45;&gt;RV_2 -->
<g id="edge83" class="edge">
<title>RV_1&#45;&gt;RV_2</title>
<path fill="none" stroke="#aeb4bd" stroke-width="1.1" d="M774.85,-592C804.11,-562.53 861.54,-504.69 894.21,-471.79"/>
<polygon fill="#aeb4bd" stroke="#aeb4bd" stroke-width="1.1" points="895.64,-473.82 898.83,-467.13 892.16,-470.37 895.64,-473.82"/>
</g>
<!-- EI_1 -->
<g id="node7" class="node">
<title>EI_1</title>
<path fill="#eceef1" stroke="#9aa0a8" stroke-width="1.3" d="M950.99,-734.38C950.99,-734.38 887.9,-734.38 887.9,-734.38 881.9,-734.38 875.9,-728.38 875.9,-722.38 875.9,-722.38 875.9,-710.38 875.9,-710.38 875.9,-704.38 881.9,-698.38 887.9,-698.38 887.9,-698.38 950.99,-698.38 950.99,-698.38 956.99,-698.38 962.99,-704.38 962.99,-710.38 962.99,-710.38 962.99,-722.38 962.99,-722.38 962.99,-728.38 956.99,-734.38 950.99,-734.38"/>
<text xml:space="preserve" text-anchor="middle" x="919.44" y="-717.93" font-family="Helvetica,sans-Serif" font-size="11.00">EI</text>
<text xml:space="preserve" text-anchor="middle" x="919.44" y="-705.93" font-family="Helvetica,sans-Serif" font-size="11.00">expressive info</text>
</g>
<!-- EV_1&#45;&gt;EI_1 -->
<g id="edge24" class="edge">
<title>EV_1&#45;&gt;EI_1</title>
<path fill="none" stroke="#2f9e78" stroke-width="1.15" d="M805.16,-728.98C824.62,-726.82 847.08,-724.32 866.84,-722.12"/>
<polygon fill="#2f9e78" stroke="#2f9e78" stroke-width="1.15" points="867,-724.57 873.69,-721.36 866.46,-719.7 867,-724.57"/>
</g>
<!-- EG_1 -->
<g id="node8" class="node">
<title>EG_1</title>
<path fill="#eceef1" stroke="#9aa0a8" stroke-width="1.3" d="M1134.7,-748.38C1134.7,-748.38 1045.36,-748.38 1045.36,-748.38 1039.36,-748.38 1033.36,-742.38 1033.36,-736.38 1033.36,-736.38 1033.36,-724.38 1033.36,-724.38 1033.36,-718.38 1039.36,-712.38 1045.36,-712.38 1045.36,-712.38 1134.7,-712.38 1134.7,-712.38 1140.7,-712.38 1146.7,-718.38 1146.7,-724.38 1146.7,-724.38 1146.7,-736.38 1146.7,-736.38 1146.7,-742.38 1140.7,-748.38 1134.7,-748.38"/>
<text xml:space="preserve" text-anchor="middle" x="1090.03" y="-731.93" font-family="Helvetica,sans-Serif" font-size="11.00">EG</text>
<text xml:space="preserve" text-anchor="middle" x="1090.03" y="-719.93" font-family="Helvetica,sans-Serif" font-size="11.00">expressive grammar</text>
</g>
<!-- EV_1&#45;&gt;EG_1 -->
<g id="edge23" class="edge">
<title>EV_1&#45;&gt;EG_1</title>
<path fill="none" stroke="#2f9e78" stroke-width="1.15" d="M805.26,-738.69C824.34,-740.17 846.44,-741.65 866.52,-742.38 913.53,-744.09 925.38,-744.79 972.36,-742.38 989.16,-741.52 1007.26,-739.97 1024.08,-738.25"/>
<polygon fill="#2f9e78" stroke="#2f9e78" stroke-width="1.15" points="1024.31,-740.69 1031.01,-737.53 1023.8,-735.82 1024.31,-740.69"/>
</g>
<!-- EV_1&#45;&gt;PA_1 -->
<g id="edge25" class="edge">
<title>EV_1&#45;&gt;PA_1</title>
<path fill="none" stroke="#2f9e78" stroke-width="1.15" d="M783.69,-752.79C809.43,-770.29 848.47,-796.83 877.92,-816.84"/>
<polygon fill="#2f9e78" stroke="#2f9e78" stroke-width="1.15" points="876.2,-818.63 883.36,-820.54 878.95,-814.58 876.2,-818.63"/>
</g>
<!-- EV_1&#45;&gt;WR_1 -->
<g id="edge26" class="edge">
<title>EV_1&#45;&gt;WR_1</title>
<path fill="none" stroke="#2f9e78" stroke-width="1.15" d="M805.09,-740.59C894.48,-752.12 1082.02,-776.72 1146.7,-788.38 1164.85,-791.66 1184.47,-795.79 1202.34,-799.79"/>
<polygon fill="#2f9e78" stroke="#2f9e78" stroke-width="1.15" points="1201.35,-802.08 1208.71,-801.24 1202.43,-797.3 1201.35,-802.08"/>
</g>
<!-- EV_2 -->
<g id="node19" class="node">
<title>EV_2</title>
<path fill="#d6ebe4" stroke="#2f9e78" stroke-width="1.3" d="M956.61,-306.38C956.61,-306.38 882.27,-306.38 882.27,-306.38 876.27,-306.38 870.27,-300.38 870.27,-294.38 870.27,-294.38 870.27,-282.38 870.27,-282.38 870.27,-276.38 876.27,-270.38 882.27,-270.38 882.27,-270.38 956.61,-270.38 956.61,-270.38 962.61,-270.38 968.61,-276.38 968.61,-282.38 968.61,-282.38 968.61,-294.38 968.61,-294.38 968.61,-300.38 962.61,-306.38 956.61,-306.38"/>
<text xml:space="preserve" text-anchor="middle" x="919.44" y="-289.93" font-family="Helvetica,sans-Serif" font-size="11.00">EV</text>
<text xml:space="preserve" text-anchor="middle" x="919.44" y="-277.93" font-family="Helvetica,sans-Serif" font-size="11.00">expressive vocab</text>
</g>
<!-- EV_1&#45;&gt;EV_2 -->
<g id="edge84" class="edge">
<title>EV_1&#45;&gt;EV_2</title>
<path fill="none" stroke="#aeb4bd" stroke-width="1.1" d="M767.77,-715.9C778.91,-696.68 795.74,-665.39 805.52,-636.38 852.04,-498.36 778.73,-430.61 866.52,-314.38 866.91,-313.87 867.31,-313.37 867.72,-312.87"/>
<polygon fill="#aeb4bd" stroke="#aeb4bd" stroke-width="1.1" points="869.26,-314.8 872.5,-308.13 865.81,-311.32 869.26,-314.8"/>
</g>
<!-- LF_2 -->
<g id="node20" class="node">
<title>LF_2</title>
<path fill="#eceef1" stroke="#9aa0a8" stroke-width="1.3" d="M1121.58,-429.38C1121.58,-429.38 1058.49,-429.38 1058.49,-429.38 1052.49,-429.38 1046.49,-423.38 1046.49,-417.38 1046.49,-417.38 1046.49,-405.38 1046.49,-405.38 1046.49,-399.38 1052.49,-393.38 1058.49,-393.38 1058.49,-393.38 1121.58,-393.38 1121.58,-393.38 1127.58,-393.38 1133.58,-399.38 1133.58,-405.38 1133.58,-405.38 1133.58,-417.38 1133.58,-417.38 1133.58,-423.38 1127.58,-429.38 1121.58,-429.38"/>
<text xml:space="preserve" text-anchor="middle" x="1090.03" y="-412.93" font-family="Helvetica,sans-Serif" font-size="11.00">LF</text>
<text xml:space="preserve" text-anchor="middle" x="1090.03" y="-400.93" font-family="Helvetica,sans-Serif" font-size="11.00">language fund.</text>
</g>
<!-- LF_1&#45;&gt;LF_2 -->
<g id="edge85" class="edge">
<title>LF_1&#45;&gt;LF_2</title>
<path fill="none" stroke="#aeb4bd" stroke-width="1.1" d="M940.33,-575.87C950.51,-565.87 962.75,-553.01 972.36,-540.38 1004.57,-498.03 993.95,-473.12 1033.36,-437.38 1035.14,-435.77 1037.03,-434.24 1039.01,-432.79"/>
<polygon fill="#aeb4bd" stroke="#aeb4bd" stroke-width="1.1" points="1040.13,-434.99 1044.62,-429.09 1037.43,-430.9 1040.13,-434.99"/>
</g>
<!-- RG_1&#45;&gt;EG_1 -->
<g id="edge40" class="edge">
<title>RG_1&#45;&gt;EG_1</title>
<path fill="none" stroke="#9aa0a8" stroke-width="1.15" d="M957.86,-665.02C983.28,-677.69 1017.06,-694.52 1043.97,-707.93"/>
<polygon fill="#9aa0a8" stroke="#9aa0a8" stroke-width="1.15" points="1042.8,-710.09 1050.16,-711.02 1044.99,-705.7 1042.8,-710.09"/>
</g>
<!-- RG_2 -->
<g id="node21" class="node">
<title>RG_2</title>
<path fill="#eceef1" stroke="#9aa0a8" stroke-width="1.3" d="M1130.95,-481.38C1130.95,-481.38 1049.11,-481.38 1049.11,-481.38 1043.11,-481.38 1037.11,-475.38 1037.11,-469.38 1037.11,-469.38 1037.11,-457.38 1037.11,-457.38 1037.11,-451.38 1043.11,-445.38 1049.11,-445.38 1049.11,-445.38 1130.95,-445.38 1130.95,-445.38 1136.95,-445.38 1142.95,-451.38 1142.95,-457.38 1142.95,-457.38 1142.95,-469.38 1142.95,-469.38 1142.95,-475.38 1136.95,-481.38 1130.95,-481.38"/>
<text xml:space="preserve" text-anchor="middle" x="1090.03" y="-464.93" font-family="Helvetica,sans-Serif" font-size="11.00">RG</text>
<text xml:space="preserve" text-anchor="middle" x="1090.03" y="-452.93" font-family="Helvetica,sans-Serif" font-size="11.00">receptive grammar</text>
</g>
<!-- RG_1&#45;&gt;RG_2 -->
<g id="edge86" class="edge">
<title>RG_1&#45;&gt;RG_2</title>
<path fill="none" stroke="#aeb4bd" stroke-width="1.1" d="M962.09,-627.79C965.71,-625.51 969.19,-623.04 972.36,-620.38 978.52,-615.21 1039.46,-531.71 1070.73,-488.65"/>
<polygon fill="#aeb4bd" stroke="#aeb4bd" stroke-width="1.1" points="1072.55,-490.3 1074.68,-483.2 1068.59,-487.42 1072.55,-490.3"/>
</g>
<!-- EI_2 -->
<g id="node22" class="node">
<title>EI_2</title>
<path fill="#eceef1" stroke="#9aa0a8" stroke-width="1.3" d="M1121.58,-287.38C1121.58,-287.38 1058.49,-287.38 1058.49,-287.38 1052.49,-287.38 1046.49,-281.38 1046.49,-275.38 1046.49,-275.38 1046.49,-263.38 1046.49,-263.38 1046.49,-257.38 1052.49,-251.38 1058.49,-251.38 1058.49,-251.38 1121.58,-251.38 1121.58,-251.38 1127.58,-251.38 1133.58,-257.38 1133.58,-263.38 1133.58,-263.38 1133.58,-275.38 1133.58,-275.38 1133.58,-281.38 1127.58,-287.38 1121.58,-287.38"/>
<text xml:space="preserve" text-anchor="middle" x="1090.03" y="-270.93" font-family="Helvetica,sans-Serif" font-size="11.00">EI</text>
<text xml:space="preserve" text-anchor="middle" x="1090.03" y="-258.93" font-family="Helvetica,sans-Serif" font-size="11.00">expressive info</text>
</g>
<!-- EI_1&#45;&gt;EI_2 -->
<g id="edge87" class="edge">
<title>EI_1&#45;&gt;EI_2</title>
<path fill="none" stroke="#aeb4bd" stroke-width="1.1" d="M948.84,-697.93C957.6,-690.92 966.48,-682.22 972.36,-672.38 1039.25,-560.44 991.3,-508.82 1033.36,-385.38 1044.37,-353.09 1062.05,-318.04 1074.53,-295.01"/>
<polygon fill="#aeb4bd" stroke="#aeb4bd" stroke-width="1.1" points="1076.53,-296.47 1077.75,-289.15 1072.24,-294.11 1076.53,-296.47"/>
</g>
<!-- EG_2 -->
<g id="node23" class="node">
<title>EG_2</title>
<path fill="#eceef1" stroke="#9aa0a8" stroke-width="1.3" d="M1309.04,-359.38C1309.04,-359.38 1219.7,-359.38 1219.7,-359.38 1213.7,-359.38 1207.7,-353.38 1207.7,-347.38 1207.7,-347.38 1207.7,-335.38 1207.7,-335.38 1207.7,-329.38 1213.7,-323.38 1219.7,-323.38 1219.7,-323.38 1309.04,-323.38 1309.04,-323.38 1315.04,-323.38 1321.04,-329.38 1321.04,-335.38 1321.04,-335.38 1321.04,-347.38 1321.04,-347.38 1321.04,-353.38 1315.04,-359.38 1309.04,-359.38"/>
<text xml:space="preserve" text-anchor="middle" x="1264.37" y="-342.93" font-family="Helvetica,sans-Serif" font-size="11.00">EG</text>
<text xml:space="preserve" text-anchor="middle" x="1264.37" y="-330.93" font-family="Helvetica,sans-Serif" font-size="11.00">expressive grammar</text>
</g>
<!-- EG_1&#45;&gt;EG_2 -->
<g id="edge88" class="edge">
<title>EG_1&#45;&gt;EG_2</title>
<path fill="none" stroke="#aeb4bd" stroke-width="1.1" d="M1099.23,-711.88C1127.24,-648.66 1219.22,-441.03 1251.8,-367.49"/>
<polygon fill="#aeb4bd" stroke="#aeb4bd" stroke-width="1.1" points="1253.85,-368.91 1254.45,-361.52 1249.37,-366.93 1253.85,-368.91"/>
</g>
<!-- TR_1&#45;&gt;RV_1 -->
<g id="edge2" class="edge">
<title>TR_1&#45;&gt;RV_1</title>
<path fill="none" stroke="#7a52b3" stroke-width="1.15" d="M639.51,-654.78C658.84,-647.32 681.49,-638.59 701.56,-630.84"/>
<polygon fill="#7a52b3" stroke="#7a52b3" stroke-width="1.15" points="702.42,-633.14 708.07,-628.33 700.66,-628.56 702.42,-633.14"/>
</g>
<!-- TR_1&#45;&gt;EV_1 -->
<g id="edge3" class="edge">
<title>TR_1&#45;&gt;EV_1</title>
<path fill="none" stroke="#7a52b3" stroke-width="1.15" d="M639.51,-689.98C657.78,-697.03 679.02,-705.22 698.24,-712.64"/>
<polygon fill="#7a52b3" stroke="#7a52b3" stroke-width="1.15" points="697.3,-714.9 704.71,-715.14 699.06,-710.33 697.3,-714.9"/>
</g>
<!-- TR_1&#45;&gt;LF_1 -->
<g id="edge4" class="edge">
<title>TR_1&#45;&gt;LF_1</title>
<path fill="none" stroke="#7a52b3" stroke-width="1.15" d="M639.51,-663.42C659.75,-659.55 683.87,-655.07 705.68,-651.38 749.92,-643.91 762.07,-647.6 805.52,-636.38 826.16,-631.05 848.27,-623.31 867.41,-615.92"/>
<polygon fill="#7a52b3" stroke="#7a52b3" stroke-width="1.15" points="868.17,-618.25 873.79,-613.41 866.38,-613.69 868.17,-618.25"/>
</g>
<!-- TR_1&#45;&gt;RG_1 -->
<g id="edge5" class="edge">
<title>TR_1&#45;&gt;RG_1</title>
<path fill="none" stroke="#7a52b3" stroke-width="1.15" d="M639.7,-668.71C696.61,-664.15 793.9,-656.36 857.18,-651.29"/>
<polygon fill="#7a52b3" stroke="#7a52b3" stroke-width="1.15" points="857.35,-653.73 864.14,-650.73 856.96,-648.85 857.35,-653.73"/>
</g>
<!-- TR_1&#45;&gt;TE_1 -->
<g id="edge1" class="edge">
<title>TR_1&#45;&gt;TE_1</title>
<path fill="none" stroke="#7a52b3" stroke-width="1.15" d="M592.88,-690.95C592.88,-708.15 592.88,-725.35 592.88,-742.55"/>
<polygon fill="#7a52b3" stroke="#7a52b3" stroke-width="1.15" points="590.44,-742.26 592.89,-749.26 595.34,-742.26 590.44,-742.26"/>
</g>
<!-- TR_1&#45;&gt;WR_1 -->
<g id="edge6" class="edge">
<title>TR_1&#45;&gt;WR_1</title>
<path fill="none" stroke="#7a52b3" stroke-width="1.15" d="M639.64,-673.19C763.81,-675.63 1100.96,-684.06 1146.7,-704.38 1188.04,-722.75 1223.9,-762.11 1244.59,-788.42"/>
<polygon fill="#7a52b3" stroke="#7a52b3" stroke-width="1.15" points="1242.48,-789.71 1248.7,-793.76 1246.37,-786.72 1242.48,-789.71"/>
</g>
<!-- TR_2 -->
<g id="node24" class="node">
<title>TR_2</title>
<path fill="#e7ddf5" stroke="#7a52b3" stroke-width="1.3" d="M789.77,-403.38C789.77,-403.38 721.43,-403.38 721.43,-403.38 715.43,-403.38 709.43,-397.38 709.43,-391.38 709.43,-391.38 709.43,-379.38 709.43,-379.38 709.43,-373.38 715.43,-367.38 721.43,-367.38 721.43,-367.38 789.77,-367.38 789.77,-367.38 795.77,-367.38 801.77,-373.38 801.77,-379.38 801.77,-379.38 801.77,-391.38 801.77,-391.38 801.77,-397.38 795.77,-403.38 789.77,-403.38"/>
<text xml:space="preserve" text-anchor="middle" x="755.6" y="-386.93" font-family="Helvetica,sans-Serif" font-size="11.00">TR</text>
<text xml:space="preserve" text-anchor="middle" x="755.6" y="-374.93" font-family="Helvetica,sans-Serif" font-size="11.00">taught receptive</text>
</g>
<!-- TR_1&#45;&gt;TR_2 -->
<g id="edge89" class="edge">
<title>TR_1&#45;&gt;TR_2</title>
<path fill="none" stroke="#aeb4bd" stroke-width="1.1" d="M604.18,-653.99C631.84,-604.6 707.82,-468.92 739.95,-411.55"/>
<polygon fill="#aeb4bd" stroke="#aeb4bd" stroke-width="1.1" points="742.08,-412.75 743.37,-405.44 737.81,-410.35 742.08,-412.75"/>
</g>
<!-- TE_1&#45;&gt;EV_1 -->
<g id="edge7" class="edge">
<title>TE_1&#45;&gt;EV_1</title>
<path fill="none" stroke="#7a52b3" stroke-width="1.15" d="M643.42,-758.59C660.46,-754.88 679.68,-750.7 697.29,-746.86"/>
<polygon fill="#7a52b3" stroke="#7a52b3" stroke-width="1.15" points="697.77,-749.27 704.08,-745.38 696.72,-744.48 697.77,-749.27"/>
</g>
<!-- TE_1&#45;&gt;EI_1 -->
<g id="edge9" class="edge">
<title>TE_1&#45;&gt;EI_1</title>
<path fill="none" stroke="#7a52b3" stroke-width="1.15" d="M618.98,-750.88C640.69,-736.11 673.54,-716.58 705.68,-708.38 759.41,-694.68 823.22,-699.78 866.85,-706.35"/>
<polygon fill="#7a52b3" stroke="#7a52b3" stroke-width="1.15" points="866.28,-708.75 873.58,-707.41 867.04,-703.9 866.28,-708.75"/>
</g>
<!-- TE_1&#45;&gt;EG_1 -->
<g id="edge8" class="edge">
<title>TE_1&#45;&gt;EG_1</title>
<path fill="none" stroke="#7a52b3" stroke-width="1.15" d="M643.33,-768.43C715.75,-766.64 854.82,-761.65 972.36,-748.38 989.34,-746.46 1007.63,-743.89 1024.58,-741.28"/>
<polygon fill="#7a52b3" stroke="#7a52b3" stroke-width="1.15" points="1024.52,-743.77 1031.06,-740.27 1023.77,-738.93 1024.52,-743.77"/>
</g>
<!-- TE_1&#45;&gt;PA_1 -->
<g id="edge10" class="edge">
<title>TE_1&#45;&gt;PA_1</title>
<path fill="none" stroke="#7a52b3" stroke-width="1.15" d="M643.18,-780.77C702.03,-794.37 800.25,-817.07 862.07,-831.35"/>
<polygon fill="#7a52b3" stroke="#7a52b3" stroke-width="1.15" points="861.47,-833.73 868.84,-832.92 862.57,-828.96 861.47,-833.73"/>
</g>
<!-- TE_1&#45;&gt;WR_1 -->
<g id="edge11" class="edge">
<title>TE_1&#45;&gt;WR_1</title>
<path fill="none" stroke="#7a52b3" stroke-width="1.15" d="M605.64,-787.95C631.22,-828.03 690.8,-919.68 705.68,-927.38 768.89,-960.09 888.7,-1024.39 1146.7,-921.38 1188.17,-904.82 1224,-866.18 1244.64,-840.16"/>
<polygon fill="#7a52b3" stroke="#7a52b3" stroke-width="1.15" points="1246.38,-841.91 1248.74,-834.88 1242.51,-838.91 1246.38,-841.91"/>
</g>
<!-- TE_2 -->
<g id="node25" class="node">
<title>TE_2</title>
<path fill="#e7ddf5" stroke="#7a52b3" stroke-width="1.3" d="M793.52,-271.38C793.52,-271.38 717.68,-271.38 717.68,-271.38 711.68,-271.38 705.68,-265.38 705.68,-259.38 705.68,-259.38 705.68,-247.38 705.68,-247.38 705.68,-241.38 711.68,-235.38 717.68,-235.38 717.68,-235.38 793.52,-235.38 793.52,-235.38 799.52,-235.38 805.52,-241.38 805.52,-247.38 805.52,-247.38 805.52,-259.38 805.52,-259.38 805.52,-265.38 799.52,-271.38 793.52,-271.38"/>
<text xml:space="preserve" text-anchor="middle" x="755.6" y="-254.93" font-family="Helvetica,sans-Serif" font-size="11.00">TE</text>
<text xml:space="preserve" text-anchor="middle" x="755.6" y="-242.93" font-family="Helvetica,sans-Serif" font-size="11.00">taught expressive</text>
</g>
<!-- TE_1&#45;&gt;TE_2 -->
<g id="edge90" class="edge">
<title>TE_1&#45;&gt;TE_2</title>
<path fill="none" stroke="#aeb4bd" stroke-width="1.1" d="M610.64,-750.9C622.01,-737.33 636.43,-717.93 644.68,-698.38 704.23,-557.35 659.68,-505.39 705.68,-359.38 714.59,-331.1 729.3,-300.52 740.26,-279.51"/>
<polygon fill="#aeb4bd" stroke="#aeb4bd" stroke-width="1.1" points="742.37,-280.75 743.48,-273.42 738.04,-278.46 742.37,-280.75"/>
</g>
<!-- LS_1&#45;&gt;PA_1 -->
<g id="edge33" class="edge">
<title>LS_1&#45;&gt;PA_1</title>
<path fill="none" stroke="#c2872a" stroke-width="1.15" d="M793.73,-888.3C814.01,-881.16 839.54,-872.17 862.21,-864.19"/>
<polygon fill="#c2872a" stroke="#c2872a" stroke-width="1.15" points="862.99,-866.51 868.78,-861.87 861.36,-861.89 862.99,-866.51"/>
</g>
<!-- LS_1&#45;&gt;NW_1 -->
<g id="edge32" class="edge">
<title>LS_1&#45;&gt;NW_1</title>
<path fill="none" stroke="#c2872a" stroke-width="1.15" d="M793.77,-899.48C851.85,-896.51 964.54,-890.75 1032.66,-887.26"/>
<polygon fill="#c2872a" stroke="#c2872a" stroke-width="1.15" points="1032.54,-889.72 1039.41,-886.92 1032.29,-884.83 1032.54,-889.72"/>
</g>
<!-- LS_1&#45;&gt;PS_1 -->
<g id="edge34" class="edge">
<title>LS_1&#45;&gt;PS_1</title>
<path fill="none" stroke="#c2872a" stroke-width="1.15" d="M793.77,-896.9C854.36,-889.56 968.13,-875.69 972.36,-874.38 1000.51,-865.68 1030.01,-850.45 1052.3,-837.51"/>
<polygon fill="#c2872a" stroke="#c2872a" stroke-width="1.15" points="1053.28,-839.77 1058.07,-834.11 1050.8,-835.55 1053.28,-839.77"/>
</g>
<!-- LS_1&#45;&gt;WR_1 -->
<g id="edge35" class="edge">
<title>LS_1&#45;&gt;WR_1</title>
<path fill="none" stroke="#c2872a" stroke-width="1.15" d="M793.69,-905.6C878.17,-914.66 1082.53,-933.39 1146.7,-910.38 1185.75,-896.38 1221.07,-863.05 1242.37,-839.61"/>
<polygon fill="#c2872a" stroke="#c2872a" stroke-width="1.15" points="1244.02,-841.44 1246.84,-834.58 1240.36,-838.18 1244.02,-841.44"/>
</g>
<!-- LS_2 -->
<g id="node26" class="node">
<title>LS_2</title>
<path fill="#fdecd2" stroke="#c2872a" stroke-width="1.3" d="M944.99,-358.38C944.99,-358.38 893.9,-358.38 893.9,-358.38 887.9,-358.38 881.9,-352.38 881.9,-346.38 881.9,-346.38 881.9,-334.38 881.9,-334.38 881.9,-328.38 887.9,-322.38 893.9,-322.38 893.9,-322.38 944.99,-322.38 944.99,-322.38 950.99,-322.38 956.99,-328.38 956.99,-334.38 956.99,-334.38 956.99,-346.38 956.99,-346.38 956.99,-352.38 950.99,-358.38 944.99,-358.38"/>
<text xml:space="preserve" text-anchor="middle" x="919.44" y="-341.93" font-family="Helvetica,sans-Serif" font-size="11.00">LS</text>
<text xml:space="preserve" text-anchor="middle" x="919.44" y="-329.93" font-family="Helvetica,sans-Serif" font-size="11.00">letter–sound</text>
</g>
<!-- LS_1&#45;&gt;LS_2 -->
<g id="edge91" class="edge">
<title>LS_1&#45;&gt;LS_2</title>
<path fill="none" stroke="#aeb4bd" stroke-width="1.1" d="M764.03,-882.96C774.54,-856.31 793.78,-805.25 805.52,-760.38 844.28,-612.28 810.59,-563.88 866.52,-421.38 874.41,-401.29 887.56,-380.85 898.65,-365.52"/>
<polygon fill="#aeb4bd" stroke="#aeb4bd" stroke-width="1.1" points="900.39,-367.29 902.59,-360.2 896.45,-364.37 900.39,-367.29"/>
</g>
<!-- PA_1&#45;&gt;NW_1 -->
<g id="edge37" class="edge">
<title>PA_1&#45;&gt;NW_1</title>
<path fill="none" stroke="#c2872a" stroke-width="1.15" d="M968.3,-855.74C988.32,-860.49 1011.74,-866.04 1032.59,-870.99"/>
<polygon fill="#c2872a" stroke="#c2872a" stroke-width="1.15" points="1031.98,-873.36 1039.36,-872.6 1033.11,-868.6 1031.98,-873.36"/>
</g>
<!-- PA_1&#45;&gt;PS_1 -->
<g id="edge39" class="edge">
<title>PA_1&#45;&gt;PS_1</title>
<path fill="none" stroke="#c2872a" stroke-width="1.15" d="M968.3,-835.87C988.41,-832.29 1011.94,-828.1 1032.86,-824.38"/>
<polygon fill="#c2872a" stroke="#c2872a" stroke-width="1.15" points="1033.17,-826.81 1039.63,-823.17 1032.31,-821.99 1033.17,-826.81"/>
</g>
<!-- PA_1&#45;&gt;WR_1 -->
<g id="edge38" class="edge">
<title>PA_1&#45;&gt;WR_1</title>
<path fill="none" stroke="#c2872a" stroke-width="1.15" d="M968.3,-846.32C1014.23,-847.52 1085.45,-847.67 1146.7,-840.38 1164.93,-838.21 1184.49,-834.44 1202.28,-830.43"/>
<polygon fill="#c2872a" stroke="#c2872a" stroke-width="1.15" points="1202.36,-832.92 1208.63,-828.96 1201.26,-828.15 1202.36,-832.92"/>
</g>
<!-- PA_2 -->
<g id="node27" class="node">
<title>PA_2</title>
<path fill="#fdecd2" stroke="#c2872a" stroke-width="1.3" d="M1126.45,-199.7C1126.45,-199.7 1053.61,-199.7 1053.61,-199.7 1047.61,-199.7 1041.61,-193.7 1041.61,-187.7 1041.61,-187.7 1041.61,-167.06 1041.61,-167.06 1041.61,-161.06 1047.61,-155.06 1053.61,-155.06 1053.61,-155.06 1126.45,-155.06 1126.45,-155.06 1132.45,-155.06 1138.45,-161.06 1138.45,-167.06 1138.45,-167.06 1138.45,-187.7 1138.45,-187.7 1138.45,-193.7 1132.45,-199.7 1126.45,-199.7"/>
<text xml:space="preserve" text-anchor="middle" x="1090.03" y="-184.93" font-family="Helvetica,sans-Serif" font-size="11.00">PA</text>
<text xml:space="preserve" text-anchor="middle" x="1090.03" y="-172.93" font-family="Helvetica,sans-Serif" font-size="11.00">phoneme aware.</text>
<text xml:space="preserve" text-anchor="middle" x="1090.03" y="-160.93" font-family="Helvetica,sans-Serif" font-size="11.00">(blending)</text>
</g>
<!-- PA_1&#45;&gt;PA_2 -->
<g id="edge92" class="edge">
<title>PA_1&#45;&gt;PA_2</title>
<path fill="none" stroke="#aeb4bd" stroke-width="1.1" d="M935.06,-821.46C947.11,-801.41 963.6,-771.08 972.36,-742.38 1037.58,-528.69 944.06,-448.19 1033.36,-243.38 1039.27,-229.83 1048.89,-216.92 1058.49,-206.17"/>
<polygon fill="#aeb4bd" stroke="#aeb4bd" stroke-width="1.1" points="1060.01,-208.13 1062.97,-201.33 1056.42,-204.8 1060.01,-208.13"/>
</g>
<!-- NW_1&#45;&gt;WR_1 -->
<g id="edge36" class="edge">
<title>NW_1&#45;&gt;WR_1</title>
<path fill="none" stroke="#c2872a" stroke-width="1.15" d="M1136.76,-865.81C1158.62,-856.93 1184.96,-846.23 1207.94,-836.89"/>
<polygon fill="#c2872a" stroke="#c2872a" stroke-width="1.15" points="1208.74,-839.21 1214.31,-834.31 1206.9,-834.67 1208.74,-839.21"/>
</g>
<!-- NW_2 -->
<g id="node28" class="node">
<title>NW_2</title>
<path fill="#fdecd2" stroke="#c2872a" stroke-width="1.3" d="M1300.79,-199.38C1300.79,-199.38 1227.95,-199.38 1227.95,-199.38 1221.95,-199.38 1215.95,-193.38 1215.95,-187.38 1215.95,-187.38 1215.95,-175.38 1215.95,-175.38 1215.95,-169.38 1221.95,-163.38 1227.95,-163.38 1227.95,-163.38 1300.79,-163.38 1300.79,-163.38 1306.79,-163.38 1312.79,-169.38 1312.79,-175.38 1312.79,-175.38 1312.79,-187.38 1312.79,-187.38 1312.79,-193.38 1306.79,-199.38 1300.79,-199.38"/>
<text xml:space="preserve" text-anchor="middle" x="1264.37" y="-182.93" font-family="Helvetica,sans-Serif" font-size="11.00">NW</text>
<text xml:space="preserve" text-anchor="middle" x="1264.37" y="-170.93" font-family="Helvetica,sans-Serif" font-size="11.00">nonword reading</text>
</g>
<!-- NW_1&#45;&gt;NW_2 -->
<g id="edge93" class="edge">
<title>NW_1&#45;&gt;NW_2</title>
<path fill="none" stroke="#aeb4bd" stroke-width="1.1" d="M1123.3,-865.8C1132.34,-858.98 1141.2,-850.43 1146.7,-840.38 1276.56,-603.37 1090.01,-478.66 1207.7,-235.38 1213.18,-224.06 1222.07,-213.8 1231.16,-205.35"/>
<polygon fill="#aeb4bd" stroke="#aeb4bd" stroke-width="1.1" points="1232.58,-207.37 1236.2,-200.9 1229.33,-203.7 1232.58,-207.37"/>
</g>
<!-- PS_2 -->
<g id="node29" class="node">
<title>PS_2</title>
<path fill="#fdecd2" stroke="#c2872a" stroke-width="2.2" d="M1300.04,-279.38C1300.04,-279.38 1228.7,-279.38 1228.7,-279.38 1222.7,-279.38 1216.7,-273.38 1216.7,-267.38 1216.7,-267.38 1216.7,-255.38 1216.7,-255.38 1216.7,-249.38 1222.7,-243.38 1228.7,-243.38 1228.7,-243.38 1300.04,-243.38 1300.04,-243.38 1306.04,-243.38 1312.04,-249.38 1312.04,-255.38 1312.04,-255.38 1312.04,-267.38 1312.04,-267.38 1312.04,-273.38 1306.04,-279.38 1300.04,-279.38"/>
<text xml:space="preserve" text-anchor="middle" x="1264.37" y="-262.93" font-family="Helvetica,sans-Serif" font-size="11.00">PS</text>
<text xml:space="preserve" text-anchor="middle" x="1264.37" y="-250.93" font-family="Helvetica,sans-Serif" font-size="11.00">phonetic spelling</text>
</g>
<!-- PS_1&#45;&gt;PS_2 -->
<g id="edge94" class="edge">
<title>PS_1&#45;&gt;PS_2</title>
<path fill="none" stroke="#aeb4bd" stroke-width="1.1" d="M1115.29,-795.43C1126.71,-785.14 1139.4,-771.45 1146.7,-756.38 1232.97,-578.31 1118.26,-491.88 1207.7,-315.38 1213.23,-304.46 1221.86,-294.48 1230.68,-286.16"/>
<polygon fill="#aeb4bd" stroke="#aeb4bd" stroke-width="1.1" points="1232.29,-288.01 1235.86,-281.51 1229.02,-284.36 1232.29,-288.01"/>
</g>
<!-- WR_1&#45;&gt;RW_2 -->
<g id="edge99" class="edge">
<title>WR_1&#45;&gt;RW_2</title>
<path fill="none" stroke="#d6006e" stroke-width="2.3" stroke-dasharray="5,2" d="M1258.98,-795.2C1248.89,-750.65 1223.7,-636.63 1207.7,-540.38 1190.43,-436.49 1225.82,-139.9 1146.7,-70.38 997.66,60.57 854.36,-8.02 705.68,-139.38 655.12,-184.05 689.44,-227.9 644.68,-278.38 644.54,-278.54 644.39,-278.71 644.24,-278.87"/>
<polygon fill="#d6006e" stroke="#d6006e" stroke-width="2.3" points="642.95,-276.72 639.55,-283.31 646.31,-280.28 642.95,-276.72"/>
</g>
<!-- WR_1&#45;&gt;TR_2 -->
<g id="edge97" class="edge">
<title>WR_1&#45;&gt;TR_2</title>
<path fill="none" stroke="#d6006e" stroke-width="2.3" stroke-dasharray="5,2" d="M1259.15,-795.17C1249.41,-750.56 1224.9,-636.42 1207.7,-540.38 1192.12,-453.39 1213.82,-204.88 1146.7,-147.38 1018.23,-37.32 833.13,-275.72 774.87,-358.46"/>
<polygon fill="#d6006e" stroke="#d6006e" stroke-width="2.3" points="773,-356.86 771.01,-364 777.02,-359.66 773,-356.86"/>
</g>
<!-- WR_1&#45;&gt;TE_2 -->
<g id="edge96" class="edge">
<title>WR_1&#45;&gt;TE_2</title>
<path fill="none" stroke="#d6006e" stroke-width="2.3" stroke-dasharray="5,2" d="M1259.07,-795.19C1249.17,-750.6 1224.35,-636.52 1207.7,-540.38 1191.42,-446.37 1218.8,-177.87 1146.7,-115.38 1051.91,-33.23 977.82,-91.53 866.52,-149.38 830.03,-168.35 797.06,-203.01 776.96,-227.08"/>
<polygon fill="#d6006e" stroke="#d6006e" stroke-width="2.3" points="775.13,-225.44 772.6,-232.41 778.93,-228.54 775.13,-225.44"/>
</g>
<!-- WR_1&#45;&gt;PA_2 -->
<g id="edge98" class="edge">
<title>WR_1&#45;&gt;PA_2</title>
<path fill="none" stroke="#d6006e" stroke-width="2.3" stroke-dasharray="5,2" d="M1259.45,-795.12C1239.21,-695.67 1147.48,-245 1146.7,-243.38 1140.5,-230.59 1131.26,-218.22 1122.07,-207.71"/>
<polygon fill="#d6006e" stroke="#d6006e" stroke-width="2.3" points="1123.98,-206.17 1117.46,-202.64 1120.36,-209.46 1123.98,-206.17"/>
</g>
<!-- WR_2 -->
<g id="node30" class="node">
<title>WR_2</title>
<path fill="#cfe0f7" stroke="#2f6fdb" stroke-width="2.6" d="M1475.88,-279.38C1475.88,-279.38 1394.04,-279.38 1394.04,-279.38 1388.04,-279.38 1382.04,-273.38 1382.04,-267.38 1382.04,-267.38 1382.04,-255.38 1382.04,-255.38 1382.04,-249.38 1388.04,-243.38 1394.04,-243.38 1394.04,-243.38 1475.88,-243.38 1475.88,-243.38 1481.88,-243.38 1487.88,-249.38 1487.88,-255.38 1487.88,-255.38 1487.88,-267.38 1487.88,-267.38 1487.88,-273.38 1481.88,-279.38 1475.88,-279.38"/>
<text xml:space="preserve" text-anchor="middle" x="1434.96" y="-262.93" font-family="Helvetica,sans-Serif" font-weight="bold" font-size="11.00">WR</text>
<text xml:space="preserve" text-anchor="middle" x="1434.96" y="-250.93" font-family="Helvetica,sans-Serif" font-weight="bold" font-size="11.00">WORD READING</text>
</g>
<!-- WR_1&#45;&gt;WR_2 -->
<g id="edge95" class="edge">
<title>WR_1&#45;&gt;WR_2</title>
<path fill="none" stroke="#aeb4bd" stroke-width="1.1" d="M1271.17,-795.35C1296.32,-712.85 1395.97,-385.98 1425.61,-288.78"/>
<polygon fill="#aeb4bd" stroke="#aeb4bd" stroke-width="1.1" points="1427.91,-289.63 1427.61,-282.21 1423.22,-288.2 1427.91,-289.63"/>
</g>
<!-- SP_2&#45;&gt;EV_2 -->
<g id="edge68" class="edge">
<title>SP_2&#45;&gt;EV_2</title>
<path fill="none" stroke="#d0433f" stroke-width="1.15" d="M645.24,-267C664.1,-271.78 685.71,-276.57 705.68,-279.38 758.08,-286.75 818.4,-288.69 861.4,-288.97"/>
<polygon fill="#d0433f" stroke="#d0433f" stroke-width="1.15" points="861.28,-291.42 868.29,-289 861.3,-286.52 861.28,-291.42"/>
</g>
<!-- SP_2&#45;&gt;TE_2 -->
<g id="edge67" class="edge">
<title>SP_2&#45;&gt;TE_2</title>
<path fill="none" stroke="#d0433f" stroke-width="1.15" d="M645.18,-252.7C661.53,-252.8 679.73,-252.92 696.53,-253.02"/>
<polygon fill="#d0433f" stroke="#d0433f" stroke-width="1.15" points="696.41,-255.47 703.42,-253.06 696.44,-250.57 696.41,-255.47"/>
</g>
<!-- SP_2&#45;&gt;LS_2 -->
<g id="edge69" class="edge">
<title>SP_2&#45;&gt;LS_2</title>
<path fill="none" stroke="#d0433f" stroke-width="1.15" d="M645.13,-269.74C664.07,-275.92 685.76,-282.75 705.68,-288.38 762.97,-304.58 829.76,-320.42 873.01,-330.27"/>
<polygon fill="#d0433f" stroke="#d0433f" stroke-width="1.15" points="872.26,-332.62 879.63,-331.78 873.35,-327.84 872.26,-332.62"/>
</g>
<!-- SP_2&#45;&gt;PA_2 -->
<g id="edge70" class="edge">
<title>SP_2&#45;&gt;PA_2</title>
<path fill="none" stroke="#d0433f" stroke-width="1.15" d="M645.25,-240.29C664.19,-235.99 685.87,-231.26 705.68,-227.38 776.82,-213.47 794.69,-210.11 866.52,-200.38 922.92,-192.74 987.67,-186.31 1032.72,-182.21"/>
<polygon fill="#d0433f" stroke="#d0433f" stroke-width="1.15" points="1032.7,-184.67 1039.45,-181.6 1032.25,-179.79 1032.7,-184.67"/>
</g>
<!-- SP_2&#45;&gt;NW_2 -->
<g id="edge71" class="edge">
<title>SP_2&#45;&gt;NW_2</title>
<path fill="none" stroke="#d0433f" stroke-width="1.15" d="M621.14,-233.85C643.06,-219.82 675.12,-201.17 705.68,-190.38 845.08,-141.18 886.09,-146.1 1033.36,-133.38 1083.55,-129.05 1097.28,-123.61 1146.7,-133.38 1172.25,-138.43 1199.23,-149.14 1220.81,-159.17"/>
<polygon fill="#d0433f" stroke="#d0433f" stroke-width="1.15" points="1219.55,-161.29 1226.92,-162.08 1221.65,-156.86 1219.55,-161.29"/>
</g>
<!-- RW_2&#45;&gt;RV_2 -->
<g id="edge55" class="edge">
<title>RW_2&#45;&gt;RV_2</title>
<path fill="none" stroke="#2f9e78" stroke-width="1.15" d="M611.77,-331.34C631.87,-355.41 666.82,-392.32 705.68,-411.38 755.97,-436.05 820.1,-444.18 864.75,-446.68"/>
<polygon fill="#2f9e78" stroke="#2f9e78" stroke-width="1.15" points="864.55,-449.13 871.67,-447.02 864.8,-444.23 864.55,-449.13"/>
</g>
<!-- RW_2&#45;&gt;EV_2 -->
<g id="edge53" class="edge">
<title>RW_2&#45;&gt;EV_2</title>
<path fill="none" stroke="#2f9e78" stroke-width="1.15" d="M639.7,-305.56C697.77,-301.98 797.91,-295.81 861.03,-291.92"/>
<polygon fill="#2f9e78" stroke="#2f9e78" stroke-width="1.15" points="861.11,-294.37 867.94,-291.49 860.81,-289.48 861.11,-294.37"/>
</g>
<!-- RW_2&#45;&gt;TR_2 -->
<g id="edge54" class="edge">
<title>RW_2&#45;&gt;TR_2</title>
<path fill="none" stroke="#2f9e78" stroke-width="1.15" d="M639.51,-330.24C661,-340.54 686.59,-352.8 708.18,-363.14"/>
<polygon fill="#2f9e78" stroke="#2f9e78" stroke-width="1.15" points="707,-365.29 714.37,-366.11 709.11,-360.87 707,-365.29"/>
</g>
<!-- RW_2&#45;&gt;TE_2 -->
<g id="edge52" class="edge">
<title>RW_2&#45;&gt;TE_2</title>
<path fill="none" stroke="#2f9e78" stroke-width="1.15" d="M639.51,-292.77C657.37,-286.65 678.08,-279.57 696.96,-273.11"/>
<polygon fill="#2f9e78" stroke="#2f9e78" stroke-width="1.15" points="697.73,-275.43 703.56,-270.85 696.14,-270.8 697.73,-275.43"/>
</g>
<!-- RW_2&#45;&gt;PA_2 -->
<g id="edge56" class="edge">
<title>RW_2&#45;&gt;PA_2</title>
<path fill="none" stroke="#2f9e78" stroke-width="1.15" d="M633.93,-285.57C637.62,-283.22 641.25,-280.8 644.68,-278.38 673.55,-258 673.58,-242.16 705.68,-227.38 813.41,-177.8 955.05,-172.84 1032.47,-174.53"/>
<polygon fill="#2f9e78" stroke="#2f9e78" stroke-width="1.15" points="1032.33,-176.98 1039.39,-174.71 1032.45,-172.08 1032.33,-176.98"/>
</g>
<!-- RW_2&#45;&gt;NW_2 -->
<g id="edge57" class="edge">
<title>RW_2&#45;&gt;NW_2</title>
<path fill="none" stroke="#2f9e78" stroke-width="1.15" d="M635.97,-285.56C639.03,-283.29 641.98,-280.89 644.68,-278.38 679.53,-245.98 665.92,-216.53 705.68,-190.38 829.81,-108.75 885.53,-139.12 1033.36,-124.38 1083.48,-119.38 1097.62,-113.03 1146.7,-124.38 1175.51,-131.04 1205.43,-145.84 1227.75,-158.69"/>
<polygon fill="#2f9e78" stroke="#2f9e78" stroke-width="1.15" points="1226.24,-160.65 1233.52,-162.08 1228.72,-156.42 1226.24,-160.65"/>
</g>
<!-- RW_2&#45;&gt;PS_2 -->
<g id="edge58" class="edge">
<title>RW_2&#45;&gt;PS_2</title>
<path fill="none" stroke="#2f9e78" stroke-width="1.15" d="M633.93,-285.57C637.62,-283.22 641.25,-280.8 644.68,-278.38 673.55,-258 674.14,-243.32 705.68,-227.38 839.48,-159.77 884.52,-165.29 1033.36,-147.38 1083.37,-141.36 1100.08,-128.3 1146.7,-147.38 1181.89,-161.79 1180.5,-180.81 1207.7,-207.38 1217.4,-216.86 1228.09,-227.24 1237.49,-236.35"/>
<polygon fill="#2f9e78" stroke="#2f9e78" stroke-width="1.15" points="1235.77,-238.1 1242.51,-241.21 1239.18,-234.58 1235.77,-238.1"/>
</g>
<!-- RV_2&#45;&gt;EV_2 -->
<g id="edge59" class="edge">
<title>RV_2&#45;&gt;EV_2</title>
<path fill="none" stroke="#2f9e78" stroke-width="1.15" d="M873.42,-436.99C858.95,-431.32 844.54,-422.63 836.02,-409.38 815.1,-376.86 814.45,-354.47 836.02,-322.38 842.35,-312.97 851.78,-306.16 862.06,-301.24"/>
<polygon fill="#2f9e78" stroke="#2f9e78" stroke-width="1.15" points="862.97,-303.51 868.44,-298.51 861.04,-299.01 862.97,-303.51"/>
</g>
<!-- RV_2&#45;&gt;LF_2 -->
<g id="edge60" class="edge">
<title>RV_2&#45;&gt;LF_2</title>
<path fill="none" stroke="#2f9e78" stroke-width="1.15" d="M965.18,-437.83C987.5,-433.06 1014.62,-427.27 1037.78,-422.32"/>
<polygon fill="#2f9e78" stroke="#2f9e78" stroke-width="1.15" points="1038.09,-424.77 1044.42,-420.91 1037.06,-419.97 1038.09,-424.77"/>
</g>
<!-- RV_2&#45;&gt;RG_2 -->
<g id="edge61" class="edge">
<title>RV_2&#45;&gt;RG_2</title>
<path fill="none" stroke="#2f9e78" stroke-width="1.15" d="M965.18,-451.63C984.47,-453.46 1007.33,-455.63 1028.13,-457.6"/>
<polygon fill="#2f9e78" stroke="#2f9e78" stroke-width="1.15" points="1027.67,-460.02 1034.87,-458.24 1028.13,-455.14 1027.67,-460.02"/>
</g>
<!-- RV_2&#45;&gt;WR_2 -->
<g id="edge62" class="edge">
<title>RV_2&#45;&gt;WR_2</title>
<path fill="none" stroke="#2f9e78" stroke-width="1.15" d="M959.7,-465.92C980.98,-474.95 1008.04,-484.83 1033.36,-489.38 1082.94,-498.3 1098.08,-502.56 1146.7,-489.38 1238.44,-464.52 1258.36,-442.34 1331.29,-381.38 1364.94,-353.25 1396.62,-313.43 1415.66,-287.5"/>
<polygon fill="#2f9e78" stroke="#2f9e78" stroke-width="1.15" points="1417.53,-289.09 1419.66,-281.99 1413.57,-286.21 1417.53,-289.09"/>
</g>
<!-- EV_2&#45;&gt;EI_2 -->
<g id="edge64" class="edge">
<title>EV_2&#45;&gt;EI_2</title>
<path fill="none" stroke="#2f9e78" stroke-width="1.15" d="M969.2,-282.89C990.67,-280.47 1015.89,-277.62 1037.65,-275.17"/>
<polygon fill="#2f9e78" stroke="#2f9e78" stroke-width="1.15" points="1037.7,-277.63 1044.38,-274.41 1037.15,-272.76 1037.7,-277.63"/>
</g>
<!-- EV_2&#45;&gt;EG_2 -->
<g id="edge63" class="edge">
<title>EV_2&#45;&gt;EG_2</title>
<path fill="none" stroke="#2f9e78" stroke-width="1.15" d="M969.21,-295.92C1029.41,-305.22 1132,-321.08 1198.72,-331.39"/>
<polygon fill="#2f9e78" stroke="#2f9e78" stroke-width="1.15" points="1198.06,-333.77 1205.36,-332.42 1198.81,-328.92 1198.06,-333.77"/>
</g>
<!-- EV_2&#45;&gt;PA_2 -->
<g id="edge65" class="edge">
<title>EV_2&#45;&gt;PA_2</title>
<path fill="none" stroke="#2f9e78" stroke-width="1.15" d="M946.66,-269.96C969.38,-254.12 1003.26,-230.82 1033.36,-211.38 1036.75,-209.19 1040.27,-206.96 1043.83,-204.72"/>
<polygon fill="#2f9e78" stroke="#2f9e78" stroke-width="1.15" points="1045.01,-206.87 1049.66,-201.09 1042.42,-202.71 1045.01,-206.87"/>
</g>
<!-- EV_2&#45;&gt;WR_2 -->
<g id="edge66" class="edge">
<title>EV_2&#45;&gt;WR_2</title>
<path fill="none" stroke="#2f9e78" stroke-width="1.15" d="M957.86,-269.81C979.39,-260.07 1007.26,-249.01 1033.36,-243.38 1162.84,-215.44 1199.85,-219 1331.29,-235.38 1344.81,-237.07 1359.11,-239.96 1372.6,-243.21"/>
<polygon fill="#2f9e78" stroke="#2f9e78" stroke-width="1.15" points="1371.81,-245.54 1379.2,-244.86 1373,-240.78 1371.81,-245.54"/>
</g>
<!-- RG_2&#45;&gt;EG_2 -->
<g id="edge80" class="edge">
<title>RG_2&#45;&gt;EG_2</title>
<path fill="none" stroke="#9aa0a8" stroke-width="1.15" d="M1133.58,-444.88C1138.09,-442.52 1142.55,-440 1146.7,-437.38 1180.22,-416.24 1214.81,-386.61 1237.54,-365.88"/>
<polygon fill="#9aa0a8" stroke="#9aa0a8" stroke-width="1.15" points="1239.13,-367.74 1242.62,-361.2 1235.81,-364.14 1239.13,-367.74"/>
</g>
<!-- TR_2&#45;&gt;RV_2 -->
<g id="edge42" class="edge">
<title>TR_2&#45;&gt;RV_2</title>
<path fill="none" stroke="#7a52b3" stroke-width="1.15" d="M802.11,-402.82C821.84,-410.37 845.06,-419.27 865.55,-427.12"/>
<polygon fill="#7a52b3" stroke="#7a52b3" stroke-width="1.15" points="864.51,-429.35 871.92,-429.56 866.26,-424.77 864.51,-429.35"/>
</g>
<!-- TR_2&#45;&gt;EV_2 -->
<g id="edge43" class="edge">
<title>TR_2&#45;&gt;EV_2</title>
<path fill="none" stroke="#7a52b3" stroke-width="1.15" d="M783.64,-366.73C805.58,-351.9 837.52,-330.94 866.52,-314.38 868.57,-313.21 870.68,-312.03 872.83,-310.87"/>
<polygon fill="#7a52b3" stroke="#7a52b3" stroke-width="1.15" points="873.63,-313.21 878.66,-307.76 871.33,-308.89 873.63,-313.21"/>
</g>
<!-- TR_2&#45;&gt;LF_2 -->
<g id="edge44" class="edge">
<title>TR_2&#45;&gt;LF_2</title>
<path fill="none" stroke="#7a52b3" stroke-width="1.15" d="M802.13,-388.94C863.65,-393.75 973.02,-402.31 1037.49,-407.35"/>
<polygon fill="#7a52b3" stroke="#7a52b3" stroke-width="1.15" points="1036.99,-409.77 1044.16,-407.87 1037.37,-404.88 1036.99,-409.77"/>
</g>
<!-- TR_2&#45;&gt;RG_2 -->
<g id="edge45" class="edge">
<title>TR_2&#45;&gt;RG_2</title>
<path fill="none" stroke="#7a52b3" stroke-width="1.15" d="M802.3,-392.9C864.4,-403.14 968.25,-420.31 972.36,-421.38 993.32,-426.86 1015.83,-434.52 1035.43,-441.8"/>
<polygon fill="#7a52b3" stroke="#7a52b3" stroke-width="1.15" points="1034.32,-444 1041.73,-444.17 1036.04,-439.41 1034.32,-444"/>
</g>
<!-- TR_2&#45;&gt;TE_2 -->
<g id="edge41" class="edge">
<title>TR_2&#45;&gt;TE_2</title>
<path fill="none" stroke="#7a52b3" stroke-width="1.15" d="M755.6,-366.77C755.6,-338 755.6,-309.23 755.6,-280.46"/>
<polygon fill="#7a52b3" stroke="#7a52b3" stroke-width="1.15" points="758.05,-280.68 755.6,-273.68 753.15,-280.68 758.05,-280.68"/>
</g>
<!-- TR_2&#45;&gt;WR_2 -->
<g id="edge46" class="edge">
<title>TR_2&#45;&gt;WR_2</title>
<path fill="none" stroke="#7a52b3" stroke-width="1.15" d="M802.33,-384.88C934.19,-383.33 1307.27,-378 1331.29,-367.38 1368.82,-350.78 1399.59,-313.45 1417.35,-287.84"/>
<polygon fill="#7a52b3" stroke="#7a52b3" stroke-width="1.15" points="1419.36,-289.24 1421.25,-282.07 1415.3,-286.49 1419.36,-289.24"/>
</g>
<!-- TE_2&#45;&gt;EV_2 -->
<g id="edge47" class="edge">
<title>TE_2&#45;&gt;EV_2</title>
<path fill="none" stroke="#7a52b3" stroke-width="1.15" d="M806.04,-264.07C823.61,-267.87 843.53,-272.18 861.67,-276.1"/>
<polygon fill="#7a52b3" stroke="#7a52b3" stroke-width="1.15" points="860.8,-278.42 868.16,-277.51 861.84,-273.63 860.8,-278.42"/>
</g>
<!-- TE_2&#45;&gt;EI_2 -->
<g id="edge49" class="edge">
<title>TE_2&#45;&gt;EI_2</title>
<path fill="none" stroke="#7a52b3" stroke-width="1.15" d="M805.88,-255.18C849.62,-256.84 915.26,-259.48 972.36,-262.38 993.73,-263.47 1017.28,-264.85 1037.6,-266.09"/>
<polygon fill="#7a52b3" stroke="#7a52b3" stroke-width="1.15" points="1037.22,-268.52 1044.36,-266.51 1037.52,-263.63 1037.22,-268.52"/>
</g>
<!-- TE_2&#45;&gt;EG_2 -->
<g id="edge48" class="edge">
<title>TE_2&#45;&gt;EG_2</title>
<path fill="none" stroke="#7a52b3" stroke-width="1.15" d="M806.09,-247.65C896.71,-237.88 1085.59,-221.12 1146.7,-243.38 1167.5,-250.96 1210.96,-290.5 1238.57,-316.99"/>
<polygon fill="#7a52b3" stroke="#7a52b3" stroke-width="1.15" points="1236.55,-318.45 1243.29,-321.54 1239.95,-314.92 1236.55,-318.45"/>
</g>
<!-- TE_2&#45;&gt;PA_2 -->
<g id="edge50" class="edge">
<title>TE_2&#45;&gt;PA_2</title>
<path fill="none" stroke="#7a52b3" stroke-width="1.15" d="M806.01,-242.09C866.59,-228.23 969.04,-204.81 1032.65,-190.27"/>
<polygon fill="#7a52b3" stroke="#7a52b3" stroke-width="1.15" points="1033,-192.71 1039.27,-188.76 1031.9,-187.93 1033,-192.71"/>
</g>
<!-- TE_2&#45;&gt;WR_2 -->
<g id="edge51" class="edge">
<title>TE_2&#45;&gt;WR_2</title>
<path fill="none" stroke="#7a52b3" stroke-width="1.15" d="M786.55,-234.87C874.44,-183.07 1137.64,-46.3 1331.29,-137.38 1373.78,-157.36 1404.71,-204.52 1420.96,-234.58"/>
<polygon fill="#7a52b3" stroke="#7a52b3" stroke-width="1.15" points="1418.73,-235.6 1424.16,-240.65 1423.07,-233.32 1418.73,-235.6"/>
</g>
<!-- LS_2&#45;&gt;PA_2 -->
<g id="edge73" class="edge">
<title>LS_2&#45;&gt;PA_2</title>
<path fill="none" stroke="#c2872a" stroke-width="1.15" d="M957.59,-324.1C962.76,-321.18 967.84,-317.93 972.36,-314.38 975.11,-312.23 1030.85,-246.35 1064.27,-206.75"/>
<polygon fill="#c2872a" stroke="#c2872a" stroke-width="1.15" points="1066.07,-208.41 1068.71,-201.48 1062.33,-205.25 1066.07,-208.41"/>
</g>
<!-- LS_2&#45;&gt;NW_2 -->
<g id="edge72" class="edge">
<title>LS_2&#45;&gt;NW_2</title>
<path fill="none" stroke="#c2872a" stroke-width="1.15" d="M957.24,-335.67C1012.61,-328.15 1114.31,-312.52 1146.7,-295.38 1180.31,-277.59 1180.5,-261.95 1207.7,-235.38 1217.66,-225.66 1228.65,-214.98 1238.22,-205.71"/>
<polygon fill="#c2872a" stroke="#c2872a" stroke-width="1.15" points="1239.7,-207.68 1243.02,-201.05 1236.29,-204.16 1239.7,-207.68"/>
</g>
<!-- LS_2&#45;&gt;PS_2 -->
<g id="edge74" class="edge">
<title>LS_2&#45;&gt;PS_2</title>
<path fill="none" stroke="#c2872a" stroke-width="1.15" d="M957.36,-343.31C1002.88,-345.79 1082.15,-346.37 1146.7,-327.38 1177.32,-318.37 1208.62,-300.07 1231.08,-285.02"/>
<polygon fill="#c2872a" stroke="#c2872a" stroke-width="1.15" points="1232.21,-287.22 1236.61,-281.25 1229.45,-283.17 1232.21,-287.22"/>
</g>
<!-- LS_2&#45;&gt;WR_2 -->
<g id="edge75" class="edge">
<title>LS_2&#45;&gt;WR_2</title>
<path fill="none" stroke="#c2872a" stroke-width="1.15" d="M957.31,-344.71C1002.44,-349.03 1080.99,-353.32 1146.7,-340.38 1175.45,-334.72 1179.76,-324.2 1207.7,-315.38 1261.41,-298.42 1276.52,-300.52 1331.29,-287.38 1344.69,-284.17 1359.04,-280.61 1372.64,-277.18"/>
<polygon fill="#c2872a" stroke="#c2872a" stroke-width="1.15" points="1373.13,-279.58 1379.31,-275.49 1371.93,-274.83 1373.13,-279.58"/>
</g>
<!-- PA_2&#45;&gt;NW_2 -->
<g id="edge77" class="edge">
<title>PA_2&#45;&gt;NW_2</title>
<path fill="none" stroke="#c2872a" stroke-width="1.15" d="M1139.04,-178.5C1160.05,-178.98 1184.86,-179.56 1206.77,-180.07"/>
<polygon fill="#c2872a" stroke="#c2872a" stroke-width="1.15" points="1206.53,-182.51 1213.58,-180.23 1206.64,-177.61 1206.53,-182.51"/>
</g>
<!-- PA_2&#45;&gt;PS_2 -->
<g id="edge79" class="edge">
<title>PA_2&#45;&gt;PS_2</title>
<path fill="none" stroke="#c2872a" stroke-width="1.15" d="M1138.12,-200.33C1162.49,-212.21 1192.15,-226.67 1216.49,-238.53"/>
<polygon fill="#c2872a" stroke="#c2872a" stroke-width="1.15" points="1215.27,-240.66 1222.63,-241.53 1217.41,-236.26 1215.27,-240.66"/>
</g>
<!-- PA_2&#45;&gt;WR_2 -->
<g id="edge78" class="edge">
<title>PA_2&#45;&gt;WR_2</title>
<path fill="none" stroke="#c2872a" stroke-width="1.15" d="M1138.69,-160.1C1188.7,-144.85 1268.62,-128.83 1331.29,-155.38 1369.29,-171.48 1400.12,-209.29 1417.76,-235.12"/>
<polygon fill="#c2872a" stroke="#c2872a" stroke-width="1.15" points="1415.71,-236.46 1421.63,-240.93 1419.79,-233.75 1415.71,-236.46"/>
</g>
<!-- NW_2&#45;&gt;WR_2 -->
<g id="edge76" class="edge">
<title>NW_2&#45;&gt;WR_2</title>
<path fill="none" stroke="#c2872a" stroke-width="1.15" d="M1306.59,-199.94C1314.79,-203.69 1323.33,-207.63 1331.29,-211.38 1349.64,-220.03 1369.73,-229.75 1387.23,-238.31"/>
<polygon fill="#c2872a" stroke="#c2872a" stroke-width="1.15" points="1386.15,-240.5 1393.51,-241.38 1388.3,-236.1 1386.15,-240.5"/>
</g>
<!-- NOTE -->
<g id="node31" class="node">
<title>NOTE</title>
<polygon fill="#f7f7f9" stroke="#6b7280" stroke-width="1.3" stroke-dasharray="5,2" points="474.09,-1071.08 0,-1071.08 0,-1025.69 480.09,-1025.69 480.09,-1065.08 474.09,-1071.08"/>
<polyline fill="none" stroke="#6b7280" stroke-width="1.3" stroke-dasharray="5,2" points="474.09,-1071.08 474.09,-1065.08"/>
<polyline fill="none" stroke="#6b7280" stroke-width="1.3" stroke-dasharray="5,2" points="480.09,-1065.08 474.09,-1065.08"/>
<text xml:space="preserve" text-anchor="middle" x="240.05" y="-1057.26" font-family="Helvetica,sans-Serif" font-size="10.00">Within each wave: the full base cascade (SP→LS→PA→NW→WR, RV→EV…).</text>
<text xml:space="preserve" text-anchor="middle" x="240.05" y="-1044.51" font-family="Helvetica,sans-Serif" font-size="10.00">Across waves: grey = carry&#45;over (same skill next wave); dashed pink = reverse (WR → TE, TR, PA, RW).</text>
<text xml:space="preserve" text-anchor="middle" x="240.05" y="-1031.76" font-family="Helvetica,sans-Serif" font-size="10.00">Omitted: intervention (IG/IS), hearing (HS), age (A), ability (GA) feed the skills each wave.</text>
</g>
</g>
</svg>
