<?xml version="1.0" encoding="UTF-8" standalone="no"?>
<!DOCTYPE svg PUBLIC "-//W3C//DTD SVG 1.1//EN"
 "http://www.w3.org/Graphics/SVG/1.1/DTD/svg11.dtd">
<!-- Generated by graphviz version 14.1.2 (0)
 -->
<!-- Title: LRP_LAGGED Pages: 1 -->
<svg width="780pt" height="1494pt"
 viewBox="0.00 0.00 780.00 1494.00" xmlns="http://www.w3.org/2000/svg" xmlns:xlink="http://www.w3.org/1999/xlink">
<g id="graph0" class="graph" transform="scale(1 1) rotate(0) translate(4 1489.88)">
<title>LRP_LAGGED</title>
<polygon fill="white" stroke="none" points="-4,4 -4,-1489.88 775.93,-1489.88 775.93,4 -4,4"/>
<text xml:space="preserve" text-anchor="middle" x="385.97" y="-1465.72" font-family="Helvetica,sans-Serif" font-weight="bold" font-size="17.00">Language &amp; reading causal DAG — TIME&#45;LAGGED unroll: wave t → t+1 &#160;(draft, PR #288)</text>
<!-- EG_t -->
<g id="node1" class="node">
<title>EG_t</title>
<path fill="#eceef1" stroke="#9aa0a8" stroke-width="1.3" d="M525.09,-1344C525.09,-1344 435.75,-1344 435.75,-1344 429.75,-1344 423.75,-1338 423.75,-1332 423.75,-1332 423.75,-1320 423.75,-1320 423.75,-1314 429.75,-1308 435.75,-1308 435.75,-1308 525.09,-1308 525.09,-1308 531.09,-1308 537.09,-1314 537.09,-1320 537.09,-1320 537.09,-1332 537.09,-1332 537.09,-1338 531.09,-1344 525.09,-1344"/>
<text xml:space="preserve" text-anchor="middle" x="480.42" y="-1327.55" font-family="Helvetica,sans-Serif" font-size="11.00">EG (t)</text>
<text xml:space="preserve" text-anchor="middle" x="480.42" y="-1315.55" font-family="Helvetica,sans-Serif" font-size="11.00">expressive grammar</text>
</g>
<!-- EG_t1 -->
<g id="node2" class="node">
<title>EG_t1</title>
<path fill="#eceef1" stroke="#9aa0a8" stroke-width="1.3" d="M755.43,-1053C755.43,-1053 666.09,-1053 666.09,-1053 660.09,-1053 654.09,-1047 654.09,-1041 654.09,-1041 654.09,-1029 654.09,-1029 654.09,-1023 660.09,-1017 666.09,-1017 666.09,-1017 755.43,-1017 755.43,-1017 761.43,-1017 767.43,-1023 767.43,-1029 767.43,-1029 767.43,-1041 767.43,-1041 767.43,-1047 761.43,-1053 755.43,-1053"/>
<text xml:space="preserve" text-anchor="middle" x="710.76" y="-1036.55" font-family="Helvetica,sans-Serif" font-size="11.00">EG (t+1)</text>
<text xml:space="preserve" text-anchor="middle" x="710.76" y="-1024.55" font-family="Helvetica,sans-Serif" font-size="11.00">expressive grammar</text>
</g>
<!-- EG_t&#45;&gt;EG_t1 -->
<g id="edge9" class="edge">
<title>EG_t&#45;&gt;EG_t1</title>
<path fill="none" stroke="#b9bec6" d="M525.87,-1307.5C531.59,-1303.9 537.03,-1299.75 541.59,-1295 620.6,-1212.63 568.39,-1142.21 649.59,-1062 650.88,-1060.73 652.24,-1059.5 653.66,-1058.34"/>
<polygon fill="#b9bec6" stroke="#b9bec6" points="654.78,-1060.55 658.98,-1054.44 651.89,-1056.6 654.78,-1060.55"/>
</g>
<!-- EI_t -->
<g id="node3" class="node">
<title>EI_t</title>
<path fill="#eceef1" stroke="#9aa0a8" stroke-width="1.3" d="M511.97,-1432C511.97,-1432 448.88,-1432 448.88,-1432 442.88,-1432 436.88,-1426 436.88,-1420 436.88,-1420 436.88,-1408 436.88,-1408 436.88,-1402 442.88,-1396 448.88,-1396 448.88,-1396 511.97,-1396 511.97,-1396 517.97,-1396 523.97,-1402 523.97,-1408 523.97,-1408 523.97,-1420 523.97,-1420 523.97,-1426 517.97,-1432 511.97,-1432"/>
<text xml:space="preserve" text-anchor="middle" x="480.42" y="-1415.55" font-family="Helvetica,sans-Serif" font-size="11.00">EI (t)</text>
<text xml:space="preserve" text-anchor="middle" x="480.42" y="-1403.55" font-family="Helvetica,sans-Serif" font-size="11.00">expressive info</text>
</g>
<!-- EI_t1 -->
<g id="node4" class="node">
<title>EI_t1</title>
<path fill="#eceef1" stroke="#9aa0a8" stroke-width="1.3" d="M742.31,-1106C742.31,-1106 679.22,-1106 679.22,-1106 673.22,-1106 667.22,-1100 667.22,-1094 667.22,-1094 667.22,-1082 667.22,-1082 667.22,-1076 673.22,-1070 679.22,-1070 679.22,-1070 742.31,-1070 742.31,-1070 748.31,-1070 754.31,-1076 754.31,-1082 754.31,-1082 754.31,-1094 754.31,-1094 754.31,-1100 748.31,-1106 742.31,-1106"/>
<text xml:space="preserve" text-anchor="middle" x="710.76" y="-1089.55" font-family="Helvetica,sans-Serif" font-size="11.00">EI (t+1)</text>
<text xml:space="preserve" text-anchor="middle" x="710.76" y="-1077.55" font-family="Helvetica,sans-Serif" font-size="11.00">expressive info</text>
</g>
<!-- EI_t&#45;&gt;EI_t1 -->
<g id="edge8" class="edge">
<title>EI_t&#45;&gt;EI_t1</title>
<path fill="none" stroke="#b9bec6" d="M524.58,-1395.7C530.69,-1392.03 536.58,-1387.8 541.59,-1383 625.76,-1302.32 680.25,-1170.23 700.68,-1114.32"/>
<polygon fill="#b9bec6" stroke="#b9bec6" points="702.87,-1115.48 702.94,-1108.06 698.26,-1113.82 702.87,-1115.48"/>
</g>
<!-- EV_t -->
<g id="node5" class="node">
<title>EV_t</title>
<path fill="#d6ebe4" stroke="#2f9e78" stroke-width="1.3" d="M517.59,-967C517.59,-967 443.25,-967 443.25,-967 437.25,-967 431.25,-961 431.25,-955 431.25,-955 431.25,-943 431.25,-943 431.25,-937 437.25,-931 443.25,-931 443.25,-931 517.59,-931 517.59,-931 523.59,-931 529.59,-937 529.59,-943 529.59,-943 529.59,-955 529.59,-955 529.59,-961 523.59,-967 517.59,-967"/>
<text xml:space="preserve" text-anchor="middle" x="480.42" y="-950.55" font-family="Helvetica,sans-Serif" font-size="11.00">EV (t)</text>
<text xml:space="preserve" text-anchor="middle" x="480.42" y="-938.55" font-family="Helvetica,sans-Serif" font-size="11.00">expressive vocab</text>
</g>
<!-- EV_t&#45;&gt;EG_t1 -->
<g id="edge38" class="edge">
<title>EV_t&#45;&gt;EG_t1</title>
<path fill="none" stroke="#2f9e78" stroke-width="1.15" d="M530.12,-967.34C565.95,-980.84 614.77,-999.22 652.47,-1013.42"/>
<polygon fill="#2f9e78" stroke="#2f9e78" stroke-width="1.15" points="651.3,-1015.6 658.71,-1015.77 653.03,-1011.01 651.3,-1015.6"/>
</g>
<!-- EV_t&#45;&gt;EI_t1 -->
<g id="edge39" class="edge">
<title>EV_t&#45;&gt;EI_t1</title>
<path fill="none" stroke="#2f9e78" stroke-width="1.15" d="M505.87,-967.53C537.82,-991.25 596.03,-1032.75 649.59,-1062 652.54,-1063.61 655.61,-1065.2 658.73,-1066.74"/>
<polygon fill="#2f9e78" stroke="#2f9e78" stroke-width="1.15" points="657.62,-1068.92 665,-1069.73 659.74,-1064.5 657.62,-1068.92"/>
</g>
<!-- EV_t1 -->
<g id="node6" class="node">
<title>EV_t1</title>
<path fill="#d6ebe4" stroke="#2f9e78" stroke-width="1.3" d="M747.93,-430C747.93,-430 673.59,-430 673.59,-430 667.59,-430 661.59,-424 661.59,-418 661.59,-418 661.59,-406 661.59,-406 661.59,-400 667.59,-394 673.59,-394 673.59,-394 747.93,-394 747.93,-394 753.93,-394 759.93,-400 759.93,-406 759.93,-406 759.93,-418 759.93,-418 759.93,-424 753.93,-430 747.93,-430"/>
<text xml:space="preserve" text-anchor="middle" x="710.76" y="-413.55" font-family="Helvetica,sans-Serif" font-size="11.00">EV (t+1)</text>
<text xml:space="preserve" text-anchor="middle" x="710.76" y="-401.55" font-family="Helvetica,sans-Serif" font-size="11.00">expressive vocab</text>
</g>
<!-- EV_t&#45;&gt;EV_t1 -->
<g id="edge4" class="edge">
<title>EV_t&#45;&gt;EV_t1</title>
<path fill="none" stroke="#b9bec6" d="M505.17,-930.46C517.77,-919.42 532.48,-904.38 541.59,-888 641.3,-708.6 518.54,-596.97 649.59,-439 651.13,-437.14 652.83,-435.41 654.64,-433.78"/>
<polygon fill="#b9bec6" stroke="#b9bec6" points="655.98,-435.85 660.02,-429.63 652.98,-431.97 655.98,-435.85"/>
</g>
<!-- PA_t1 -->
<g id="node17" class="node">
<title>PA_t1</title>
<path fill="#fdecd2" stroke="#c2872a" stroke-width="1.3" d="M747.18,-866.32C747.18,-866.32 674.34,-866.32 674.34,-866.32 668.34,-866.32 662.34,-860.32 662.34,-854.32 662.34,-854.32 662.34,-833.68 662.34,-833.68 662.34,-827.68 668.34,-821.68 674.34,-821.68 674.34,-821.68 747.18,-821.68 747.18,-821.68 753.18,-821.68 759.18,-827.68 759.18,-833.68 759.18,-833.68 759.18,-854.32 759.18,-854.32 759.18,-860.32 753.18,-866.32 747.18,-866.32"/>
<text xml:space="preserve" text-anchor="middle" x="710.76" y="-851.55" font-family="Helvetica,sans-Serif" font-size="11.00">PA (t+1)</text>
<text xml:space="preserve" text-anchor="middle" x="710.76" y="-839.55" font-family="Helvetica,sans-Serif" font-size="11.00">phoneme aware.</text>
<text xml:space="preserve" text-anchor="middle" x="710.76" y="-827.55" font-family="Helvetica,sans-Serif" font-size="11.00">(blending)</text>
</g>
<!-- EV_t&#45;&gt;PA_t1 -->
<g id="edge40" class="edge">
<title>EV_t&#45;&gt;PA_t1</title>
<path fill="none" stroke="#2f9e78" stroke-width="1.15" d="M521.72,-930.47C558.52,-913.55 613.28,-888.37 654.22,-869.54"/>
<polygon fill="#2f9e78" stroke="#2f9e78" stroke-width="1.15" points="655.04,-871.86 660.38,-866.71 653,-867.41 655.04,-871.86"/>
</g>
<!-- WR_t1 -->
<g id="node33" class="node">
<title>WR_t1</title>
<path fill="#cfe0f7" stroke="#2f6fdb" stroke-width="2.6" d="M755.06,-674.32C755.06,-674.32 666.47,-674.32 666.47,-674.32 660.47,-674.32 654.47,-668.32 654.47,-662.32 654.47,-662.32 654.47,-641.68 654.47,-641.68 654.47,-635.68 660.47,-629.68 666.47,-629.68 666.47,-629.68 755.06,-629.68 755.06,-629.68 761.06,-629.68 767.06,-635.68 767.06,-641.68 767.06,-641.68 767.06,-662.32 767.06,-662.32 767.06,-668.32 761.06,-674.32 755.06,-674.32"/>
<text xml:space="preserve" text-anchor="middle" x="710.76" y="-659.55" font-family="Helvetica,sans-Serif" font-weight="bold" font-size="11.00">WR (t+1)</text>
<text xml:space="preserve" text-anchor="middle" x="710.76" y="-647.55" font-family="Helvetica,sans-Serif" font-weight="bold" font-size="11.00">WORD READING</text>
<text xml:space="preserve" text-anchor="middle" x="710.76" y="-635.55" font-family="Helvetica,sans-Serif" font-weight="bold" font-size="11.00">(primary outcome)</text>
</g>
<!-- EV_t&#45;&gt;WR_t1 -->
<g id="edge41" class="edge">
<title>EV_t&#45;&gt;WR_t1</title>
<path fill="none" stroke="#2f9e78" stroke-width="1.15" d="M501.2,-930.51C513.36,-918.78 528.96,-903.03 541.59,-888 557.41,-869.17 647.19,-741.4 688.7,-682.11"/>
<polygon fill="#2f9e78" stroke="#2f9e78" stroke-width="1.15" points="690.51,-683.8 692.52,-676.66 686.5,-680.99 690.51,-683.8"/>
</g>
<!-- HS -->
<g id="node7" class="node">
<title>HS</title>
<path fill="#dfe3ef" stroke="#5560a6" stroke-width="1.3" d="M185.3,-510C185.3,-510 125.95,-510 125.95,-510 119.95,-510 113.95,-504 113.95,-498 113.95,-498 113.95,-486 113.95,-486 113.95,-480 119.95,-474 125.95,-474 125.95,-474 185.3,-474 185.3,-474 191.3,-474 197.3,-480 197.3,-486 197.3,-486 197.3,-498 197.3,-498 197.3,-504 191.3,-510 185.3,-510"/>
<text xml:space="preserve" text-anchor="middle" x="155.62" y="-493.55" font-family="Helvetica,sans-Serif" font-size="11.00">HS</text>
<text xml:space="preserve" text-anchor="middle" x="155.62" y="-481.55" font-family="Helvetica,sans-Serif" font-size="11.00">hearing status</text>
</g>
<!-- HS&#45;&gt;EV_t -->
<g id="edge63" class="edge">
<title>HS&#45;&gt;EV_t</title>
<path fill="none" stroke="#5560a6" stroke-width="1.15" d="M167.22,-510.63C200.74,-568.9 308.74,-751.92 419.25,-888 429.52,-900.65 442.01,-913.63 452.95,-924.36"/>
<polygon fill="#5560a6" stroke="#5560a6" stroke-width="1.15" points="451.2,-926.07 457.93,-929.18 454.6,-922.55 451.2,-926.07"/>
</g>
<!-- HS&#45;&gt;EV_t1 -->
<g id="edge71" class="edge">
<title>HS&#45;&gt;EV_t1</title>
<path fill="none" stroke="#5560a6" stroke-width="1.15" d="M186.72,-473.52C234.09,-445.62 329.9,-394 419.25,-375 499.52,-357.93 594.06,-377.09 652.96,-393.59"/>
<polygon fill="#5560a6" stroke="#5560a6" stroke-width="1.15" points="651.95,-395.85 659.36,-395.41 653.3,-391.13 651.95,-395.85"/>
</g>
<!-- LS_t -->
<g id="node12" class="node">
<title>LS_t</title>
<path fill="#fdecd2" stroke="#c2872a" stroke-width="1.3" d="M505.97,-826C505.97,-826 454.88,-826 454.88,-826 448.88,-826 442.88,-820 442.88,-814 442.88,-814 442.88,-802 442.88,-802 442.88,-796 448.88,-790 454.88,-790 454.88,-790 505.97,-790 505.97,-790 511.97,-790 517.97,-796 517.97,-802 517.97,-802 517.97,-814 517.97,-814 517.97,-820 511.97,-826 505.97,-826"/>
<text xml:space="preserve" text-anchor="middle" x="480.42" y="-809.55" font-family="Helvetica,sans-Serif" font-size="11.00">LS (t)</text>
<text xml:space="preserve" text-anchor="middle" x="480.42" y="-797.55" font-family="Helvetica,sans-Serif" font-size="11.00">letter–sound</text>
</g>
<!-- HS&#45;&gt;LS_t -->
<g id="edge67" class="edge">
<title>HS&#45;&gt;LS_t</title>
<path fill="none" stroke="#5560a6" stroke-width="1.15" d="M169.89,-510.4C205.63,-559 308.72,-692.81 419.25,-777 424.07,-780.67 429.39,-784.12 434.81,-787.29"/>
<polygon fill="#5560a6" stroke="#5560a6" stroke-width="1.15" points="433.41,-789.31 440.71,-790.58 435.79,-785.03 433.41,-789.31"/>
</g>
<!-- LS_t1 -->
<g id="node13" class="node">
<title>LS_t1</title>
<path fill="#fdecd2" stroke="#c2872a" stroke-width="1.3" d="M736.31,-1000C736.31,-1000 685.22,-1000 685.22,-1000 679.22,-1000 673.22,-994 673.22,-988 673.22,-988 673.22,-976 673.22,-976 673.22,-970 679.22,-964 685.22,-964 685.22,-964 736.31,-964 736.31,-964 742.31,-964 748.31,-970 748.31,-976 748.31,-976 748.31,-988 748.31,-988 748.31,-994 742.31,-1000 736.31,-1000"/>
<text xml:space="preserve" text-anchor="middle" x="710.76" y="-983.55" font-family="Helvetica,sans-Serif" font-size="11.00">LS (t+1)</text>
<text xml:space="preserve" text-anchor="middle" x="710.76" y="-971.55" font-family="Helvetica,sans-Serif" font-size="11.00">letter–sound</text>
</g>
<!-- HS&#45;&gt;LS_t1 -->
<g id="edge75" class="edge">
<title>HS&#45;&gt;LS_t1</title>
<path fill="none" stroke="#5560a6" stroke-width="1.15" d="M160.91,-510.37C184.48,-609.56 301.47,-1079.75 419.25,-1160 464.18,-1190.62 493.24,-1184.87 541.59,-1160 614.97,-1122.27 585.74,-1061.26 649.59,-1009 654.28,-1005.16 659.6,-1001.76 665.1,-998.77"/>
<polygon fill="#5560a6" stroke="#5560a6" stroke-width="1.15" points="665.96,-1001.08 671.1,-995.74 663.75,-996.71 665.96,-1001.08"/>
</g>
<!-- PA_t -->
<g id="node16" class="node">
<title>PA_t</title>
<path fill="#fdecd2" stroke="#c2872a" stroke-width="1.3" d="M516.84,-650.32C516.84,-650.32 444,-650.32 444,-650.32 438,-650.32 432,-644.32 432,-638.32 432,-638.32 432,-617.68 432,-617.68 432,-611.68 438,-605.68 444,-605.68 444,-605.68 516.84,-605.68 516.84,-605.68 522.84,-605.68 528.84,-611.68 528.84,-617.68 528.84,-617.68 528.84,-638.32 528.84,-638.32 528.84,-644.32 522.84,-650.32 516.84,-650.32"/>
<text xml:space="preserve" text-anchor="middle" x="480.42" y="-635.55" font-family="Helvetica,sans-Serif" font-size="11.00">PA (t)</text>
<text xml:space="preserve" text-anchor="middle" x="480.42" y="-623.55" font-family="Helvetica,sans-Serif" font-size="11.00">phoneme aware.</text>
<text xml:space="preserve" text-anchor="middle" x="480.42" y="-611.55" font-family="Helvetica,sans-Serif" font-size="11.00">(blending)</text>
</g>
<!-- HS&#45;&gt;PA_t -->
<g id="edge66" class="edge">
<title>HS&#45;&gt;PA_t</title>
<path fill="none" stroke="#5560a6" stroke-width="1.15" d="M197.84,-509.36C255.13,-533.5 359.03,-577.28 423.34,-604.37"/>
<polygon fill="#5560a6" stroke="#5560a6" stroke-width="1.15" points="422.36,-606.62 429.76,-607.08 424.26,-602.1 422.36,-606.62"/>
</g>
<!-- HS&#45;&gt;PA_t1 -->
<g id="edge74" class="edge">
<title>HS&#45;&gt;PA_t1</title>
<path fill="none" stroke="#5560a6" stroke-width="1.15" d="M159.83,-510.61C173.88,-585.75 237.69,-867.95 419.25,-976 465.98,-1003.81 490.36,-994.23 541.59,-976 599.92,-955.24 600.58,-925.84 649.59,-888 656.57,-882.61 664.1,-876.97 671.38,-871.6"/>
<polygon fill="#5560a6" stroke="#5560a6" stroke-width="1.15" points="672.39,-873.9 676.59,-867.79 669.49,-869.95 672.39,-873.9"/>
</g>
<!-- RV_t -->
<g id="node22" class="node">
<title>RV_t</title>
<path fill="#d6ebe4" stroke="#2f9e78" stroke-width="1.3" d="M513.84,-194C513.84,-194 447,-194 447,-194 441,-194 435,-188 435,-182 435,-182 435,-170 435,-170 435,-164 441,-158 447,-158 447,-158 513.84,-158 513.84,-158 519.84,-158 525.84,-164 525.84,-170 525.84,-170 525.84,-182 525.84,-182 525.84,-188 519.84,-194 513.84,-194"/>
<text xml:space="preserve" text-anchor="middle" x="480.42" y="-177.55" font-family="Helvetica,sans-Serif" font-size="11.00">RV (t)</text>
<text xml:space="preserve" text-anchor="middle" x="480.42" y="-165.55" font-family="Helvetica,sans-Serif" font-size="11.00">receptive vocab</text>
</g>
<!-- HS&#45;&gt;RV_t -->
<g id="edge61" class="edge">
<title>HS&#45;&gt;RV_t</title>
<path fill="none" stroke="#5560a6" stroke-width="1.15" d="M168.99,-473.55C203.29,-423.62 304.65,-284.05 419.25,-202 421.76,-200.21 424.41,-198.5 427.14,-196.88"/>
<polygon fill="#5560a6" stroke="#5560a6" stroke-width="1.15" points="428.06,-199.17 433.02,-193.65 425.7,-194.88 428.06,-199.17"/>
</g>
<!-- RV_t1 -->
<g id="node23" class="node">
<title>RV_t1</title>
<path fill="#d6ebe4" stroke="#2f9e78" stroke-width="1.3" d="M744.18,-201C744.18,-201 677.34,-201 677.34,-201 671.34,-201 665.34,-195 665.34,-189 665.34,-189 665.34,-177 665.34,-177 665.34,-171 671.34,-165 677.34,-165 677.34,-165 744.18,-165 744.18,-165 750.18,-165 756.18,-171 756.18,-177 756.18,-177 756.18,-189 756.18,-189 756.18,-195 750.18,-201 744.18,-201"/>
<text xml:space="preserve" text-anchor="middle" x="710.76" y="-184.55" font-family="Helvetica,sans-Serif" font-size="11.00">RV (t+1)</text>
<text xml:space="preserve" text-anchor="middle" x="710.76" y="-172.55" font-family="Helvetica,sans-Serif" font-size="11.00">receptive vocab</text>
</g>
<!-- HS&#45;&gt;RV_t1 -->
<g id="edge69" class="edge">
<title>HS&#45;&gt;RV_t1</title>
<path fill="none" stroke="#5560a6" stroke-width="1.15" d="M162.26,-473.67C183.32,-408.83 264.24,-189.78 419.25,-108 467.34,-82.63 488.41,-96.68 541.59,-108 543.19,-108.34 611.54,-138.93 660.6,-160.93"/>
<polygon fill="#5560a6" stroke="#5560a6" stroke-width="1.15" points="659.32,-163.04 666.71,-163.67 661.32,-158.57 659.32,-163.04"/>
</g>
<!-- RW_t -->
<g id="node24" class="node">
<title>RW_t</title>
<path fill="#d6ebe4" stroke="#2f9e78" stroke-width="1.3" d="M514.59,-439.32C514.59,-439.32 446.25,-439.32 446.25,-439.32 440.25,-439.32 434.25,-433.32 434.25,-427.32 434.25,-427.32 434.25,-406.68 434.25,-406.68 434.25,-400.68 440.25,-394.68 446.25,-394.68 446.25,-394.68 514.59,-394.68 514.59,-394.68 520.59,-394.68 526.59,-400.68 526.59,-406.68 526.59,-406.68 526.59,-427.32 526.59,-427.32 526.59,-433.32 520.59,-439.32 514.59,-439.32"/>
<text xml:space="preserve" text-anchor="middle" x="480.42" y="-424.55" font-family="Helvetica,sans-Serif" font-size="11.00">RW (t)</text>
<text xml:space="preserve" text-anchor="middle" x="480.42" y="-412.55" font-family="Helvetica,sans-Serif" font-size="11.00">word repetition</text>
<text xml:space="preserve" text-anchor="middle" x="480.42" y="-400.55" font-family="Helvetica,sans-Serif" font-size="11.00">(phon. memory)</text>
</g>
<!-- HS&#45;&gt;RW_t -->
<g id="edge65" class="edge">
<title>HS&#45;&gt;RW_t</title>
<path fill="none" stroke="#5560a6" stroke-width="1.15" d="M197.84,-482.43C255.74,-468.97 361.27,-444.45 425.4,-429.55"/>
<polygon fill="#5560a6" stroke="#5560a6" stroke-width="1.15" points="425.82,-431.97 432.08,-428 424.71,-427.2 425.82,-431.97"/>
</g>
<!-- RW_t1 -->
<g id="node25" class="node">
<title>RW_t1</title>
<path fill="#d6ebe4" stroke="#2f9e78" stroke-width="1.3" d="M744.93,-262.32C744.93,-262.32 676.59,-262.32 676.59,-262.32 670.59,-262.32 664.59,-256.32 664.59,-250.32 664.59,-250.32 664.59,-229.68 664.59,-229.68 664.59,-223.68 670.59,-217.68 676.59,-217.68 676.59,-217.68 744.93,-217.68 744.93,-217.68 750.93,-217.68 756.93,-223.68 756.93,-229.68 756.93,-229.68 756.93,-250.32 756.93,-250.32 756.93,-256.32 750.93,-262.32 744.93,-262.32"/>
<text xml:space="preserve" text-anchor="middle" x="710.76" y="-247.55" font-family="Helvetica,sans-Serif" font-size="11.00">RW (t+1)</text>
<text xml:space="preserve" text-anchor="middle" x="710.76" y="-235.55" font-family="Helvetica,sans-Serif" font-size="11.00">word repetition</text>
<text xml:space="preserve" text-anchor="middle" x="710.76" y="-223.55" font-family="Helvetica,sans-Serif" font-size="11.00">(phon. memory)</text>
</g>
<!-- HS&#45;&gt;RW_t1 -->
<g id="edge73" class="edge">
<title>HS&#45;&gt;RW_t1</title>
<path fill="none" stroke="#5560a6" stroke-width="1.15" d="M162.88,-473.73C185.46,-411.09 269.4,-204.66 419.25,-128 467.66,-103.23 490.01,-110.81 541.59,-128 598.51,-146.97 598.74,-177.15 649.59,-209 651.88,-210.43 654.25,-211.86 656.65,-213.27"/>
<polygon fill="#5560a6" stroke="#5560a6" stroke-width="1.15" points="655.16,-215.24 662.46,-216.57 657.58,-210.98 655.16,-215.24"/>
</g>
<!-- SP_t -->
<g id="node26" class="node">
<title>SP_t</title>
<path fill="#fbe1e0" stroke="#d0433f" stroke-width="1.3" d="M529.59,-588.32C529.59,-588.32 431.25,-588.32 431.25,-588.32 425.25,-588.32 419.25,-582.32 419.25,-576.32 419.25,-576.32 419.25,-555.68 419.25,-555.68 419.25,-549.68 425.25,-543.68 431.25,-543.68 431.25,-543.68 529.59,-543.68 529.59,-543.68 535.59,-543.68 541.59,-549.68 541.59,-555.68 541.59,-555.68 541.59,-576.32 541.59,-576.32 541.59,-582.32 535.59,-588.32 529.59,-588.32"/>
<text xml:space="preserve" text-anchor="middle" x="480.42" y="-573.55" font-family="Helvetica,sans-Serif" font-size="11.00">SP (t)</text>
<text xml:space="preserve" text-anchor="middle" x="480.42" y="-561.55" font-family="Helvetica,sans-Serif" font-size="11.00">speech production</text>
<text xml:space="preserve" text-anchor="middle" x="480.42" y="-549.55" font-family="Helvetica,sans-Serif" font-size="11.00">(motor&#45;difficulty proxy)</text>
</g>
<!-- HS&#45;&gt;SP_t -->
<g id="edge64" class="edge">
<title>HS&#45;&gt;SP_t</title>
<path fill="none" stroke="#5560a6" stroke-width="1.15" d="M197.84,-501.45C251.35,-513.72 345.54,-535.31 410.13,-550.12"/>
<polygon fill="#5560a6" stroke="#5560a6" stroke-width="1.15" points="409.58,-552.5 416.95,-551.68 410.68,-547.73 409.58,-552.5"/>
</g>
<!-- SP_t1 -->
<g id="node27" class="node">
<title>SP_t1</title>
<path fill="#fbe1e0" stroke="#d0433f" stroke-width="1.3" d="M759.93,-324.32C759.93,-324.32 661.59,-324.32 661.59,-324.32 655.59,-324.32 649.59,-318.32 649.59,-312.32 649.59,-312.32 649.59,-291.68 649.59,-291.68 649.59,-285.68 655.59,-279.68 661.59,-279.68 661.59,-279.68 759.93,-279.68 759.93,-279.68 765.93,-279.68 771.93,-285.68 771.93,-291.68 771.93,-291.68 771.93,-312.32 771.93,-312.32 771.93,-318.32 765.93,-324.32 759.93,-324.32"/>
<text xml:space="preserve" text-anchor="middle" x="710.76" y="-309.55" font-family="Helvetica,sans-Serif" font-size="11.00">SP (t+1)</text>
<text xml:space="preserve" text-anchor="middle" x="710.76" y="-297.55" font-family="Helvetica,sans-Serif" font-size="11.00">speech production</text>
<text xml:space="preserve" text-anchor="middle" x="710.76" y="-285.55" font-family="Helvetica,sans-Serif" font-size="11.00">(motor&#45;difficulty proxy)</text>
</g>
<!-- HS&#45;&gt;SP_t1 -->
<g id="edge72" class="edge">
<title>HS&#45;&gt;SP_t1</title>
<path fill="none" stroke="#5560a6" stroke-width="1.15" d="M163.72,-473.5C188.1,-412.9 275,-220.23 419.25,-149 468,-124.93 492.01,-126.68 541.59,-149 607.62,-178.73 592.42,-226.55 649.59,-271 651.1,-272.17 652.66,-273.32 654.25,-274.44"/>
<polygon fill="#5560a6" stroke="#5560a6" stroke-width="1.15" points="652.82,-276.43 660.01,-278.24 655.51,-272.34 652.82,-276.43"/>
</g>
<!-- TE_t -->
<g id="node28" class="node">
<title>TE_t</title>
<path fill="#e7ddf5" stroke="#7a52b3" stroke-width="1.3" d="M518.34,-879C518.34,-879 442.5,-879 442.5,-879 436.5,-879 430.5,-873 430.5,-867 430.5,-867 430.5,-855 430.5,-855 430.5,-849 436.5,-843 442.5,-843 442.5,-843 518.34,-843 518.34,-843 524.34,-843 530.34,-849 530.34,-855 530.34,-855 530.34,-867 530.34,-867 530.34,-873 524.34,-879 518.34,-879"/>
<text xml:space="preserve" text-anchor="middle" x="480.42" y="-862.55" font-family="Helvetica,sans-Serif" font-size="11.00">TE (t)</text>
<text xml:space="preserve" text-anchor="middle" x="480.42" y="-850.55" font-family="Helvetica,sans-Serif" font-size="11.00">taught expressive</text>
</g>
<!-- HS&#45;&gt;TE_t -->
<g id="edge62" class="edge">
<title>HS&#45;&gt;TE_t</title>
<path fill="none" stroke="#5560a6" stroke-width="1.15" d="M166.34,-510.64C196.52,-566.96 294.19,-737.42 419.25,-835 420.56,-836.02 421.92,-837.02 423.32,-837.98"/>
<polygon fill="#5560a6" stroke="#5560a6" stroke-width="1.15" points="421.85,-839.95 429.08,-841.59 424.45,-835.79 421.85,-839.95"/>
</g>
<!-- TE_t1 -->
<g id="node29" class="node">
<title>TE_t1</title>
<path fill="#e7ddf5" stroke="#7a52b3" stroke-width="1.3" d="M748.68,-782C748.68,-782 672.84,-782 672.84,-782 666.84,-782 660.84,-776 660.84,-770 660.84,-770 660.84,-758 660.84,-758 660.84,-752 666.84,-746 672.84,-746 672.84,-746 748.68,-746 748.68,-746 754.68,-746 760.68,-752 760.68,-758 760.68,-758 760.68,-770 760.68,-770 760.68,-776 754.68,-782 748.68,-782"/>
<text xml:space="preserve" text-anchor="middle" x="710.76" y="-765.55" font-family="Helvetica,sans-Serif" font-size="11.00">TE (t+1)</text>
<text xml:space="preserve" text-anchor="middle" x="710.76" y="-753.55" font-family="Helvetica,sans-Serif" font-size="11.00">taught expressive</text>
</g>
<!-- HS&#45;&gt;TE_t1 -->
<g id="edge70" class="edge">
<title>HS&#45;&gt;TE_t1</title>
<path fill="none" stroke="#5560a6" stroke-width="1.15" d="M168.57,-510.63C201.45,-559.99 298.84,-694.01 419.25,-747 494.29,-780.02 590.92,-778.01 651.62,-772.11"/>
<polygon fill="#5560a6" stroke="#5560a6" stroke-width="1.15" points="651.87,-774.55 658.58,-771.4 651.37,-769.68 651.87,-774.55"/>
</g>
<!-- TR_t -->
<g id="node30" class="node">
<title>TR_t</title>
<path fill="#e7ddf5" stroke="#7a52b3" stroke-width="1.3" d="M514.59,-247C514.59,-247 446.25,-247 446.25,-247 440.25,-247 434.25,-241 434.25,-235 434.25,-235 434.25,-223 434.25,-223 434.25,-217 440.25,-211 446.25,-211 446.25,-211 514.59,-211 514.59,-211 520.59,-211 526.59,-217 526.59,-223 526.59,-223 526.59,-235 526.59,-235 526.59,-241 520.59,-247 514.59,-247"/>
<text xml:space="preserve" text-anchor="middle" x="480.42" y="-230.55" font-family="Helvetica,sans-Serif" font-size="11.00">TR (t)</text>
<text xml:space="preserve" text-anchor="middle" x="480.42" y="-218.55" font-family="Helvetica,sans-Serif" font-size="11.00">taught receptive</text>
</g>
<!-- HS&#45;&gt;TR_t -->
<g id="edge60" class="edge">
<title>HS&#45;&gt;TR_t</title>
<path fill="none" stroke="#5560a6" stroke-width="1.15" d="M173.11,-473.44C212.21,-430.31 315.13,-321.89 419.25,-255 421.55,-253.52 423.94,-252.1 426.4,-250.72"/>
<polygon fill="#5560a6" stroke="#5560a6" stroke-width="1.15" points="427.32,-253 432.37,-247.57 425.03,-248.67 427.32,-253"/>
</g>
<!-- TR_t1 -->
<g id="node31" class="node">
<title>TR_t1</title>
<path fill="#e7ddf5" stroke="#7a52b3" stroke-width="1.3" d="M744.93,-483C744.93,-483 676.59,-483 676.59,-483 670.59,-483 664.59,-477 664.59,-471 664.59,-471 664.59,-459 664.59,-459 664.59,-453 670.59,-447 676.59,-447 676.59,-447 744.93,-447 744.93,-447 750.93,-447 756.93,-453 756.93,-459 756.93,-459 756.93,-471 756.93,-471 756.93,-477 750.93,-483 744.93,-483"/>
<text xml:space="preserve" text-anchor="middle" x="710.76" y="-466.55" font-family="Helvetica,sans-Serif" font-size="11.00">TR (t+1)</text>
<text xml:space="preserve" text-anchor="middle" x="710.76" y="-454.55" font-family="Helvetica,sans-Serif" font-size="11.00">taught receptive</text>
</g>
<!-- HS&#45;&gt;TR_t1 -->
<g id="edge68" class="edge">
<title>HS&#45;&gt;TR_t1</title>
<path fill="none" stroke="#5560a6" stroke-width="1.15" d="M186.36,-473.36C250.72,-435.35 407.89,-354.96 541.59,-386 593.67,-398.09 601.03,-416.61 649.59,-439 652.39,-440.29 655.27,-441.6 658.19,-442.91"/>
<polygon fill="#5560a6" stroke="#5560a6" stroke-width="1.15" points="656.96,-445.05 664.35,-445.65 658.95,-440.57 656.96,-445.05"/>
</g>
<!-- IG -->
<g id="node8" class="node">
<title>IG</title>
<path fill="#dbe8fb" stroke="#2f6fdb" stroke-width="1.3" d="M194.67,-1094.32C194.67,-1094.32 116.58,-1094.32 116.58,-1094.32 110.58,-1094.32 104.58,-1088.32 104.58,-1082.32 104.58,-1082.32 104.58,-1061.68 104.58,-1061.68 104.58,-1055.68 110.58,-1049.68 116.58,-1049.68 116.58,-1049.68 194.67,-1049.68 194.67,-1049.68 200.67,-1049.68 206.67,-1055.68 206.67,-1061.68 206.67,-1061.68 206.67,-1082.32 206.67,-1082.32 206.67,-1088.32 200.67,-1094.32 194.67,-1094.32"/>
<text xml:space="preserve" text-anchor="middle" x="155.62" y="-1079.55" font-family="Helvetica,sans-Serif" font-size="11.00">IG</text>
<text xml:space="preserve" text-anchor="middle" x="155.62" y="-1067.55" font-family="Helvetica,sans-Serif" font-size="11.00">intervention group</text>
<text xml:space="preserve" text-anchor="middle" x="155.62" y="-1055.55" font-family="Helvetica,sans-Serif" font-size="11.00">(randomised)</text>
</g>
<!-- IG&#45;&gt;EG_t1 -->
<g id="edge84" class="edge">
<title>IG&#45;&gt;EG_t1</title>
<path fill="none" stroke="#2f6fdb" stroke-width="1.15" d="M207.28,-1072.62C239.39,-1075.2 280.51,-1082.73 311.25,-1103 381.95,-1149.63 344.29,-1220.58 419.25,-1260 467.38,-1285.31 494.83,-1287.76 541.59,-1260 627.79,-1208.83 576.02,-1130.08 649.59,-1062 650.96,-1060.74 652.39,-1059.52 653.88,-1058.36"/>
<polygon fill="#2f6fdb" stroke="#2f6fdb" stroke-width="1.15" points="654.96,-1060.6 659.29,-1054.58 652.15,-1056.58 654.96,-1060.6"/>
</g>
<!-- IG&#45;&gt;EI_t1 -->
<g id="edge83" class="edge">
<title>IG&#45;&gt;EI_t1</title>
<path fill="none" stroke="#2f6fdb" stroke-width="1.15" d="M207.26,-1070.59C240.17,-1072.24 282.2,-1079.49 311.25,-1103 405.33,-1179.15 318.11,-1286.52 419.25,-1353 464.69,-1382.87 493.94,-1379.19 541.59,-1353 636.29,-1300.94 685.19,-1170.5 702.42,-1114.37"/>
<polygon fill="#2f6fdb" stroke="#2f6fdb" stroke-width="1.15" points="704.66,-1115.41 704.32,-1108 699.97,-1114 704.66,-1115.41"/>
</g>
<!-- IS_t -->
<g id="node9" class="node">
<title>IS_t</title>
<path fill="#dbe8fb" stroke="#2f6fdb" stroke-width="1.3" d="M513.84,-1090C513.84,-1090 447,-1090 447,-1090 441,-1090 435,-1084 435,-1078 435,-1078 435,-1066 435,-1066 435,-1060 441,-1054 447,-1054 447,-1054 513.84,-1054 513.84,-1054 519.84,-1054 525.84,-1060 525.84,-1066 525.84,-1066 525.84,-1078 525.84,-1078 525.84,-1084 519.84,-1090 513.84,-1090"/>
<text xml:space="preserve" text-anchor="middle" x="480.42" y="-1073.55" font-family="Helvetica,sans-Serif" font-size="11.00">IS (t)</text>
<text xml:space="preserve" text-anchor="middle" x="480.42" y="-1061.55" font-family="Helvetica,sans-Serif" font-size="11.00">sessions (dose)</text>
</g>
<!-- IG&#45;&gt;IS_t -->
<g id="edge76" class="edge">
<title>IG&#45;&gt;IS_t</title>
<path fill="none" stroke="#2f6fdb" stroke-width="1.15" d="M207.06,-1072C266.55,-1072 365.02,-1072 425.85,-1072"/>
<polygon fill="#2f6fdb" stroke="#2f6fdb" stroke-width="1.15" points="425.8,-1074.45 432.8,-1072 425.8,-1069.55 425.8,-1074.45"/>
</g>
<!-- IG&#45;&gt;LS_t1 -->
<g id="edge80" class="edge">
<title>IG&#45;&gt;LS_t1</title>
<path fill="none" stroke="#2f6fdb" stroke-width="1.15" d="M207.19,-1073.98C238.88,-1077.13 279.57,-1084.77 311.25,-1103 374.02,-1139.11 353.22,-1195.27 419.25,-1225 468.83,-1247.32 495.34,-1253.59 541.59,-1225 632.89,-1168.57 572.12,-1083.29 649.59,-1009 654.08,-1004.7 659.37,-1001 664.92,-997.85"/>
<polygon fill="#2f6fdb" stroke="#2f6fdb" stroke-width="1.15" points="665.96,-1000.08 671.06,-994.69 663.71,-995.72 665.96,-1000.08"/>
</g>
<!-- IG&#45;&gt;PA_t1 -->
<g id="edge79" class="edge">
<title>IG&#45;&gt;PA_t1</title>
<path fill="none" stroke="#2f6fdb" stroke-width="1.15" d="M207.13,-1067.43C297.95,-1058.55 484.68,-1037.07 541.59,-1006 603.99,-971.93 596.64,-935.44 649.59,-888 655.73,-882.5 662.55,-877 669.32,-871.86"/>
<polygon fill="#2f6fdb" stroke="#2f6fdb" stroke-width="1.15" points="670.51,-874.03 674.66,-867.88 667.58,-870.1 670.51,-874.03"/>
</g>
<!-- PS_t1 -->
<g id="node19" class="node">
<title>PS_t1</title>
<path fill="#fdecd2" stroke="#c2872a" stroke-width="2.2" d="M746.43,-941.32C746.43,-941.32 675.09,-941.32 675.09,-941.32 669.09,-941.32 663.09,-935.32 663.09,-929.32 663.09,-929.32 663.09,-908.68 663.09,-908.68 663.09,-902.68 669.09,-896.68 675.09,-896.68 675.09,-896.68 746.43,-896.68 746.43,-896.68 752.43,-896.68 758.43,-902.68 758.43,-908.68 758.43,-908.68 758.43,-929.32 758.43,-929.32 758.43,-935.32 752.43,-941.32 746.43,-941.32"/>
<text xml:space="preserve" text-anchor="middle" x="710.76" y="-926.55" font-family="Helvetica,sans-Serif" font-size="11.00">PS (t+1)</text>
<text xml:space="preserve" text-anchor="middle" x="710.76" y="-914.55" font-family="Helvetica,sans-Serif" font-size="11.00">phonetic spelling</text>
<text xml:space="preserve" text-anchor="middle" x="710.76" y="-902.55" font-family="Helvetica,sans-Serif" font-size="11.00">(outcome)</text>
</g>
<!-- IG&#45;&gt;PS_t1 -->
<g id="edge82" class="edge">
<title>IG&#45;&gt;PS_t1</title>
<path fill="none" stroke="#2f6fdb" stroke-width="1.15" d="M207.05,-1078.36C237.76,-1083.14 277.46,-1090.98 311.25,-1103 362.39,-1121.19 366.57,-1146.95 419.25,-1160 472.03,-1173.07 495.01,-1188.05 541.59,-1160 629.48,-1107.08 579.42,-1030.84 649.59,-956 652.38,-953.03 655.46,-950.2 658.71,-947.53"/>
<polygon fill="#2f6fdb" stroke="#2f6fdb" stroke-width="1.15" points="660.11,-949.54 664.19,-943.35 657.14,-945.65 660.11,-949.54"/>
</g>
<!-- IG&#45;&gt;TE_t1 -->
<g id="edge78" class="edge">
<title>IG&#45;&gt;TE_t1</title>
<path fill="none" stroke="#2f6fdb" stroke-width="1.15" d="M190.54,-1049.26C239.33,-1017.37 332.97,-959.21 419.25,-923 471.4,-901.11 490.84,-912.96 541.59,-888 570.52,-873.78 640.33,-819.54 680.32,-787.7"/>
<polygon fill="#2f6fdb" stroke="#2f6fdb" stroke-width="1.15" points="681.64,-789.78 685.58,-783.5 678.58,-785.95 681.64,-789.78"/>
</g>
<!-- IG&#45;&gt;TR_t1 -->
<g id="edge77" class="edge">
<title>IG&#45;&gt;TR_t1</title>
<path fill="none" stroke="#2f6fdb" stroke-width="1.15" d="M158.67,-1049.28C168.16,-959.01 216.42,-623.74 419.25,-483 456.15,-457.39 581.9,-458.67 655.3,-461.84"/>
<polygon fill="#2f6fdb" stroke="#2f6fdb" stroke-width="1.15" points="655.14,-464.29 662.24,-462.16 655.36,-459.39 655.14,-464.29"/>
</g>
<!-- IG&#45;&gt;WR_t1 -->
<g id="edge81" class="edge">
<title>IG&#45;&gt;WR_t1</title>
<path fill="none" stroke="#2f6fdb" stroke-width="1.15" d="M164.82,-1049.28C190.42,-981.95 275.82,-782.64 419.25,-694 455.93,-671.33 571.06,-660.28 644.9,-655.39"/>
<polygon fill="#2f6fdb" stroke="#2f6fdb" stroke-width="1.15" points="644.68,-657.86 651.51,-654.97 644.36,-652.97 644.68,-657.86"/>
</g>
<!-- IS_t&#45;&gt;EG_t1 -->
<g id="edge92" class="edge">
<title>IS_t&#45;&gt;EG_t1</title>
<path fill="none" stroke="#2f6fdb" stroke-width="1.15" d="M526.26,-1064.73C560.19,-1059.24 607.27,-1051.61 645.24,-1045.45"/>
<polygon fill="#2f6fdb" stroke="#2f6fdb" stroke-width="1.15" points="645.46,-1047.9 651.98,-1044.36 644.67,-1043.06 645.46,-1047.9"/>
</g>
<!-- IS_t&#45;&gt;EI_t1 -->
<g id="edge91" class="edge">
<title>IS_t&#45;&gt;EI_t1</title>
<path fill="none" stroke="#2f6fdb" stroke-width="1.15" d="M526.26,-1075.14C564.21,-1077.8 618.62,-1081.61 658.33,-1084.4"/>
<polygon fill="#2f6fdb" stroke="#2f6fdb" stroke-width="1.15" points="657.68,-1086.81 664.83,-1084.85 658.02,-1081.92 657.68,-1086.81"/>
</g>
<!-- IS_t&#45;&gt;LS_t1 -->
<g id="edge88" class="edge">
<title>IS_t&#45;&gt;LS_t1</title>
<path fill="none" stroke="#2f6fdb" stroke-width="1.15" d="M526.26,-1054.33C566.24,-1038.57 624.46,-1015.62 664.55,-999.82"/>
<polygon fill="#2f6fdb" stroke="#2f6fdb" stroke-width="1.15" points="665.33,-1002.14 670.95,-997.3 663.54,-997.59 665.33,-1002.14"/>
</g>
<!-- IS_t&#45;&gt;PA_t1 -->
<g id="edge87" class="edge">
<title>IS_t&#45;&gt;PA_t1</title>
<path fill="none" stroke="#2f6fdb" stroke-width="1.15" d="M523.87,-1053.45C530.14,-1049.79 536.27,-1045.63 541.59,-1041 604.39,-986.37 591.23,-947.35 649.59,-888 655.05,-882.44 661.28,-877.07 667.6,-872.09"/>
<polygon fill="#2f6fdb" stroke="#2f6fdb" stroke-width="1.15" points="669,-874.11 673.08,-867.92 666.03,-870.21 669,-874.11"/>
</g>
<!-- IS_t&#45;&gt;PS_t1 -->
<g id="edge90" class="edge">
<title>IS_t&#45;&gt;PS_t1</title>
<path fill="none" stroke="#2f6fdb" stroke-width="1.15" d="M520.23,-1053.39C527.47,-1049.53 534.87,-1045.32 541.59,-1041 592.97,-1007.97 599.49,-990.95 649.59,-956 653.95,-952.96 658.55,-949.89 663.2,-946.89"/>
<polygon fill="#2f6fdb" stroke="#2f6fdb" stroke-width="1.15" points="664.44,-949 669.03,-943.17 661.81,-944.87 664.44,-949"/>
</g>
<!-- IS_t&#45;&gt;TE_t1 -->
<g id="edge86" class="edge">
<title>IS_t&#45;&gt;TE_t1</title>
<path fill="none" stroke="#2f6fdb" stroke-width="1.15" d="M492.93,-1053.55C527.74,-997.89 630.61,-834.14 649.59,-813 657.63,-804.05 667.38,-795.38 676.68,-787.88"/>
<polygon fill="#2f6fdb" stroke="#2f6fdb" stroke-width="1.15" points="677.98,-789.97 681.96,-783.72 674.95,-786.12 677.98,-789.97"/>
</g>
<!-- IS_t&#45;&gt;TR_t1 -->
<g id="edge85" class="edge">
<title>IS_t&#45;&gt;TR_t1</title>
<path fill="none" stroke="#2f6fdb" stroke-width="1.15" d="M495.53,-1053.5C509.12,-1034.85 529.37,-1004.79 541.59,-976 619.58,-792.23 561.06,-718.93 649.59,-540 658.69,-521.61 672.92,-503.6 685.25,-489.83"/>
<polygon fill="#2f6fdb" stroke="#2f6fdb" stroke-width="1.15" points="687.02,-491.53 689.95,-484.71 683.41,-488.21 687.02,-491.53"/>
</g>
<!-- IS_t&#45;&gt;WR_t1 -->
<g id="edge89" class="edge">
<title>IS_t&#45;&gt;WR_t1</title>
<path fill="none" stroke="#2f6fdb" stroke-width="1.15" d="M493.94,-1053.68C506.67,-1034.68 526.6,-1003.9 541.59,-976 596.56,-873.67 592.05,-838.91 649.59,-738 660.65,-718.61 674.9,-698.08 686.76,-681.95"/>
<polygon fill="#2f6fdb" stroke="#2f6fdb" stroke-width="1.15" points="688.44,-683.8 690.64,-676.72 684.5,-680.88 688.44,-683.8"/>
</g>
<!-- LF_t -->
<g id="node10" class="node">
<title>LF_t</title>
<path fill="#eceef1" stroke="#9aa0a8" stroke-width="1.3" d="M511.97,-36C511.97,-36 448.88,-36 448.88,-36 442.88,-36 436.88,-30 436.88,-24 436.88,-24 436.88,-12 436.88,-12 436.88,-6 442.88,0 448.88,0 448.88,0 511.97,0 511.97,0 517.97,0 523.97,-6 523.97,-12 523.97,-12 523.97,-24 523.97,-24 523.97,-30 517.97,-36 511.97,-36"/>
<text xml:space="preserve" text-anchor="middle" x="480.42" y="-19.55" font-family="Helvetica,sans-Serif" font-size="11.00">LF (t)</text>
<text xml:space="preserve" text-anchor="middle" x="480.42" y="-7.55" font-family="Helvetica,sans-Serif" font-size="11.00">language fund.</text>
</g>
<!-- LF_t1 -->
<g id="node11" class="node">
<title>LF_t1</title>
<path fill="#eceef1" stroke="#9aa0a8" stroke-width="1.3" d="M742.31,-148C742.31,-148 679.22,-148 679.22,-148 673.22,-148 667.22,-142 667.22,-136 667.22,-136 667.22,-124 667.22,-124 667.22,-118 673.22,-112 679.22,-112 679.22,-112 742.31,-112 742.31,-112 748.31,-112 754.31,-118 754.31,-124 754.31,-124 754.31,-136 754.31,-136 754.31,-142 748.31,-148 742.31,-148"/>
<text xml:space="preserve" text-anchor="middle" x="710.76" y="-131.55" font-family="Helvetica,sans-Serif" font-size="11.00">LF (t+1)</text>
<text xml:space="preserve" text-anchor="middle" x="710.76" y="-119.55" font-family="Helvetica,sans-Serif" font-size="11.00">language fund.</text>
</g>
<!-- LF_t&#45;&gt;LF_t1 -->
<g id="edge5" class="edge">
<title>LF_t&#45;&gt;LF_t1</title>
<path fill="none" stroke="#b9bec6" d="M519.38,-36.62C559.34,-56.22 622.22,-87.06 664.67,-107.88"/>
<polygon fill="#b9bec6" stroke="#b9bec6" points="663.36,-109.97 670.73,-110.86 665.52,-105.57 663.36,-109.97"/>
</g>
<!-- LS_t&#45;&gt;LS_t1 -->
<g id="edge11" class="edge">
<title>LS_t&#45;&gt;LS_t1</title>
<path fill="none" stroke="#b9bec6" d="M518.32,-821.78C526.32,-825.52 534.5,-829.95 541.59,-835 598.69,-875.7 593.89,-907.41 649.59,-950 654.55,-953.79 660.01,-957.38 665.57,-960.68"/>
<polygon fill="#b9bec6" stroke="#b9bec6" points="664.02,-962.62 671.31,-963.96 666.45,-958.36 664.02,-962.62"/>
</g>
<!-- NW_t1 -->
<g id="node15" class="node">
<title>NW_t1</title>
<path fill="#fdecd2" stroke="#c2872a" stroke-width="1.3" d="M747.18,-584C747.18,-584 674.34,-584 674.34,-584 668.34,-584 662.34,-578 662.34,-572 662.34,-572 662.34,-560 662.34,-560 662.34,-554 668.34,-548 674.34,-548 674.34,-548 747.18,-548 747.18,-548 753.18,-548 759.18,-554 759.18,-560 759.18,-560 759.18,-572 759.18,-572 759.18,-578 753.18,-584 747.18,-584"/>
<text xml:space="preserve" text-anchor="middle" x="710.76" y="-567.55" font-family="Helvetica,sans-Serif" font-size="11.00">NW (t+1)</text>
<text xml:space="preserve" text-anchor="middle" x="710.76" y="-555.55" font-family="Helvetica,sans-Serif" font-size="11.00">nonword reading</text>
</g>
<!-- LS_t&#45;&gt;NW_t1 -->
<g id="edge47" class="edge">
<title>LS_t&#45;&gt;NW_t1</title>
<path fill="none" stroke="#c2872a" stroke-width="1.15" d="M500.47,-789.37C512.48,-777.46 528.2,-761.56 541.59,-747 591.52,-692.71 598.28,-673.98 649.59,-621 659.78,-610.48 671.57,-599.47 682,-590.09"/>
<polygon fill="#c2872a" stroke="#c2872a" stroke-width="1.15" points="683.39,-592.13 686.99,-585.64 680.13,-588.47 683.39,-592.13"/>
</g>
<!-- LS_t&#45;&gt;PA_t1 -->
<g id="edge48" class="edge">
<title>LS_t&#45;&gt;PA_t1</title>
<path fill="none" stroke="#c2872a" stroke-width="1.15" d="M518.61,-813.86C555.15,-819.62 611.36,-828.49 653.39,-835.11"/>
<polygon fill="#c2872a" stroke="#c2872a" stroke-width="1.15" points="652.84,-837.51 660.14,-836.18 653.61,-832.67 652.84,-837.51"/>
</g>
<!-- LS_t&#45;&gt;PS_t1 -->
<g id="edge49" class="edge">
<title>LS_t&#45;&gt;PS_t1</title>
<path fill="none" stroke="#c2872a" stroke-width="1.15" d="M518.44,-824.32C526.12,-827.79 534.14,-831.47 541.59,-835 580.36,-853.37 623.66,-875.03 656.61,-891.75"/>
<polygon fill="#c2872a" stroke="#c2872a" stroke-width="1.15" points="655.43,-893.89 662.78,-894.88 657.65,-889.53 655.43,-893.89"/>
</g>
<!-- LS_t&#45;&gt;WR_t1 -->
<g id="edge50" class="edge">
<title>LS_t&#45;&gt;WR_t1</title>
<path fill="none" stroke="#c2872a" stroke-width="1.15" d="M508.51,-789.49C547.98,-762.53 621.64,-712.2 668.06,-680.49"/>
<polygon fill="#c2872a" stroke="#c2872a" stroke-width="1.15" points="669.43,-682.52 673.83,-676.55 666.67,-678.47 669.43,-682.52"/>
</g>
<!-- NW_t -->
<g id="node14" class="node">
<title>NW_t</title>
<path fill="#fdecd2" stroke="#c2872a" stroke-width="1.3" d="M516.84,-527C516.84,-527 444,-527 444,-527 438,-527 432,-521 432,-515 432,-515 432,-503 432,-503 432,-497 438,-491 444,-491 444,-491 516.84,-491 516.84,-491 522.84,-491 528.84,-497 528.84,-503 528.84,-503 528.84,-515 528.84,-515 528.84,-521 522.84,-527 516.84,-527"/>
<text xml:space="preserve" text-anchor="middle" x="480.42" y="-510.55" font-family="Helvetica,sans-Serif" font-size="11.00">NW (t)</text>
<text xml:space="preserve" text-anchor="middle" x="480.42" y="-498.55" font-family="Helvetica,sans-Serif" font-size="11.00">nonword reading</text>
</g>
<!-- NW_t&#45;&gt;NW_t1 -->
<g id="edge12" class="edge">
<title>NW_t&#45;&gt;NW_t1</title>
<path fill="none" stroke="#b9bec6" d="M529.29,-520.95C565.67,-530.03 615.8,-542.55 654,-552.08"/>
<polygon fill="#b9bec6" stroke="#b9bec6" points="653.1,-554.38 660.49,-553.7 654.29,-549.63 653.1,-554.38"/>
</g>
<!-- NW_t&#45;&gt;WR_t1 -->
<g id="edge51" class="edge">
<title>NW_t&#45;&gt;WR_t1</title>
<path fill="none" stroke="#c2872a" stroke-width="1.15" d="M527.23,-527.64C532.14,-529.98 537.02,-532.45 541.59,-535 589.17,-561.48 639.99,-598.14 673.16,-623.33"/>
<polygon fill="#c2872a" stroke="#c2872a" stroke-width="1.15" points="671.53,-625.16 678.58,-627.46 674.5,-621.27 671.53,-625.16"/>
</g>
<!-- PA_t&#45;&gt;NW_t1 -->
<g id="edge52" class="edge">
<title>PA_t&#45;&gt;NW_t1</title>
<path fill="none" stroke="#c2872a" stroke-width="1.15" d="M529.29,-615C565.67,-605.12 615.8,-591.51 654,-581.14"/>
<polygon fill="#c2872a" stroke="#c2872a" stroke-width="1.15" points="654.16,-583.63 660.28,-579.44 652.88,-578.91 654.16,-583.63"/>
</g>
<!-- PA_t&#45;&gt;PA_t1 -->
<g id="edge13" class="edge">
<title>PA_t&#45;&gt;PA_t1</title>
<path fill="none" stroke="#b9bec6" d="M504.21,-650.76C536.24,-682.6 596.58,-742.02 649.59,-791 658.31,-799.06 667.9,-807.63 676.81,-815.48"/>
<polygon fill="#b9bec6" stroke="#b9bec6" points="675.14,-817.28 682.02,-820.05 678.37,-813.59 675.14,-817.28"/>
</g>
<!-- PA_t&#45;&gt;PS_t1 -->
<g id="edge54" class="edge">
<title>PA_t&#45;&gt;PS_t1</title>
<path fill="none" stroke="#c2872a" stroke-width="1.15" d="M504.35,-650.83C516.12,-663.11 530.31,-678.81 541.59,-694 597.43,-769.22 586.52,-805.74 649.59,-875 654.48,-880.36 660.11,-885.49 665.92,-890.22"/>
<polygon fill="#c2872a" stroke="#c2872a" stroke-width="1.15" points="664.4,-892.14 671.43,-894.52 667.42,-888.28 664.4,-892.14"/>
</g>
<!-- PA_t&#45;&gt;WR_t1 -->
<g id="edge53" class="edge">
<title>PA_t&#45;&gt;WR_t1</title>
<path fill="none" stroke="#c2872a" stroke-width="1.15" d="M529.29,-633.03C562.82,-636.56 608.04,-641.31 644.82,-645.17"/>
<polygon fill="#c2872a" stroke="#c2872a" stroke-width="1.15" points="644.55,-647.61 651.77,-645.9 645.06,-642.74 644.55,-647.61"/>
</g>
<!-- PS_t -->
<g id="node18" class="node">
<title>PS_t</title>
<path fill="#fdecd2" stroke="#c2872a" stroke-width="2.2" d="M516.09,-1151.32C516.09,-1151.32 444.75,-1151.32 444.75,-1151.32 438.75,-1151.32 432.75,-1145.32 432.75,-1139.32 432.75,-1139.32 432.75,-1118.68 432.75,-1118.68 432.75,-1112.68 438.75,-1106.68 444.75,-1106.68 444.75,-1106.68 516.09,-1106.68 516.09,-1106.68 522.09,-1106.68 528.09,-1112.68 528.09,-1118.68 528.09,-1118.68 528.09,-1139.32 528.09,-1139.32 528.09,-1145.32 522.09,-1151.32 516.09,-1151.32"/>
<text xml:space="preserve" text-anchor="middle" x="480.42" y="-1136.55" font-family="Helvetica,sans-Serif" font-size="11.00">PS (t)</text>
<text xml:space="preserve" text-anchor="middle" x="480.42" y="-1124.55" font-family="Helvetica,sans-Serif" font-size="11.00">phonetic spelling</text>
<text xml:space="preserve" text-anchor="middle" x="480.42" y="-1112.55" font-family="Helvetica,sans-Serif" font-size="11.00">(outcome)</text>
</g>
<!-- PS_t&#45;&gt;PS_t1 -->
<g id="edge14" class="edge">
<title>PS_t&#45;&gt;PS_t1</title>
<path fill="none" stroke="#b9bec6" d="M529.05,-1107.92C533.47,-1105.18 537.73,-1102.21 541.59,-1099 602.85,-1048.1 590.65,-1009.56 649.59,-956 652.94,-952.96 656.57,-950.03 660.33,-947.23"/>
<polygon fill="#b9bec6" stroke="#b9bec6" points="661.68,-949.28 665.98,-943.24 658.85,-945.28 661.68,-949.28"/>
</g>
<!-- RG_t -->
<g id="node20" class="node">
<title>RG_t</title>
<path fill="#eceef1" stroke="#9aa0a8" stroke-width="1.3" d="M521.34,-738C521.34,-738 439.5,-738 439.5,-738 433.5,-738 427.5,-732 427.5,-726 427.5,-726 427.5,-714 427.5,-714 427.5,-708 433.5,-702 439.5,-702 439.5,-702 521.34,-702 521.34,-702 527.34,-702 533.34,-708 533.34,-714 533.34,-714 533.34,-726 533.34,-726 533.34,-732 527.34,-738 521.34,-738"/>
<text xml:space="preserve" text-anchor="middle" x="480.42" y="-721.55" font-family="Helvetica,sans-Serif" font-size="11.00">RG (t)</text>
<text xml:space="preserve" text-anchor="middle" x="480.42" y="-709.55" font-family="Helvetica,sans-Serif" font-size="11.00">receptive grammar</text>
</g>
<!-- RG_t&#45;&gt;EG_t1 -->
<g id="edge55" class="edge">
<title>RG_t&#45;&gt;EG_t1</title>
<path fill="none" stroke="#9aa0a8" stroke-width="1.15" d="M502.71,-738.64C515.12,-750.25 530.46,-765.99 541.59,-782 605.34,-873.75 569.17,-931.44 649.59,-1009 650.4,-1009.78 651.23,-1010.53 652.09,-1011.27"/>
<polygon fill="#9aa0a8" stroke="#9aa0a8" stroke-width="1.15" points="650.6,-1013.22 657.67,-1015.46 653.55,-1009.3 650.6,-1013.22"/>
</g>
<!-- RG_t1 -->
<g id="node21" class="node">
<title>RG_t1</title>
<path fill="#eceef1" stroke="#9aa0a8" stroke-width="1.3" d="M751.68,-377C751.68,-377 669.84,-377 669.84,-377 663.84,-377 657.84,-371 657.84,-365 657.84,-365 657.84,-353 657.84,-353 657.84,-347 663.84,-341 669.84,-341 669.84,-341 751.68,-341 751.68,-341 757.68,-341 763.68,-347 763.68,-353 763.68,-353 763.68,-365 763.68,-365 763.68,-371 757.68,-377 751.68,-377"/>
<text xml:space="preserve" text-anchor="middle" x="710.76" y="-360.55" font-family="Helvetica,sans-Serif" font-size="11.00">RG (t+1)</text>
<text xml:space="preserve" text-anchor="middle" x="710.76" y="-348.55" font-family="Helvetica,sans-Serif" font-size="11.00">receptive grammar</text>
</g>
<!-- RG_t&#45;&gt;RG_t1 -->
<g id="edge6" class="edge">
<title>RG_t&#45;&gt;RG_t1</title>
<path fill="none" stroke="#b9bec6" d="M503.71,-701.46C516.15,-690.2 531.19,-674.95 541.59,-659 612.84,-549.69 559.43,-480.32 649.59,-386 650.72,-384.82 651.91,-383.69 653.14,-382.6"/>
<polygon fill="#b9bec6" stroke="#b9bec6" points="654.46,-384.68 658.51,-378.47 651.47,-380.8 654.46,-384.68"/>
</g>
<!-- RV_t&#45;&gt;EV_t1 -->
<g id="edge34" class="edge">
<title>RV_t&#45;&gt;EV_t1</title>
<path fill="none" stroke="#2f9e78" stroke-width="1.15" d="M526.4,-191.58C531.84,-194.55 537.07,-198.01 541.59,-202 612.63,-264.81 578.55,-323.19 649.59,-386 651.01,-387.26 652.5,-388.46 654.04,-389.61"/>
<polygon fill="#2f9e78" stroke="#2f9e78" stroke-width="1.15" points="652.49,-391.52 659.67,-393.36 655.21,-387.44 652.49,-391.52"/>
</g>
<!-- RV_t&#45;&gt;LF_t1 -->
<g id="edge35" class="edge">
<title>RV_t&#45;&gt;LF_t1</title>
<path fill="none" stroke="#2f9e78" stroke-width="1.15" d="M526.26,-166.97C564.21,-159.32 618.62,-148.36 658.33,-140.36"/>
<polygon fill="#2f9e78" stroke="#2f9e78" stroke-width="1.15" points="658.49,-142.83 664.86,-139.04 657.52,-138.03 658.49,-142.83"/>
</g>
<!-- RV_t&#45;&gt;RG_t1 -->
<g id="edge36" class="edge">
<title>RV_t&#45;&gt;RG_t1</title>
<path fill="none" stroke="#2f9e78" stroke-width="1.15" d="M526.45,-192.61C531.77,-195.38 536.95,-198.51 541.59,-202 601.91,-247.34 589.27,-287.66 649.59,-333 650.92,-334 652.3,-334.97 653.7,-335.91"/>
<polygon fill="#2f9e78" stroke="#2f9e78" stroke-width="1.15" points="652.27,-337.9 659.52,-339.47 654.82,-333.72 652.27,-337.9"/>
</g>
<!-- RV_t&#45;&gt;RV_t1 -->
<g id="edge3" class="edge">
<title>RV_t&#45;&gt;RV_t1</title>
<path fill="none" stroke="#b9bec6" d="M526.26,-177.37C563.73,-178.52 617.23,-180.16 656.8,-181.38"/>
<polygon fill="#b9bec6" stroke="#b9bec6" points="656.44,-183.82 663.51,-181.58 656.59,-178.92 656.44,-183.82"/>
</g>
<!-- RV_t&#45;&gt;WR_t1 -->
<g id="edge37" class="edge">
<title>RV_t&#45;&gt;WR_t1</title>
<path fill="none" stroke="#2f9e78" stroke-width="1.15" d="M526.25,-189.84C531.99,-193.1 537.33,-197.11 541.59,-202 659.95,-337.99 558.08,-437.66 649.59,-593 655.93,-603.75 664.72,-613.89 673.63,-622.63"/>
<polygon fill="#2f9e78" stroke="#2f9e78" stroke-width="1.15" points="671.75,-624.23 678.53,-627.25 675.12,-620.67 671.75,-624.23"/>
</g>
<!-- RW_t&#45;&gt;EV_t1 -->
<g id="edge28" class="edge">
<title>RW_t&#45;&gt;EV_t1</title>
<path fill="none" stroke="#2f9e78" stroke-width="1.15" d="M527.08,-416C563.14,-415.21 613.66,-414.1 652.44,-413.26"/>
<polygon fill="#2f9e78" stroke="#2f9e78" stroke-width="1.15" points="652.34,-415.71 659.28,-413.11 652.23,-410.81 652.34,-415.71"/>
</g>
<!-- RW_t&#45;&gt;NW_t1 -->
<g id="edge32" class="edge">
<title>RW_t&#45;&gt;NW_t1</title>
<path fill="none" stroke="#2f9e78" stroke-width="1.15" d="M516.6,-439.95C559.41,-467.89 631.28,-514.79 674.24,-542.82"/>
<polygon fill="#2f9e78" stroke="#2f9e78" stroke-width="1.15" points="672.74,-544.77 679.94,-546.54 675.42,-540.66 672.74,-544.77"/>
</g>
<!-- RW_t&#45;&gt;PA_t1 -->
<g id="edge31" class="edge">
<title>RW_t&#45;&gt;PA_t1</title>
<path fill="none" stroke="#2f9e78" stroke-width="1.15" d="M506.55,-439.86C518.46,-451.78 532.13,-467.16 541.59,-483 615.95,-607.55 568.53,-670.7 649.59,-791 655.67,-800.02 663.63,-808.46 671.77,-815.85"/>
<polygon fill="#2f9e78" stroke="#2f9e78" stroke-width="1.15" points="669.81,-817.38 676.69,-820.14 673.03,-813.69 669.81,-817.38"/>
</g>
<!-- RW_t&#45;&gt;PS_t1 -->
<g id="edge33" class="edge">
<title>RW_t&#45;&gt;PS_t1</title>
<path fill="none" stroke="#2f9e78" stroke-width="1.15" d="M507.32,-439.89C519.28,-451.7 532.75,-466.98 541.59,-483 628.87,-641.24 546.94,-726.27 649.59,-875 653.36,-880.47 658.04,-885.51 663.11,-890.08"/>
<polygon fill="#2f9e78" stroke="#2f9e78" stroke-width="1.15" points="661.43,-891.87 668.37,-894.49 664.58,-888.12 661.43,-891.87"/>
</g>
<!-- RW_t&#45;&gt;RV_t1 -->
<g id="edge30" class="edge">
<title>RW_t&#45;&gt;RV_t1</title>
<path fill="none" stroke="#2f9e78" stroke-width="1.15" d="M494.58,-394.28C519.8,-352.49 578.76,-262.77 649.59,-209 652.05,-207.14 654.66,-205.37 657.36,-203.72"/>
<polygon fill="#2f9e78" stroke="#2f9e78" stroke-width="1.15" points="658.29,-206 663.18,-200.42 655.88,-201.74 658.29,-206"/>
</g>
<!-- RW_t&#45;&gt;RW_t1 -->
<g id="edge7" class="edge">
<title>RW_t&#45;&gt;RW_t1</title>
<path fill="none" stroke="#b9bec6" d="M504.18,-394.06C535.22,-363.55 593.41,-309.05 649.59,-271 652.02,-269.35 654.55,-267.74 657.13,-266.15"/>
<polygon fill="#b9bec6" stroke="#b9bec6" points="657.99,-268.49 662.77,-262.83 655.5,-264.27 657.99,-268.49"/>
</g>
<!-- RW_t&#45;&gt;TE_t1 -->
<g id="edge27" class="edge">
<title>RW_t&#45;&gt;TE_t1</title>
<path fill="none" stroke="#2f9e78" stroke-width="1.15" d="M504.91,-439.94C516.7,-452.12 530.73,-467.7 541.59,-483 600.05,-565.38 595.33,-597.79 649.59,-683 661.91,-702.35 677.37,-723.1 689.53,-738.75"/>
<polygon fill="#2f9e78" stroke="#2f9e78" stroke-width="1.15" points="687.55,-740.19 693.79,-744.19 691.41,-737.17 687.55,-740.19"/>
</g>
<!-- RW_t&#45;&gt;TR_t1 -->
<g id="edge29" class="edge">
<title>RW_t&#45;&gt;TR_t1</title>
<path fill="none" stroke="#2f9e78" stroke-width="1.15" d="M527.08,-426.6C564.26,-434.41 616.82,-445.46 656.03,-453.7"/>
<polygon fill="#2f9e78" stroke="#2f9e78" stroke-width="1.15" points="655.12,-456.02 662.48,-455.06 656.13,-451.22 655.12,-456.02"/>
</g>
<!-- SP_t&#45;&gt;EV_t1 -->
<g id="edge43" class="edge">
<title>SP_t&#45;&gt;EV_t1</title>
<path fill="none" stroke="#d0433f" stroke-width="1.15" d="M530.34,-543.03C534.22,-540.78 538.02,-538.43 541.59,-536 594.94,-499.72 595.51,-474.18 649.59,-439 651.89,-437.5 654.29,-436.05 656.75,-434.64"/>
<polygon fill="#d0433f" stroke="#d0433f" stroke-width="1.15" points="657.75,-436.89 662.74,-431.4 655.41,-432.58 657.75,-436.89"/>
</g>
<!-- SP_t&#45;&gt;LS_t1 -->
<g id="edge44" class="edge">
<title>SP_t&#45;&gt;LS_t1</title>
<path fill="none" stroke="#d0433f" stroke-width="1.15" d="M533.19,-588.81C536.26,-591.3 539.1,-594.02 541.59,-597 646.78,-722.91 545.22,-823.41 649.59,-950 654.03,-955.38 659.61,-959.98 665.57,-963.87"/>
<polygon fill="#d0433f" stroke="#d0433f" stroke-width="1.15" points="663.95,-965.75 671.21,-967.23 666.45,-961.54 663.95,-965.75"/>
</g>
<!-- SP_t&#45;&gt;NW_t1 -->
<g id="edge46" class="edge">
<title>SP_t&#45;&gt;NW_t1</title>
<path fill="none" stroke="#d0433f" stroke-width="1.15" d="M542.01,-566C576.6,-566 619.68,-566 653.52,-566"/>
<polygon fill="#d0433f" stroke="#d0433f" stroke-width="1.15" points="653.17,-568.45 660.17,-566 653.17,-563.55 653.17,-568.45"/>
</g>
<!-- SP_t&#45;&gt;PA_t1 -->
<g id="edge45" class="edge">
<title>SP_t&#45;&gt;PA_t1</title>
<path fill="none" stroke="#d0433f" stroke-width="1.15" d="M531.62,-588.81C535.18,-591.33 538.55,-594.06 541.59,-597 612.48,-665.65 587.67,-714.16 649.59,-791 656.62,-799.72 665.18,-808.2 673.61,-815.72"/>
<polygon fill="#d0433f" stroke="#d0433f" stroke-width="1.15" points="671.8,-817.4 678.69,-820.14 675.01,-813.7 671.8,-817.4"/>
</g>
<!-- SP_t&#45;&gt;SP_t1 -->
<g id="edge10" class="edge">
<title>SP_t&#45;&gt;SP_t1</title>
<path fill="none" stroke="#b9bec6" d="M533.15,-543.06C536.15,-540.88 539,-538.52 541.59,-536 614.8,-464.7 576.85,-404.79 649.59,-333 650.6,-332.01 651.64,-331.04 652.72,-330.1"/>
<polygon fill="#b9bec6" stroke="#b9bec6" points="654.05,-332.17 658.01,-325.9 651.01,-328.33 654.05,-332.17"/>
</g>
<!-- SP_t&#45;&gt;TE_t1 -->
<g id="edge42" class="edge">
<title>SP_t&#45;&gt;TE_t1</title>
<path fill="none" stroke="#d0433f" stroke-width="1.15" d="M529.21,-588.87C533.5,-591.44 537.69,-594.17 541.59,-597 600.86,-640.11 659.07,-704.08 689,-739.01"/>
<polygon fill="#d0433f" stroke="#d0433f" stroke-width="1.15" points="687.07,-740.52 693.47,-744.27 690.8,-737.35 687.07,-740.52"/>
</g>
<!-- TE_t&#45;&gt;EG_t1 -->
<g id="edge23" class="edge">
<title>TE_t&#45;&gt;EG_t1</title>
<path fill="none" stroke="#7a52b3" stroke-width="1.15" d="M498.56,-879.46C527.4,-909.7 588.48,-970.28 649.59,-1009 651.4,-1010.15 653.27,-1011.26 655.17,-1012.35"/>
<polygon fill="#7a52b3" stroke="#7a52b3" stroke-width="1.15" points="653.84,-1014.41 661.16,-1015.57 656.16,-1010.1 653.84,-1014.41"/>
</g>
<!-- TE_t&#45;&gt;EI_t1 -->
<g id="edge24" class="edge">
<title>TE_t&#45;&gt;EI_t1</title>
<path fill="none" stroke="#7a52b3" stroke-width="1.15" d="M500.41,-879.49C512.54,-891.55 528.41,-907.83 541.59,-923 592.91,-982.05 587.74,-1014.09 649.59,-1062 652.61,-1064.34 655.87,-1066.51 659.25,-1068.52"/>
<polygon fill="#7a52b3" stroke="#7a52b3" stroke-width="1.15" points="657.98,-1070.61 665.29,-1071.82 660.33,-1066.31 657.98,-1070.61"/>
</g>
<!-- TE_t&#45;&gt;EV_t1 -->
<g id="edge22" class="edge">
<title>TE_t&#45;&gt;EV_t1</title>
<path fill="none" stroke="#7a52b3" stroke-width="1.15" d="M530.98,-844.24C534.91,-841.59 538.53,-838.52 541.59,-835 661.14,-697.2 531.01,-577.63 649.59,-439 651.02,-437.33 652.58,-435.75 654.24,-434.27"/>
<polygon fill="#7a52b3" stroke="#7a52b3" stroke-width="1.15" points="655.63,-436.29 659.67,-430.07 652.63,-432.41 655.63,-436.29"/>
</g>
<!-- TE_t&#45;&gt;PA_t1 -->
<g id="edge25" class="edge">
<title>TE_t&#45;&gt;PA_t1</title>
<path fill="none" stroke="#7a52b3" stroke-width="1.15" d="M530.97,-857.31C567.06,-854.62 616.01,-850.98 653.56,-848.18"/>
<polygon fill="#7a52b3" stroke="#7a52b3" stroke-width="1.15" points="653.34,-850.66 660.14,-847.69 652.98,-845.77 653.34,-850.66"/>
</g>
<!-- TE_t&#45;&gt;TE_t1 -->
<g id="edge2" class="edge">
<title>TE_t&#45;&gt;TE_t1</title>
<path fill="none" stroke="#b9bec6" d="M525.18,-842.41C563.18,-826.27 618.25,-802.87 658.34,-785.84"/>
<polygon fill="#b9bec6" stroke="#b9bec6" points="659.27,-788.11 664.76,-783.12 657.36,-783.6 659.27,-788.11"/>
</g>
<!-- TE_t&#45;&gt;WR_t1 -->
<g id="edge26" class="edge">
<title>TE_t&#45;&gt;WR_t1</title>
<path fill="none" stroke="#7a52b3" stroke-width="1.15" d="M529.41,-842.51C533.66,-840.21 537.79,-837.7 541.59,-835 603.02,-791.36 658.89,-722.1 688.21,-682.48"/>
<polygon fill="#7a52b3" stroke="#7a52b3" stroke-width="1.15" points="690.18,-683.94 692.34,-676.85 686.22,-681.05 690.18,-683.94"/>
</g>
<!-- TR_t&#45;&gt;EV_t1 -->
<g id="edge18" class="edge">
<title>TR_t&#45;&gt;EV_t1</title>
<path fill="none" stroke="#7a52b3" stroke-width="1.15" d="M527.08,-245.93C532.18,-248.63 537.13,-251.65 541.59,-255 601.91,-300.34 589.27,-340.66 649.59,-386 650.92,-387 652.3,-387.97 653.7,-388.91"/>
<polygon fill="#7a52b3" stroke="#7a52b3" stroke-width="1.15" points="652.27,-390.9 659.52,-392.47 654.82,-386.72 652.27,-390.9"/>
</g>
<!-- TR_t&#45;&gt;LF_t1 -->
<g id="edge19" class="edge">
<title>TR_t&#45;&gt;LF_t1</title>
<path fill="none" stroke="#7a52b3" stroke-width="1.15" d="M524.27,-210.38C558.25,-195.61 606.95,-174.47 649.59,-156 652.62,-154.69 655.73,-153.34 658.87,-151.98"/>
<polygon fill="#7a52b3" stroke="#7a52b3" stroke-width="1.15" points="659.65,-154.32 665.1,-149.29 657.7,-149.82 659.65,-154.32"/>
</g>
<!-- TR_t&#45;&gt;RG_t1 -->
<g id="edge20" class="edge">
<title>TR_t&#45;&gt;RG_t1</title>
<path fill="none" stroke="#7a52b3" stroke-width="1.15" d="M526.95,-247.41C531.97,-249.81 536.94,-252.36 541.59,-255 593.07,-284.25 598.11,-303.75 649.59,-333 651.72,-334.21 653.92,-335.4 656.17,-336.57"/>
<polygon fill="#7a52b3" stroke="#7a52b3" stroke-width="1.15" points="654.99,-338.72 662.35,-339.66 657.18,-334.34 654.99,-338.72"/>
</g>
<!-- TR_t&#45;&gt;RV_t1 -->
<g id="edge17" class="edge">
<title>TR_t&#45;&gt;RV_t1</title>
<path fill="none" stroke="#7a52b3" stroke-width="1.15" d="M527.08,-219.8C564.5,-212.26 617.51,-201.58 656.79,-193.67"/>
<polygon fill="#7a52b3" stroke="#7a52b3" stroke-width="1.15" points="656.87,-196.15 663.25,-192.37 655.91,-191.35 656.87,-196.15"/>
</g>
<!-- TR_t&#45;&gt;TE_t1 -->
<g id="edge16" class="edge">
<title>TR_t&#45;&gt;TE_t1</title>
<path fill="none" stroke="#7a52b3" stroke-width="1.15" d="M526.95,-243.1C532.44,-246.31 537.53,-250.23 541.59,-255 668.73,-404.41 565.49,-505.76 649.59,-683 659.23,-703.31 674.33,-723.62 686.99,-738.82"/>
<polygon fill="#7a52b3" stroke="#7a52b3" stroke-width="1.15" points="685.07,-740.35 691.48,-744.1 688.81,-737.18 685.07,-740.35"/>
</g>
<!-- TR_t&#45;&gt;TR_t1 -->
<g id="edge1" class="edge">
<title>TR_t&#45;&gt;TR_t1</title>
<path fill="none" stroke="#b9bec6" d="M527.01,-244.92C532.24,-247.81 537.24,-251.16 541.59,-255 612.63,-317.81 578.55,-376.19 649.59,-439 651.9,-441.04 654.39,-442.94 657.01,-444.71"/>
<polygon fill="#b9bec6" stroke="#b9bec6" points="655.62,-446.73 662.88,-448.29 658.18,-442.55 655.62,-446.73"/>
</g>
<!-- TR_t&#45;&gt;WR_t1 -->
<g id="edge21" class="edge">
<title>TR_t&#45;&gt;WR_t1</title>
<path fill="none" stroke="#7a52b3" stroke-width="1.15" d="M526.98,-243.51C532.4,-246.66 537.46,-250.45 541.59,-255 647.47,-371.87 566.86,-458.74 649.59,-593 656.2,-603.73 665.17,-613.91 674.17,-622.71"/>
<polygon fill="#7a52b3" stroke="#7a52b3" stroke-width="1.15" points="672.34,-624.35 679.11,-627.37 675.7,-620.79 672.34,-624.35"/>
</g>
<!-- WR_t -->
<g id="node32" class="node">
<title>WR_t</title>
<path fill="#cfe0f7" stroke="#2f6fdb" stroke-width="2.6" d="M524.72,-308.32C524.72,-308.32 436.13,-308.32 436.13,-308.32 430.13,-308.32 424.13,-302.32 424.13,-296.32 424.13,-296.32 424.13,-275.68 424.13,-275.68 424.13,-269.68 430.13,-263.68 436.13,-263.68 436.13,-263.68 524.72,-263.68 524.72,-263.68 530.72,-263.68 536.72,-269.68 536.72,-275.68 536.72,-275.68 536.72,-296.32 536.72,-296.32 536.72,-302.32 530.72,-308.32 524.72,-308.32"/>
<text xml:space="preserve" text-anchor="middle" x="480.42" y="-293.55" font-family="Helvetica,sans-Serif" font-weight="bold" font-size="11.00">WR (t)</text>
<text xml:space="preserve" text-anchor="middle" x="480.42" y="-281.55" font-family="Helvetica,sans-Serif" font-weight="bold" font-size="11.00">WORD READING</text>
<text xml:space="preserve" text-anchor="middle" x="480.42" y="-269.55" font-family="Helvetica,sans-Serif" font-weight="bold" font-size="11.00">(primary outcome)</text>
</g>
<!-- WR_t&#45;&gt;EV_t1 -->
<g id="edge56" class="edge">
<title>WR_t&#45;&gt;EV_t1</title>
<path fill="none" stroke="#d6006e" stroke-width="2.2" stroke-dasharray="5,2" d="M521.93,-309.45C528.51,-313.29 535.25,-317.25 541.59,-321 589.8,-349.53 599.76,-360.39 649.59,-386 651.6,-387.04 653.67,-388.07 655.77,-389.09"/>
<polygon fill="#d6006e" stroke="#d6006e" stroke-width="2.2" points="654.7,-391.3 662.08,-392.07 656.79,-386.87 654.7,-391.3"/>
</g>
<!-- WR_t&#45;&gt;PA_t1 -->
<g id="edge58" class="edge">
<title>WR_t&#45;&gt;PA_t1</title>
<path fill="none" stroke="#d6006e" stroke-width="2.2" stroke-dasharray="5,2" d="M497.99,-309.24C511.35,-328.89 529.8,-358.21 541.59,-386 614.33,-557.5 551.48,-632.64 649.59,-791 654.87,-799.52 661.94,-807.44 669.37,-814.42"/>
<polygon fill="#d6006e" stroke="#d6006e" stroke-width="2.2" points="667.52,-816.06 674.39,-818.87 670.78,-812.39 667.52,-816.06"/>
</g>
<!-- WR_t&#45;&gt;RV_t1 -->
<g id="edge57" class="edge">
<title>WR_t&#45;&gt;RV_t1</title>
<path fill="none" stroke="#d6006e" stroke-width="2.2" stroke-dasharray="5,2" d="M532.07,-262.47C565.38,-247.07 609.98,-226.62 649.59,-209 652.04,-207.91 654.55,-206.8 657.08,-205.68"/>
<polygon fill="#d6006e" stroke="#d6006e" stroke-width="2.2" points="657.85,-208.02 663.28,-202.97 655.88,-203.54 657.85,-208.02"/>
</g>
<!-- WR_t&#45;&gt;RW_t1 -->
<g id="edge59" class="edge">
<title>WR_t&#45;&gt;RW_t1</title>
<path fill="none" stroke="#d6006e" stroke-width="2.2" stroke-dasharray="5,2" d="M537.86,-274.63C573.48,-267.46 619.26,-258.23 654.62,-251.11"/>
<polygon fill="#d6006e" stroke="#d6006e" stroke-width="2.2" points="654.65,-253.6 661.03,-249.82 653.69,-248.8 654.65,-253.6"/>
</g>
<!-- WR_t&#45;&gt;WR_t1 -->
<g id="edge15" class="edge">
<title>WR_t&#45;&gt;WR_t1</title>
<path fill="none" stroke="#b9bec6" d="M496.18,-309.6C508.62,-329.72 526.72,-359.49 541.59,-386 592.36,-476.5 587.78,-509.65 649.59,-593 657.38,-603.51 667.07,-613.87 676.38,-622.91"/>
<polygon fill="#b9bec6" stroke="#b9bec6" points="674.56,-624.56 681.32,-627.61 677.94,-621.01 674.56,-624.56"/>
</g>
<!-- ABG -->
<g id="node34" class="node">
<title>ABG</title>
<polygon fill="#f7f7f9" stroke="#6b7280" stroke-width="1.3" stroke-dasharray="5,2" points="270.8,-1166.57 34.45,-1166.57 34.45,-1111.43 276.8,-1111.43 276.8,-1160.57 270.8,-1166.57"/>
<polyline fill="none" stroke="#6b7280" stroke-width="1.3" stroke-dasharray="5,2" points="270.8,-1166.57 270.8,-1160.57"/>
<polyline fill="none" stroke="#6b7280" stroke-width="1.3" stroke-dasharray="5,2" points="276.8,-1160.57 270.8,-1160.57"/>
<text xml:space="preserve" text-anchor="middle" x="155.62" y="-1152.75" font-family="Helvetica,sans-Serif" font-size="10.00">A · age</text>
<text xml:space="preserve" text-anchor="middle" x="155.62" y="-1141.5" font-family="Helvetica,sans-Serif" font-size="10.00">GA · general ability (latent)</text>
<text xml:space="preserve" text-anchor="middle" x="155.62" y="-1130.25" font-family="Helvetica,sans-Serif" font-size="10.00">→ common causes of EVERY skill in BOTH waves</text>
<text xml:space="preserve" text-anchor="middle" x="155.62" y="-1117.5" font-family="Helvetica,sans-Serif" font-size="10.00">(omitted for clarity; hearing HS is shown)</text>
</g>
<!-- LEG -->
<g id="node35" class="node">
<title>LEG</title>
<path fill="#eceef1" stroke="none" stroke-width="1.3" d="M254.25,-1356C254.25,-1356 57,-1356 57,-1356 51,-1356 45,-1350 45,-1344 45,-1344 45,-1196 45,-1196 45,-1190 51,-1184 57,-1184 57,-1184 254.25,-1184 254.25,-1184 260.25,-1184 266.25,-1190 266.25,-1196 266.25,-1196 266.25,-1344 266.25,-1344 266.25,-1350 260.25,-1356 254.25,-1356"/>
<text xml:space="preserve" text-anchor="start" x="49" y="-1342.55" font-family="Helvetica,sans-Serif" font-weight="bold" font-size="11.00">domain</text>
<polygon fill="#dbe8fb" stroke="none" points="46,-1318 46,-1336 64,-1336 64,-1318 46,-1318"/>
<text xml:space="preserve" text-anchor="start" x="53.5" y="-1322.55" font-family="Helvetica,sans-Serif" font-size="11.00"> </text>
<text xml:space="preserve" text-anchor="start" x="68" y="-1322.55" font-family="Helvetica,sans-Serif" font-size="11.00">intervention</text>
<polygon fill="#dfe3ef" stroke="none" points="46,-1299 46,-1317 64,-1317 64,-1299 46,-1299"/>
<text xml:space="preserve" text-anchor="start" x="53.5" y="-1303.55" font-family="Helvetica,sans-Serif" font-size="11.00"> </text>
<text xml:space="preserve" text-anchor="start" x="68" y="-1303.55" font-family="Helvetica,sans-Serif" font-size="11.00">hearing status</text>
<polygon fill="#e7ddf5" stroke="none" points="46,-1280 46,-1298 64,-1298 64,-1280 46,-1280"/>
<text xml:space="preserve" text-anchor="start" x="53.5" y="-1284.55" font-family="Helvetica,sans-Serif" font-size="11.00"> </text>
<text xml:space="preserve" text-anchor="start" x="68" y="-1284.55" font-family="Helvetica,sans-Serif" font-size="11.00">taught vocabulary</text>
<polygon fill="#d6ebe4" stroke="none" points="46,-1261 46,-1279 64,-1279 64,-1261 46,-1261"/>
<text xml:space="preserve" text-anchor="start" x="53.5" y="-1265.55" font-family="Helvetica,sans-Serif" font-size="11.00"> </text>
<text xml:space="preserve" text-anchor="start" x="68" y="-1265.55" font-family="Helvetica,sans-Serif" font-size="11.00">standardised vocab / phon. memory</text>
<polygon fill="#eceef1" stroke="none" points="46,-1242 46,-1260 64,-1260 64,-1242 46,-1242"/>
<text xml:space="preserve" text-anchor="start" x="53.5" y="-1246.55" font-family="Helvetica,sans-Serif" font-size="11.00"> </text>
<text xml:space="preserve" text-anchor="start" x="68" y="-1246.55" font-family="Helvetica,sans-Serif" font-size="11.00">language &amp; grammar (no path to WR)</text>
<polygon fill="#fbe1e0" stroke="none" points="46,-1223 46,-1241 64,-1241 64,-1223 46,-1223"/>
<text xml:space="preserve" text-anchor="start" x="53.5" y="-1227.55" font-family="Helvetica,sans-Serif" font-size="11.00"> </text>
<text xml:space="preserve" text-anchor="start" x="68" y="-1227.55" font-family="Helvetica,sans-Serif" font-size="11.00">speech (cause)</text>
<polygon fill="#fdecd2" stroke="none" points="46,-1204 46,-1222 64,-1222 64,-1204 46,-1204"/>
<text xml:space="preserve" text-anchor="start" x="53.5" y="-1208.55" font-family="Helvetica,sans-Serif" font-size="11.00"> </text>
<text xml:space="preserve" text-anchor="start" x="68" y="-1208.55" font-family="Helvetica,sans-Serif" font-size="11.00">code / reading route</text>
<polygon fill="#cfe0f7" stroke="none" points="46,-1185 46,-1203 64,-1203 64,-1185 46,-1185"/>
<text xml:space="preserve" text-anchor="start" x="53.5" y="-1189.55" font-family="Helvetica,sans-Serif" font-size="11.00"> </text>
<text xml:space="preserve" text-anchor="start" x="68" y="-1189.55" font-family="Helvetica,sans-Serif" font-size="11.00">primary outcome (WR); PS also terminal</text>
</g>
<!-- LEG2 -->
<g id="node36" class="node">
<title>LEG2</title>
<path fill="#eceef1" stroke="none" stroke-width="1.3" d="M299.25,-1456.88C299.25,-1456.88 12,-1456.88 12,-1456.88 6,-1456.88 0,-1450.88 0,-1444.88 0,-1444.88 0,-1385.12 0,-1385.12 0,-1379.12 6,-1373.12 12,-1373.12 12,-1373.12 299.25,-1373.12 299.25,-1373.12 305.25,-1373.12 311.25,-1379.12 311.25,-1385.12 311.25,-1385.12 311.25,-1444.88 311.25,-1444.88 311.25,-1450.88 305.25,-1456.88 299.25,-1456.88"/>
<text xml:space="preserve" text-anchor="start" x="4" y="-1443.42" font-family="Helvetica,sans-Serif" font-weight="bold" font-size="11.00">edge</text>
<text xml:space="preserve" text-anchor="start" x="4" y="-1423.3" font-family="Helvetica,sans-Serif" font-weight="bold" font-size="11.00" fill="#2f9e78">——</text>
<text xml:space="preserve" text-anchor="start" x="33.5" y="-1424.42" font-family="Helvetica,sans-Serif" font-size="11.00">cross&#45;lagged: X</text>
<text xml:space="preserve" text-anchor="start" x="108.5" y="-1424.42" font-family="Helvetica,sans-Serif" baseline-shift="sub" font-size="11.00">t</text>
<text xml:space="preserve" text-anchor="start" x="110.75" y="-1424.42" font-family="Helvetica,sans-Serif" font-size="11.00"> → Y</text>
<text xml:space="preserve" text-anchor="start" x="136.25" y="-1424.42" font-family="Helvetica,sans-Serif" baseline-shift="sub" font-size="11.00">t+1</text>
<text xml:space="preserve" text-anchor="start" x="149" y="-1424.42" font-family="Helvetica,sans-Serif" font-size="11.00"> (source&#39;s domain colour)</text>
<text xml:space="preserve" text-anchor="start" x="4" y="-1402.05" font-family="Helvetica,sans-Serif" font-weight="bold" font-size="11.00" fill="#b9bec6">——</text>
<text xml:space="preserve" text-anchor="start" x="33.5" y="-1402.17" font-family="Helvetica,sans-Serif" font-size="11.00">autoregressive: same skill → next wave</text>
<text xml:space="preserve" text-anchor="start" x="6.62" y="-1380.8" font-family="Helvetica,sans-Serif" font-weight="bold" font-size="11.00" fill="#d6006e">&#45; &#45; &#45;</text>
<text xml:space="preserve" text-anchor="start" x="33.5" y="-1380.92" font-family="Helvetica,sans-Serif" font-size="11.00">reverse (NEW): reading → language / blending / memory</text>
</g>
</g>
</svg>
