<?xml version="1.0" encoding="UTF-8" standalone="no"?>
<!DOCTYPE svg PUBLIC "-//W3C//DTD SVG 1.1//EN"
 "http://www.w3.org/Graphics/SVG/1.1/DTD/svg11.dtd">
<!-- Generated by graphviz version 15.1.0 (20260618.0150)
 -->
<!-- Title: LRP_DAG Pages: 1 -->
<svg width="1290pt" height="1210pt"
 viewBox="0.00 0.00 1290.00 1210.00" xmlns="http://www.w3.org/2000/svg" xmlns:xlink="http://www.w3.org/1999/xlink">
<g id="graph0" class="graph" transform="scale(1 1) rotate(0) translate(4 1206)">
<title>LRP_DAG</title>
<polygon fill="white" stroke="none" points="-4,4 -4,-1206 1285.54,-1206 1285.54,4 -4,4"/>
<text xml:space="preserve" text-anchor="middle" x="640.77" y="-1181.85" font-family="Helvetica,sans-Serif" font-weight="bold" font-size="17.00">Language &amp; reading causal DAG — revised 2026&#45;07&#45;10 &#160;(causal flow left → right)</text>
<!-- IG -->
<g id="node1" class="node">
<title>IG</title>
<path fill="#dbe8fb" stroke="#2f6fdb" stroke-width="1.3" d="M149.67,-439.32C149.67,-439.32 71.58,-439.32 71.58,-439.32 65.58,-439.32 59.58,-433.32 59.58,-427.32 59.58,-427.32 59.58,-406.68 59.58,-406.68 59.58,-400.68 65.58,-394.68 71.58,-394.68 71.58,-394.68 149.67,-394.68 149.67,-394.68 155.67,-394.68 161.67,-400.68 161.67,-406.68 161.67,-406.68 161.67,-427.32 161.67,-427.32 161.67,-433.32 155.67,-439.32 149.67,-439.32"/>
<text xml:space="preserve" text-anchor="middle" x="110.62" y="-424.55" font-family="Helvetica,sans-Serif" font-size="11.00">IG</text>
<text xml:space="preserve" text-anchor="middle" x="110.62" y="-412.55" font-family="Helvetica,sans-Serif" font-size="11.00">intervention group</text>
<text xml:space="preserve" text-anchor="middle" x="110.62" y="-400.55" font-family="Helvetica,sans-Serif" font-size="11.00">(randomised)</text>
</g>
<!-- IS -->
<g id="node2" class="node">
<title>IS</title>
<path fill="#dbe8fb" stroke="#2f6fdb" stroke-width="1.3" d="M383.84,-435C383.84,-435 317,-435 317,-435 311,-435 305,-429 305,-423 305,-423 305,-411 305,-411 305,-405 311,-399 317,-399 317,-399 383.84,-399 383.84,-399 389.84,-399 395.84,-405 395.84,-411 395.84,-411 395.84,-423 395.84,-423 395.84,-429 389.84,-435 383.84,-435"/>
<text xml:space="preserve" text-anchor="middle" x="350.42" y="-418.55" font-family="Helvetica,sans-Serif" font-size="11.00">IS</text>
<text xml:space="preserve" text-anchor="middle" x="350.42" y="-406.55" font-family="Helvetica,sans-Serif" font-size="11.00">sessions (dose)</text>
</g>
<!-- IG&#45;&gt;IS -->
<g id="edge9" class="edge">
<title>IG&#45;&gt;IS</title>
<path fill="none" stroke="#2f6fdb" stroke-width="1.1" d="M162.06,-417C201.43,-417 256,-417 296.09,-417"/>
<polygon fill="#2f6fdb" stroke="#2f6fdb" stroke-width="1.1" points="296.01,-419.45 303.01,-417 296.01,-414.55 296.01,-419.45"/>
</g>
<!-- TR -->
<g id="node4" class="node">
<title>TR</title>
<path fill="#e7ddf5" stroke="#7a52b3" stroke-width="1.3" d="M563.68,-1072C563.68,-1072 495.34,-1072 495.34,-1072 489.34,-1072 483.34,-1066 483.34,-1060 483.34,-1060 483.34,-1048 483.34,-1048 483.34,-1042 489.34,-1036 495.34,-1036 495.34,-1036 563.68,-1036 563.68,-1036 569.68,-1036 575.68,-1042 575.68,-1048 575.68,-1048 575.68,-1060 575.68,-1060 575.68,-1066 569.68,-1072 563.68,-1072"/>
<text xml:space="preserve" text-anchor="middle" x="529.51" y="-1055.55" font-family="Helvetica,sans-Serif" font-size="11.00">TR</text>
<text xml:space="preserve" text-anchor="middle" x="529.51" y="-1043.55" font-family="Helvetica,sans-Serif" font-size="11.00">taught receptive</text>
</g>
<!-- IG&#45;&gt;TR -->
<g id="edge10" class="edge">
<title>IG&#45;&gt;TR</title>
<path fill="none" stroke="#2f6fdb" stroke-width="1.1" d="M116.75,-439.72C137.55,-530.32 217.99,-864.77 289.25,-944 338.54,-998.8 420.64,-1028.21 474.68,-1042.47"/>
<polygon fill="#2f6fdb" stroke="#2f6fdb" stroke-width="1.1" points="473.77,-1044.76 481.16,-1044.13 474.99,-1040.02 473.77,-1044.76"/>
</g>
<!-- TE -->
<g id="node5" class="node">
<title>TE</title>
<path fill="#e7ddf5" stroke="#7a52b3" stroke-width="1.3" d="M567.43,-722C567.43,-722 491.59,-722 491.59,-722 485.59,-722 479.59,-716 479.59,-710 479.59,-710 479.59,-698 479.59,-698 479.59,-692 485.59,-686 491.59,-686 491.59,-686 567.43,-686 567.43,-686 573.43,-686 579.43,-692 579.43,-698 579.43,-698 579.43,-710 579.43,-710 579.43,-716 573.43,-722 567.43,-722"/>
<text xml:space="preserve" text-anchor="middle" x="529.51" y="-705.55" font-family="Helvetica,sans-Serif" font-size="11.00">TE</text>
<text xml:space="preserve" text-anchor="middle" x="529.51" y="-693.55" font-family="Helvetica,sans-Serif" font-size="11.00">taught expressive</text>
</g>
<!-- IG&#45;&gt;TE -->
<g id="edge11" class="edge">
<title>IG&#45;&gt;TE</title>
<path fill="none" stroke="#2f6fdb" stroke-width="1.1" d="M124.02,-439.71C149.22,-483.74 210.75,-580.95 289.25,-633 344.66,-669.75 419.62,-687.95 470.77,-696.64"/>
<polygon fill="#2f6fdb" stroke="#2f6fdb" stroke-width="1.1" points="470.14,-699.02 477.44,-697.73 470.93,-694.18 470.14,-699.02"/>
</g>
<!-- EI -->
<g id="node11" class="node">
<title>EI</title>
<path fill="#eceef1" stroke="#9aa0a8" stroke-width="1.3" d="M898.24,-396C898.24,-396 835.15,-396 835.15,-396 829.15,-396 823.15,-390 823.15,-384 823.15,-384 823.15,-372 823.15,-372 823.15,-366 829.15,-360 835.15,-360 835.15,-360 898.24,-360 898.24,-360 904.24,-360 910.24,-366 910.24,-372 910.24,-372 910.24,-384 910.24,-384 910.24,-390 904.24,-396 898.24,-396"/>
<text xml:space="preserve" text-anchor="middle" x="866.69" y="-379.55" font-family="Helvetica,sans-Serif" font-size="11.00">EI</text>
<text xml:space="preserve" text-anchor="middle" x="866.69" y="-367.55" font-family="Helvetica,sans-Serif" font-size="11.00">expressive info</text>
</g>
<!-- IG&#45;&gt;EI -->
<g id="edge12" class="edge">
<title>IG&#45;&gt;EI</title>
<path fill="none" stroke="#2f6fdb" stroke-width="1.1" d="M122,-394.13C144.59,-347.52 203.18,-242.54 289.25,-202 474.23,-114.88 570.05,-154.44 745.77,-259 787.36,-283.75 825.16,-326.04 846.78,-352.97"/>
<polygon fill="#2f6fdb" stroke="#2f6fdb" stroke-width="1.1" points="844.62,-354.19 850.88,-358.16 848.46,-351.15 844.62,-354.19"/>
</g>
<!-- EG -->
<g id="node12" class="node">
<title>EG</title>
<path fill="#eceef1" stroke="#9aa0a8" stroke-width="1.3" d="M1088.95,-900C1088.95,-900 999.61,-900 999.61,-900 993.61,-900 987.61,-894 987.61,-888 987.61,-888 987.61,-876 987.61,-876 987.61,-870 993.61,-864 999.61,-864 999.61,-864 1088.95,-864 1088.95,-864 1094.95,-864 1100.95,-870 1100.95,-876 1100.95,-876 1100.95,-888 1100.95,-888 1100.95,-894 1094.95,-900 1088.95,-900"/>
<text xml:space="preserve" text-anchor="middle" x="1044.28" y="-883.55" font-family="Helvetica,sans-Serif" font-size="11.00">EG</text>
<text xml:space="preserve" text-anchor="middle" x="1044.28" y="-871.55" font-family="Helvetica,sans-Serif" font-size="11.00">expressive grammar</text>
</g>
<!-- IG&#45;&gt;EG -->
<g id="edge13" class="edge">
<title>IG&#45;&gt;EG</title>
<path fill="none" stroke="#2f6fdb" stroke-width="1.1" d="M121.02,-439.67C142.89,-489.64 202.05,-609.93 289.25,-674 506.31,-833.48 839.66,-870.7 978.8,-879.37"/>
<polygon fill="#2f6fdb" stroke="#2f6fdb" stroke-width="1.1" points="978.49,-881.81 985.62,-879.78 978.78,-876.91 978.49,-881.81"/>
</g>
<!-- LS -->
<g id="node14" class="node">
<title>LS</title>
<path fill="#fdecd2" stroke="#c2872a" stroke-width="1.3" d="M722.15,-305C722.15,-305 671.06,-305 671.06,-305 665.06,-305 659.06,-299 659.06,-293 659.06,-293 659.06,-281 659.06,-281 659.06,-275 665.06,-269 671.06,-269 671.06,-269 722.15,-269 722.15,-269 728.15,-269 734.15,-275 734.15,-281 734.15,-281 734.15,-293 734.15,-293 734.15,-299 728.15,-305 722.15,-305"/>
<text xml:space="preserve" text-anchor="middle" x="696.6" y="-288.55" font-family="Helvetica,sans-Serif" font-size="11.00">LS</text>
<text xml:space="preserve" text-anchor="middle" x="696.6" y="-276.55" font-family="Helvetica,sans-Serif" font-size="11.00">letter–sound</text>
</g>
<!-- IG&#45;&gt;LS -->
<g id="edge14" class="edge">
<title>IG&#45;&gt;LS</title>
<path fill="none" stroke="#2f6fdb" stroke-width="1.1" d="M125.17,-394.21C151,-353.28 211.71,-268.55 289.25,-236 408.17,-186.09 453.21,-209.51 579.43,-236 606.04,-241.58 634,-253.64 655.82,-264.63"/>
<polygon fill="#2f6fdb" stroke="#2f6fdb" stroke-width="1.1" points="654.44,-266.68 661.79,-267.7 656.68,-262.32 654.44,-266.68"/>
</g>
<!-- PA -->
<g id="node15" class="node">
<title>PA</title>
<path fill="#fdecd2" stroke="#c2872a" stroke-width="1.3" d="M903.11,-568.32C903.11,-568.32 830.27,-568.32 830.27,-568.32 824.27,-568.32 818.27,-562.32 818.27,-556.32 818.27,-556.32 818.27,-535.68 818.27,-535.68 818.27,-529.68 824.27,-523.68 830.27,-523.68 830.27,-523.68 903.11,-523.68 903.11,-523.68 909.11,-523.68 915.11,-529.68 915.11,-535.68 915.11,-535.68 915.11,-556.32 915.11,-556.32 915.11,-562.32 909.11,-568.32 903.11,-568.32"/>
<text xml:space="preserve" text-anchor="middle" x="866.69" y="-553.55" font-family="Helvetica,sans-Serif" font-size="11.00">PA</text>
<text xml:space="preserve" text-anchor="middle" x="866.69" y="-541.55" font-family="Helvetica,sans-Serif" font-size="11.00">phoneme aware.</text>
<text xml:space="preserve" text-anchor="middle" x="866.69" y="-529.55" font-family="Helvetica,sans-Serif" font-size="11.00">(blending)</text>
</g>
<!-- IG&#45;&gt;PA -->
<g id="edge15" class="edge">
<title>IG&#45;&gt;PA</title>
<path fill="none" stroke="#2f6fdb" stroke-width="1.1" d="M162.27,-425.66C297.77,-448.84 667.87,-512.16 809.52,-536.39"/>
<polygon fill="#2f6fdb" stroke="#2f6fdb" stroke-width="1.1" points="808.75,-538.75 816.07,-537.51 809.58,-533.92 808.75,-538.75"/>
</g>
<!-- PS -->
<g id="node17" class="node">
<title>PS</title>
<path fill="#fdecd2" stroke="#c2872a" stroke-width="2.2" d="M1079.95,-320.32C1079.95,-320.32 1008.61,-320.32 1008.61,-320.32 1002.61,-320.32 996.61,-314.32 996.61,-308.32 996.61,-308.32 996.61,-287.68 996.61,-287.68 996.61,-281.68 1002.61,-275.68 1008.61,-275.68 1008.61,-275.68 1079.95,-275.68 1079.95,-275.68 1085.95,-275.68 1091.95,-281.68 1091.95,-287.68 1091.95,-287.68 1091.95,-308.32 1091.95,-308.32 1091.95,-314.32 1085.95,-320.32 1079.95,-320.32"/>
<text xml:space="preserve" text-anchor="middle" x="1044.28" y="-305.55" font-family="Helvetica,sans-Serif" font-size="11.00">PS</text>
<text xml:space="preserve" text-anchor="middle" x="1044.28" y="-293.55" font-family="Helvetica,sans-Serif" font-size="11.00">phonetic spelling</text>
<text xml:space="preserve" text-anchor="middle" x="1044.28" y="-281.55" font-family="Helvetica,sans-Serif" font-size="11.00">(outcome)</text>
</g>
<!-- IG&#45;&gt;PS -->
<g id="edge16" class="edge">
<title>IG&#45;&gt;PS</title>
<path fill="none" stroke="#2f6fdb" stroke-width="1.1" d="M119.02,-394.09C137.63,-340.71 192.01,-208.54 289.25,-155 531.62,-21.56 876.91,-198.69 998.69,-270.35"/>
<polygon fill="#2f6fdb" stroke="#2f6fdb" stroke-width="1.1" points="997.34,-272.39 1004.61,-273.86 999.84,-268.18 997.34,-272.39"/>
</g>
<!-- WR -->
<g id="node18" class="node">
<title>WR</title>
<path fill="#cfe0f7" stroke="#2f6fdb" stroke-width="2.6" d="M1269.54,-592.32C1269.54,-592.32 1180.95,-592.32 1180.95,-592.32 1174.95,-592.32 1168.95,-586.32 1168.95,-580.32 1168.95,-580.32 1168.95,-559.68 1168.95,-559.68 1168.95,-553.68 1174.95,-547.68 1180.95,-547.68 1180.95,-547.68 1269.54,-547.68 1269.54,-547.68 1275.54,-547.68 1281.54,-553.68 1281.54,-559.68 1281.54,-559.68 1281.54,-580.32 1281.54,-580.32 1281.54,-586.32 1275.54,-592.32 1269.54,-592.32"/>
<text xml:space="preserve" text-anchor="middle" x="1225.25" y="-577.55" font-family="Helvetica,sans-Serif" font-weight="bold" font-size="11.00">WR</text>
<text xml:space="preserve" text-anchor="middle" x="1225.25" y="-565.55" font-family="Helvetica,sans-Serif" font-weight="bold" font-size="11.00">WORD READING</text>
<text xml:space="preserve" text-anchor="middle" x="1225.25" y="-553.55" font-family="Helvetica,sans-Serif" font-weight="bold" font-size="11.00">(primary outcome)</text>
</g>
<!-- IG&#45;&gt;WR -->
<g id="edge17" class="edge">
<title>IG&#45;&gt;WR</title>
<path fill="none" stroke="#2f6fdb" stroke-width="1.1" d="M119.24,-394.11C138.88,-338.27 196.28,-193.48 289.25,-109 375.73,-30.42 411.66,0 528.51,0 528.51,0 528.51,0 867.69,0 992.16,0 1026.96,-54.9 1100.95,-155 1190.89,-276.68 1215.62,-463.62 1222.08,-537.94"/>
<polygon fill="#2f6fdb" stroke="#2f6fdb" stroke-width="1.1" points="1219.63,-538 1222.65,-544.77 1224.51,-537.59 1219.63,-538"/>
</g>
<!-- IS&#45;&gt;TR -->
<g id="edge18" class="edge">
<title>IS&#45;&gt;TR</title>
<path fill="none" stroke="#2f6fdb" stroke-width="1.1" d="M359.69,-435.42C372.16,-463.71 395.99,-519.76 411.59,-569 466,-740.78 509.19,-953.67 523.47,-1027.4"/>
<polygon fill="#2f6fdb" stroke="#2f6fdb" stroke-width="1.1" points="521.02,-1027.65 524.75,-1034.06 525.83,-1026.72 521.02,-1027.65"/>
</g>
<!-- IS&#45;&gt;TE -->
<g id="edge19" class="edge">
<title>IS&#45;&gt;TE</title>
<path fill="none" stroke="#2f6fdb" stroke-width="1.1" d="M362.77,-435.39C393.31,-484.88 477.3,-621.01 512.58,-678.18"/>
<polygon fill="#2f6fdb" stroke="#2f6fdb" stroke-width="1.1" points="510.39,-679.3 516.15,-683.98 514.56,-676.73 510.39,-679.3"/>
</g>
<!-- IS&#45;&gt;EI -->
<g id="edge20" class="edge">
<title>IS&#45;&gt;EI</title>
<path fill="none" stroke="#2f6fdb" stroke-width="1.1" d="M396.47,-412.05C421.02,-409.45 451.95,-406.33 479.59,-404 599.33,-393.9 740.22,-385.22 814.26,-380.91"/>
<polygon fill="#2f6fdb" stroke="#2f6fdb" stroke-width="1.1" points="814.01,-383.38 820.85,-380.53 813.72,-378.49 814.01,-383.38"/>
</g>
<!-- IS&#45;&gt;EG -->
<g id="edge21" class="edge">
<title>IS&#45;&gt;EG</title>
<path fill="none" stroke="#2f6fdb" stroke-width="1.1" d="M378.97,-435.52C487.88,-508.72 888.35,-777.87 1008.79,-858.82"/>
<polygon fill="#2f6fdb" stroke="#2f6fdb" stroke-width="1.1" points="1007.09,-860.63 1014.27,-862.5 1009.83,-856.56 1007.09,-860.63"/>
</g>
<!-- IS&#45;&gt;LS -->
<g id="edge22" class="edge">
<title>IS&#45;&gt;LS</title>
<path fill="none" stroke="#2f6fdb" stroke-width="1.1" d="M369.48,-398.56C392.72,-376.05 435.38,-338.68 479.59,-320 535.12,-296.54 604.94,-289.49 649.92,-287.52"/>
<polygon fill="#2f6fdb" stroke="#2f6fdb" stroke-width="1.1" points="650,-289.96 656.9,-287.25 649.82,-285.07 650,-289.96"/>
</g>
<!-- IS&#45;&gt;PA -->
<g id="edge23" class="edge">
<title>IS&#45;&gt;PA</title>
<path fill="none" stroke="#2f6fdb" stroke-width="1.1" d="M396.45,-421.08C470.71,-428.7 622.88,-448.05 745.77,-488 770.46,-496.03 796.56,-508.17 818.08,-519.27"/>
<polygon fill="#2f6fdb" stroke="#2f6fdb" stroke-width="1.1" points="816.68,-521.3 824.02,-522.37 818.95,-516.96 816.68,-521.3"/>
</g>
<!-- IS&#45;&gt;PS -->
<g id="edge24" class="edge">
<title>IS&#45;&gt;PS</title>
<path fill="none" stroke="#2f6fdb" stroke-width="1.1" d="M363.96,-398.67C384.52,-370.18 428.29,-315.76 479.59,-289 646.67,-201.85 881.28,-250.88 987.33,-280.55"/>
<polygon fill="#2f6fdb" stroke="#2f6fdb" stroke-width="1.1" points="986.66,-282.9 994.06,-282.46 988,-278.19 986.66,-282.9"/>
</g>
<!-- IS&#45;&gt;WR -->
<g id="edge25" class="edge">
<title>IS&#45;&gt;WR</title>
<path fill="none" stroke="#2f6fdb" stroke-width="1.1" d="M359.4,-398.37C375.89,-362.45 417.46,-284.16 479.59,-250 721.8,-116.84 875.07,-64.7 1100.95,-224 1205.15,-297.49 1221.79,-467.25 1224.09,-538.07"/>
<polygon fill="#2f6fdb" stroke="#2f6fdb" stroke-width="1.1" points="1221.63,-538 1224.27,-544.93 1226.53,-537.87 1221.63,-538"/>
</g>
<!-- HS -->
<g id="node3" class="node">
<title>HS</title>
<path fill="#dfe3ef" stroke="#5560a6" stroke-width="1.3" d="M140.3,-885C140.3,-885 80.95,-885 80.95,-885 74.95,-885 68.95,-879 68.95,-873 68.95,-873 68.95,-861 68.95,-861 68.95,-855 74.95,-849 80.95,-849 80.95,-849 140.3,-849 140.3,-849 146.3,-849 152.3,-855 152.3,-861 152.3,-861 152.3,-873 152.3,-873 152.3,-879 146.3,-885 140.3,-885"/>
<text xml:space="preserve" text-anchor="middle" x="110.62" y="-868.55" font-family="Helvetica,sans-Serif" font-size="11.00">HS</text>
<text xml:space="preserve" text-anchor="middle" x="110.62" y="-856.55" font-family="Helvetica,sans-Serif" font-size="11.00">hearing status</text>
</g>
<!-- HS&#45;&gt;TR -->
<g id="edge1" class="edge">
<title>HS&#45;&gt;TR</title>
<path fill="none" stroke="#5560a6" stroke-width="1.1" d="M152.77,-868.66C175.34,-871.57 202.46,-878.59 221.25,-895 281.91,-948 222.46,-1017.98 289.25,-1063 343.89,-1099.83 422.6,-1087.6 474.62,-1072.94"/>
<polygon fill="#5560a6" stroke="#5560a6" stroke-width="1.1" points="475.1,-1075.35 481.14,-1071.04 473.73,-1070.65 475.1,-1075.35"/>
</g>
<!-- HS&#45;&gt;TE -->
<g id="edge2" class="edge">
<title>HS&#45;&gt;TE</title>
<path fill="none" stroke="#5560a6" stroke-width="1.1" d="M152.8,-864.85C212.9,-860.24 326.72,-845.82 411.59,-801 448.29,-781.62 447.17,-762.91 479.59,-737 483.63,-733.77 487.99,-730.53 492.37,-727.4"/>
<polygon fill="#5560a6" stroke="#5560a6" stroke-width="1.1" points="493.53,-729.58 497.88,-723.57 490.73,-725.56 493.53,-729.58"/>
</g>
<!-- RW -->
<g id="node6" class="node">
<title>RW</title>
<path fill="#d6ebe4" stroke="#2f9e78" stroke-width="1.3" d="M384.59,-934.32C384.59,-934.32 316.25,-934.32 316.25,-934.32 310.25,-934.32 304.25,-928.32 304.25,-922.32 304.25,-922.32 304.25,-901.68 304.25,-901.68 304.25,-895.68 310.25,-889.68 316.25,-889.68 316.25,-889.68 384.59,-889.68 384.59,-889.68 390.59,-889.68 396.59,-895.68 396.59,-901.68 396.59,-901.68 396.59,-922.32 396.59,-922.32 396.59,-928.32 390.59,-934.32 384.59,-934.32"/>
<text xml:space="preserve" text-anchor="middle" x="350.42" y="-919.55" font-family="Helvetica,sans-Serif" font-size="11.00">RW</text>
<text xml:space="preserve" text-anchor="middle" x="350.42" y="-907.55" font-family="Helvetica,sans-Serif" font-size="11.00">word repetition</text>
<text xml:space="preserve" text-anchor="middle" x="350.42" y="-895.55" font-family="Helvetica,sans-Serif" font-size="11.00">(phon. memory)</text>
</g>
<!-- HS&#45;&gt;RW -->
<g id="edge3" class="edge">
<title>HS&#45;&gt;RW</title>
<path fill="none" stroke="#5560a6" stroke-width="1.1" d="M152.77,-874.79C192.28,-882.26 252.18,-893.6 295.48,-901.79"/>
<polygon fill="#5560a6" stroke="#5560a6" stroke-width="1.1" points="294.94,-904.18 302.28,-903.08 295.85,-899.37 294.94,-904.18"/>
</g>
<!-- RV -->
<g id="node7" class="node">
<title>RV</title>
<path fill="#d6ebe4" stroke="#2f9e78" stroke-width="1.3" d="M730.02,-1173C730.02,-1173 663.18,-1173 663.18,-1173 657.18,-1173 651.18,-1167 651.18,-1161 651.18,-1161 651.18,-1149 651.18,-1149 651.18,-1143 657.18,-1137 663.18,-1137 663.18,-1137 730.02,-1137 730.02,-1137 736.02,-1137 742.02,-1143 742.02,-1149 742.02,-1149 742.02,-1161 742.02,-1161 742.02,-1167 736.02,-1173 730.02,-1173"/>
<text xml:space="preserve" text-anchor="middle" x="696.6" y="-1156.55" font-family="Helvetica,sans-Serif" font-size="11.00">RV</text>
<text xml:space="preserve" text-anchor="middle" x="696.6" y="-1144.55" font-family="Helvetica,sans-Serif" font-size="11.00">receptive vocab</text>
</g>
<!-- HS&#45;&gt;RV -->
<g id="edge4" class="edge">
<title>HS&#45;&gt;RV</title>
<path fill="none" stroke="#5560a6" stroke-width="1.1" d="M152.82,-868.27C175.55,-871.04 202.81,-878.05 221.25,-895 289.12,-957.41 218.53,-1031.84 289.25,-1091 390.4,-1175.61 557.05,-1171.46 642.08,-1162.57"/>
<polygon fill="#5560a6" stroke="#5560a6" stroke-width="1.1" points="642.2,-1165.02 648.89,-1161.83 641.67,-1160.15 642.2,-1165.02"/>
</g>
<!-- EV -->
<g id="node8" class="node">
<title>EV</title>
<path fill="#d6ebe4" stroke="#2f9e78" stroke-width="1.3" d="M733.77,-991C733.77,-991 659.43,-991 659.43,-991 653.43,-991 647.43,-985 647.43,-979 647.43,-979 647.43,-967 647.43,-967 647.43,-961 653.43,-955 659.43,-955 659.43,-955 733.77,-955 733.77,-955 739.77,-955 745.77,-961 745.77,-967 745.77,-967 745.77,-979 745.77,-979 745.77,-985 739.77,-991 733.77,-991"/>
<text xml:space="preserve" text-anchor="middle" x="696.6" y="-974.55" font-family="Helvetica,sans-Serif" font-size="11.00">EV</text>
<text xml:space="preserve" text-anchor="middle" x="696.6" y="-962.55" font-family="Helvetica,sans-Serif" font-size="11.00">expressive vocab</text>
</g>
<!-- HS&#45;&gt;EV -->
<g id="edge5" class="edge">
<title>HS&#45;&gt;EV</title>
<path fill="none" stroke="#5560a6" stroke-width="1.1" d="M152.7,-873.7C173.84,-878.07 199.63,-884.89 221.25,-895 255,-910.77 254.34,-930.99 289.25,-944 407.23,-987.97 557.61,-984.81 638.29,-978.81"/>
<polygon fill="#5560a6" stroke="#5560a6" stroke-width="1.1" points="638.38,-981.26 645.17,-978.27 638,-976.37 638.38,-981.26"/>
</g>
<!-- SP -->
<g id="node13" class="node">
<title>SP</title>
<path fill="#fbe1e0" stroke="#d0433f" stroke-width="1.3" d="M399.59,-623.32C399.59,-623.32 301.25,-623.32 301.25,-623.32 295.25,-623.32 289.25,-617.32 289.25,-611.32 289.25,-611.32 289.25,-590.68 289.25,-590.68 289.25,-584.68 295.25,-578.68 301.25,-578.68 301.25,-578.68 399.59,-578.68 399.59,-578.68 405.59,-578.68 411.59,-584.68 411.59,-590.68 411.59,-590.68 411.59,-611.32 411.59,-611.32 411.59,-617.32 405.59,-623.32 399.59,-623.32"/>
<text xml:space="preserve" text-anchor="middle" x="350.42" y="-608.55" font-family="Helvetica,sans-Serif" font-size="11.00">SP</text>
<text xml:space="preserve" text-anchor="middle" x="350.42" y="-596.55" font-family="Helvetica,sans-Serif" font-size="11.00">speech production</text>
<text xml:space="preserve" text-anchor="middle" x="350.42" y="-584.55" font-family="Helvetica,sans-Serif" font-size="11.00">(motor&#45;difficulty proxy)</text>
</g>
<!-- HS&#45;&gt;SP -->
<g id="edge6" class="edge">
<title>HS&#45;&gt;SP</title>
<path fill="none" stroke="#5560a6" stroke-width="1.1" d="M127.97,-848.72C168.5,-803.37 273.93,-685.44 323.26,-630.26"/>
<polygon fill="#5560a6" stroke="#5560a6" stroke-width="1.1" points="325.04,-631.95 327.88,-625.1 321.39,-628.68 325.04,-631.95"/>
</g>
<!-- HS&#45;&gt;LS -->
<g id="edge7" class="edge">
<title>HS&#45;&gt;LS</title>
<path fill="none" stroke="#5560a6" stroke-width="1.1" d="M113.72,-848.58C122.42,-779.77 161.49,-534.25 289.25,-389 352.36,-317.25 386.92,-312.32 479.59,-289 537.04,-274.54 605.84,-277.17 650.11,-281.3"/>
<polygon fill="#5560a6" stroke="#5560a6" stroke-width="1.1" points="649.76,-283.72 656.97,-281.97 650.24,-278.85 649.76,-283.72"/>
</g>
<!-- HS&#45;&gt;PA -->
<g id="edge8" class="edge">
<title>HS&#45;&gt;PA</title>
<path fill="none" stroke="#5560a6" stroke-width="1.1" d="M142.44,-848.36C222.71,-800.59 446.02,-672.63 647.43,-603 701.5,-584.31 764.93,-568.39 809.44,-558.16"/>
<polygon fill="#5560a6" stroke="#5560a6" stroke-width="1.1" points="809.9,-560.57 816.18,-556.63 808.81,-555.79 809.9,-560.57"/>
</g>
<!-- TR&#45;&gt;TE -->
<g id="edge26" class="edge">
<title>TR&#45;&gt;TE</title>
<path fill="none" stroke="#7a52b3" stroke-width="1.1" d="M529.51,-1035.54C529.51,-934.04 529.51,-832.53 529.51,-731.02"/>
<polygon fill="#7a52b3" stroke="#7a52b3" stroke-width="1.1" points="531.96,-731.12 529.51,-724.12 527.06,-731.12 531.96,-731.12"/>
</g>
<!-- TR&#45;&gt;RV -->
<g id="edge27" class="edge">
<title>TR&#45;&gt;RV</title>
<path fill="none" stroke="#7a52b3" stroke-width="1.1" d="M560.79,-1072.52C588.16,-1089.27 628.57,-1113.99 658,-1132"/>
<polygon fill="#7a52b3" stroke="#7a52b3" stroke-width="1.1" points="656.56,-1133.99 663.81,-1135.55 659.12,-1129.81 656.56,-1133.99"/>
</g>
<!-- TR&#45;&gt;EV -->
<g id="edge28" class="edge">
<title>TR&#45;&gt;EV</title>
<path fill="none" stroke="#7a52b3" stroke-width="1.1" d="M568.38,-1035.42C592.63,-1023.52 624.23,-1008.02 649.86,-995.44"/>
<polygon fill="#7a52b3" stroke="#7a52b3" stroke-width="1.1" points="650.92,-997.65 656.12,-992.37 648.76,-993.25 650.92,-997.65"/>
</g>
<!-- LF -->
<g id="node9" class="node">
<title>LF</title>
<path fill="#eceef1" stroke="#9aa0a8" stroke-width="1.3" d="M898.24,-1131C898.24,-1131 835.15,-1131 835.15,-1131 829.15,-1131 823.15,-1125 823.15,-1119 823.15,-1119 823.15,-1107 823.15,-1107 823.15,-1101 829.15,-1095 835.15,-1095 835.15,-1095 898.24,-1095 898.24,-1095 904.24,-1095 910.24,-1101 910.24,-1107 910.24,-1107 910.24,-1119 910.24,-1119 910.24,-1125 904.24,-1131 898.24,-1131"/>
<text xml:space="preserve" text-anchor="middle" x="866.69" y="-1114.55" font-family="Helvetica,sans-Serif" font-size="11.00">LF</text>
<text xml:space="preserve" text-anchor="middle" x="866.69" y="-1102.55" font-family="Helvetica,sans-Serif" font-size="11.00">language fund.</text>
</g>
<!-- TR&#45;&gt;LF -->
<g id="edge29" class="edge">
<title>TR&#45;&gt;LF</title>
<path fill="none" stroke="#7a52b3" stroke-width="1.1" d="M576.17,-1064.92C597.71,-1069.87 623.82,-1075.6 647.43,-1080 704.29,-1090.61 769.98,-1100.18 814.31,-1106.25"/>
<polygon fill="#7a52b3" stroke="#7a52b3" stroke-width="1.1" points="813.97,-1108.67 821.24,-1107.19 814.63,-1103.82 813.97,-1108.67"/>
</g>
<!-- RG -->
<g id="node10" class="node">
<title>RG</title>
<path fill="#eceef1" stroke="#9aa0a8" stroke-width="1.3" d="M907.61,-1033C907.61,-1033 825.77,-1033 825.77,-1033 819.77,-1033 813.77,-1027 813.77,-1021 813.77,-1021 813.77,-1009 813.77,-1009 813.77,-1003 819.77,-997 825.77,-997 825.77,-997 907.61,-997 907.61,-997 913.61,-997 919.61,-1003 919.61,-1009 919.61,-1009 919.61,-1021 919.61,-1021 919.61,-1027 913.61,-1033 907.61,-1033"/>
<text xml:space="preserve" text-anchor="middle" x="866.69" y="-1016.55" font-family="Helvetica,sans-Serif" font-size="11.00">RG</text>
<text xml:space="preserve" text-anchor="middle" x="866.69" y="-1004.55" font-family="Helvetica,sans-Serif" font-size="11.00">receptive grammar</text>
</g>
<!-- TR&#45;&gt;RG -->
<g id="edge30" class="edge">
<title>TR&#45;&gt;RG</title>
<path fill="none" stroke="#7a52b3" stroke-width="1.1" d="M576.06,-1048.7C635.37,-1041.8 739.21,-1029.72 805.1,-1022.05"/>
<polygon fill="#7a52b3" stroke="#7a52b3" stroke-width="1.1" points="805.02,-1024.53 811.69,-1021.28 804.45,-1019.66 805.02,-1024.53"/>
</g>
<!-- TR&#45;&gt;WR -->
<g id="edge31" class="edge">
<title>TR&#45;&gt;WR</title>
<path fill="none" stroke="#7a52b3" stroke-width="1.1" d="M576.17,-1062.71C686.31,-1080.76 967.34,-1108.63 1100.95,-954 1192.48,-848.07 1216.25,-673.36 1222.27,-601.93"/>
<polygon fill="#7a52b3" stroke="#7a52b3" stroke-width="1.1" points="1224.7,-602.18 1222.81,-595.01 1219.82,-601.79 1224.7,-602.18"/>
</g>
<!-- TE&#45;&gt;EV -->
<g id="edge32" class="edge">
<title>TE&#45;&gt;EV</title>
<path fill="none" stroke="#7a52b3" stroke-width="1.1" d="M541.86,-722.49C570.66,-769.42 646.67,-893.27 679.79,-947.24"/>
<polygon fill="#7a52b3" stroke="#7a52b3" stroke-width="1.1" points="677.55,-948.28 683.3,-952.96 681.73,-945.71 677.55,-948.28"/>
</g>
<!-- TE&#45;&gt;EI -->
<g id="edge33" class="edge">
<title>TE&#45;&gt;EI</title>
<path fill="none" stroke="#7a52b3" stroke-width="1.1" d="M548.32,-685.49C592.39,-639.88 710.41,-518.86 813.77,-423 821.29,-416.03 829.61,-408.67 837.35,-401.96"/>
<polygon fill="#7a52b3" stroke="#7a52b3" stroke-width="1.1" points="838.71,-404.02 842.42,-397.6 835.51,-400.31 838.71,-404.02"/>
</g>
<!-- TE&#45;&gt;EG -->
<g id="edge34" class="edge">
<title>TE&#45;&gt;EG</title>
<path fill="none" stroke="#7a52b3" stroke-width="1.1" d="M579.68,-721.07C673.64,-753.69 878.51,-824.8 981.53,-860.56"/>
<polygon fill="#7a52b3" stroke="#7a52b3" stroke-width="1.1" points="980.68,-862.86 988.1,-862.84 982.29,-858.23 980.68,-862.86"/>
</g>
<!-- TE&#45;&gt;PA -->
<g id="edge35" class="edge">
<title>TE&#45;&gt;PA</title>
<path fill="none" stroke="#7a52b3" stroke-width="1.1" d="M571.07,-685.39C614.4,-665.45 685.08,-632.77 745.77,-604 767.17,-593.85 790.64,-582.54 811.1,-572.62"/>
<polygon fill="#7a52b3" stroke="#7a52b3" stroke-width="1.1" points="812.06,-574.88 817.29,-569.62 809.92,-570.47 812.06,-574.88"/>
</g>
<!-- TE&#45;&gt;WR -->
<g id="edge36" class="edge">
<title>TE&#45;&gt;WR</title>
<path fill="none" stroke="#7a52b3" stroke-width="1.1" d="M579.85,-694.47C702.64,-670.75 1021.99,-609.07 1159.6,-582.49"/>
<polygon fill="#7a52b3" stroke="#7a52b3" stroke-width="1.1" points="1159.96,-584.91 1166.37,-581.18 1159.03,-580.1 1159.96,-584.91"/>
</g>
<!-- RW&#45;&gt;TR -->
<g id="edge37" class="edge">
<title>RW&#45;&gt;TR</title>
<path fill="none" stroke="#2f9e78" stroke-width="1.1" d="M379.87,-934.81C412.46,-960.94 465.61,-1003.56 498.74,-1030.13"/>
<polygon fill="#2f9e78" stroke="#2f9e78" stroke-width="1.1" points="497.19,-1032.03 504.19,-1034.5 500.26,-1028.21 497.19,-1032.03"/>
</g>
<!-- RW&#45;&gt;TE -->
<g id="edge38" class="edge">
<title>RW&#45;&gt;TE</title>
<path fill="none" stroke="#2f9e78" stroke-width="1.1" d="M379.86,-889.3C390.54,-879.96 402.33,-868.62 411.59,-857 449.8,-809.06 437.96,-782 479.59,-737 482.56,-733.79 485.89,-730.74 489.39,-727.87"/>
<polygon fill="#2f9e78" stroke="#2f9e78" stroke-width="1.1" points="490.88,-729.82 494.95,-723.62 487.9,-725.93 490.88,-729.82"/>
</g>
<!-- RW&#45;&gt;RV -->
<g id="edge39" class="edge">
<title>RW&#45;&gt;RV</title>
<path fill="none" stroke="#2f9e78" stroke-width="1.1" d="M362.73,-934.74C381.9,-971.02 424.15,-1041.97 479.59,-1082 528.54,-1117.34 595.83,-1136.48 642.23,-1146.18"/>
<polygon fill="#2f9e78" stroke="#2f9e78" stroke-width="1.1" points="641.67,-1148.57 649.01,-1147.55 642.64,-1143.76 641.67,-1148.57"/>
</g>
<!-- RW&#45;&gt;EV -->
<g id="edge40" class="edge">
<title>RW&#45;&gt;EV</title>
<path fill="none" stroke="#2f9e78" stroke-width="1.1" d="M397.04,-921.21C421.49,-926.07 452.15,-932.04 479.59,-937 533.43,-946.74 595,-956.9 638.59,-963.94"/>
<polygon fill="#2f9e78" stroke="#2f9e78" stroke-width="1.1" points="638.12,-966.34 645.42,-965.04 638.9,-961.51 638.12,-966.34"/>
</g>
<!-- RW&#45;&gt;PA -->
<g id="edge41" class="edge">
<title>RW&#45;&gt;PA</title>
<path fill="none" stroke="#2f9e78" stroke-width="1.1" d="M396.96,-906.69C476.42,-895.27 641.82,-861.71 745.77,-772 762.11,-757.9 822.76,-634.94 851.02,-576.55"/>
<polygon fill="#2f9e78" stroke="#2f9e78" stroke-width="1.1" points="853.22,-577.62 854.06,-570.25 848.81,-575.49 853.22,-577.62"/>
</g>
<!-- NW -->
<g id="node16" class="node">
<title>NW</title>
<path fill="#fdecd2" stroke="#c2872a" stroke-width="1.3" d="M1080.7,-539C1080.7,-539 1007.86,-539 1007.86,-539 1001.86,-539 995.86,-533 995.86,-527 995.86,-527 995.86,-515 995.86,-515 995.86,-509 1001.86,-503 1007.86,-503 1007.86,-503 1080.7,-503 1080.7,-503 1086.7,-503 1092.7,-509 1092.7,-515 1092.7,-515 1092.7,-527 1092.7,-527 1092.7,-533 1086.7,-539 1080.7,-539"/>
<text xml:space="preserve" text-anchor="middle" x="1044.28" y="-522.55" font-family="Helvetica,sans-Serif" font-size="11.00">NW</text>
<text xml:space="preserve" text-anchor="middle" x="1044.28" y="-510.55" font-family="Helvetica,sans-Serif" font-size="11.00">nonword reading</text>
</g>
<!-- RW&#45;&gt;NW -->
<g id="edge42" class="edge">
<title>RW&#45;&gt;NW</title>
<path fill="none" stroke="#2f9e78" stroke-width="1.1" d="M397.15,-912.65C443.73,-912.28 517.67,-908.83 579.43,-893 657.81,-872.91 679.1,-864.85 745.77,-819 865.93,-736.37 979.46,-601.59 1023.74,-546.09"/>
<polygon fill="#2f9e78" stroke="#2f9e78" stroke-width="1.1" points="1025.57,-547.72 1028,-540.72 1021.73,-544.68 1025.57,-547.72"/>
</g>
<!-- RW&#45;&gt;PS -->
<g id="edge43" class="edge">
<title>RW&#45;&gt;PS</title>
<path fill="none" stroke="#2f9e78" stroke-width="1.1" d="M381.95,-889.2C426.31,-855.77 510.79,-791.02 579.43,-732 601.83,-712.74 911.76,-421.61 1012.14,-327.27"/>
<polygon fill="#2f9e78" stroke="#2f9e78" stroke-width="1.1" points="1013.81,-329.06 1017.23,-322.48 1010.45,-325.49 1013.81,-329.06"/>
</g>
<!-- RV&#45;&gt;EV -->
<g id="edge44" class="edge">
<title>RV&#45;&gt;EV</title>
<path fill="none" stroke="#2f9e78" stroke-width="1.1" d="M696.6,-1136.48C696.6,-1090.98 696.6,-1045.48 696.6,-999.98"/>
<polygon fill="#2f9e78" stroke="#2f9e78" stroke-width="1.1" points="699.05,-1000.15 696.6,-993.15 694.15,-1000.15 699.05,-1000.15"/>
</g>
<!-- RV&#45;&gt;LF -->
<g id="edge45" class="edge">
<title>RV&#45;&gt;LF</title>
<path fill="none" stroke="#2f9e78" stroke-width="1.1" d="M742.65,-1143.74C764.73,-1138.23 791.43,-1131.55 814.31,-1125.84"/>
<polygon fill="#2f9e78" stroke="#2f9e78" stroke-width="1.1" points="814.74,-1128.26 820.94,-1124.18 813.55,-1123.5 814.74,-1128.26"/>
</g>
<!-- RV&#45;&gt;RG -->
<g id="edge46" class="edge">
<title>RV&#45;&gt;RG</title>
<path fill="none" stroke="#2f9e78" stroke-width="1.1" d="M719.92,-1136.41C750.14,-1111.24 804.1,-1066.29 837.21,-1038.72"/>
<polygon fill="#2f9e78" stroke="#2f9e78" stroke-width="1.1" points="838.45,-1040.87 842.27,-1034.51 835.32,-1037.11 838.45,-1040.87"/>
</g>
<!-- RV&#45;&gt;WR -->
<g id="edge47" class="edge">
<title>RV&#45;&gt;WR</title>
<path fill="none" stroke="#2f9e78" stroke-width="1.1" d="M742.64,-1162.1C826.93,-1172.56 1008.32,-1181.09 1100.95,-1080 1166.59,-1008.37 1208.44,-702.02 1220.58,-601.84"/>
<polygon fill="#2f9e78" stroke="#2f9e78" stroke-width="1.1" points="1223,-602.24 1221.4,-595 1218.13,-601.66 1223,-602.24"/>
</g>
<!-- EV&#45;&gt;EI -->
<g id="edge48" class="edge">
<title>EV&#45;&gt;EI</title>
<path fill="none" stroke="#2f9e78" stroke-width="1.1" d="M701.48,-954.42C714.76,-891.72 760.48,-682.51 813.77,-514 826.06,-475.13 843.48,-431.24 854.68,-404.1"/>
<polygon fill="#2f9e78" stroke="#2f9e78" stroke-width="1.1" points="856.89,-405.18 857.31,-397.77 852.36,-403.3 856.89,-405.18"/>
</g>
<!-- EV&#45;&gt;EG -->
<g id="edge49" class="edge">
<title>EV&#45;&gt;EG</title>
<path fill="none" stroke="#2f9e78" stroke-width="1.1" d="M746.39,-960.15C807.29,-944.12 911.6,-916.66 978.97,-898.93"/>
<polygon fill="#2f9e78" stroke="#2f9e78" stroke-width="1.1" points="979.24,-901.39 985.38,-897.24 977.99,-896.65 979.24,-901.39"/>
</g>
<!-- EV&#45;&gt;PA -->
<g id="edge50" class="edge">
<title>EV&#45;&gt;PA</title>
<path fill="none" stroke="#2f9e78" stroke-width="1.1" d="M705.4,-954.41C715.03,-931.37 731.84,-890.89 745.77,-856 786.47,-754.05 832.9,-632.43 854.07,-576.68"/>
<polygon fill="#2f9e78" stroke="#2f9e78" stroke-width="1.1" points="856.34,-577.6 856.54,-570.18 851.76,-575.86 856.34,-577.6"/>
</g>
<!-- EV&#45;&gt;WR -->
<g id="edge51" class="edge">
<title>EV&#45;&gt;WR</title>
<path fill="none" stroke="#2f9e78" stroke-width="1.1" d="M746.41,-980.34C829.59,-989.94 999.62,-996.53 1100.95,-910 1195.54,-829.22 1217.57,-669.86 1222.69,-601.91"/>
<polygon fill="#2f9e78" stroke="#2f9e78" stroke-width="1.1" points="1225.13,-602.14 1223.17,-594.98 1220.24,-601.8 1225.13,-602.14"/>
</g>
<!-- RG&#45;&gt;EG -->
<g id="edge57" class="edge">
<title>RG&#45;&gt;EG</title>
<path fill="none" stroke="#9aa0a8" stroke-width="1.1" d="M892.11,-996.51C923.47,-972.75 977.93,-931.5 1012.22,-905.53"/>
<polygon fill="#9aa0a8" stroke="#9aa0a8" stroke-width="1.1" points="1013.36,-907.73 1017.46,-901.56 1010.4,-903.83 1013.36,-907.73"/>
</g>
<!-- SP&#45;&gt;TE -->
<g id="edge52" class="edge">
<title>SP&#45;&gt;TE</title>
<path fill="none" stroke="#d0433f" stroke-width="1.1" d="M390.72,-623.86C420.12,-640.96 460.15,-664.24 489.48,-681.3"/>
<polygon fill="#d0433f" stroke="#d0433f" stroke-width="1.1" points="487.98,-683.26 495.26,-684.66 490.44,-679.02 487.98,-683.26"/>
</g>
<!-- SP&#45;&gt;EV -->
<g id="edge53" class="edge">
<title>SP&#45;&gt;EV</title>
<path fill="none" stroke="#d0433f" stroke-width="1.1" d="M372.43,-623.71C433.37,-689.57 609.83,-880.3 672.88,-948.44"/>
<polygon fill="#d0433f" stroke="#d0433f" stroke-width="1.1" points="670.93,-949.95 677.49,-953.42 674.53,-946.62 670.93,-949.95"/>
</g>
<!-- SP&#45;&gt;LS -->
<g id="edge54" class="edge">
<title>SP&#45;&gt;LS</title>
<path fill="none" stroke="#d0433f" stroke-width="1.1" d="M361.52,-578.33C380.06,-538.75 422.91,-456.29 479.59,-404 530.56,-356.98 603.92,-322.49 650.67,-303.58"/>
<polygon fill="#d0433f" stroke="#d0433f" stroke-width="1.1" points="651.36,-305.94 656.96,-301.07 649.55,-301.39 651.36,-305.94"/>
</g>
<!-- SP&#45;&gt;PA -->
<g id="edge55" class="edge">
<title>SP&#45;&gt;PA</title>
<path fill="none" stroke="#d0433f" stroke-width="1.1" d="M412.18,-594.5C512.54,-583.77 711.54,-562.49 809.1,-552.05"/>
<polygon fill="#d0433f" stroke="#d0433f" stroke-width="1.1" points="809.29,-554.5 815.99,-551.32 808.77,-549.62 809.29,-554.5"/>
</g>
<!-- SP&#45;&gt;NW -->
<g id="edge56" class="edge">
<title>SP&#45;&gt;NW</title>
<path fill="none" stroke="#d0433f" stroke-width="1.1" d="M411.92,-586.65C433.26,-581.76 457.44,-576.42 479.59,-572 627.41,-542.47 663.58,-526.94 813.77,-514 860.64,-509.96 872.59,-512.67 919.61,-514 941.62,-514.62 965.81,-515.87 986.91,-517.14"/>
<polygon fill="#d0433f" stroke="#d0433f" stroke-width="1.1" points="986.64,-519.57 993.78,-517.56 986.94,-514.68 986.64,-519.57"/>
</g>
<!-- LS&#45;&gt;PA -->
<g id="edge58" class="edge">
<title>LS&#45;&gt;PA</title>
<path fill="none" stroke="#c2872a" stroke-width="1.1" d="M709.69,-305.63C738.45,-349.94 811.14,-461.95 846.2,-515.96"/>
<polygon fill="#c2872a" stroke="#c2872a" stroke-width="1.1" points="844.11,-517.25 849.98,-521.79 848.22,-514.58 844.11,-517.25"/>
</g>
<!-- LS&#45;&gt;NW -->
<g id="edge59" class="edge">
<title>LS&#45;&gt;NW</title>
<path fill="none" stroke="#c2872a" stroke-width="1.1" d="M734.59,-294.41C789.58,-305.95 889.66,-329.04 919.61,-350 973.7,-387.85 1012.91,-457.13 1031.4,-494.85"/>
<polygon fill="#c2872a" stroke="#c2872a" stroke-width="1.1" points="1029.06,-495.65 1034.3,-500.89 1033.48,-493.52 1029.06,-495.65"/>
</g>
<!-- LS&#45;&gt;PS -->
<g id="edge60" class="edge">
<title>LS&#45;&gt;PS</title>
<path fill="none" stroke="#c2872a" stroke-width="1.1" d="M734.59,-288.18C795.18,-290.11 915.93,-293.95 987.13,-296.21"/>
<polygon fill="#c2872a" stroke="#c2872a" stroke-width="1.1" points="986.82,-298.65 993.89,-296.43 986.97,-293.76 986.82,-298.65"/>
</g>
<!-- LS&#45;&gt;WR -->
<g id="edge61" class="edge">
<title>LS&#45;&gt;WR</title>
<path fill="none" stroke="#c2872a" stroke-width="1.1" d="M734.61,-271.54C810.63,-242.46 986.81,-189.12 1100.95,-266 1193.66,-328.45 1216.69,-473.83 1222.38,-538.27"/>
<polygon fill="#c2872a" stroke="#c2872a" stroke-width="1.1" points="1219.93,-538.37 1222.94,-545.15 1224.82,-537.98 1219.93,-538.37"/>
</g>
<!-- PA&#45;&gt;NW -->
<g id="edge62" class="edge">
<title>PA&#45;&gt;NW</title>
<path fill="none" stroke="#c2872a" stroke-width="1.1" d="M915.67,-539.17C937.74,-536.03 964.06,-532.28 987.05,-529.01"/>
<polygon fill="#c2872a" stroke="#c2872a" stroke-width="1.1" points="987.12,-531.47 993.71,-528.06 986.43,-526.62 987.12,-531.47"/>
</g>
<!-- PA&#45;&gt;PS -->
<g id="edge63" class="edge">
<title>PA&#45;&gt;PS</title>
<path fill="none" stroke="#c2872a" stroke-width="1.1" d="M883.89,-523.11C915.7,-478.2 986.27,-378.51 1021.87,-328.24"/>
<polygon fill="#c2872a" stroke="#c2872a" stroke-width="1.1" points="1023.85,-329.68 1025.9,-322.55 1019.85,-326.85 1023.85,-329.68"/>
</g>
<!-- PA&#45;&gt;WR -->
<g id="edge64" class="edge">
<title>PA&#45;&gt;WR</title>
<path fill="none" stroke="#c2872a" stroke-width="1.1" d="M915.41,-549.21C978.23,-553.44 1088.92,-560.89 1159.32,-565.63"/>
<polygon fill="#c2872a" stroke="#c2872a" stroke-width="1.1" points="1158.89,-568.06 1166.04,-566.08 1159.22,-563.17 1158.89,-568.06"/>
</g>
<!-- NW&#45;&gt;WR -->
<g id="edge65" class="edge">
<title>NW&#45;&gt;WR</title>
<path fill="none" stroke="#c2872a" stroke-width="1.1" d="M1093.24,-534.13C1113.62,-539.71 1137.7,-546.3 1159.61,-552.3"/>
<polygon fill="#c2872a" stroke="#c2872a" stroke-width="1.1" points="1158.89,-554.65 1166.29,-554.13 1160.18,-549.92 1158.89,-554.65"/>
</g>
<!-- ABG -->
<g id="node19" class="node">
<title>ABG</title>
<polygon fill="#f7f7f9" stroke="#6b7280" stroke-width="1.3" stroke-dasharray="5,2" points="212.67,-960.57 2.58,-960.57 2.58,-905.43 218.67,-905.43 218.67,-954.57 212.67,-960.57"/>
<polyline fill="none" stroke="#6b7280" stroke-width="1.3" stroke-dasharray="5,2" points="212.67,-960.57 212.67,-954.57"/>
<polyline fill="none" stroke="#6b7280" stroke-width="1.3" stroke-dasharray="5,2" points="218.67,-954.57 212.67,-954.57"/>
<text xml:space="preserve" text-anchor="middle" x="110.62" y="-946.75" font-family="Helvetica,sans-Serif" font-size="10.00">A · age</text>
<text xml:space="preserve" text-anchor="middle" x="110.62" y="-935.5" font-family="Helvetica,sans-Serif" font-size="10.00">GA · general ability (latent)</text>
<text xml:space="preserve" text-anchor="middle" x="110.62" y="-924.25" font-family="Helvetica,sans-Serif" font-size="10.00">→ common causes of EVERY observed node</text>
<text xml:space="preserve" text-anchor="middle" x="110.62" y="-911.5" font-family="Helvetica,sans-Serif" font-size="10.00">(16 edges each; omitted for clarity)</text>
</g>
<!-- LEG -->
<g id="node20" class="node">
<title>LEG</title>
<path fill="#eceef1" stroke="none" stroke-width="1.3" d="M209.25,-1153C209.25,-1153 12,-1153 12,-1153 6,-1153 0,-1147 0,-1141 0,-1141 0,-993 0,-993 0,-987 6,-981 12,-981 12,-981 209.25,-981 209.25,-981 215.25,-981 221.25,-987 221.25,-993 221.25,-993 221.25,-1141 221.25,-1141 221.25,-1147 215.25,-1153 209.25,-1153"/>
<text xml:space="preserve" text-anchor="start" x="4" y="-1139.55" font-family="Helvetica,sans-Serif" font-weight="bold" font-size="11.00">domain</text>
<polygon fill="#dbe8fb" stroke="none" points="1,-1115 1,-1133 19,-1133 19,-1115 1,-1115"/>
<text xml:space="preserve" text-anchor="start" x="8.5" y="-1121" font-family="Helvetica,sans-Serif" font-size="11.00"> </text>
<text xml:space="preserve" text-anchor="start" x="23" y="-1121" font-family="Helvetica,sans-Serif" font-size="11.00">intervention</text>
<polygon fill="#dfe3ef" stroke="none" points="1,-1096 1,-1114 19,-1114 19,-1096 1,-1096"/>
<text xml:space="preserve" text-anchor="start" x="8.5" y="-1102" font-family="Helvetica,sans-Serif" font-size="11.00"> </text>
<text xml:space="preserve" text-anchor="start" x="23" y="-1102" font-family="Helvetica,sans-Serif" font-size="11.00">hearing status</text>
<polygon fill="#e7ddf5" stroke="none" points="1,-1077 1,-1095 19,-1095 19,-1077 1,-1077"/>
<text xml:space="preserve" text-anchor="start" x="8.5" y="-1083" font-family="Helvetica,sans-Serif" font-size="11.00"> </text>
<text xml:space="preserve" text-anchor="start" x="23" y="-1083" font-family="Helvetica,sans-Serif" font-size="11.00">taught vocabulary</text>
<polygon fill="#d6ebe4" stroke="none" points="1,-1058 1,-1076 19,-1076 19,-1058 1,-1058"/>
<text xml:space="preserve" text-anchor="start" x="8.5" y="-1064" font-family="Helvetica,sans-Serif" font-size="11.00"> </text>
<text xml:space="preserve" text-anchor="start" x="23" y="-1064" font-family="Helvetica,sans-Serif" font-size="11.00">standardised vocab / phon. memory</text>
<polygon fill="#eceef1" stroke="none" points="1,-1039 1,-1057 19,-1057 19,-1039 1,-1039"/>
<text xml:space="preserve" text-anchor="start" x="8.5" y="-1045" font-family="Helvetica,sans-Serif" font-size="11.00"> </text>
<text xml:space="preserve" text-anchor="start" x="23" y="-1045" font-family="Helvetica,sans-Serif" font-size="11.00">language &amp; grammar (no path to WR)</text>
<polygon fill="#fbe1e0" stroke="none" points="1,-1020 1,-1038 19,-1038 19,-1020 1,-1020"/>
<text xml:space="preserve" text-anchor="start" x="8.5" y="-1026" font-family="Helvetica,sans-Serif" font-size="11.00"> </text>
<text xml:space="preserve" text-anchor="start" x="23" y="-1026" font-family="Helvetica,sans-Serif" font-size="11.00">speech (now a cause)</text>
<polygon fill="#fdecd2" stroke="none" points="1,-1001 1,-1019 19,-1019 19,-1001 1,-1001"/>
<text xml:space="preserve" text-anchor="start" x="8.5" y="-1007" font-family="Helvetica,sans-Serif" font-size="11.00"> </text>
<text xml:space="preserve" text-anchor="start" x="23" y="-1007" font-family="Helvetica,sans-Serif" font-size="11.00">code / reading route</text>
<polygon fill="#cfe0f7" stroke="none" points="1,-982 1,-1000 19,-1000 19,-982 1,-982"/>
<text xml:space="preserve" text-anchor="start" x="8.5" y="-988" font-family="Helvetica,sans-Serif" font-size="11.00"> </text>
<text xml:space="preserve" text-anchor="start" x="23" y="-988" font-family="Helvetica,sans-Serif" font-size="11.00">primary outcome (WR); PS also terminal</text>
</g>
</g>
</svg>
