<?xml version="1.0" encoding="UTF-8" standalone="no"?>
<!DOCTYPE svg PUBLIC "-//W3C//DTD SVG 1.1//EN"
 "http://www.w3.org/Graphics/SVG/1.1/DTD/svg11.dtd">
<!-- Generated by graphviz version 15.1.0 (20260618.0150)
 -->
<!-- Title: LRP_LAGGED Pages: 1 -->
<svg width="1157pt" height="1491pt"
 viewBox="0.00 0.00 1157.00 1491.00" xmlns="http://www.w3.org/2000/svg" xmlns:xlink="http://www.w3.org/1999/xlink">
<g id="graph0" class="graph" transform="scale(1 1) rotate(0) translate(4 1486.88)">
<title>LRP_LAGGED</title>
<polygon fill="white" stroke="none" points="-4,4 -4,-1486.88 1152.5,-1486.88 1152.5,4 -4,4"/>
<text xml:space="preserve" text-anchor="middle" x="574.25" y="-1462.72" font-family="Helvetica,sans-Serif" font-weight="bold" font-size="17.00">Language &amp; reading causal DAG — TIME&#45;LAGGED unroll, Option B (pure&#45;lagged; considered, NOT adopted — kept for the decision record)</text>
<!-- EG_t -->
<g id="node1" class="node">
<title>EG_t</title>
<path fill="#eceef1" stroke="#9aa0a8" stroke-width="1.3" d="M713.38,-1344C713.38,-1344 624.04,-1344 624.04,-1344 618.04,-1344 612.04,-1338 612.04,-1332 612.04,-1332 612.04,-1320 612.04,-1320 612.04,-1314 618.04,-1308 624.04,-1308 624.04,-1308 713.38,-1308 713.38,-1308 719.38,-1308 725.38,-1314 725.38,-1320 725.38,-1320 725.38,-1332 725.38,-1332 725.38,-1338 719.38,-1344 713.38,-1344"/>
<text xml:space="preserve" text-anchor="middle" x="668.71" y="-1327.55" font-family="Helvetica,sans-Serif" font-size="11.00">EG (t)</text>
<text xml:space="preserve" text-anchor="middle" x="668.71" y="-1315.55" font-family="Helvetica,sans-Serif" font-size="11.00">expressive grammar</text>
</g>
<!-- EG_t1 -->
<g id="node2" class="node">
<title>EG_t1</title>
<path fill="#eceef1" stroke="#9aa0a8" stroke-width="1.3" d="M943.72,-1053C943.72,-1053 854.38,-1053 854.38,-1053 848.38,-1053 842.38,-1047 842.38,-1041 842.38,-1041 842.38,-1029 842.38,-1029 842.38,-1023 848.38,-1017 854.38,-1017 854.38,-1017 943.72,-1017 943.72,-1017 949.72,-1017 955.72,-1023 955.72,-1029 955.72,-1029 955.72,-1041 955.72,-1041 955.72,-1047 949.72,-1053 943.72,-1053"/>
<text xml:space="preserve" text-anchor="middle" x="899.05" y="-1036.55" font-family="Helvetica,sans-Serif" font-size="11.00">EG (t+1)</text>
<text xml:space="preserve" text-anchor="middle" x="899.05" y="-1024.55" font-family="Helvetica,sans-Serif" font-size="11.00">expressive grammar</text>
</g>
<!-- EG_t&#45;&gt;EG_t1 -->
<g id="edge9" class="edge">
<title>EG_t&#45;&gt;EG_t1</title>
<path fill="none" stroke="#b9bec6" d="M714.16,-1307.5C719.88,-1303.9 725.32,-1299.75 729.88,-1295 808.88,-1212.63 756.67,-1142.21 837.88,-1062 839.17,-1060.73 840.53,-1059.5 841.95,-1058.34"/>
<polygon fill="#b9bec6" stroke="#b9bec6" points="843.07,-1060.55 847.27,-1054.44 840.17,-1056.6 843.07,-1060.55"/>
</g>
<!-- EI_t -->
<g id="node3" class="node">
<title>EI_t</title>
<path fill="#eceef1" stroke="#9aa0a8" stroke-width="1.3" d="M700.25,-1432C700.25,-1432 637.16,-1432 637.16,-1432 631.16,-1432 625.16,-1426 625.16,-1420 625.16,-1420 625.16,-1408 625.16,-1408 625.16,-1402 631.16,-1396 637.16,-1396 637.16,-1396 700.25,-1396 700.25,-1396 706.25,-1396 712.25,-1402 712.25,-1408 712.25,-1408 712.25,-1420 712.25,-1420 712.25,-1426 706.25,-1432 700.25,-1432"/>
<text xml:space="preserve" text-anchor="middle" x="668.71" y="-1415.55" font-family="Helvetica,sans-Serif" font-size="11.00">EI (t)</text>
<text xml:space="preserve" text-anchor="middle" x="668.71" y="-1403.55" font-family="Helvetica,sans-Serif" font-size="11.00">expressive info</text>
</g>
<!-- EI_t1 -->
<g id="node4" class="node">
<title>EI_t1</title>
<path fill="#eceef1" stroke="#9aa0a8" stroke-width="1.3" d="M930.59,-1106C930.59,-1106 867.5,-1106 867.5,-1106 861.5,-1106 855.5,-1100 855.5,-1094 855.5,-1094 855.5,-1082 855.5,-1082 855.5,-1076 861.5,-1070 867.5,-1070 867.5,-1070 930.59,-1070 930.59,-1070 936.59,-1070 942.59,-1076 942.59,-1082 942.59,-1082 942.59,-1094 942.59,-1094 942.59,-1100 936.59,-1106 930.59,-1106"/>
<text xml:space="preserve" text-anchor="middle" x="899.05" y="-1089.55" font-family="Helvetica,sans-Serif" font-size="11.00">EI (t+1)</text>
<text xml:space="preserve" text-anchor="middle" x="899.05" y="-1077.55" font-family="Helvetica,sans-Serif" font-size="11.00">expressive info</text>
</g>
<!-- EI_t&#45;&gt;EI_t1 -->
<g id="edge8" class="edge">
<title>EI_t&#45;&gt;EI_t1</title>
<path fill="none" stroke="#b9bec6" d="M712.87,-1395.7C718.98,-1392.03 724.87,-1387.8 729.88,-1383 814.05,-1302.32 868.53,-1170.23 888.97,-1114.32"/>
<polygon fill="#b9bec6" stroke="#b9bec6" points="891.15,-1115.48 891.22,-1108.06 886.54,-1113.82 891.15,-1115.48"/>
</g>
<!-- EV_t -->
<g id="node5" class="node">
<title>EV_t</title>
<path fill="#d6ebe4" stroke="#2f9e78" stroke-width="1.3" d="M705.88,-967C705.88,-967 631.54,-967 631.54,-967 625.54,-967 619.54,-961 619.54,-955 619.54,-955 619.54,-943 619.54,-943 619.54,-937 625.54,-931 631.54,-931 631.54,-931 705.88,-931 705.88,-931 711.88,-931 717.88,-937 717.88,-943 717.88,-943 717.88,-955 717.88,-955 717.88,-961 711.88,-967 705.88,-967"/>
<text xml:space="preserve" text-anchor="middle" x="668.71" y="-950.55" font-family="Helvetica,sans-Serif" font-size="11.00">EV (t)</text>
<text xml:space="preserve" text-anchor="middle" x="668.71" y="-938.55" font-family="Helvetica,sans-Serif" font-size="11.00">expressive vocab</text>
</g>
<!-- EV_t&#45;&gt;EG_t1 -->
<g id="edge38" class="edge">
<title>EV_t&#45;&gt;EG_t1</title>
<path fill="none" stroke="#2f9e78" stroke-width="1.15" d="M718.41,-967.34C754.24,-980.84 803.06,-999.22 840.76,-1013.42"/>
<polygon fill="#2f9e78" stroke="#2f9e78" stroke-width="1.15" points="839.58,-1015.6 847,-1015.77 841.31,-1011.01 839.58,-1015.6"/>
</g>
<!-- EV_t&#45;&gt;EI_t1 -->
<g id="edge39" class="edge">
<title>EV_t&#45;&gt;EI_t1</title>
<path fill="none" stroke="#2f9e78" stroke-width="1.15" d="M694.16,-967.53C726.11,-991.25 784.31,-1032.75 837.88,-1062 840.82,-1063.61 843.89,-1065.2 847.02,-1066.74"/>
<polygon fill="#2f9e78" stroke="#2f9e78" stroke-width="1.15" points="845.91,-1068.92 853.28,-1069.73 848.02,-1064.5 845.91,-1068.92"/>
</g>
<!-- EV_t1 -->
<g id="node6" class="node">
<title>EV_t1</title>
<path fill="#d6ebe4" stroke="#2f9e78" stroke-width="1.3" d="M936.22,-430C936.22,-430 861.88,-430 861.88,-430 855.88,-430 849.88,-424 849.88,-418 849.88,-418 849.88,-406 849.88,-406 849.88,-400 855.88,-394 861.88,-394 861.88,-394 936.22,-394 936.22,-394 942.22,-394 948.22,-400 948.22,-406 948.22,-406 948.22,-418 948.22,-418 948.22,-424 942.22,-430 936.22,-430"/>
<text xml:space="preserve" text-anchor="middle" x="899.05" y="-413.55" font-family="Helvetica,sans-Serif" font-size="11.00">EV (t+1)</text>
<text xml:space="preserve" text-anchor="middle" x="899.05" y="-401.55" font-family="Helvetica,sans-Serif" font-size="11.00">expressive vocab</text>
</g>
<!-- EV_t&#45;&gt;EV_t1 -->
<g id="edge4" class="edge">
<title>EV_t&#45;&gt;EV_t1</title>
<path fill="none" stroke="#b9bec6" d="M693.45,-930.46C706.05,-919.42 720.77,-904.38 729.88,-888 829.59,-708.6 706.83,-596.97 837.88,-439 839.42,-437.14 841.11,-435.41 842.93,-433.78"/>
<polygon fill="#b9bec6" stroke="#b9bec6" points="844.26,-435.85 848.31,-429.63 841.27,-431.97 844.26,-435.85"/>
</g>
<!-- PA_t1 -->
<g id="node17" class="node">
<title>PA_t1</title>
<path fill="#fdecd2" stroke="#c2872a" stroke-width="1.3" d="M935.47,-866.32C935.47,-866.32 862.63,-866.32 862.63,-866.32 856.63,-866.32 850.63,-860.32 850.63,-854.32 850.63,-854.32 850.63,-833.68 850.63,-833.68 850.63,-827.68 856.63,-821.68 862.63,-821.68 862.63,-821.68 935.47,-821.68 935.47,-821.68 941.47,-821.68 947.47,-827.68 947.47,-833.68 947.47,-833.68 947.47,-854.32 947.47,-854.32 947.47,-860.32 941.47,-866.32 935.47,-866.32"/>
<text xml:space="preserve" text-anchor="middle" x="899.05" y="-851.55" font-family="Helvetica,sans-Serif" font-size="11.00">PA (t+1)</text>
<text xml:space="preserve" text-anchor="middle" x="899.05" y="-839.55" font-family="Helvetica,sans-Serif" font-size="11.00">phoneme aware.</text>
<text xml:space="preserve" text-anchor="middle" x="899.05" y="-827.55" font-family="Helvetica,sans-Serif" font-size="11.00">(blending)</text>
</g>
<!-- EV_t&#45;&gt;PA_t1 -->
<g id="edge40" class="edge">
<title>EV_t&#45;&gt;PA_t1</title>
<path fill="none" stroke="#2f9e78" stroke-width="1.15" d="M710,-930.47C746.81,-913.55 801.56,-888.37 842.51,-869.54"/>
<polygon fill="#2f9e78" stroke="#2f9e78" stroke-width="1.15" points="843.33,-871.86 848.66,-866.71 841.28,-867.41 843.33,-871.86"/>
</g>
<!-- WR_t1 -->
<g id="node33" class="node">
<title>WR_t1</title>
<path fill="#cfe0f7" stroke="#2f6fdb" stroke-width="2.6" d="M943.34,-674.32C943.34,-674.32 854.75,-674.32 854.75,-674.32 848.75,-674.32 842.75,-668.32 842.75,-662.32 842.75,-662.32 842.75,-641.68 842.75,-641.68 842.75,-635.68 848.75,-629.68 854.75,-629.68 854.75,-629.68 943.34,-629.68 943.34,-629.68 949.34,-629.68 955.34,-635.68 955.34,-641.68 955.34,-641.68 955.34,-662.32 955.34,-662.32 955.34,-668.32 949.34,-674.32 943.34,-674.32"/>
<text xml:space="preserve" text-anchor="middle" x="899.05" y="-659.55" font-family="Helvetica,sans-Serif" font-weight="bold" font-size="11.00">WR (t+1)</text>
<text xml:space="preserve" text-anchor="middle" x="899.05" y="-647.55" font-family="Helvetica,sans-Serif" font-weight="bold" font-size="11.00">WORD READING</text>
<text xml:space="preserve" text-anchor="middle" x="899.05" y="-635.55" font-family="Helvetica,sans-Serif" font-weight="bold" font-size="11.00">(primary outcome)</text>
</g>
<!-- EV_t&#45;&gt;WR_t1 -->
<g id="edge41" class="edge">
<title>EV_t&#45;&gt;WR_t1</title>
<path fill="none" stroke="#2f9e78" stroke-width="1.15" d="M689.49,-930.51C701.64,-918.78 717.24,-903.03 729.88,-888 745.7,-869.17 835.47,-741.4 876.99,-682.11"/>
<polygon fill="#2f9e78" stroke="#2f9e78" stroke-width="1.15" points="878.8,-683.8 880.81,-676.66 874.79,-680.99 878.8,-683.8"/>
</g>
<!-- HS -->
<g id="node7" class="node">
<title>HS</title>
<path fill="#dfe3ef" stroke="#5560a6" stroke-width="1.3" d="M373.58,-510C373.58,-510 314.24,-510 314.24,-510 308.24,-510 302.24,-504 302.24,-498 302.24,-498 302.24,-486 302.24,-486 302.24,-480 308.24,-474 314.24,-474 314.24,-474 373.58,-474 373.58,-474 379.58,-474 385.58,-480 385.58,-486 385.58,-486 385.58,-498 385.58,-498 385.58,-504 379.58,-510 373.58,-510"/>
<text xml:space="preserve" text-anchor="middle" x="343.91" y="-493.55" font-family="Helvetica,sans-Serif" font-size="11.00">HS</text>
<text xml:space="preserve" text-anchor="middle" x="343.91" y="-481.55" font-family="Helvetica,sans-Serif" font-size="11.00">hearing status</text>
</g>
<!-- HS&#45;&gt;EV_t -->
<g id="edge63" class="edge">
<title>HS&#45;&gt;EV_t</title>
<path fill="none" stroke="#5560a6" stroke-width="1.15" d="M355.51,-510.63C389.02,-568.9 497.02,-751.92 607.54,-888 617.8,-900.65 630.3,-913.63 641.23,-924.36"/>
<polygon fill="#5560a6" stroke="#5560a6" stroke-width="1.15" points="639.48,-926.07 646.21,-929.18 642.89,-922.55 639.48,-926.07"/>
</g>
<!-- HS&#45;&gt;EV_t1 -->
<g id="edge71" class="edge">
<title>HS&#45;&gt;EV_t1</title>
<path fill="none" stroke="#5560a6" stroke-width="1.15" d="M375,-473.52C422.38,-445.62 518.19,-394 607.54,-375 687.8,-357.93 782.34,-377.09 841.24,-393.59"/>
<polygon fill="#5560a6" stroke="#5560a6" stroke-width="1.15" points="840.24,-395.85 847.64,-395.41 841.58,-391.13 840.24,-395.85"/>
</g>
<!-- LS_t -->
<g id="node12" class="node">
<title>LS_t</title>
<path fill="#fdecd2" stroke="#c2872a" stroke-width="1.3" d="M694.25,-826C694.25,-826 643.16,-826 643.16,-826 637.16,-826 631.16,-820 631.16,-814 631.16,-814 631.16,-802 631.16,-802 631.16,-796 637.16,-790 643.16,-790 643.16,-790 694.25,-790 694.25,-790 700.25,-790 706.25,-796 706.25,-802 706.25,-802 706.25,-814 706.25,-814 706.25,-820 700.25,-826 694.25,-826"/>
<text xml:space="preserve" text-anchor="middle" x="668.71" y="-809.55" font-family="Helvetica,sans-Serif" font-size="11.00">LS (t)</text>
<text xml:space="preserve" text-anchor="middle" x="668.71" y="-797.55" font-family="Helvetica,sans-Serif" font-size="11.00">letter–sound</text>
</g>
<!-- HS&#45;&gt;LS_t -->
<g id="edge67" class="edge">
<title>HS&#45;&gt;LS_t</title>
<path fill="none" stroke="#5560a6" stroke-width="1.15" d="M358.17,-510.4C393.91,-559 497.01,-692.81 607.54,-777 612.35,-780.67 617.67,-784.12 623.1,-787.29"/>
<polygon fill="#5560a6" stroke="#5560a6" stroke-width="1.15" points="621.69,-789.31 629,-790.58 624.08,-785.03 621.69,-789.31"/>
</g>
<!-- LS_t1 -->
<g id="node13" class="node">
<title>LS_t1</title>
<path fill="#fdecd2" stroke="#c2872a" stroke-width="1.3" d="M924.59,-1000C924.59,-1000 873.5,-1000 873.5,-1000 867.5,-1000 861.5,-994 861.5,-988 861.5,-988 861.5,-976 861.5,-976 861.5,-970 867.5,-964 873.5,-964 873.5,-964 924.59,-964 924.59,-964 930.59,-964 936.59,-970 936.59,-976 936.59,-976 936.59,-988 936.59,-988 936.59,-994 930.59,-1000 924.59,-1000"/>
<text xml:space="preserve" text-anchor="middle" x="899.05" y="-983.55" font-family="Helvetica,sans-Serif" font-size="11.00">LS (t+1)</text>
<text xml:space="preserve" text-anchor="middle" x="899.05" y="-971.55" font-family="Helvetica,sans-Serif" font-size="11.00">letter–sound</text>
</g>
<!-- HS&#45;&gt;LS_t1 -->
<g id="edge75" class="edge">
<title>HS&#45;&gt;LS_t1</title>
<path fill="none" stroke="#5560a6" stroke-width="1.15" d="M349.2,-510.37C372.77,-609.56 489.75,-1079.75 607.54,-1160 652.47,-1190.62 681.52,-1184.87 729.88,-1160 803.25,-1122.27 774.02,-1061.26 837.88,-1009 842.57,-1005.16 847.89,-1001.76 853.38,-998.77"/>
<polygon fill="#5560a6" stroke="#5560a6" stroke-width="1.15" points="854.24,-1001.08 859.38,-995.74 852.03,-996.71 854.24,-1001.08"/>
</g>
<!-- PA_t -->
<g id="node16" class="node">
<title>PA_t</title>
<path fill="#fdecd2" stroke="#c2872a" stroke-width="1.3" d="M705.12,-650.32C705.12,-650.32 632.29,-650.32 632.29,-650.32 626.29,-650.32 620.29,-644.32 620.29,-638.32 620.29,-638.32 620.29,-617.68 620.29,-617.68 620.29,-611.68 626.29,-605.68 632.29,-605.68 632.29,-605.68 705.12,-605.68 705.12,-605.68 711.12,-605.68 717.12,-611.68 717.12,-617.68 717.12,-617.68 717.12,-638.32 717.12,-638.32 717.12,-644.32 711.12,-650.32 705.12,-650.32"/>
<text xml:space="preserve" text-anchor="middle" x="668.71" y="-635.55" font-family="Helvetica,sans-Serif" font-size="11.00">PA (t)</text>
<text xml:space="preserve" text-anchor="middle" x="668.71" y="-623.55" font-family="Helvetica,sans-Serif" font-size="11.00">phoneme aware.</text>
<text xml:space="preserve" text-anchor="middle" x="668.71" y="-611.55" font-family="Helvetica,sans-Serif" font-size="11.00">(blending)</text>
</g>
<!-- HS&#45;&gt;PA_t -->
<g id="edge66" class="edge">
<title>HS&#45;&gt;PA_t</title>
<path fill="none" stroke="#5560a6" stroke-width="1.15" d="M386.12,-509.36C443.41,-533.5 547.32,-577.28 611.63,-604.37"/>
<polygon fill="#5560a6" stroke="#5560a6" stroke-width="1.15" points="610.65,-606.62 618.05,-607.08 612.55,-602.1 610.65,-606.62"/>
</g>
<!-- HS&#45;&gt;PA_t1 -->
<g id="edge74" class="edge">
<title>HS&#45;&gt;PA_t1</title>
<path fill="none" stroke="#5560a6" stroke-width="1.15" d="M348.11,-510.61C362.17,-585.75 425.98,-867.95 607.54,-976 654.26,-1003.81 678.65,-994.23 729.88,-976 788.21,-955.24 788.87,-925.84 837.88,-888 844.85,-882.61 852.38,-876.97 859.67,-871.6"/>
<polygon fill="#5560a6" stroke="#5560a6" stroke-width="1.15" points="860.68,-873.9 864.87,-867.79 857.78,-869.95 860.68,-873.9"/>
</g>
<!-- RV_t -->
<g id="node22" class="node">
<title>RV_t</title>
<path fill="#d6ebe4" stroke="#2f9e78" stroke-width="1.3" d="M702.12,-194C702.12,-194 635.29,-194 635.29,-194 629.29,-194 623.29,-188 623.29,-182 623.29,-182 623.29,-170 623.29,-170 623.29,-164 629.29,-158 635.29,-158 635.29,-158 702.12,-158 702.12,-158 708.12,-158 714.12,-164 714.12,-170 714.12,-170 714.12,-182 714.12,-182 714.12,-188 708.12,-194 702.12,-194"/>
<text xml:space="preserve" text-anchor="middle" x="668.71" y="-177.55" font-family="Helvetica,sans-Serif" font-size="11.00">RV (t)</text>
<text xml:space="preserve" text-anchor="middle" x="668.71" y="-165.55" font-family="Helvetica,sans-Serif" font-size="11.00">receptive vocab</text>
</g>
<!-- HS&#45;&gt;RV_t -->
<g id="edge61" class="edge">
<title>HS&#45;&gt;RV_t</title>
<path fill="none" stroke="#5560a6" stroke-width="1.15" d="M357.28,-473.55C391.57,-423.62 492.94,-284.05 607.54,-202 610.04,-200.21 612.69,-198.5 615.43,-196.88"/>
<polygon fill="#5560a6" stroke="#5560a6" stroke-width="1.15" points="616.35,-199.17 621.3,-193.65 613.99,-194.88 616.35,-199.17"/>
</g>
<!-- RV_t1 -->
<g id="node23" class="node">
<title>RV_t1</title>
<path fill="#d6ebe4" stroke="#2f9e78" stroke-width="1.3" d="M932.47,-201C932.47,-201 865.63,-201 865.63,-201 859.63,-201 853.63,-195 853.63,-189 853.63,-189 853.63,-177 853.63,-177 853.63,-171 859.63,-165 865.63,-165 865.63,-165 932.47,-165 932.47,-165 938.47,-165 944.47,-171 944.47,-177 944.47,-177 944.47,-189 944.47,-189 944.47,-195 938.47,-201 932.47,-201"/>
<text xml:space="preserve" text-anchor="middle" x="899.05" y="-184.55" font-family="Helvetica,sans-Serif" font-size="11.00">RV (t+1)</text>
<text xml:space="preserve" text-anchor="middle" x="899.05" y="-172.55" font-family="Helvetica,sans-Serif" font-size="11.00">receptive vocab</text>
</g>
<!-- HS&#45;&gt;RV_t1 -->
<g id="edge69" class="edge">
<title>HS&#45;&gt;RV_t1</title>
<path fill="none" stroke="#5560a6" stroke-width="1.15" d="M350.55,-473.67C371.6,-408.83 452.52,-189.78 607.54,-108 655.63,-82.63 676.69,-96.68 729.88,-108 731.47,-108.34 799.83,-138.93 848.89,-160.93"/>
<polygon fill="#5560a6" stroke="#5560a6" stroke-width="1.15" points="847.6,-163.04 854.99,-163.67 849.61,-158.57 847.6,-163.04"/>
</g>
<!-- RW_t -->
<g id="node24" class="node">
<title>RW_t</title>
<path fill="#d6ebe4" stroke="#2f9e78" stroke-width="1.3" d="M702.88,-439.32C702.88,-439.32 634.54,-439.32 634.54,-439.32 628.54,-439.32 622.54,-433.32 622.54,-427.32 622.54,-427.32 622.54,-406.68 622.54,-406.68 622.54,-400.68 628.54,-394.68 634.54,-394.68 634.54,-394.68 702.88,-394.68 702.88,-394.68 708.88,-394.68 714.88,-400.68 714.88,-406.68 714.88,-406.68 714.88,-427.32 714.88,-427.32 714.88,-433.32 708.88,-439.32 702.88,-439.32"/>
<text xml:space="preserve" text-anchor="middle" x="668.71" y="-424.55" font-family="Helvetica,sans-Serif" font-size="11.00">RW (t)</text>
<text xml:space="preserve" text-anchor="middle" x="668.71" y="-412.55" font-family="Helvetica,sans-Serif" font-size="11.00">word repetition</text>
<text xml:space="preserve" text-anchor="middle" x="668.71" y="-400.55" font-family="Helvetica,sans-Serif" font-size="11.00">(phon. memory)</text>
</g>
<!-- HS&#45;&gt;RW_t -->
<g id="edge65" class="edge">
<title>HS&#45;&gt;RW_t</title>
<path fill="none" stroke="#5560a6" stroke-width="1.15" d="M386.12,-482.43C444.03,-468.97 549.55,-444.45 613.68,-429.55"/>
<polygon fill="#5560a6" stroke="#5560a6" stroke-width="1.15" points="614.1,-431.97 620.37,-428 613,-427.2 614.1,-431.97"/>
</g>
<!-- RW_t1 -->
<g id="node25" class="node">
<title>RW_t1</title>
<path fill="#d6ebe4" stroke="#2f9e78" stroke-width="1.3" d="M933.22,-262.32C933.22,-262.32 864.88,-262.32 864.88,-262.32 858.88,-262.32 852.88,-256.32 852.88,-250.32 852.88,-250.32 852.88,-229.68 852.88,-229.68 852.88,-223.68 858.88,-217.68 864.88,-217.68 864.88,-217.68 933.22,-217.68 933.22,-217.68 939.22,-217.68 945.22,-223.68 945.22,-229.68 945.22,-229.68 945.22,-250.32 945.22,-250.32 945.22,-256.32 939.22,-262.32 933.22,-262.32"/>
<text xml:space="preserve" text-anchor="middle" x="899.05" y="-247.55" font-family="Helvetica,sans-Serif" font-size="11.00">RW (t+1)</text>
<text xml:space="preserve" text-anchor="middle" x="899.05" y="-235.55" font-family="Helvetica,sans-Serif" font-size="11.00">word repetition</text>
<text xml:space="preserve" text-anchor="middle" x="899.05" y="-223.55" font-family="Helvetica,sans-Serif" font-size="11.00">(phon. memory)</text>
</g>
<!-- HS&#45;&gt;RW_t1 -->
<g id="edge73" class="edge">
<title>HS&#45;&gt;RW_t1</title>
<path fill="none" stroke="#5560a6" stroke-width="1.15" d="M351.17,-473.73C373.74,-411.09 457.69,-204.66 607.54,-128 655.94,-103.23 678.29,-110.81 729.88,-128 786.8,-146.97 787.03,-177.15 837.88,-209 840.17,-210.43 842.53,-211.86 844.94,-213.27"/>
<polygon fill="#5560a6" stroke="#5560a6" stroke-width="1.15" points="843.44,-215.24 850.74,-216.57 845.87,-210.98 843.44,-215.24"/>
</g>
<!-- SP_t -->
<g id="node26" class="node">
<title>SP_t</title>
<path fill="#fbe1e0" stroke="#d0433f" stroke-width="1.3" d="M717.88,-588.32C717.88,-588.32 619.54,-588.32 619.54,-588.32 613.54,-588.32 607.54,-582.32 607.54,-576.32 607.54,-576.32 607.54,-555.68 607.54,-555.68 607.54,-549.68 613.54,-543.68 619.54,-543.68 619.54,-543.68 717.88,-543.68 717.88,-543.68 723.88,-543.68 729.88,-549.68 729.88,-555.68 729.88,-555.68 729.88,-576.32 729.88,-576.32 729.88,-582.32 723.88,-588.32 717.88,-588.32"/>
<text xml:space="preserve" text-anchor="middle" x="668.71" y="-573.55" font-family="Helvetica,sans-Serif" font-size="11.00">SP (t)</text>
<text xml:space="preserve" text-anchor="middle" x="668.71" y="-561.55" font-family="Helvetica,sans-Serif" font-size="11.00">speech production</text>
<text xml:space="preserve" text-anchor="middle" x="668.71" y="-549.55" font-family="Helvetica,sans-Serif" font-size="11.00">(motor&#45;difficulty proxy)</text>
</g>
<!-- HS&#45;&gt;SP_t -->
<g id="edge64" class="edge">
<title>HS&#45;&gt;SP_t</title>
<path fill="none" stroke="#5560a6" stroke-width="1.15" d="M386.12,-501.45C439.64,-513.72 533.82,-535.31 598.42,-550.12"/>
<polygon fill="#5560a6" stroke="#5560a6" stroke-width="1.15" points="597.87,-552.5 605.24,-551.68 598.96,-547.73 597.87,-552.5"/>
</g>
<!-- SP_t1 -->
<g id="node27" class="node">
<title>SP_t1</title>
<path fill="#fbe1e0" stroke="#d0433f" stroke-width="1.3" d="M948.22,-324.32C948.22,-324.32 849.88,-324.32 849.88,-324.32 843.88,-324.32 837.88,-318.32 837.88,-312.32 837.88,-312.32 837.88,-291.68 837.88,-291.68 837.88,-285.68 843.88,-279.68 849.88,-279.68 849.88,-279.68 948.22,-279.68 948.22,-279.68 954.22,-279.68 960.22,-285.68 960.22,-291.68 960.22,-291.68 960.22,-312.32 960.22,-312.32 960.22,-318.32 954.22,-324.32 948.22,-324.32"/>
<text xml:space="preserve" text-anchor="middle" x="899.05" y="-309.55" font-family="Helvetica,sans-Serif" font-size="11.00">SP (t+1)</text>
<text xml:space="preserve" text-anchor="middle" x="899.05" y="-297.55" font-family="Helvetica,sans-Serif" font-size="11.00">speech production</text>
<text xml:space="preserve" text-anchor="middle" x="899.05" y="-285.55" font-family="Helvetica,sans-Serif" font-size="11.00">(motor&#45;difficulty proxy)</text>
</g>
<!-- HS&#45;&gt;SP_t1 -->
<g id="edge72" class="edge">
<title>HS&#45;&gt;SP_t1</title>
<path fill="none" stroke="#5560a6" stroke-width="1.15" d="M352.01,-473.5C376.39,-412.9 463.29,-220.23 607.54,-149 656.29,-124.93 680.3,-126.68 729.88,-149 795.91,-178.73 780.71,-226.55 837.88,-271 839.38,-272.17 840.94,-273.32 842.54,-274.44"/>
<polygon fill="#5560a6" stroke="#5560a6" stroke-width="1.15" points="841.1,-276.43 848.29,-278.24 843.8,-272.34 841.1,-276.43"/>
</g>
<!-- TE_t -->
<g id="node28" class="node">
<title>TE_t</title>
<path fill="#e7ddf5" stroke="#7a52b3" stroke-width="1.3" d="M706.62,-879C706.62,-879 630.79,-879 630.79,-879 624.79,-879 618.79,-873 618.79,-867 618.79,-867 618.79,-855 618.79,-855 618.79,-849 624.79,-843 630.79,-843 630.79,-843 706.62,-843 706.62,-843 712.62,-843 718.62,-849 718.62,-855 718.62,-855 718.62,-867 718.62,-867 718.62,-873 712.62,-879 706.62,-879"/>
<text xml:space="preserve" text-anchor="middle" x="668.71" y="-862.55" font-family="Helvetica,sans-Serif" font-size="11.00">TE (t)</text>
<text xml:space="preserve" text-anchor="middle" x="668.71" y="-850.55" font-family="Helvetica,sans-Serif" font-size="11.00">taught expressive</text>
</g>
<!-- HS&#45;&gt;TE_t -->
<g id="edge62" class="edge">
<title>HS&#45;&gt;TE_t</title>
<path fill="none" stroke="#5560a6" stroke-width="1.15" d="M354.62,-510.64C384.8,-566.96 482.48,-737.42 607.54,-835 608.85,-836.02 610.21,-837.02 611.6,-837.98"/>
<polygon fill="#5560a6" stroke="#5560a6" stroke-width="1.15" points="610.13,-839.95 617.37,-841.59 612.74,-835.79 610.13,-839.95"/>
</g>
<!-- TE_t1 -->
<g id="node29" class="node">
<title>TE_t1</title>
<path fill="#e7ddf5" stroke="#7a52b3" stroke-width="1.3" d="M936.97,-782C936.97,-782 861.13,-782 861.13,-782 855.13,-782 849.13,-776 849.13,-770 849.13,-770 849.13,-758 849.13,-758 849.13,-752 855.13,-746 861.13,-746 861.13,-746 936.97,-746 936.97,-746 942.97,-746 948.97,-752 948.97,-758 948.97,-758 948.97,-770 948.97,-770 948.97,-776 942.97,-782 936.97,-782"/>
<text xml:space="preserve" text-anchor="middle" x="899.05" y="-765.55" font-family="Helvetica,sans-Serif" font-size="11.00">TE (t+1)</text>
<text xml:space="preserve" text-anchor="middle" x="899.05" y="-753.55" font-family="Helvetica,sans-Serif" font-size="11.00">taught expressive</text>
</g>
<!-- HS&#45;&gt;TE_t1 -->
<g id="edge70" class="edge">
<title>HS&#45;&gt;TE_t1</title>
<path fill="none" stroke="#5560a6" stroke-width="1.15" d="M356.86,-510.63C389.73,-559.99 487.13,-694.01 607.54,-747 682.57,-780.02 779.21,-778.01 839.91,-772.11"/>
<polygon fill="#5560a6" stroke="#5560a6" stroke-width="1.15" points="840.15,-774.55 846.86,-771.4 839.65,-769.68 840.15,-774.55"/>
</g>
<!-- TR_t -->
<g id="node30" class="node">
<title>TR_t</title>
<path fill="#e7ddf5" stroke="#7a52b3" stroke-width="1.3" d="M702.88,-247C702.88,-247 634.54,-247 634.54,-247 628.54,-247 622.54,-241 622.54,-235 622.54,-235 622.54,-223 622.54,-223 622.54,-217 628.54,-211 634.54,-211 634.54,-211 702.88,-211 702.88,-211 708.88,-211 714.88,-217 714.88,-223 714.88,-223 714.88,-235 714.88,-235 714.88,-241 708.88,-247 702.88,-247"/>
<text xml:space="preserve" text-anchor="middle" x="668.71" y="-230.55" font-family="Helvetica,sans-Serif" font-size="11.00">TR (t)</text>
<text xml:space="preserve" text-anchor="middle" x="668.71" y="-218.55" font-family="Helvetica,sans-Serif" font-size="11.00">taught receptive</text>
</g>
<!-- HS&#45;&gt;TR_t -->
<g id="edge60" class="edge">
<title>HS&#45;&gt;TR_t</title>
<path fill="none" stroke="#5560a6" stroke-width="1.15" d="M361.39,-473.44C400.5,-430.31 503.42,-321.89 607.54,-255 609.83,-253.52 612.23,-252.1 614.68,-250.72"/>
<polygon fill="#5560a6" stroke="#5560a6" stroke-width="1.15" points="615.61,-253 620.65,-247.57 613.32,-248.67 615.61,-253"/>
</g>
<!-- TR_t1 -->
<g id="node31" class="node">
<title>TR_t1</title>
<path fill="#e7ddf5" stroke="#7a52b3" stroke-width="1.3" d="M933.22,-483C933.22,-483 864.88,-483 864.88,-483 858.88,-483 852.88,-477 852.88,-471 852.88,-471 852.88,-459 852.88,-459 852.88,-453 858.88,-447 864.88,-447 864.88,-447 933.22,-447 933.22,-447 939.22,-447 945.22,-453 945.22,-459 945.22,-459 945.22,-471 945.22,-471 945.22,-477 939.22,-483 933.22,-483"/>
<text xml:space="preserve" text-anchor="middle" x="899.05" y="-466.55" font-family="Helvetica,sans-Serif" font-size="11.00">TR (t+1)</text>
<text xml:space="preserve" text-anchor="middle" x="899.05" y="-454.55" font-family="Helvetica,sans-Serif" font-size="11.00">taught receptive</text>
</g>
<!-- HS&#45;&gt;TR_t1 -->
<g id="edge68" class="edge">
<title>HS&#45;&gt;TR_t1</title>
<path fill="none" stroke="#5560a6" stroke-width="1.15" d="M374.65,-473.36C439,-435.35 596.17,-354.96 729.88,-386 781.96,-398.09 789.32,-416.61 837.88,-439 840.67,-440.29 843.56,-441.6 846.47,-442.91"/>
<polygon fill="#5560a6" stroke="#5560a6" stroke-width="1.15" points="845.24,-445.05 852.64,-445.65 847.24,-440.57 845.24,-445.05"/>
</g>
<!-- IG -->
<g id="node8" class="node">
<title>IG</title>
<path fill="#dbe8fb" stroke="#2f6fdb" stroke-width="1.3" d="M382.95,-1094.32C382.95,-1094.32 304.86,-1094.32 304.86,-1094.32 298.86,-1094.32 292.86,-1088.32 292.86,-1082.32 292.86,-1082.32 292.86,-1061.68 292.86,-1061.68 292.86,-1055.68 298.86,-1049.68 304.86,-1049.68 304.86,-1049.68 382.95,-1049.68 382.95,-1049.68 388.95,-1049.68 394.95,-1055.68 394.95,-1061.68 394.95,-1061.68 394.95,-1082.32 394.95,-1082.32 394.95,-1088.32 388.95,-1094.32 382.95,-1094.32"/>
<text xml:space="preserve" text-anchor="middle" x="343.91" y="-1079.55" font-family="Helvetica,sans-Serif" font-size="11.00">IG</text>
<text xml:space="preserve" text-anchor="middle" x="343.91" y="-1067.55" font-family="Helvetica,sans-Serif" font-size="11.00">intervention group</text>
<text xml:space="preserve" text-anchor="middle" x="343.91" y="-1055.55" font-family="Helvetica,sans-Serif" font-size="11.00">(randomised)</text>
</g>
<!-- IG&#45;&gt;EG_t1 -->
<g id="edge84" class="edge">
<title>IG&#45;&gt;EG_t1</title>
<path fill="none" stroke="#2f6fdb" stroke-width="1.15" d="M395.57,-1072.62C427.67,-1075.2 468.79,-1082.73 499.53,-1103 570.24,-1149.63 532.57,-1220.58 607.54,-1260 655.66,-1285.31 683.12,-1287.76 729.88,-1260 816.07,-1208.83 764.3,-1130.08 837.88,-1062 839.24,-1060.74 840.68,-1059.52 842.16,-1058.36"/>
<polygon fill="#2f6fdb" stroke="#2f6fdb" stroke-width="1.15" points="843.24,-1060.6 847.58,-1054.58 840.43,-1056.58 843.24,-1060.6"/>
</g>
<!-- IG&#45;&gt;EI_t1 -->
<g id="edge83" class="edge">
<title>IG&#45;&gt;EI_t1</title>
<path fill="none" stroke="#2f6fdb" stroke-width="1.15" d="M395.54,-1070.59C428.45,-1072.24 470.49,-1079.49 499.53,-1103 593.62,-1179.15 506.39,-1286.52 607.54,-1353 652.97,-1382.87 682.23,-1379.19 729.88,-1353 824.57,-1300.94 873.47,-1170.5 890.7,-1114.37"/>
<polygon fill="#2f6fdb" stroke="#2f6fdb" stroke-width="1.15" points="892.95,-1115.41 892.61,-1108 888.25,-1114 892.95,-1115.41"/>
</g>
<!-- IS_t -->
<g id="node9" class="node">
<title>IS_t</title>
<path fill="#dbe8fb" stroke="#2f6fdb" stroke-width="1.3" d="M702.12,-1090C702.12,-1090 635.29,-1090 635.29,-1090 629.29,-1090 623.29,-1084 623.29,-1078 623.29,-1078 623.29,-1066 623.29,-1066 623.29,-1060 629.29,-1054 635.29,-1054 635.29,-1054 702.12,-1054 702.12,-1054 708.12,-1054 714.12,-1060 714.12,-1066 714.12,-1066 714.12,-1078 714.12,-1078 714.12,-1084 708.12,-1090 702.12,-1090"/>
<text xml:space="preserve" text-anchor="middle" x="668.71" y="-1073.55" font-family="Helvetica,sans-Serif" font-size="11.00">IS (t)</text>
<text xml:space="preserve" text-anchor="middle" x="668.71" y="-1061.55" font-family="Helvetica,sans-Serif" font-size="11.00">sessions (dose)</text>
</g>
<!-- IG&#45;&gt;IS_t -->
<g id="edge76" class="edge">
<title>IG&#45;&gt;IS_t</title>
<path fill="none" stroke="#2f6fdb" stroke-width="1.15" d="M395.35,-1072C454.84,-1072 553.31,-1072 614.13,-1072"/>
<polygon fill="#2f6fdb" stroke="#2f6fdb" stroke-width="1.15" points="614.08,-1074.45 621.08,-1072 614.08,-1069.55 614.08,-1074.45"/>
</g>
<!-- IG&#45;&gt;LS_t1 -->
<g id="edge80" class="edge">
<title>IG&#45;&gt;LS_t1</title>
<path fill="none" stroke="#2f6fdb" stroke-width="1.15" d="M395.48,-1073.98C427.16,-1077.13 467.85,-1084.77 499.53,-1103 562.31,-1139.11 541.5,-1195.27 607.54,-1225 657.11,-1247.32 683.62,-1253.59 729.88,-1225 821.18,-1168.57 760.41,-1083.29 837.88,-1009 842.36,-1004.7 847.66,-1001 853.21,-997.85"/>
<polygon fill="#2f6fdb" stroke="#2f6fdb" stroke-width="1.15" points="854.24,-1000.08 859.34,-994.69 852,-995.72 854.24,-1000.08"/>
</g>
<!-- IG&#45;&gt;PA_t1 -->
<g id="edge79" class="edge">
<title>IG&#45;&gt;PA_t1</title>
<path fill="none" stroke="#2f6fdb" stroke-width="1.15" d="M395.41,-1067.43C486.23,-1058.55 672.96,-1037.07 729.88,-1006 792.28,-971.93 784.92,-935.44 837.88,-888 844.02,-882.5 850.84,-877 857.61,-871.86"/>
<polygon fill="#2f6fdb" stroke="#2f6fdb" stroke-width="1.15" points="858.79,-874.03 862.94,-867.88 855.86,-870.1 858.79,-874.03"/>
</g>
<!-- PS_t1 -->
<g id="node19" class="node">
<title>PS_t1</title>
<path fill="#fdecd2" stroke="#c2872a" stroke-width="2.2" d="M934.72,-941.32C934.72,-941.32 863.38,-941.32 863.38,-941.32 857.38,-941.32 851.38,-935.32 851.38,-929.32 851.38,-929.32 851.38,-908.68 851.38,-908.68 851.38,-902.68 857.38,-896.68 863.38,-896.68 863.38,-896.68 934.72,-896.68 934.72,-896.68 940.72,-896.68 946.72,-902.68 946.72,-908.68 946.72,-908.68 946.72,-929.32 946.72,-929.32 946.72,-935.32 940.72,-941.32 934.72,-941.32"/>
<text xml:space="preserve" text-anchor="middle" x="899.05" y="-926.55" font-family="Helvetica,sans-Serif" font-size="11.00">PS (t+1)</text>
<text xml:space="preserve" text-anchor="middle" x="899.05" y="-914.55" font-family="Helvetica,sans-Serif" font-size="11.00">phonetic spelling</text>
<text xml:space="preserve" text-anchor="middle" x="899.05" y="-902.55" font-family="Helvetica,sans-Serif" font-size="11.00">(outcome)</text>
</g>
<!-- IG&#45;&gt;PS_t1 -->
<g id="edge82" class="edge">
<title>IG&#45;&gt;PS_t1</title>
<path fill="none" stroke="#2f6fdb" stroke-width="1.15" d="M395.33,-1078.36C426.05,-1083.14 465.74,-1090.98 499.53,-1103 550.67,-1121.19 554.85,-1146.95 607.54,-1160 660.31,-1173.07 683.29,-1188.05 729.88,-1160 817.76,-1107.08 767.71,-1030.84 837.88,-956 840.66,-953.03 843.74,-950.2 846.99,-947.53"/>
<polygon fill="#2f6fdb" stroke="#2f6fdb" stroke-width="1.15" points="848.4,-949.54 852.47,-943.35 845.42,-945.65 848.4,-949.54"/>
</g>
<!-- IG&#45;&gt;TE_t1 -->
<g id="edge78" class="edge">
<title>IG&#45;&gt;TE_t1</title>
<path fill="none" stroke="#2f6fdb" stroke-width="1.15" d="M378.82,-1049.26C427.61,-1017.37 521.25,-959.21 607.54,-923 659.68,-901.11 679.12,-912.96 729.88,-888 758.8,-873.78 828.61,-819.54 868.6,-787.7"/>
<polygon fill="#2f6fdb" stroke="#2f6fdb" stroke-width="1.15" points="869.93,-789.78 873.87,-783.5 866.87,-785.95 869.93,-789.78"/>
</g>
<!-- IG&#45;&gt;TR_t1 -->
<g id="edge77" class="edge">
<title>IG&#45;&gt;TR_t1</title>
<path fill="none" stroke="#2f6fdb" stroke-width="1.15" d="M346.96,-1049.28C356.44,-959.01 404.71,-623.74 607.54,-483 644.44,-457.39 770.18,-458.67 843.58,-461.84"/>
<polygon fill="#2f6fdb" stroke="#2f6fdb" stroke-width="1.15" points="843.42,-464.29 850.53,-462.16 843.64,-459.39 843.42,-464.29"/>
</g>
<!-- IG&#45;&gt;WR_t1 -->
<g id="edge81" class="edge">
<title>IG&#45;&gt;WR_t1</title>
<path fill="none" stroke="#2f6fdb" stroke-width="1.15" d="M353.11,-1049.28C378.7,-981.95 464.11,-782.64 607.54,-694 644.21,-671.33 759.35,-660.28 833.18,-655.39"/>
<polygon fill="#2f6fdb" stroke="#2f6fdb" stroke-width="1.15" points="832.97,-657.86 839.79,-654.97 832.65,-652.97 832.97,-657.86"/>
</g>
<!-- IS_t&#45;&gt;EG_t1 -->
<g id="edge92" class="edge">
<title>IS_t&#45;&gt;EG_t1</title>
<path fill="none" stroke="#2f6fdb" stroke-width="1.15" d="M714.55,-1064.73C748.48,-1059.24 795.55,-1051.61 833.53,-1045.45"/>
<polygon fill="#2f6fdb" stroke="#2f6fdb" stroke-width="1.15" points="833.74,-1047.9 840.26,-1044.36 832.96,-1043.06 833.74,-1047.9"/>
</g>
<!-- IS_t&#45;&gt;EI_t1 -->
<g id="edge91" class="edge">
<title>IS_t&#45;&gt;EI_t1</title>
<path fill="none" stroke="#2f6fdb" stroke-width="1.15" d="M714.55,-1075.14C752.5,-1077.8 806.9,-1081.61 846.62,-1084.4"/>
<polygon fill="#2f6fdb" stroke="#2f6fdb" stroke-width="1.15" points="845.96,-1086.81 853.12,-1084.85 846.31,-1081.92 845.96,-1086.81"/>
</g>
<!-- IS_t&#45;&gt;LS_t1 -->
<g id="edge88" class="edge">
<title>IS_t&#45;&gt;LS_t1</title>
<path fill="none" stroke="#2f6fdb" stroke-width="1.15" d="M714.55,-1054.33C754.52,-1038.57 812.75,-1015.62 852.84,-999.82"/>
<polygon fill="#2f6fdb" stroke="#2f6fdb" stroke-width="1.15" points="853.62,-1002.14 859.23,-997.3 851.82,-997.59 853.62,-1002.14"/>
</g>
<!-- IS_t&#45;&gt;PA_t1 -->
<g id="edge87" class="edge">
<title>IS_t&#45;&gt;PA_t1</title>
<path fill="none" stroke="#2f6fdb" stroke-width="1.15" d="M712.15,-1053.45C718.42,-1049.79 724.56,-1045.63 729.88,-1041 792.67,-986.37 779.51,-947.35 837.88,-888 843.34,-882.44 849.56,-877.07 855.88,-872.09"/>
<polygon fill="#2f6fdb" stroke="#2f6fdb" stroke-width="1.15" points="857.28,-874.11 861.37,-867.92 854.31,-870.21 857.28,-874.11"/>
</g>
<!-- IS_t&#45;&gt;PS_t1 -->
<g id="edge90" class="edge">
<title>IS_t&#45;&gt;PS_t1</title>
<path fill="none" stroke="#2f6fdb" stroke-width="1.15" d="M708.52,-1053.39C715.76,-1049.53 723.15,-1045.32 729.88,-1041 781.26,-1007.97 787.78,-990.95 837.88,-956 842.23,-952.96 846.84,-949.89 851.48,-946.89"/>
<polygon fill="#2f6fdb" stroke="#2f6fdb" stroke-width="1.15" points="852.73,-949 857.31,-943.17 850.09,-944.87 852.73,-949"/>
</g>
<!-- IS_t&#45;&gt;TE_t1 -->
<g id="edge86" class="edge">
<title>IS_t&#45;&gt;TE_t1</title>
<path fill="none" stroke="#2f6fdb" stroke-width="1.15" d="M681.22,-1053.55C716.02,-997.89 818.89,-834.14 837.88,-813 845.91,-804.05 855.67,-795.38 864.96,-787.88"/>
<polygon fill="#2f6fdb" stroke="#2f6fdb" stroke-width="1.15" points="866.26,-789.97 870.25,-783.72 863.23,-786.12 866.26,-789.97"/>
</g>
<!-- IS_t&#45;&gt;TR_t1 -->
<g id="edge85" class="edge">
<title>IS_t&#45;&gt;TR_t1</title>
<path fill="none" stroke="#2f6fdb" stroke-width="1.15" d="M683.81,-1053.5C697.41,-1034.85 717.66,-1004.79 729.88,-976 807.86,-792.23 749.34,-718.93 837.88,-540 846.97,-521.61 861.2,-503.6 873.54,-489.83"/>
<polygon fill="#2f6fdb" stroke="#2f6fdb" stroke-width="1.15" points="875.31,-491.53 878.24,-484.71 871.7,-488.21 875.31,-491.53"/>
</g>
<!-- IS_t&#45;&gt;WR_t1 -->
<g id="edge89" class="edge">
<title>IS_t&#45;&gt;WR_t1</title>
<path fill="none" stroke="#2f6fdb" stroke-width="1.15" d="M682.22,-1053.68C694.95,-1034.68 714.89,-1003.9 729.88,-976 784.84,-873.67 780.34,-838.91 837.88,-738 848.93,-718.61 863.19,-698.08 875.04,-681.95"/>
<polygon fill="#2f6fdb" stroke="#2f6fdb" stroke-width="1.15" points="876.72,-683.8 878.93,-676.72 872.79,-680.88 876.72,-683.8"/>
</g>
<!-- LF_t -->
<g id="node10" class="node">
<title>LF_t</title>
<path fill="#eceef1" stroke="#9aa0a8" stroke-width="1.3" d="M700.25,-36C700.25,-36 637.16,-36 637.16,-36 631.16,-36 625.16,-30 625.16,-24 625.16,-24 625.16,-12 625.16,-12 625.16,-6 631.16,0 637.16,0 637.16,0 700.25,0 700.25,0 706.25,0 712.25,-6 712.25,-12 712.25,-12 712.25,-24 712.25,-24 712.25,-30 706.25,-36 700.25,-36"/>
<text xml:space="preserve" text-anchor="middle" x="668.71" y="-19.55" font-family="Helvetica,sans-Serif" font-size="11.00">LF (t)</text>
<text xml:space="preserve" text-anchor="middle" x="668.71" y="-7.55" font-family="Helvetica,sans-Serif" font-size="11.00">language fund.</text>
</g>
<!-- LF_t1 -->
<g id="node11" class="node">
<title>LF_t1</title>
<path fill="#eceef1" stroke="#9aa0a8" stroke-width="1.3" d="M930.59,-148C930.59,-148 867.5,-148 867.5,-148 861.5,-148 855.5,-142 855.5,-136 855.5,-136 855.5,-124 855.5,-124 855.5,-118 861.5,-112 867.5,-112 867.5,-112 930.59,-112 930.59,-112 936.59,-112 942.59,-118 942.59,-124 942.59,-124 942.59,-136 942.59,-136 942.59,-142 936.59,-148 930.59,-148"/>
<text xml:space="preserve" text-anchor="middle" x="899.05" y="-131.55" font-family="Helvetica,sans-Serif" font-size="11.00">LF (t+1)</text>
<text xml:space="preserve" text-anchor="middle" x="899.05" y="-119.55" font-family="Helvetica,sans-Serif" font-size="11.00">language fund.</text>
</g>
<!-- LF_t&#45;&gt;LF_t1 -->
<g id="edge5" class="edge">
<title>LF_t&#45;&gt;LF_t1</title>
<path fill="none" stroke="#b9bec6" d="M707.67,-36.62C747.62,-56.22 810.5,-87.06 852.96,-107.88"/>
<polygon fill="#b9bec6" stroke="#b9bec6" points="851.65,-109.97 859.01,-110.86 853.81,-105.57 851.65,-109.97"/>
</g>
<!-- LS_t&#45;&gt;LS_t1 -->
<g id="edge11" class="edge">
<title>LS_t&#45;&gt;LS_t1</title>
<path fill="none" stroke="#b9bec6" d="M706.61,-821.78C714.61,-825.52 722.79,-829.95 729.88,-835 786.97,-875.7 782.17,-907.41 837.88,-950 842.83,-953.79 848.3,-957.38 853.86,-960.68"/>
<polygon fill="#b9bec6" stroke="#b9bec6" points="852.31,-962.62 859.6,-963.96 854.74,-958.36 852.31,-962.62"/>
</g>
<!-- NW_t1 -->
<g id="node15" class="node">
<title>NW_t1</title>
<path fill="#fdecd2" stroke="#c2872a" stroke-width="1.3" d="M935.47,-584C935.47,-584 862.63,-584 862.63,-584 856.63,-584 850.63,-578 850.63,-572 850.63,-572 850.63,-560 850.63,-560 850.63,-554 856.63,-548 862.63,-548 862.63,-548 935.47,-548 935.47,-548 941.47,-548 947.47,-554 947.47,-560 947.47,-560 947.47,-572 947.47,-572 947.47,-578 941.47,-584 935.47,-584"/>
<text xml:space="preserve" text-anchor="middle" x="899.05" y="-567.55" font-family="Helvetica,sans-Serif" font-size="11.00">NW (t+1)</text>
<text xml:space="preserve" text-anchor="middle" x="899.05" y="-555.55" font-family="Helvetica,sans-Serif" font-size="11.00">nonword reading</text>
</g>
<!-- LS_t&#45;&gt;NW_t1 -->
<g id="edge47" class="edge">
<title>LS_t&#45;&gt;NW_t1</title>
<path fill="none" stroke="#c2872a" stroke-width="1.15" d="M688.75,-789.37C700.76,-777.46 716.48,-761.56 729.88,-747 779.8,-692.71 786.56,-673.98 837.88,-621 848.07,-610.48 859.86,-599.47 870.28,-590.09"/>
<polygon fill="#c2872a" stroke="#c2872a" stroke-width="1.15" points="871.68,-592.13 875.27,-585.64 868.42,-588.47 871.68,-592.13"/>
</g>
<!-- LS_t&#45;&gt;PA_t1 -->
<g id="edge48" class="edge">
<title>LS_t&#45;&gt;PA_t1</title>
<path fill="none" stroke="#c2872a" stroke-width="1.15" d="M706.9,-813.86C743.43,-819.62 799.65,-828.49 841.67,-835.11"/>
<polygon fill="#c2872a" stroke="#c2872a" stroke-width="1.15" points="841.13,-837.51 848.42,-836.18 841.89,-832.67 841.13,-837.51"/>
</g>
<!-- LS_t&#45;&gt;PS_t1 -->
<g id="edge49" class="edge">
<title>LS_t&#45;&gt;PS_t1</title>
<path fill="none" stroke="#c2872a" stroke-width="1.15" d="M706.73,-824.32C714.41,-827.79 722.43,-831.47 729.88,-835 768.65,-853.37 811.94,-875.03 844.9,-891.75"/>
<polygon fill="#c2872a" stroke="#c2872a" stroke-width="1.15" points="843.71,-893.89 851.06,-894.88 845.93,-889.53 843.71,-893.89"/>
</g>
<!-- LS_t&#45;&gt;WR_t1 -->
<g id="edge50" class="edge">
<title>LS_t&#45;&gt;WR_t1</title>
<path fill="none" stroke="#c2872a" stroke-width="1.15" d="M696.8,-789.49C736.27,-762.53 809.93,-712.2 856.34,-680.49"/>
<polygon fill="#c2872a" stroke="#c2872a" stroke-width="1.15" points="857.72,-682.52 862.11,-676.55 854.95,-678.47 857.72,-682.52"/>
</g>
<!-- NW_t -->
<g id="node14" class="node">
<title>NW_t</title>
<path fill="#fdecd2" stroke="#c2872a" stroke-width="1.3" d="M705.12,-527C705.12,-527 632.29,-527 632.29,-527 626.29,-527 620.29,-521 620.29,-515 620.29,-515 620.29,-503 620.29,-503 620.29,-497 626.29,-491 632.29,-491 632.29,-491 705.12,-491 705.12,-491 711.12,-491 717.12,-497 717.12,-503 717.12,-503 717.12,-515 717.12,-515 717.12,-521 711.12,-527 705.12,-527"/>
<text xml:space="preserve" text-anchor="middle" x="668.71" y="-510.55" font-family="Helvetica,sans-Serif" font-size="11.00">NW (t)</text>
<text xml:space="preserve" text-anchor="middle" x="668.71" y="-498.55" font-family="Helvetica,sans-Serif" font-size="11.00">nonword reading</text>
</g>
<!-- NW_t&#45;&gt;NW_t1 -->
<g id="edge12" class="edge">
<title>NW_t&#45;&gt;NW_t1</title>
<path fill="none" stroke="#b9bec6" d="M717.57,-520.95C753.96,-530.03 804.09,-542.55 842.28,-552.08"/>
<polygon fill="#b9bec6" stroke="#b9bec6" points="841.39,-554.38 848.77,-553.7 842.57,-549.63 841.39,-554.38"/>
</g>
<!-- NW_t&#45;&gt;WR_t1 -->
<g id="edge51" class="edge">
<title>NW_t&#45;&gt;WR_t1</title>
<path fill="none" stroke="#c2872a" stroke-width="1.15" d="M715.51,-527.64C720.43,-529.98 725.3,-532.45 729.88,-535 777.46,-561.48 828.28,-598.14 861.44,-623.33"/>
<polygon fill="#c2872a" stroke="#c2872a" stroke-width="1.15" points="859.81,-625.16 866.86,-627.46 862.79,-621.27 859.81,-625.16"/>
</g>
<!-- PA_t&#45;&gt;NW_t1 -->
<g id="edge52" class="edge">
<title>PA_t&#45;&gt;NW_t1</title>
<path fill="none" stroke="#c2872a" stroke-width="1.15" d="M717.57,-615C753.96,-605.12 804.09,-591.51 842.28,-581.14"/>
<polygon fill="#c2872a" stroke="#c2872a" stroke-width="1.15" points="842.45,-583.63 848.56,-579.44 841.16,-578.91 842.45,-583.63"/>
</g>
<!-- PA_t&#45;&gt;PA_t1 -->
<g id="edge13" class="edge">
<title>PA_t&#45;&gt;PA_t1</title>
<path fill="none" stroke="#b9bec6" d="M692.49,-650.76C724.52,-682.6 784.87,-742.02 837.88,-791 846.6,-799.06 856.18,-807.63 865.1,-815.48"/>
<polygon fill="#b9bec6" stroke="#b9bec6" points="863.43,-817.28 870.3,-820.05 866.66,-813.59 863.43,-817.28"/>
</g>
<!-- PA_t&#45;&gt;PS_t1 -->
<g id="edge54" class="edge">
<title>PA_t&#45;&gt;PS_t1</title>
<path fill="none" stroke="#c2872a" stroke-width="1.15" d="M692.64,-650.83C704.41,-663.11 718.6,-678.81 729.88,-694 785.71,-769.22 774.8,-805.74 837.88,-875 842.76,-880.36 848.39,-885.49 854.21,-890.22"/>
<polygon fill="#c2872a" stroke="#c2872a" stroke-width="1.15" points="852.69,-892.14 859.71,-894.52 855.7,-888.28 852.69,-892.14"/>
</g>
<!-- PA_t&#45;&gt;WR_t1 -->
<g id="edge53" class="edge">
<title>PA_t&#45;&gt;WR_t1</title>
<path fill="none" stroke="#c2872a" stroke-width="1.15" d="M717.57,-633.03C751.11,-636.56 796.32,-641.31 833.11,-645.17"/>
<polygon fill="#c2872a" stroke="#c2872a" stroke-width="1.15" points="832.83,-647.61 840.05,-645.9 833.34,-642.74 832.83,-647.61"/>
</g>
<!-- PS_t -->
<g id="node18" class="node">
<title>PS_t</title>
<path fill="#fdecd2" stroke="#c2872a" stroke-width="2.2" d="M704.38,-1151.32C704.38,-1151.32 633.04,-1151.32 633.04,-1151.32 627.04,-1151.32 621.04,-1145.32 621.04,-1139.32 621.04,-1139.32 621.04,-1118.68 621.04,-1118.68 621.04,-1112.68 627.04,-1106.68 633.04,-1106.68 633.04,-1106.68 704.38,-1106.68 704.38,-1106.68 710.38,-1106.68 716.38,-1112.68 716.38,-1118.68 716.38,-1118.68 716.38,-1139.32 716.38,-1139.32 716.38,-1145.32 710.38,-1151.32 704.38,-1151.32"/>
<text xml:space="preserve" text-anchor="middle" x="668.71" y="-1136.55" font-family="Helvetica,sans-Serif" font-size="11.00">PS (t)</text>
<text xml:space="preserve" text-anchor="middle" x="668.71" y="-1124.55" font-family="Helvetica,sans-Serif" font-size="11.00">phonetic spelling</text>
<text xml:space="preserve" text-anchor="middle" x="668.71" y="-1112.55" font-family="Helvetica,sans-Serif" font-size="11.00">(outcome)</text>
</g>
<!-- PS_t&#45;&gt;PS_t1 -->
<g id="edge14" class="edge">
<title>PS_t&#45;&gt;PS_t1</title>
<path fill="none" stroke="#b9bec6" d="M717.33,-1107.92C721.75,-1105.18 726.01,-1102.21 729.88,-1099 791.14,-1048.1 778.93,-1009.56 837.88,-956 841.22,-952.96 844.85,-950.03 848.62,-947.23"/>
<polygon fill="#b9bec6" stroke="#b9bec6" points="849.96,-949.28 854.27,-943.24 847.14,-945.28 849.96,-949.28"/>
</g>
<!-- RG_t -->
<g id="node20" class="node">
<title>RG_t</title>
<path fill="#eceef1" stroke="#9aa0a8" stroke-width="1.3" d="M709.62,-738C709.62,-738 627.79,-738 627.79,-738 621.79,-738 615.79,-732 615.79,-726 615.79,-726 615.79,-714 615.79,-714 615.79,-708 621.79,-702 627.79,-702 627.79,-702 709.62,-702 709.62,-702 715.62,-702 721.62,-708 721.62,-714 721.62,-714 721.62,-726 721.62,-726 721.62,-732 715.62,-738 709.62,-738"/>
<text xml:space="preserve" text-anchor="middle" x="668.71" y="-721.55" font-family="Helvetica,sans-Serif" font-size="11.00">RG (t)</text>
<text xml:space="preserve" text-anchor="middle" x="668.71" y="-709.55" font-family="Helvetica,sans-Serif" font-size="11.00">receptive grammar</text>
</g>
<!-- RG_t&#45;&gt;EG_t1 -->
<g id="edge55" class="edge">
<title>RG_t&#45;&gt;EG_t1</title>
<path fill="none" stroke="#9aa0a8" stroke-width="1.15" d="M691,-738.64C703.41,-750.25 718.75,-765.99 729.88,-782 793.63,-873.75 757.46,-931.44 837.88,-1009 838.68,-1009.78 839.51,-1010.53 840.37,-1011.27"/>
<polygon fill="#9aa0a8" stroke="#9aa0a8" stroke-width="1.15" points="838.89,-1013.22 845.96,-1015.46 841.83,-1009.3 838.89,-1013.22"/>
</g>
<!-- RG_t1 -->
<g id="node21" class="node">
<title>RG_t1</title>
<path fill="#eceef1" stroke="#9aa0a8" stroke-width="1.3" d="M939.97,-377C939.97,-377 858.13,-377 858.13,-377 852.13,-377 846.13,-371 846.13,-365 846.13,-365 846.13,-353 846.13,-353 846.13,-347 852.13,-341 858.13,-341 858.13,-341 939.97,-341 939.97,-341 945.97,-341 951.97,-347 951.97,-353 951.97,-353 951.97,-365 951.97,-365 951.97,-371 945.97,-377 939.97,-377"/>
<text xml:space="preserve" text-anchor="middle" x="899.05" y="-360.55" font-family="Helvetica,sans-Serif" font-size="11.00">RG (t+1)</text>
<text xml:space="preserve" text-anchor="middle" x="899.05" y="-348.55" font-family="Helvetica,sans-Serif" font-size="11.00">receptive grammar</text>
</g>
<!-- RG_t&#45;&gt;RG_t1 -->
<g id="edge6" class="edge">
<title>RG_t&#45;&gt;RG_t1</title>
<path fill="none" stroke="#b9bec6" d="M691.99,-701.46C704.44,-690.2 719.48,-674.95 729.88,-659 801.12,-549.69 747.71,-480.32 837.88,-386 839,-384.82 840.19,-383.69 841.43,-382.6"/>
<polygon fill="#b9bec6" stroke="#b9bec6" points="842.74,-384.68 846.8,-378.47 839.76,-380.8 842.74,-384.68"/>
</g>
<!-- RV_t&#45;&gt;EV_t1 -->
<g id="edge34" class="edge">
<title>RV_t&#45;&gt;EV_t1</title>
<path fill="none" stroke="#2f9e78" stroke-width="1.15" d="M714.68,-191.58C720.13,-194.55 725.36,-198.01 729.88,-202 800.92,-264.81 766.83,-323.19 837.88,-386 839.3,-387.26 840.79,-388.46 842.33,-389.61"/>
<polygon fill="#2f9e78" stroke="#2f9e78" stroke-width="1.15" points="840.78,-391.52 847.96,-393.36 843.49,-387.44 840.78,-391.52"/>
</g>
<!-- RV_t&#45;&gt;LF_t1 -->
<g id="edge35" class="edge">
<title>RV_t&#45;&gt;LF_t1</title>
<path fill="none" stroke="#2f9e78" stroke-width="1.15" d="M714.55,-166.97C752.5,-159.32 806.9,-148.36 846.62,-140.36"/>
<polygon fill="#2f9e78" stroke="#2f9e78" stroke-width="1.15" points="846.77,-142.83 853.15,-139.04 845.8,-138.03 846.77,-142.83"/>
</g>
<!-- RV_t&#45;&gt;RG_t1 -->
<g id="edge36" class="edge">
<title>RV_t&#45;&gt;RG_t1</title>
<path fill="none" stroke="#2f9e78" stroke-width="1.15" d="M714.74,-192.61C720.06,-195.38 725.24,-198.51 729.88,-202 790.19,-247.34 777.56,-287.66 837.88,-333 839.21,-334 840.58,-334.97 841.99,-335.91"/>
<polygon fill="#2f9e78" stroke="#2f9e78" stroke-width="1.15" points="840.55,-337.9 847.8,-339.47 843.11,-333.72 840.55,-337.9"/>
</g>
<!-- RV_t&#45;&gt;RV_t1 -->
<g id="edge3" class="edge">
<title>RV_t&#45;&gt;RV_t1</title>
<path fill="none" stroke="#b9bec6" d="M714.55,-177.37C752.01,-178.52 805.51,-180.16 845.09,-181.38"/>
<polygon fill="#b9bec6" stroke="#b9bec6" points="844.72,-183.82 851.79,-181.58 844.87,-178.92 844.72,-183.82"/>
</g>
<!-- RV_t&#45;&gt;WR_t1 -->
<g id="edge37" class="edge">
<title>RV_t&#45;&gt;WR_t1</title>
<path fill="none" stroke="#2f9e78" stroke-width="1.15" d="M714.53,-189.84C720.27,-193.1 725.62,-197.11 729.88,-202 848.24,-337.99 746.37,-437.66 837.88,-593 844.21,-603.75 853.01,-613.89 861.92,-622.63"/>
<polygon fill="#2f9e78" stroke="#2f9e78" stroke-width="1.15" points="860.04,-624.23 866.81,-627.25 863.4,-620.67 860.04,-624.23"/>
</g>
<!-- RW_t&#45;&gt;EV_t1 -->
<g id="edge28" class="edge">
<title>RW_t&#45;&gt;EV_t1</title>
<path fill="none" stroke="#2f9e78" stroke-width="1.15" d="M715.36,-416C751.42,-415.21 801.95,-414.1 840.72,-413.26"/>
<polygon fill="#2f9e78" stroke="#2f9e78" stroke-width="1.15" points="840.62,-415.71 847.57,-413.11 840.52,-410.81 840.62,-415.71"/>
</g>
<!-- RW_t&#45;&gt;NW_t1 -->
<g id="edge32" class="edge">
<title>RW_t&#45;&gt;NW_t1</title>
<path fill="none" stroke="#2f9e78" stroke-width="1.15" d="M704.88,-439.95C747.69,-467.89 819.56,-514.79 862.53,-542.82"/>
<polygon fill="#2f9e78" stroke="#2f9e78" stroke-width="1.15" points="861.02,-544.77 868.22,-546.54 863.7,-540.66 861.02,-544.77"/>
</g>
<!-- RW_t&#45;&gt;PA_t1 -->
<g id="edge31" class="edge">
<title>RW_t&#45;&gt;PA_t1</title>
<path fill="none" stroke="#2f9e78" stroke-width="1.15" d="M694.83,-439.86C706.75,-451.78 720.42,-467.16 729.88,-483 804.24,-607.55 756.81,-670.7 837.88,-791 843.95,-800.02 851.92,-808.46 860.06,-815.85"/>
<polygon fill="#2f9e78" stroke="#2f9e78" stroke-width="1.15" points="858.09,-817.38 864.98,-820.14 861.31,-813.69 858.09,-817.38"/>
</g>
<!-- RW_t&#45;&gt;PS_t1 -->
<g id="edge33" class="edge">
<title>RW_t&#45;&gt;PS_t1</title>
<path fill="none" stroke="#2f9e78" stroke-width="1.15" d="M695.61,-439.89C707.56,-451.7 721.04,-466.98 729.88,-483 817.15,-641.24 735.22,-726.27 837.88,-875 841.65,-880.47 846.33,-885.51 851.4,-890.08"/>
<polygon fill="#2f9e78" stroke="#2f9e78" stroke-width="1.15" points="849.72,-891.87 856.66,-894.49 852.87,-888.12 849.72,-891.87"/>
</g>
<!-- RW_t&#45;&gt;RV_t1 -->
<g id="edge30" class="edge">
<title>RW_t&#45;&gt;RV_t1</title>
<path fill="none" stroke="#2f9e78" stroke-width="1.15" d="M682.86,-394.28C708.08,-352.49 767.05,-262.77 837.88,-209 840.33,-207.14 842.94,-205.37 845.64,-203.72"/>
<polygon fill="#2f9e78" stroke="#2f9e78" stroke-width="1.15" points="846.58,-206 851.47,-200.42 844.17,-201.74 846.58,-206"/>
</g>
<!-- RW_t&#45;&gt;RW_t1 -->
<g id="edge7" class="edge">
<title>RW_t&#45;&gt;RW_t1</title>
<path fill="none" stroke="#b9bec6" d="M692.47,-394.06C723.51,-363.55 781.69,-309.05 837.88,-271 840.3,-269.35 842.83,-267.74 845.42,-266.15"/>
<polygon fill="#b9bec6" stroke="#b9bec6" points="846.27,-268.49 851.05,-262.83 843.78,-264.27 846.27,-268.49"/>
</g>
<!-- RW_t&#45;&gt;TE_t1 -->
<g id="edge27" class="edge">
<title>RW_t&#45;&gt;TE_t1</title>
<path fill="none" stroke="#2f9e78" stroke-width="1.15" d="M693.2,-439.94C704.98,-452.12 719.02,-467.7 729.88,-483 788.34,-565.38 783.61,-597.79 837.88,-683 850.2,-702.35 865.66,-723.1 877.82,-738.75"/>
<polygon fill="#2f9e78" stroke="#2f9e78" stroke-width="1.15" points="875.83,-740.19 882.08,-744.19 879.69,-737.17 875.83,-740.19"/>
</g>
<!-- RW_t&#45;&gt;TR_t1 -->
<g id="edge29" class="edge">
<title>RW_t&#45;&gt;TR_t1</title>
<path fill="none" stroke="#2f9e78" stroke-width="1.15" d="M715.36,-426.6C752.54,-434.41 805.11,-445.46 844.31,-453.7"/>
<polygon fill="#2f9e78" stroke="#2f9e78" stroke-width="1.15" points="843.41,-456.02 850.76,-455.06 844.42,-451.22 843.41,-456.02"/>
</g>
<!-- SP_t&#45;&gt;EV_t1 -->
<g id="edge43" class="edge">
<title>SP_t&#45;&gt;EV_t1</title>
<path fill="none" stroke="#d0433f" stroke-width="1.15" d="M718.63,-543.03C722.51,-540.78 726.3,-538.43 729.88,-536 783.23,-499.72 783.8,-474.18 837.88,-439 840.18,-437.5 842.58,-436.05 845.04,-434.64"/>
<polygon fill="#d0433f" stroke="#d0433f" stroke-width="1.15" points="846.03,-436.89 851.02,-431.4 843.7,-432.58 846.03,-436.89"/>
</g>
<!-- SP_t&#45;&gt;LS_t1 -->
<g id="edge44" class="edge">
<title>SP_t&#45;&gt;LS_t1</title>
<path fill="none" stroke="#d0433f" stroke-width="1.15" d="M721.47,-588.81C724.54,-591.3 727.39,-594.02 729.88,-597 835.07,-722.91 733.51,-823.41 837.88,-950 842.31,-955.38 847.89,-959.98 853.86,-963.87"/>
<polygon fill="#d0433f" stroke="#d0433f" stroke-width="1.15" points="852.23,-965.75 859.5,-967.23 854.74,-961.54 852.23,-965.75"/>
</g>
<!-- SP_t&#45;&gt;NW_t1 -->
<g id="edge46" class="edge">
<title>SP_t&#45;&gt;NW_t1</title>
<path fill="none" stroke="#d0433f" stroke-width="1.15" d="M730.3,-566C764.89,-566 807.97,-566 841.81,-566"/>
<polygon fill="#d0433f" stroke="#d0433f" stroke-width="1.15" points="841.46,-568.45 848.46,-566 841.46,-563.55 841.46,-568.45"/>
</g>
<!-- SP_t&#45;&gt;PA_t1 -->
<g id="edge45" class="edge">
<title>SP_t&#45;&gt;PA_t1</title>
<path fill="none" stroke="#d0433f" stroke-width="1.15" d="M719.91,-588.81C723.46,-591.33 726.84,-594.06 729.88,-597 800.77,-665.65 775.95,-714.16 837.88,-791 844.91,-799.72 853.46,-808.2 861.89,-815.72"/>
<polygon fill="#d0433f" stroke="#d0433f" stroke-width="1.15" points="860.08,-817.4 866.97,-820.14 863.29,-813.7 860.08,-817.4"/>
</g>
<!-- SP_t&#45;&gt;SP_t1 -->
<g id="edge10" class="edge">
<title>SP_t&#45;&gt;SP_t1</title>
<path fill="none" stroke="#b9bec6" d="M721.43,-543.06C724.44,-540.88 727.28,-538.52 729.88,-536 803.09,-464.7 765.14,-404.79 837.88,-333 838.88,-332.01 839.93,-331.04 841,-330.1"/>
<polygon fill="#b9bec6" stroke="#b9bec6" points="842.33,-332.17 846.3,-325.9 839.29,-328.33 842.33,-332.17"/>
</g>
<!-- SP_t&#45;&gt;TE_t1 -->
<g id="edge42" class="edge">
<title>SP_t&#45;&gt;TE_t1</title>
<path fill="none" stroke="#d0433f" stroke-width="1.15" d="M717.49,-588.87C721.79,-591.44 725.98,-594.17 729.88,-597 789.15,-640.11 847.35,-704.08 877.28,-739.01"/>
<polygon fill="#d0433f" stroke="#d0433f" stroke-width="1.15" points="875.35,-740.52 881.75,-744.27 879.09,-737.35 875.35,-740.52"/>
</g>
<!-- TE_t&#45;&gt;EG_t1 -->
<g id="edge23" class="edge">
<title>TE_t&#45;&gt;EG_t1</title>
<path fill="none" stroke="#7a52b3" stroke-width="1.15" d="M686.84,-879.46C715.68,-909.7 776.77,-970.28 837.88,-1009 839.68,-1010.15 841.55,-1011.26 843.46,-1012.35"/>
<polygon fill="#7a52b3" stroke="#7a52b3" stroke-width="1.15" points="842.12,-1014.41 849.45,-1015.57 844.44,-1010.1 842.12,-1014.41"/>
</g>
<!-- TE_t&#45;&gt;EI_t1 -->
<g id="edge24" class="edge">
<title>TE_t&#45;&gt;EI_t1</title>
<path fill="none" stroke="#7a52b3" stroke-width="1.15" d="M688.69,-879.49C700.82,-891.55 716.69,-907.83 729.88,-923 781.19,-982.05 776.03,-1014.09 837.88,-1062 840.89,-1064.34 844.15,-1066.51 847.54,-1068.52"/>
<polygon fill="#7a52b3" stroke="#7a52b3" stroke-width="1.15" points="846.26,-1070.61 853.58,-1071.82 848.61,-1066.31 846.26,-1070.61"/>
</g>
<!-- TE_t&#45;&gt;EV_t1 -->
<g id="edge22" class="edge">
<title>TE_t&#45;&gt;EV_t1</title>
<path fill="none" stroke="#7a52b3" stroke-width="1.15" d="M719.27,-844.24C723.2,-841.59 726.82,-838.52 729.88,-835 849.42,-697.2 719.29,-577.63 837.88,-439 839.31,-437.33 840.87,-435.75 842.52,-434.27"/>
<polygon fill="#7a52b3" stroke="#7a52b3" stroke-width="1.15" points="843.91,-436.29 847.96,-430.07 840.92,-432.41 843.91,-436.29"/>
</g>
<!-- TE_t&#45;&gt;PA_t1 -->
<g id="edge25" class="edge">
<title>TE_t&#45;&gt;PA_t1</title>
<path fill="none" stroke="#7a52b3" stroke-width="1.15" d="M719.25,-857.31C755.35,-854.62 804.29,-850.98 841.85,-848.18"/>
<polygon fill="#7a52b3" stroke="#7a52b3" stroke-width="1.15" points="841.63,-850.66 848.42,-847.69 841.26,-845.77 841.63,-850.66"/>
</g>
<!-- TE_t&#45;&gt;TE_t1 -->
<g id="edge2" class="edge">
<title>TE_t&#45;&gt;TE_t1</title>
<path fill="none" stroke="#b9bec6" d="M713.46,-842.41C751.46,-826.27 806.53,-802.87 846.63,-785.84"/>
<polygon fill="#b9bec6" stroke="#b9bec6" points="847.56,-788.11 853.04,-783.12 845.64,-783.6 847.56,-788.11"/>
</g>
<!-- TE_t&#45;&gt;WR_t1 -->
<g id="edge26" class="edge">
<title>TE_t&#45;&gt;WR_t1</title>
<path fill="none" stroke="#7a52b3" stroke-width="1.15" d="M717.69,-842.51C721.94,-840.21 726.07,-837.7 729.88,-835 791.3,-791.36 847.18,-722.1 876.49,-682.48"/>
<polygon fill="#7a52b3" stroke="#7a52b3" stroke-width="1.15" points="878.46,-683.94 880.62,-676.85 874.51,-681.05 878.46,-683.94"/>
</g>
<!-- TR_t&#45;&gt;EV_t1 -->
<g id="edge18" class="edge">
<title>TR_t&#45;&gt;EV_t1</title>
<path fill="none" stroke="#7a52b3" stroke-width="1.15" d="M715.36,-245.93C720.46,-248.63 725.42,-251.65 729.88,-255 790.19,-300.34 777.56,-340.66 837.88,-386 839.21,-387 840.58,-387.97 841.99,-388.91"/>
<polygon fill="#7a52b3" stroke="#7a52b3" stroke-width="1.15" points="840.55,-390.9 847.8,-392.47 843.11,-386.72 840.55,-390.9"/>
</g>
<!-- TR_t&#45;&gt;LF_t1 -->
<g id="edge19" class="edge">
<title>TR_t&#45;&gt;LF_t1</title>
<path fill="none" stroke="#7a52b3" stroke-width="1.15" d="M712.55,-210.38C746.53,-195.61 795.23,-174.47 837.88,-156 840.9,-154.69 844.01,-153.34 847.15,-151.98"/>
<polygon fill="#7a52b3" stroke="#7a52b3" stroke-width="1.15" points="847.93,-154.32 853.39,-149.29 845.99,-149.82 847.93,-154.32"/>
</g>
<!-- TR_t&#45;&gt;RG_t1 -->
<g id="edge20" class="edge">
<title>TR_t&#45;&gt;RG_t1</title>
<path fill="none" stroke="#7a52b3" stroke-width="1.15" d="M715.24,-247.41C720.25,-249.81 725.22,-252.36 729.88,-255 781.36,-284.25 786.39,-303.75 837.88,-333 840.01,-334.21 842.21,-335.4 844.45,-336.57"/>
<polygon fill="#7a52b3" stroke="#7a52b3" stroke-width="1.15" points="843.28,-338.72 850.64,-339.66 845.47,-334.34 843.28,-338.72"/>
</g>
<!-- TR_t&#45;&gt;RV_t1 -->
<g id="edge17" class="edge">
<title>TR_t&#45;&gt;RV_t1</title>
<path fill="none" stroke="#7a52b3" stroke-width="1.15" d="M715.36,-219.8C752.79,-212.26 805.8,-201.58 845.08,-193.67"/>
<polygon fill="#7a52b3" stroke="#7a52b3" stroke-width="1.15" points="845.16,-196.15 851.54,-192.37 844.19,-191.35 845.16,-196.15"/>
</g>
<!-- TR_t&#45;&gt;TE_t1 -->
<g id="edge16" class="edge">
<title>TR_t&#45;&gt;TE_t1</title>
<path fill="none" stroke="#7a52b3" stroke-width="1.15" d="M715.23,-243.1C720.73,-246.31 725.82,-250.23 729.88,-255 857.02,-404.41 753.77,-505.76 837.88,-683 847.51,-703.31 862.61,-723.62 875.27,-738.82"/>
<polygon fill="#7a52b3" stroke="#7a52b3" stroke-width="1.15" points="873.36,-740.35 879.76,-744.1 877.09,-737.18 873.36,-740.35"/>
</g>
<!-- TR_t&#45;&gt;TR_t1 -->
<g id="edge1" class="edge">
<title>TR_t&#45;&gt;TR_t1</title>
<path fill="none" stroke="#b9bec6" d="M715.3,-244.92C720.52,-247.81 725.53,-251.16 729.88,-255 800.92,-317.81 766.83,-376.19 837.88,-439 840.18,-441.04 842.68,-442.94 845.29,-444.71"/>
<polygon fill="#b9bec6" stroke="#b9bec6" points="843.91,-446.73 851.16,-448.29 846.46,-442.55 843.91,-446.73"/>
</g>
<!-- TR_t&#45;&gt;WR_t1 -->
<g id="edge21" class="edge">
<title>TR_t&#45;&gt;WR_t1</title>
<path fill="none" stroke="#7a52b3" stroke-width="1.15" d="M715.27,-243.51C720.69,-246.66 725.75,-250.45 729.88,-255 835.76,-371.87 755.14,-458.74 837.88,-593 844.49,-603.73 853.46,-613.91 862.46,-622.71"/>
<polygon fill="#7a52b3" stroke="#7a52b3" stroke-width="1.15" points="860.62,-624.35 867.39,-627.37 863.99,-620.79 860.62,-624.35"/>
</g>
<!-- WR_t -->
<g id="node32" class="node">
<title>WR_t</title>
<path fill="#cfe0f7" stroke="#2f6fdb" stroke-width="2.6" d="M713,-308.32C713,-308.32 624.41,-308.32 624.41,-308.32 618.41,-308.32 612.41,-302.32 612.41,-296.32 612.41,-296.32 612.41,-275.68 612.41,-275.68 612.41,-269.68 618.41,-263.68 624.41,-263.68 624.41,-263.68 713,-263.68 713,-263.68 719,-263.68 725,-269.68 725,-275.68 725,-275.68 725,-296.32 725,-296.32 725,-302.32 719,-308.32 713,-308.32"/>
<text xml:space="preserve" text-anchor="middle" x="668.71" y="-293.55" font-family="Helvetica,sans-Serif" font-weight="bold" font-size="11.00">WR (t)</text>
<text xml:space="preserve" text-anchor="middle" x="668.71" y="-281.55" font-family="Helvetica,sans-Serif" font-weight="bold" font-size="11.00">WORD READING</text>
<text xml:space="preserve" text-anchor="middle" x="668.71" y="-269.55" font-family="Helvetica,sans-Serif" font-weight="bold" font-size="11.00">(primary outcome)</text>
</g>
<!-- WR_t&#45;&gt;EV_t1 -->
<g id="edge56" class="edge">
<title>WR_t&#45;&gt;EV_t1</title>
<path fill="none" stroke="#d6006e" stroke-width="2.2" stroke-dasharray="5,2" d="M710.21,-309.45C716.79,-313.29 723.53,-317.25 729.88,-321 778.09,-349.53 788.05,-360.39 837.88,-386 839.89,-387.04 841.95,-388.07 844.05,-389.09"/>
<polygon fill="#d6006e" stroke="#d6006e" stroke-width="2.2" points="842.99,-391.3 850.36,-392.07 845.08,-386.87 842.99,-391.3"/>
</g>
<!-- WR_t&#45;&gt;PA_t1 -->
<g id="edge58" class="edge">
<title>WR_t&#45;&gt;PA_t1</title>
<path fill="none" stroke="#d6006e" stroke-width="2.2" stroke-dasharray="5,2" d="M686.27,-309.24C699.64,-328.89 718.09,-358.21 729.88,-386 802.61,-557.5 739.77,-632.64 837.88,-791 843.15,-799.52 850.22,-807.44 857.66,-814.42"/>
<polygon fill="#d6006e" stroke="#d6006e" stroke-width="2.2" points="855.81,-816.06 862.67,-818.87 859.06,-812.39 855.81,-816.06"/>
</g>
<!-- WR_t&#45;&gt;RV_t1 -->
<g id="edge57" class="edge">
<title>WR_t&#45;&gt;RV_t1</title>
<path fill="none" stroke="#d6006e" stroke-width="2.2" stroke-dasharray="5,2" d="M720.35,-262.47C753.67,-247.07 798.27,-226.62 837.88,-209 840.32,-207.91 842.83,-206.8 845.37,-205.68"/>
<polygon fill="#d6006e" stroke="#d6006e" stroke-width="2.2" points="846.13,-208.02 851.56,-202.97 844.17,-203.54 846.13,-208.02"/>
</g>
<!-- WR_t&#45;&gt;RW_t1 -->
<g id="edge59" class="edge">
<title>WR_t&#45;&gt;RW_t1</title>
<path fill="none" stroke="#d6006e" stroke-width="2.2" stroke-dasharray="5,2" d="M726.15,-274.63C761.76,-267.46 807.54,-258.23 842.9,-251.11"/>
<polygon fill="#d6006e" stroke="#d6006e" stroke-width="2.2" points="842.94,-253.6 849.32,-249.82 841.97,-248.8 842.94,-253.6"/>
</g>
<!-- WR_t&#45;&gt;WR_t1 -->
<g id="edge15" class="edge">
<title>WR_t&#45;&gt;WR_t1</title>
<path fill="none" stroke="#b9bec6" d="M684.46,-309.6C696.9,-329.72 715,-359.49 729.88,-386 780.65,-476.5 776.07,-509.65 837.88,-593 845.67,-603.51 855.36,-613.87 864.67,-622.91"/>
<polygon fill="#b9bec6" stroke="#b9bec6" points="862.85,-624.56 869.61,-627.61 866.22,-621.01 862.85,-624.56"/>
</g>
<!-- ABG -->
<g id="node34" class="node">
<title>ABG</title>
<polygon fill="#f7f7f9" stroke="#6b7280" stroke-width="1.3" stroke-dasharray="5,2" points="459.08,-1166.57 222.74,-1166.57 222.74,-1111.43 465.08,-1111.43 465.08,-1160.57 459.08,-1166.57"/>
<polyline fill="none" stroke="#6b7280" stroke-width="1.3" stroke-dasharray="5,2" points="459.08,-1166.57 459.08,-1160.57"/>
<polyline fill="none" stroke="#6b7280" stroke-width="1.3" stroke-dasharray="5,2" points="465.08,-1160.57 459.08,-1160.57"/>
<text xml:space="preserve" text-anchor="middle" x="343.91" y="-1152.75" font-family="Helvetica,sans-Serif" font-size="10.00">A · age</text>
<text xml:space="preserve" text-anchor="middle" x="343.91" y="-1141.5" font-family="Helvetica,sans-Serif" font-size="10.00">GA · general ability (latent)</text>
<text xml:space="preserve" text-anchor="middle" x="343.91" y="-1130.25" font-family="Helvetica,sans-Serif" font-size="10.00">→ common causes of EVERY skill in BOTH waves</text>
<text xml:space="preserve" text-anchor="middle" x="343.91" y="-1117.5" font-family="Helvetica,sans-Serif" font-size="10.00">(omitted for clarity; hearing HS is shown)</text>
</g>
<!-- LEG -->
<g id="node35" class="node">
<title>LEG</title>
<path fill="#eceef1" stroke="none" stroke-width="1.3" d="M442.53,-1356C442.53,-1356 245.28,-1356 245.28,-1356 239.28,-1356 233.28,-1350 233.28,-1344 233.28,-1344 233.28,-1196 233.28,-1196 233.28,-1190 239.28,-1184 245.28,-1184 245.28,-1184 442.53,-1184 442.53,-1184 448.53,-1184 454.53,-1190 454.53,-1196 454.53,-1196 454.53,-1344 454.53,-1344 454.53,-1350 448.53,-1356 442.53,-1356"/>
<text xml:space="preserve" text-anchor="start" x="237.28" y="-1342.55" font-family="Helvetica,sans-Serif" font-weight="bold" font-size="11.00">domain</text>
<polygon fill="#dbe8fb" stroke="none" points="234.28,-1318 234.28,-1336 252.28,-1336 252.28,-1318 234.28,-1318"/>
<text xml:space="preserve" text-anchor="start" x="241.78" y="-1324" font-family="Helvetica,sans-Serif" font-size="11.00"> </text>
<text xml:space="preserve" text-anchor="start" x="256.28" y="-1324" font-family="Helvetica,sans-Serif" font-size="11.00">intervention</text>
<polygon fill="#dfe3ef" stroke="none" points="234.28,-1299 234.28,-1317 252.28,-1317 252.28,-1299 234.28,-1299"/>
<text xml:space="preserve" text-anchor="start" x="241.78" y="-1305" font-family="Helvetica,sans-Serif" font-size="11.00"> </text>
<text xml:space="preserve" text-anchor="start" x="256.28" y="-1305" font-family="Helvetica,sans-Serif" font-size="11.00">hearing status</text>
<polygon fill="#e7ddf5" stroke="none" points="234.28,-1280 234.28,-1298 252.28,-1298 252.28,-1280 234.28,-1280"/>
<text xml:space="preserve" text-anchor="start" x="241.78" y="-1286" font-family="Helvetica,sans-Serif" font-size="11.00"> </text>
<text xml:space="preserve" text-anchor="start" x="256.28" y="-1286" font-family="Helvetica,sans-Serif" font-size="11.00">taught vocabulary</text>
<polygon fill="#d6ebe4" stroke="none" points="234.28,-1261 234.28,-1279 252.28,-1279 252.28,-1261 234.28,-1261"/>
<text xml:space="preserve" text-anchor="start" x="241.78" y="-1267" font-family="Helvetica,sans-Serif" font-size="11.00"> </text>
<text xml:space="preserve" text-anchor="start" x="256.28" y="-1267" font-family="Helvetica,sans-Serif" font-size="11.00">standardised vocab / phon. memory</text>
<polygon fill="#eceef1" stroke="none" points="234.28,-1242 234.28,-1260 252.28,-1260 252.28,-1242 234.28,-1242"/>
<text xml:space="preserve" text-anchor="start" x="241.78" y="-1248" font-family="Helvetica,sans-Serif" font-size="11.00"> </text>
<text xml:space="preserve" text-anchor="start" x="256.28" y="-1248" font-family="Helvetica,sans-Serif" font-size="11.00">language &amp; grammar (no path to WR)</text>
<polygon fill="#fbe1e0" stroke="none" points="234.28,-1223 234.28,-1241 252.28,-1241 252.28,-1223 234.28,-1223"/>
<text xml:space="preserve" text-anchor="start" x="241.78" y="-1229" font-family="Helvetica,sans-Serif" font-size="11.00"> </text>
<text xml:space="preserve" text-anchor="start" x="256.28" y="-1229" font-family="Helvetica,sans-Serif" font-size="11.00">speech (cause)</text>
<polygon fill="#fdecd2" stroke="none" points="234.28,-1204 234.28,-1222 252.28,-1222 252.28,-1204 234.28,-1204"/>
<text xml:space="preserve" text-anchor="start" x="241.78" y="-1210" font-family="Helvetica,sans-Serif" font-size="11.00"> </text>
<text xml:space="preserve" text-anchor="start" x="256.28" y="-1210" font-family="Helvetica,sans-Serif" font-size="11.00">code / reading route</text>
<polygon fill="#cfe0f7" stroke="none" points="234.28,-1185 234.28,-1203 252.28,-1203 252.28,-1185 234.28,-1185"/>
<text xml:space="preserve" text-anchor="start" x="241.78" y="-1191" font-family="Helvetica,sans-Serif" font-size="11.00"> </text>
<text xml:space="preserve" text-anchor="start" x="256.28" y="-1191" font-family="Helvetica,sans-Serif" font-size="11.00">primary outcome (WR); PS also terminal</text>
</g>
<!-- LEG2 -->
<g id="node36" class="node">
<title>LEG2</title>
<path fill="#eceef1" stroke="none" stroke-width="1.3" d="M487.53,-1456.88C487.53,-1456.88 200.28,-1456.88 200.28,-1456.88 194.28,-1456.88 188.28,-1450.88 188.28,-1444.88 188.28,-1444.88 188.28,-1385.12 188.28,-1385.12 188.28,-1379.12 194.28,-1373.12 200.28,-1373.12 200.28,-1373.12 487.53,-1373.12 487.53,-1373.12 493.53,-1373.12 499.53,-1379.12 499.53,-1385.12 499.53,-1385.12 499.53,-1444.88 499.53,-1444.88 499.53,-1450.88 493.53,-1456.88 487.53,-1456.88"/>
<text xml:space="preserve" text-anchor="start" x="192.28" y="-1443.42" font-family="Helvetica,sans-Serif" font-weight="bold" font-size="11.00">edge</text>
<text xml:space="preserve" text-anchor="start" x="192.28" y="-1423.3" font-family="Helvetica,sans-Serif" font-weight="bold" font-size="11.00" fill="#2f9e78">——</text>
<text xml:space="preserve" text-anchor="start" x="221.78" y="-1424.42" font-family="Helvetica,sans-Serif" font-size="11.00">cross&#45;lagged: X</text>
<text xml:space="preserve" text-anchor="start" x="296.78" y="-1424.42" font-family="Helvetica,sans-Serif" baseline-shift="sub" font-size="11.00">t</text>
<text xml:space="preserve" text-anchor="start" x="299.03" y="-1424.42" font-family="Helvetica,sans-Serif" font-size="11.00"> → Y</text>
<text xml:space="preserve" text-anchor="start" x="324.53" y="-1424.42" font-family="Helvetica,sans-Serif" baseline-shift="sub" font-size="11.00">t+1</text>
<text xml:space="preserve" text-anchor="start" x="337.28" y="-1424.42" font-family="Helvetica,sans-Serif" font-size="11.00"> (source&#39;s domain colour)</text>
<text xml:space="preserve" text-anchor="start" x="192.28" y="-1402.05" font-family="Helvetica,sans-Serif" font-weight="bold" font-size="11.00" fill="#b9bec6">——</text>
<text xml:space="preserve" text-anchor="start" x="221.78" y="-1401.38" font-family="Helvetica,sans-Serif" font-size="11.00">autoregressive: same skill → next wave</text>
<text xml:space="preserve" text-anchor="start" x="194.91" y="-1380.8" font-family="Helvetica,sans-Serif" font-weight="bold" font-size="11.00" fill="#d6006e">&#45; &#45; &#45;</text>
<text xml:space="preserve" text-anchor="start" x="221.78" y="-1380.12" font-family="Helvetica,sans-Serif" font-size="11.00">reverse (NEW): reading → language / blending / memory</text>
</g>
</g>
</svg>
