<?xml version="1.0" encoding="UTF-8" standalone="no"?>
<!DOCTYPE svg PUBLIC "-//W3C//DTD SVG 1.1//EN"
 "http://www.w3.org/Graphics/SVG/1.1/DTD/svg11.dtd">
<!-- Generated by graphviz version 15.1.0 (20260618.0150)
 -->
<!-- Title: RLM_DAG Pages: 1 -->
<svg width="1301pt" height="604pt"
 viewBox="0.00 0.00 1301.00 604.00" xmlns="http://www.w3.org/2000/svg" xmlns:xlink="http://www.w3.org/1999/xlink">
<g id="graph0" class="graph" transform="scale(1 1) rotate(0) translate(4 600.48)">
<title>RLM_DAG</title>
<polygon fill="white" stroke="none" points="-4,4 -4,-600.48 1296.61,-600.48 1296.61,4 -4,4"/>
<text xml:space="preserve" text-anchor="middle" x="646.31" y="-576.33" font-family="Helvetica,sans-Serif" font-weight="bold" font-size="17.00">Reading, language &amp; memory DAG — Byrne, MacDonald &amp; Buckley (2002) cohort &#160;(causal flow left → right)</text>
<!-- readgrp -->
<g id="node1" class="node">
<title>readgrp</title>
<path fill="#dbe8fb" stroke="#2f6fdb" stroke-width="1.3" d="M232.92,-321.8C232.92,-321.8 62.58,-321.8 62.58,-321.8 56.58,-321.8 50.58,-315.8 50.58,-309.8 50.58,-309.8 50.58,-289.16 50.58,-289.16 50.58,-283.16 56.58,-277.16 62.58,-277.16 62.58,-277.16 232.92,-277.16 232.92,-277.16 238.92,-277.16 244.92,-283.16 244.92,-289.16 244.92,-289.16 244.92,-309.8 244.92,-309.8 244.92,-315.8 238.92,-321.8 232.92,-321.8"/>
<text xml:space="preserve" text-anchor="middle" x="147.75" y="-307.03" font-family="Helvetica,sans-Serif" font-size="11.00">readgrp</text>
<text xml:space="preserve" text-anchor="middle" x="147.75" y="-295.03" font-family="Helvetica,sans-Serif" font-size="11.00">reading group / cohort</text>
<text xml:space="preserve" text-anchor="middle" x="147.75" y="-283.03" font-family="Helvetica,sans-Serif" font-size="11.00">(OBSERVATIONAL, not randomised)</text>
</g>
<!-- bassim -->
<g id="node2" class="node">
<title>bassim</title>
<path fill="#efe9dc" stroke="#8a7a52" stroke-width="1.3" d="M544.84,-388.8C544.84,-388.8 473.5,-388.8 473.5,-388.8 467.5,-388.8 461.5,-382.8 461.5,-376.8 461.5,-376.8 461.5,-356.16 461.5,-356.16 461.5,-350.16 467.5,-344.16 473.5,-344.16 473.5,-344.16 544.84,-344.16 544.84,-344.16 550.84,-344.16 556.84,-350.16 556.84,-356.16 556.84,-356.16 556.84,-376.8 556.84,-376.8 556.84,-382.8 550.84,-388.8 544.84,-388.8"/>
<text xml:space="preserve" text-anchor="middle" x="509.17" y="-374.03" font-family="Helvetica,sans-Serif" font-size="11.00">bassim</text>
<text xml:space="preserve" text-anchor="middle" x="509.17" y="-362.03" font-family="Helvetica,sans-Serif" font-size="11.00">verbal reasoning</text>
<text xml:space="preserve" text-anchor="middle" x="509.17" y="-350.03" font-family="Helvetica,sans-Serif" font-size="11.00">(GA indicator)</text>
</g>
<!-- readgrp&#45;&gt;bassim -->
<g id="edge1" class="edge">
<title>readgrp&#45;&gt;bassim</title>
<path fill="none" stroke="#2f6fdb" stroke-width="1.1" d="M245.54,-317.52C311.99,-329.91 397.81,-345.9 452.93,-356.18"/>
<polygon fill="#2f6fdb" stroke="#2f6fdb" stroke-width="1.1" points="452.2,-358.54 459.53,-357.41 453.1,-353.72 452.2,-358.54"/>
</g>
<!-- basmat -->
<g id="node3" class="node">
<title>basmat</title>
<path fill="#efe9dc" stroke="#8a7a52" stroke-width="1.3" d="M561.72,-321.8C561.72,-321.8 456.63,-321.8 456.63,-321.8 450.63,-321.8 444.63,-315.8 444.63,-309.8 444.63,-309.8 444.63,-289.16 444.63,-289.16 444.63,-283.16 450.63,-277.16 456.63,-277.16 456.63,-277.16 561.72,-277.16 561.72,-277.16 567.72,-277.16 573.72,-283.16 573.72,-289.16 573.72,-289.16 573.72,-309.8 573.72,-309.8 573.72,-315.8 567.72,-321.8 561.72,-321.8"/>
<text xml:space="preserve" text-anchor="middle" x="509.17" y="-307.03" font-family="Helvetica,sans-Serif" font-size="11.00">basmat</text>
<text xml:space="preserve" text-anchor="middle" x="509.17" y="-295.03" font-family="Helvetica,sans-Serif" font-size="11.00">non&#45;verbal reasoning</text>
<text xml:space="preserve" text-anchor="middle" x="509.17" y="-283.03" font-family="Helvetica,sans-Serif" font-size="11.00">(GA indicator; wave 3+)</text>
</g>
<!-- readgrp&#45;&gt;basmat -->
<g id="edge2" class="edge">
<title>readgrp&#45;&gt;basmat</title>
<path fill="none" stroke="#2f6fdb" stroke-width="1.1" d="M245.54,-299.48C305.34,-299.48 380.83,-299.48 435.51,-299.48"/>
<polygon fill="#2f6fdb" stroke="#2f6fdb" stroke-width="1.1" points="435.44,-301.93 442.44,-299.48 435.44,-297.03 435.44,-301.93"/>
</g>
<!-- basdig -->
<g id="node4" class="node">
<title>basdig</title>
<path fill="#d6ebe4" stroke="#2f9e78" stroke-width="1.3" d="M590.59,-209.8C590.59,-209.8 427.75,-209.8 427.75,-209.8 421.75,-209.8 415.75,-203.8 415.75,-197.8 415.75,-197.8 415.75,-177.16 415.75,-177.16 415.75,-171.16 421.75,-165.16 427.75,-165.16 427.75,-165.16 590.59,-165.16 590.59,-165.16 596.59,-165.16 602.59,-171.16 602.59,-177.16 602.59,-177.16 602.59,-197.8 602.59,-197.8 602.59,-203.8 596.59,-209.8 590.59,-209.8"/>
<text xml:space="preserve" text-anchor="middle" x="509.17" y="-195.03" font-family="Helvetica,sans-Serif" font-size="11.00">basdig</text>
<text xml:space="preserve" text-anchor="middle" x="509.17" y="-183.03" font-family="Helvetica,sans-Serif" font-size="11.00">digit recall</text>
<text xml:space="preserve" text-anchor="middle" x="509.17" y="-171.03" font-family="Helvetica,sans-Serif" font-size="11.00">(verbal STM / phon. memory) &#160;[RW]</text>
</g>
<!-- readgrp&#45;&gt;basdig -->
<g id="edge3" class="edge">
<title>readgrp&#45;&gt;basdig</title>
<path fill="none" stroke="#2f6fdb" stroke-width="1.1" d="M200.14,-276.66C236.78,-261.01 287.51,-240.6 333.5,-226.48 357.12,-219.22 382.91,-212.71 407.26,-207.18"/>
<polygon fill="#2f6fdb" stroke="#2f6fdb" stroke-width="1.1" points="407.53,-209.63 413.83,-205.71 406.46,-204.85 407.53,-209.63"/>
</g>
<!-- bpvs -->
<g id="node5" class="node">
<title>bpvs</title>
<path fill="#d6ebe4" stroke="#2f9e78" stroke-width="1.3" d="M844.81,-370.48C844.81,-370.48 750.97,-370.48 750.97,-370.48 744.97,-370.48 738.97,-364.48 738.97,-358.48 738.97,-358.48 738.97,-346.48 738.97,-346.48 738.97,-340.48 744.97,-334.48 750.97,-334.48 750.97,-334.48 844.81,-334.48 844.81,-334.48 850.81,-334.48 856.81,-340.48 856.81,-346.48 856.81,-346.48 856.81,-358.48 856.81,-358.48 856.81,-364.48 850.81,-370.48 844.81,-370.48"/>
<text xml:space="preserve" text-anchor="middle" x="797.89" y="-354.03" font-family="Helvetica,sans-Serif" font-size="11.00">bpvs</text>
<text xml:space="preserve" text-anchor="middle" x="797.89" y="-342.03" font-family="Helvetica,sans-Serif" font-size="11.00">receptive vocab &#160;[RV]</text>
</g>
<!-- readgrp&#45;&gt;bpvs -->
<g id="edge4" class="edge">
<title>readgrp&#45;&gt;bpvs</title>
<path fill="none" stroke="#2f6fdb" stroke-width="1.1" d="M245.53,-316.85C262.45,-321.12 279.69,-326.29 295.5,-332.48 313.67,-339.59 316.49,-344.9 333.5,-354.48 369.81,-374.92 375.38,-389.15 415.75,-399.48 496.2,-420.05 520.13,-409.31 602.59,-399.48 645.68,-394.34 693.03,-383.01 730.2,-372.76"/>
<polygon fill="#2f6fdb" stroke="#2f6fdb" stroke-width="1.1" points="730.77,-375.14 736.85,-370.9 729.45,-370.42 730.77,-375.14"/>
</g>
<!-- trog -->
<g id="node6" class="node">
<title>trog</title>
<path fill="#eceef1" stroke="#9aa0a8" stroke-width="1.3" d="M1067.77,-422.48C1067.77,-422.48 957.43,-422.48 957.43,-422.48 951.43,-422.48 945.43,-416.48 945.43,-410.48 945.43,-410.48 945.43,-398.48 945.43,-398.48 945.43,-392.48 951.43,-386.48 957.43,-386.48 957.43,-386.48 1067.77,-386.48 1067.77,-386.48 1073.77,-386.48 1079.77,-392.48 1079.77,-398.48 1079.77,-398.48 1079.77,-410.48 1079.77,-410.48 1079.77,-416.48 1073.77,-422.48 1067.77,-422.48"/>
<text xml:space="preserve" text-anchor="middle" x="1012.6" y="-406.03" font-family="Helvetica,sans-Serif" font-size="11.00">trog</text>
<text xml:space="preserve" text-anchor="middle" x="1012.6" y="-394.03" font-family="Helvetica,sans-Serif" font-size="11.00">receptive grammar &#160;[RG]</text>
</g>
<!-- readgrp&#45;&gt;trog -->
<g id="edge5" class="edge">
<title>readgrp&#45;&gt;trog</title>
<path fill="none" stroke="#2f6fdb" stroke-width="1.1" d="M245.29,-310.54C262.96,-315.45 280.52,-322.46 295.5,-332.48 319.9,-348.79 310.77,-367.91 333.5,-386.48 364.4,-411.72 376.69,-414.3 415.75,-422.48 599.81,-460.99 822.77,-435.77 936.68,-417.88"/>
<polygon fill="#2f6fdb" stroke="#2f6fdb" stroke-width="1.1" points="936.85,-420.33 943.38,-416.81 936.08,-415.49 936.85,-420.33"/>
</g>
<!-- basread -->
<g id="node7" class="node">
<title>basread</title>
<path fill="#cfe0f7" stroke="#2f6fdb" stroke-width="2.6" d="M1073.02,-317.8C1073.02,-317.8 952.18,-317.8 952.18,-317.8 946.18,-317.8 940.18,-311.8 940.18,-305.8 940.18,-305.8 940.18,-285.16 940.18,-285.16 940.18,-279.16 946.18,-273.16 952.18,-273.16 952.18,-273.16 1073.02,-273.16 1073.02,-273.16 1079.02,-273.16 1085.02,-279.16 1085.02,-285.16 1085.02,-285.16 1085.02,-305.8 1085.02,-305.8 1085.02,-311.8 1079.02,-317.8 1073.02,-317.8"/>
<text xml:space="preserve" text-anchor="middle" x="1012.6" y="-303.03" font-family="Helvetica,sans-Serif" font-weight="bold" font-size="11.00">basread</text>
<text xml:space="preserve" text-anchor="middle" x="1012.6" y="-291.03" font-family="Helvetica,sans-Serif" font-weight="bold" font-size="11.00">WORD READING</text>
<text xml:space="preserve" text-anchor="middle" x="1012.6" y="-279.03" font-family="Helvetica,sans-Serif" font-weight="bold" font-size="11.00">(primary outcome) &#160;[WR]</text>
</g>
<!-- readgrp&#45;&gt;basread -->
<g id="edge6" class="edge">
<title>readgrp&#45;&gt;basread</title>
<path fill="none" stroke="#2f6fdb" stroke-width="1.1" d="M245.5,-284.61C296.09,-277.57 359.11,-269.96 415.75,-266.48 498.63,-261.37 519.6,-263.54 602.59,-266.48 716.48,-270.51 847.87,-280.84 930.34,-288.01"/>
<polygon fill="#2f6fdb" stroke="#2f6fdb" stroke-width="1.1" points="930.06,-290.45 937.25,-288.62 930.49,-285.57 930.06,-290.45"/>
</g>
<!-- basspel -->
<g id="node8" class="node">
<title>basspel</title>
<path fill="#fdecd2" stroke="#c2872a" stroke-width="2.2" d="M851.18,-162.48C851.18,-162.48 744.59,-162.48 744.59,-162.48 738.59,-162.48 732.59,-156.48 732.59,-150.48 732.59,-150.48 732.59,-138.48 732.59,-138.48 732.59,-132.48 738.59,-126.48 744.59,-126.48 744.59,-126.48 851.18,-126.48 851.18,-126.48 857.18,-126.48 863.18,-132.48 863.18,-138.48 863.18,-138.48 863.18,-150.48 863.18,-150.48 863.18,-156.48 857.18,-162.48 851.18,-162.48"/>
<text xml:space="preserve" text-anchor="middle" x="797.89" y="-146.03" font-family="Helvetica,sans-Serif" font-size="11.00">basspel</text>
<text xml:space="preserve" text-anchor="middle" x="797.89" y="-134.03" font-family="Helvetica,sans-Serif" font-size="11.00">spelling (outcome) &#160;[PS]</text>
</g>
<!-- readgrp&#45;&gt;basspel -->
<g id="edge7" class="edge">
<title>readgrp&#45;&gt;basspel</title>
<path fill="none" stroke="#2f6fdb" stroke-width="1.1" d="M179.15,-276.65C226.66,-242.48 322.77,-179.4 415.75,-154.48 519.69,-126.62 645.33,-130.11 723.18,-136.37"/>
<polygon fill="#2f6fdb" stroke="#2f6fdb" stroke-width="1.1" points="722.66,-138.78 729.84,-136.92 723.07,-133.9 722.66,-138.78"/>
</g>
<!-- basnum -->
<g id="node9" class="node">
<title>basnum</title>
<path fill="#eceef1" stroke="#9aa0a8" stroke-width="1.3" d="M850.81,-93.48C850.81,-93.48 744.97,-93.48 744.97,-93.48 738.97,-93.48 732.97,-87.48 732.97,-81.48 732.97,-81.48 732.97,-69.48 732.97,-69.48 732.97,-63.48 738.97,-57.48 744.97,-57.48 744.97,-57.48 850.81,-57.48 850.81,-57.48 856.81,-57.48 862.81,-63.48 862.81,-69.48 862.81,-69.48 862.81,-81.48 862.81,-81.48 862.81,-87.48 856.81,-93.48 850.81,-93.48"/>
<text xml:space="preserve" text-anchor="middle" x="797.89" y="-77.03" font-family="Helvetica,sans-Serif" font-size="11.00">basnum</text>
<text xml:space="preserve" text-anchor="middle" x="797.89" y="-65.03" font-family="Helvetica,sans-Serif" font-size="11.00">number skills (outcome)</text>
</g>
<!-- readgrp&#45;&gt;basnum -->
<g id="edge8" class="edge">
<title>readgrp&#45;&gt;basnum</title>
<path fill="none" stroke="#2f6fdb" stroke-width="1.1" d="M175.21,-276.69C209.89,-247.6 273.38,-196.91 333.5,-162.48 457.6,-91.39 628.16,-76.81 723.95,-74.72"/>
<polygon fill="#2f6fdb" stroke="#2f6fdb" stroke-width="1.1" points="723.8,-77.17 730.75,-74.59 723.71,-72.27 723.8,-77.17"/>
</g>
<!-- woco -->
<g id="node10" class="node">
<title>woco</title>
<path fill="#cfe0f7" stroke="#2f6fdb" stroke-width="2.2" d="M1280.61,-374.8C1280.61,-374.8 1174.02,-374.8 1174.02,-374.8 1168.02,-374.8 1162.02,-368.8 1162.02,-362.8 1162.02,-362.8 1162.02,-342.16 1162.02,-342.16 1162.02,-336.16 1168.02,-330.16 1174.02,-330.16 1174.02,-330.16 1280.61,-330.16 1280.61,-330.16 1286.61,-330.16 1292.61,-336.16 1292.61,-342.16 1292.61,-342.16 1292.61,-362.8 1292.61,-362.8 1292.61,-368.8 1286.61,-374.8 1280.61,-374.8"/>
<text xml:space="preserve" text-anchor="middle" x="1227.32" y="-360.03" font-family="Helvetica,sans-Serif" font-size="11.00">woco</text>
<text xml:space="preserve" text-anchor="middle" x="1227.32" y="-348.03" font-family="Helvetica,sans-Serif" font-size="11.00">reading comprehension</text>
<text xml:space="preserve" text-anchor="middle" x="1227.32" y="-336.03" font-family="Helvetica,sans-Serif" font-size="11.00">(outcome; Simple View)</text>
</g>
<!-- readgrp&#45;&gt;woco -->
<g id="edge9" class="edge">
<title>readgrp&#45;&gt;woco</title>
<path fill="none" stroke="#2f6fdb" stroke-width="1.1" d="M245.38,-307.92C263.44,-313.01 281.13,-320.77 295.5,-332.48 327.27,-358.36 305.81,-386.28 333.5,-416.48 393.66,-482.08 419.15,-514.48 508.17,-514.48 508.17,-514.48 508.17,-514.48 1013.6,-514.48 1099.7,-514.48 1172.7,-429.44 1206.38,-382.58"/>
<polygon fill="#2f6fdb" stroke="#2f6fdb" stroke-width="1.1" points="1208.26,-384.18 1210.3,-377.05 1204.26,-381.35 1208.26,-384.18"/>
</g>
<!-- basdig&#45;&gt;bpvs -->
<g id="edge10" class="edge">
<title>basdig&#45;&gt;bpvs</title>
<path fill="none" stroke="#2f9e78" stroke-width="1.1" d="M550.04,-210.42C604.85,-241.96 702.89,-298.39 757.47,-329.79"/>
<polygon fill="#2f9e78" stroke="#2f9e78" stroke-width="1.1" points="756.14,-331.86 763.43,-333.22 758.58,-327.61 756.14,-331.86"/>
</g>
<!-- basdig&#45;&gt;basread -->
<g id="edge11" class="edge">
<title>basdig&#45;&gt;basread</title>
<path fill="none" stroke="#2f9e78" stroke-width="1.1" d="M601.63,-210.39C614.69,-213.52 627.97,-216.64 640.59,-219.48 740.23,-241.9 855.56,-265.09 930.84,-279.87"/>
<polygon fill="#2f9e78" stroke="#2f9e78" stroke-width="1.1" points="929.94,-282.18 937.28,-281.13 930.88,-277.38 929.94,-282.18"/>
</g>
<!-- basdig&#45;&gt;basspel -->
<g id="edge12" class="edge">
<title>basdig&#45;&gt;basspel</title>
<path fill="none" stroke="#2f9e78" stroke-width="1.1" d="M602.86,-173.57C641.95,-167.71 686.81,-160.98 723.54,-155.48"/>
<polygon fill="#2f9e78" stroke="#2f9e78" stroke-width="1.1" points="723.53,-157.96 730.09,-154.49 722.8,-153.11 723.53,-157.96"/>
</g>
<!-- basdig&#45;&gt;basnum -->
<g id="edge13" class="edge">
<title>basdig&#45;&gt;basnum</title>
<path fill="none" stroke="#2f9e78" stroke-width="1.1" d="M568.88,-164.54C619.32,-144.84 691.54,-116.63 741.11,-97.27"/>
<polygon fill="#2f9e78" stroke="#2f9e78" stroke-width="1.1" points="741.99,-99.55 747.62,-94.72 740.2,-94.99 741.99,-99.55"/>
</g>
<!-- basdig&#45;&gt;woco -->
<g id="edge14" class="edge">
<title>basdig&#45;&gt;woco</title>
<path fill="none" stroke="#2f9e78" stroke-width="1.1" d="M603.18,-187.32C719.34,-189.87 922.55,-203.46 1085.02,-262.48 1124.33,-276.76 1164.07,-303.4 1191.34,-324"/>
<polygon fill="#2f9e78" stroke="#2f9e78" stroke-width="1.1" points="1189.63,-325.78 1196.68,-328.09 1192.61,-321.89 1189.63,-325.78"/>
</g>
<!-- bpvs&#45;&gt;trog -->
<g id="edge15" class="edge">
<title>bpvs&#45;&gt;trog</title>
<path fill="none" stroke="#2f9e78" stroke-width="1.1" d="M857.29,-366.75C881.82,-372.75 910.65,-379.8 936.71,-386.17"/>
<polygon fill="#2f9e78" stroke="#2f9e78" stroke-width="1.1" points="936.06,-388.53 943.45,-387.82 937.23,-383.77 936.06,-388.53"/>
</g>
<!-- bpvs&#45;&gt;basread -->
<g id="edge16" class="edge">
<title>bpvs&#45;&gt;basread</title>
<path fill="none" stroke="#2f9e78" stroke-width="1.1" d="M857.29,-336.83C879.94,-330.76 906.27,-323.7 930.69,-317.16"/>
<polygon fill="#2f9e78" stroke="#2f9e78" stroke-width="1.1" points="931.15,-319.57 937.28,-315.39 929.89,-314.84 931.15,-319.57"/>
</g>
<!-- bpvs&#45;&gt;woco -->
<g id="edge17" class="edge">
<title>bpvs&#45;&gt;woco</title>
<path fill="none" stroke="#2f9e78" stroke-width="1.1" d="M857.42,-352.48C934.23,-352.48 1069.08,-352.48 1152.72,-352.48"/>
<polygon fill="#2f9e78" stroke="#2f9e78" stroke-width="1.1" points="1152.48,-354.93 1159.48,-352.48 1152.48,-350.03 1152.48,-354.93"/>
</g>
<!-- trog&#45;&gt;woco -->
<g id="edge18" class="edge">
<title>trog&#45;&gt;woco</title>
<path fill="none" stroke="#9aa0a8" stroke-width="1.1" d="M1080.32,-388.17C1103.32,-382.54 1129.2,-376.22 1152.71,-370.47"/>
<polygon fill="#9aa0a8" stroke="#9aa0a8" stroke-width="1.1" points="1153.09,-372.9 1159.31,-368.86 1151.93,-368.14 1153.09,-372.9"/>
</g>
<!-- basread&#45;&gt;woco -->
<g id="edge19" class="edge">
<title>basread&#45;&gt;woco</title>
<path fill="none" stroke="#2f6fdb" stroke-width="1.1" d="M1086.21,-314.93C1107.77,-320.71 1131.39,-327.04 1152.99,-332.83"/>
<polygon fill="#2f6fdb" stroke="#2f6fdb" stroke-width="1.1" points="1152.16,-335.14 1159.56,-334.59 1153.43,-330.41 1152.16,-335.14"/>
</g>
<!-- ABG -->
<g id="node11" class="node">
<title>ABG</title>
<polygon fill="#f7f7f9" stroke="#6b7280" stroke-width="1.3" stroke-dasharray="5,2" points="249.8,-411.42 39.7,-411.42 39.7,-343.53 255.8,-343.53 255.8,-405.42 249.8,-411.42"/>
<polyline fill="none" stroke="#6b7280" stroke-width="1.3" stroke-dasharray="5,2" points="249.8,-411.42 249.8,-405.42"/>
<polyline fill="none" stroke="#6b7280" stroke-width="1.3" stroke-dasharray="5,2" points="255.8,-405.42 249.8,-405.42"/>
<text xml:space="preserve" text-anchor="middle" x="147.75" y="-397.6" font-family="Helvetica,sans-Serif" font-size="10.00">age · age (months)</text>
<text xml:space="preserve" text-anchor="middle" x="147.75" y="-386.35" font-family="Helvetica,sans-Serif" font-size="10.00">GA · general ability (latent)</text>
<text xml:space="preserve" text-anchor="middle" x="147.75" y="-375.1" font-family="Helvetica,sans-Serif" font-size="10.00">→ common causes of EVERY observed node</text>
<text xml:space="preserve" text-anchor="middle" x="147.75" y="-362.35" font-family="Helvetica,sans-Serif" font-size="10.00">(9 edges each; omitted for clarity).</text>
<text xml:space="preserve" text-anchor="middle" x="147.75" y="-351.1" font-family="Helvetica,sans-Serif" font-size="10.00">readgrp also → every observed node.</text>
</g>
<!-- LEG -->
<g id="node12" class="node">
<title>LEG</title>
<path fill="#eceef1" stroke="none" stroke-width="1.3" d="M283.5,-567.48C283.5,-567.48 12,-567.48 12,-567.48 6,-567.48 0,-561.48 0,-555.48 0,-555.48 0,-445.48 0,-445.48 0,-439.48 6,-433.48 12,-433.48 12,-433.48 283.5,-433.48 283.5,-433.48 289.5,-433.48 295.5,-439.48 295.5,-445.48 295.5,-445.48 295.5,-555.48 295.5,-555.48 295.5,-561.48 289.5,-567.48 283.5,-567.48"/>
<text xml:space="preserve" text-anchor="start" x="4" y="-554.03" font-family="Helvetica,sans-Serif" font-weight="bold" font-size="11.00">domain &#160;(RLI symbol in [ ])</text>
<polygon fill="#dbe8fb" stroke="none" points="1,-529.48 1,-547.48 19,-547.48 19,-529.48 1,-529.48"/>
<text xml:space="preserve" text-anchor="start" x="8.5" y="-535.48" font-family="Helvetica,sans-Serif" font-size="11.00"> </text>
<text xml:space="preserve" text-anchor="start" x="23" y="-535.48" font-family="Helvetica,sans-Serif" font-size="11.00">cohort factor readgrp (replaces IG/IS; NOT causal)</text>
<polygon fill="#efe9dc" stroke="none" points="1,-510.48 1,-528.48 19,-528.48 19,-510.48 1,-510.48"/>
<text xml:space="preserve" text-anchor="start" x="8.5" y="-516.48" font-family="Helvetica,sans-Serif" font-size="11.00"> </text>
<text xml:space="preserve" text-anchor="start" x="23" y="-516.48" font-family="Helvetica,sans-Serif" font-size="11.00">general&#45;ability indicators (GA now measured)</text>
<polygon fill="#d6ebe4" stroke="none" points="1,-491.48 1,-509.48 19,-509.48 19,-491.48 1,-491.48"/>
<text xml:space="preserve" text-anchor="start" x="8.5" y="-497.48" font-family="Helvetica,sans-Serif" font-size="11.00"> </text>
<text xml:space="preserve" text-anchor="start" x="23" y="-497.48" font-family="Helvetica,sans-Serif" font-size="11.00">phon. memory / vocab &#160;[RW, RV]</text>
<polygon fill="#eceef1" stroke="none" points="1,-472.48 1,-490.48 19,-490.48 19,-472.48 1,-472.48"/>
<text xml:space="preserve" text-anchor="start" x="8.5" y="-478.48" font-family="Helvetica,sans-Serif" font-size="11.00"> </text>
<text xml:space="preserve" text-anchor="start" x="23" y="-478.48" font-family="Helvetica,sans-Serif" font-size="11.00">grammar / arithmetic &#160;[RG]</text>
<polygon fill="#fdecd2" stroke="none" points="1,-453.48 1,-471.48 19,-471.48 19,-453.48 1,-453.48"/>
<text xml:space="preserve" text-anchor="start" x="8.5" y="-459.48" font-family="Helvetica,sans-Serif" font-size="11.00"> </text>
<text xml:space="preserve" text-anchor="start" x="23" y="-459.48" font-family="Helvetica,sans-Serif" font-size="11.00">spelling outcome &#160;[PS]</text>
<polygon fill="#cfe0f7" stroke="none" points="1,-434.48 1,-452.48 19,-452.48 19,-434.48 1,-434.48"/>
<text xml:space="preserve" text-anchor="start" x="8.5" y="-440.48" font-family="Helvetica,sans-Serif" font-size="11.00"> </text>
<text xml:space="preserve" text-anchor="start" x="23" y="-440.48" font-family="Helvetica,sans-Serif" font-size="11.00">reading outcomes: word reading [WR] + comprehension</text>
</g>
<!-- age_note -->
<g id="node13" class="node">
<title>age_note</title>
<path fill="#f7f7f9" stroke="#6b7280" stroke-width="1.3" d="M682.59,-47.48C682.59,-47.48 652.59,-47.48 652.59,-47.48 646.59,-47.48 640.59,-41.48 640.59,-35.48 640.59,-35.48 640.59,-23.48 640.59,-23.48 640.59,-17.48 646.59,-11.48 652.59,-11.48 652.59,-11.48 682.59,-11.48 682.59,-11.48 688.59,-11.48 694.59,-17.48 694.59,-23.48 694.59,-23.48 694.59,-35.48 694.59,-35.48 694.59,-41.48 688.59,-47.48 682.59,-47.48"/>
<text xml:space="preserve" text-anchor="middle" x="667.59" y="-25.03" font-family="Helvetica,sans-Serif" font-size="11.00">age</text>
</g>
<!-- age_note&#45;&gt;readgrp -->
<g id="edge20" class="edge">
<title>age_note&#45;&gt;readgrp</title>
<path fill="none" stroke="#b0453f" stroke-width="1.1" stroke-dasharray="5,2" d="M632.66,-19.98C569.51,-4.31 431.49,20.37 333.5,-31.48 236.26,-82.92 180.07,-211.1 158.74,-269.56"/>
<polygon fill="#b0453f" stroke="#b0453f" stroke-width="1.1" points="632.03,-21.99 638.37,-21.43 633.07,-17.92 632.03,-21.99"/>
<polygon fill="#b0453f" stroke="#b0453f" stroke-width="1.1" points="156.8,-268.75 156.75,-275.1 160.75,-270.16 156.8,-268.75"/>
<text xml:space="preserve" text-anchor="middle" x="355.62" y="-43.93" font-family="Times,serif" font-size="9.00" fill="#b0453f"> age↔group</text>
<text xml:space="preserve" text-anchor="middle" x="355.62" y="-33.43" font-family="Times,serif" font-size="9.00" fill="#b0453f"> (design)</text>
</g>
</g>
</svg>
