<?xml version="1.0" encoding="UTF-8" standalone="no"?>
<!DOCTYPE svg PUBLIC "-//W3C//DTD SVG 1.1//EN"
 "http://www.w3.org/Graphics/SVG/1.1/DTD/svg11.dtd">
<!-- Generated by graphviz version 14.1.2 (0)
 -->
<!-- Title: COPYPASTE Pages: 1 -->
<svg width="1492pt" height="1122pt"
 viewBox="0.00 0.00 1492.00 1122.00" xmlns="http://www.w3.org/2000/svg" xmlns:xlink="http://www.w3.org/1999/xlink">
<g id="graph0" class="graph" transform="scale(1 1) rotate(0) translate(4 1118.28)">
<title>COPYPASTE</title>
<polygon fill="white" stroke="none" points="-4,4 -4,-1118.28 1488.38,-1118.28 1488.38,4 -4,4"/>
<text xml:space="preserve" text-anchor="middle" x="742.19" y="-1094.13" font-family="Helvetica,sans-Serif" font-weight="bold" font-size="17.00">Time&#45;lagged DAG the way you described it — the base cascade, copied per wave, linked across time</text>
<g id="clust1" class="cluster">
<title>cluster_1</title>
<path fill="#fbfbfc" stroke="#c9ced6" d="M173.5,-561.58C173.5,-561.58 1293.79,-561.58 1293.79,-561.58 1299.79,-561.58 1305.79,-567.58 1305.79,-573.58 1305.79,-573.58 1305.79,-1016.58 1305.79,-1016.58 1305.79,-1022.58 1299.79,-1028.58 1293.79,-1028.58 1293.79,-1028.58 173.5,-1028.58 173.5,-1028.58 167.5,-1028.58 161.5,-1022.58 161.5,-1016.58 161.5,-1016.58 161.5,-573.58 161.5,-573.58 161.5,-567.58 167.5,-561.58 173.5,-561.58"/>
<text xml:space="preserve" text-anchor="middle" x="733.65" y="-1011.28" font-family="Helvetica,sans-Serif" font-weight="bold" font-size="14.00" fill="#404650">WAVE t &#160;· &#160;the base DAG (a copy)</text>
</g>
<g id="clust6" class="cluster">
<title>cluster_2</title>
<path fill="#fbfbfc" stroke="#c9ced6" d="M513.59,-86.58C513.59,-86.58 1464.38,-86.58 1464.38,-86.58 1470.38,-86.58 1476.38,-92.58 1476.38,-98.58 1476.38,-98.58 1476.38,-541.58 1476.38,-541.58 1476.38,-547.58 1470.38,-553.58 1464.38,-553.58 1464.38,-553.58 513.59,-553.58 513.59,-553.58 507.59,-553.58 501.59,-547.58 501.59,-541.58 501.59,-541.58 501.59,-98.58 501.59,-98.58 501.59,-92.58 507.59,-86.58 513.59,-86.58"/>
<text xml:space="preserve" text-anchor="middle" x="988.99" y="-536.28" font-family="Helvetica,sans-Serif" font-weight="bold" font-size="14.00" fill="#404650">WAVE t+1 &#160;· &#160;the base DAG (a copy)</text>
</g>
<!-- SP_1 -->
<g id="node1" class="node">
<title>SP_1</title>
<path fill="#fbe1e0" stroke="#d0433f" stroke-width="1.3" d="M267.09,-885.58C267.09,-885.58 187.5,-885.58 187.5,-885.58 181.5,-885.58 175.5,-879.58 175.5,-873.58 175.5,-873.58 175.5,-861.58 175.5,-861.58 175.5,-855.58 181.5,-849.58 187.5,-849.58 187.5,-849.58 267.09,-849.58 267.09,-849.58 273.09,-849.58 279.09,-855.58 279.09,-861.58 279.09,-861.58 279.09,-873.58 279.09,-873.58 279.09,-879.58 273.09,-885.58 267.09,-885.58"/>
<text xml:space="preserve" text-anchor="middle" x="227.3" y="-869.13" font-family="Helvetica,sans-Serif" font-size="11.00">SP</text>
<text xml:space="preserve" text-anchor="middle" x="227.3" y="-857.13" font-family="Helvetica,sans-Serif" font-size="11.00">speech production</text>
</g>
<!-- EV_1 -->
<g id="node4" class="node">
<title>EV_1</title>
<path fill="#d6ebe4" stroke="#2f9e78" stroke-width="1.3" d="M767.27,-751.58C767.27,-751.58 692.93,-751.58 692.93,-751.58 686.93,-751.58 680.93,-745.58 680.93,-739.58 680.93,-739.58 680.93,-727.58 680.93,-727.58 680.93,-721.58 686.93,-715.58 692.93,-715.58 692.93,-715.58 767.27,-715.58 767.27,-715.58 773.27,-715.58 779.27,-721.58 779.27,-727.58 779.27,-727.58 779.27,-739.58 779.27,-739.58 779.27,-745.58 773.27,-751.58 767.27,-751.58"/>
<text xml:space="preserve" text-anchor="middle" x="730.1" y="-735.13" font-family="Helvetica,sans-Serif" font-size="11.00">EV</text>
<text xml:space="preserve" text-anchor="middle" x="730.1" y="-723.13" font-family="Helvetica,sans-Serif" font-size="11.00">expressive vocab</text>
</g>
<!-- SP_1&#45;&gt;EV_1 -->
<g id="edge28" class="edge">
<title>SP_1&#45;&gt;EV_1</title>
<path fill="none" stroke="#d0433f" stroke-width="1.15" d="M279.44,-853.48C326.16,-839.79 396.57,-817.07 454.59,-789.58 476.77,-779.07 478.41,-768.66 501.59,-760.58 501.84,-760.49 604.62,-748.32 671.93,-740.35"/>
<polygon fill="#d0433f" stroke="#d0433f" stroke-width="1.15" points="671.97,-742.81 678.64,-739.55 671.4,-737.94 671.97,-742.81"/>
</g>
<!-- TE_1 -->
<g id="node10" class="node">
<title>TE_1</title>
<path fill="#e7ddf5" stroke="#7a52b3" stroke-width="1.3" d="M605.3,-804.58C605.3,-804.58 529.47,-804.58 529.47,-804.58 523.47,-804.58 517.47,-798.58 517.47,-792.58 517.47,-792.58 517.47,-780.58 517.47,-780.58 517.47,-774.58 523.47,-768.58 529.47,-768.58 529.47,-768.58 605.3,-768.58 605.3,-768.58 611.3,-768.58 617.3,-774.58 617.3,-780.58 617.3,-780.58 617.3,-792.58 617.3,-792.58 617.3,-798.58 611.3,-804.58 605.3,-804.58"/>
<text xml:space="preserve" text-anchor="middle" x="567.38" y="-788.13" font-family="Helvetica,sans-Serif" font-size="11.00">TE</text>
<text xml:space="preserve" text-anchor="middle" x="567.38" y="-776.13" font-family="Helvetica,sans-Serif" font-size="11.00">taught expressive</text>
</g>
<!-- SP_1&#45;&gt;TE_1 -->
<g id="edge27" class="edge">
<title>SP_1&#45;&gt;TE_1</title>
<path fill="none" stroke="#d0433f" stroke-width="1.15" d="M279.64,-855.28C341.25,-840.52 444.27,-815.84 508.61,-800.42"/>
<polygon fill="#d0433f" stroke="#d0433f" stroke-width="1.15" points="509.1,-802.82 515.34,-798.81 507.96,-798.06 509.1,-802.82"/>
</g>
<!-- LS_1 -->
<g id="node11" class="node">
<title>LS_1</title>
<path fill="#fdecd2" stroke="#c2872a" stroke-width="1.3" d="M755.64,-947.58C755.64,-947.58 704.56,-947.58 704.56,-947.58 698.56,-947.58 692.56,-941.58 692.56,-935.58 692.56,-935.58 692.56,-923.58 692.56,-923.58 692.56,-917.58 698.56,-911.58 704.56,-911.58 704.56,-911.58 755.64,-911.58 755.64,-911.58 761.64,-911.58 767.64,-917.58 767.64,-923.58 767.64,-923.58 767.64,-935.58 767.64,-935.58 767.64,-941.58 761.64,-947.58 755.64,-947.58"/>
<text xml:space="preserve" text-anchor="middle" x="730.1" y="-931.13" font-family="Helvetica,sans-Serif" font-size="11.00">LS</text>
<text xml:space="preserve" text-anchor="middle" x="730.1" y="-919.13" font-family="Helvetica,sans-Serif" font-size="11.00">letter–sound</text>
</g>
<!-- SP_1&#45;&gt;LS_1 -->
<g id="edge29" class="edge">
<title>SP_1&#45;&gt;LS_1</title>
<path fill="none" stroke="#d0433f" stroke-width="1.15" d="M279.54,-873.92C377.47,-886.05 589.76,-912.33 683.29,-923.91"/>
<polygon fill="#d0433f" stroke="#d0433f" stroke-width="1.15" points="682.98,-926.34 690.23,-924.77 683.59,-921.48 682.98,-926.34"/>
</g>
<!-- PA_1 -->
<g id="node12" class="node">
<title>PA_1</title>
<path fill="#fdecd2" stroke="#c2872a" stroke-width="1.3" d="M930.36,-901.9C930.36,-901.9 857.52,-901.9 857.52,-901.9 851.52,-901.9 845.52,-895.9 845.52,-889.9 845.52,-889.9 845.52,-869.26 845.52,-869.26 845.52,-863.26 851.52,-857.26 857.52,-857.26 857.52,-857.26 930.36,-857.26 930.36,-857.26 936.36,-857.26 942.36,-863.26 942.36,-869.26 942.36,-869.26 942.36,-889.9 942.36,-889.9 942.36,-895.9 936.36,-901.9 930.36,-901.9"/>
<text xml:space="preserve" text-anchor="middle" x="893.94" y="-887.13" font-family="Helvetica,sans-Serif" font-size="11.00">PA</text>
<text xml:space="preserve" text-anchor="middle" x="893.94" y="-875.13" font-family="Helvetica,sans-Serif" font-size="11.00">phoneme aware.</text>
<text xml:space="preserve" text-anchor="middle" x="893.94" y="-863.13" font-family="Helvetica,sans-Serif" font-size="11.00">(blending)</text>
</g>
<!-- SP_1&#45;&gt;PA_1 -->
<g id="edge30" class="edge">
<title>SP_1&#45;&gt;PA_1</title>
<path fill="none" stroke="#d0433f" stroke-width="1.15" d="M279.62,-868.51C401.81,-870.71 709.21,-876.26 836.44,-878.56"/>
<polygon fill="#d0433f" stroke="#d0433f" stroke-width="1.15" points="836.14,-881.01 843.18,-878.68 836.23,-876.11 836.14,-881.01"/>
</g>
<!-- NW_1 -->
<g id="node13" class="node">
<title>NW_1</title>
<path fill="#fdecd2" stroke="#c2872a" stroke-width="1.3" d="M1100.95,-945.58C1100.95,-945.58 1028.11,-945.58 1028.11,-945.58 1022.11,-945.58 1016.11,-939.58 1016.11,-933.58 1016.11,-933.58 1016.11,-921.58 1016.11,-921.58 1016.11,-915.58 1022.11,-909.58 1028.11,-909.58 1028.11,-909.58 1100.95,-909.58 1100.95,-909.58 1106.95,-909.58 1112.95,-915.58 1112.95,-921.58 1112.95,-921.58 1112.95,-933.58 1112.95,-933.58 1112.95,-939.58 1106.95,-945.58 1100.95,-945.58"/>
<text xml:space="preserve" text-anchor="middle" x="1064.53" y="-929.13" font-family="Helvetica,sans-Serif" font-size="11.00">NW</text>
<text xml:space="preserve" text-anchor="middle" x="1064.53" y="-917.13" font-family="Helvetica,sans-Serif" font-size="11.00">nonword reading</text>
</g>
<!-- SP_1&#45;&gt;NW_1 -->
<g id="edge31" class="edge">
<title>SP_1&#45;&gt;NW_1</title>
<path fill="none" stroke="#d0433f" stroke-width="1.15" d="M279.51,-883.24C362.63,-907.83 532.52,-954.63 680.18,-973.58 751.1,-982.68 769.52,-976.69 841.02,-977.58 888.06,-978.17 900.78,-987.04 946.86,-977.58 973.2,-972.17 1000.93,-960.56 1022.75,-949.89"/>
<polygon fill="#d0433f" stroke="#d0433f" stroke-width="1.15" points="1023.79,-952.11 1028.95,-946.79 1021.59,-947.73 1023.79,-952.11"/>
</g>
<!-- SP_2 -->
<g id="node16" class="node">
<title>SP_2</title>
<path fill="#fbe1e0" stroke="#d0433f" stroke-width="1.3" d="M607.18,-335.58C607.18,-335.58 527.59,-335.58 527.59,-335.58 521.59,-335.58 515.59,-329.58 515.59,-323.58 515.59,-323.58 515.59,-311.58 515.59,-311.58 515.59,-305.58 521.59,-299.58 527.59,-299.58 527.59,-299.58 607.18,-299.58 607.18,-299.58 613.18,-299.58 619.18,-305.58 619.18,-311.58 619.18,-311.58 619.18,-323.58 619.18,-323.58 619.18,-329.58 613.18,-335.58 607.18,-335.58"/>
<text xml:space="preserve" text-anchor="middle" x="567.38" y="-319.13" font-family="Helvetica,sans-Serif" font-size="11.00">SP</text>
<text xml:space="preserve" text-anchor="middle" x="567.38" y="-307.13" font-family="Helvetica,sans-Serif" font-size="11.00">speech production</text>
</g>
<!-- SP_1&#45;&gt;SP_2 -->
<g id="edge81" class="edge">
<title>SP_1&#45;&gt;SP_2</title>
<path fill="none" stroke="#aeb4bd" stroke-width="1.1" d="M279.48,-864.24C331.39,-858 410.23,-840.22 454.59,-789.58 523.91,-710.44 477.42,-659.97 501.59,-557.58 519.99,-479.61 545.78,-388.53 558.56,-344.34"/>
<polygon fill="#aeb4bd" stroke="#aeb4bd" stroke-width="1.1" points="560.88,-345.15 560.47,-337.75 556.17,-343.79 560.88,-345.15"/>
</g>
<!-- RW_1 -->
<g id="node2" class="node">
<title>RW_1</title>
<path fill="#d6ebe4" stroke="#2f9e78" stroke-width="1.3" d="M261.47,-781.9C261.47,-781.9 193.13,-781.9 193.13,-781.9 187.13,-781.9 181.13,-775.9 181.13,-769.9 181.13,-769.9 181.13,-749.26 181.13,-749.26 181.13,-743.26 187.13,-737.26 193.13,-737.26 193.13,-737.26 261.47,-737.26 261.47,-737.26 267.47,-737.26 273.47,-743.26 273.47,-749.26 273.47,-749.26 273.47,-769.9 273.47,-769.9 273.47,-775.9 267.47,-781.9 261.47,-781.9"/>
<text xml:space="preserve" text-anchor="middle" x="227.3" y="-767.13" font-family="Helvetica,sans-Serif" font-size="11.00">RW</text>
<text xml:space="preserve" text-anchor="middle" x="227.3" y="-755.13" font-family="Helvetica,sans-Serif" font-size="11.00">word repetition</text>
<text xml:space="preserve" text-anchor="middle" x="227.3" y="-743.13" font-family="Helvetica,sans-Serif" font-size="11.00">(phon. memory)</text>
</g>
<!-- RV_1 -->
<g id="node3" class="node">
<title>RV_1</title>
<path fill="#d6ebe4" stroke="#2f9e78" stroke-width="1.3" d="M763.52,-645.58C763.52,-645.58 696.68,-645.58 696.68,-645.58 690.68,-645.58 684.68,-639.58 684.68,-633.58 684.68,-633.58 684.68,-621.58 684.68,-621.58 684.68,-615.58 690.68,-609.58 696.68,-609.58 696.68,-609.58 763.52,-609.58 763.52,-609.58 769.52,-609.58 775.52,-615.58 775.52,-621.58 775.52,-621.58 775.52,-633.58 775.52,-633.58 775.52,-639.58 769.52,-645.58 763.52,-645.58"/>
<text xml:space="preserve" text-anchor="middle" x="730.1" y="-629.13" font-family="Helvetica,sans-Serif" font-size="11.00">RV</text>
<text xml:space="preserve" text-anchor="middle" x="730.1" y="-617.13" font-family="Helvetica,sans-Serif" font-size="11.00">receptive vocab</text>
</g>
<!-- RW_1&#45;&gt;RV_1 -->
<g id="edge15" class="edge">
<title>RW_1&#45;&gt;RV_1</title>
<path fill="none" stroke="#2f9e78" stroke-width="1.15" d="M273.94,-740.68C327.58,-719.15 419.68,-684.27 501.59,-663.58 560.36,-648.74 629.29,-638.85 675.74,-633.26"/>
<polygon fill="#2f9e78" stroke="#2f9e78" stroke-width="1.15" points="675.76,-635.72 682.42,-632.47 675.18,-630.86 675.76,-635.72"/>
</g>
<!-- RW_1&#45;&gt;EV_1 -->
<g id="edge13" class="edge">
<title>RW_1&#45;&gt;EV_1</title>
<path fill="none" stroke="#2f9e78" stroke-width="1.15" d="M274.07,-757.2C365.69,-752.45 571.42,-741.77 671.81,-736.55"/>
<polygon fill="#2f9e78" stroke="#2f9e78" stroke-width="1.15" points="671.72,-739.01 678.58,-736.2 671.46,-734.12 671.72,-739.01"/>
</g>
<!-- TR_1 -->
<g id="node9" class="node">
<title>TR_1</title>
<path fill="#e7ddf5" stroke="#7a52b3" stroke-width="1.3" d="M601.55,-707.58C601.55,-707.58 533.22,-707.58 533.22,-707.58 527.22,-707.58 521.22,-701.58 521.22,-695.58 521.22,-695.58 521.22,-683.58 521.22,-683.58 521.22,-677.58 527.22,-671.58 533.22,-671.58 533.22,-671.58 601.55,-671.58 601.55,-671.58 607.55,-671.58 613.55,-677.58 613.55,-683.58 613.55,-683.58 613.55,-695.58 613.55,-695.58 613.55,-701.58 607.55,-707.58 601.55,-707.58"/>
<text xml:space="preserve" text-anchor="middle" x="567.38" y="-691.13" font-family="Helvetica,sans-Serif" font-size="11.00">TR</text>
<text xml:space="preserve" text-anchor="middle" x="567.38" y="-679.13" font-family="Helvetica,sans-Serif" font-size="11.00">taught receptive</text>
</g>
<!-- RW_1&#45;&gt;TR_1 -->
<g id="edge14" class="edge">
<title>RW_1&#45;&gt;TR_1</title>
<path fill="none" stroke="#2f9e78" stroke-width="1.15" d="M273.89,-750.14C335.86,-737.31 446.49,-714.41 512.49,-700.74"/>
<polygon fill="#2f9e78" stroke="#2f9e78" stroke-width="1.15" points="512.64,-703.21 519,-699.39 511.65,-698.41 512.64,-703.21"/>
</g>
<!-- RW_1&#45;&gt;TE_1 -->
<g id="edge12" class="edge">
<title>RW_1&#45;&gt;TE_1</title>
<path fill="none" stroke="#2f9e78" stroke-width="1.15" d="M273.89,-763.22C334.52,-768.06 441.75,-776.63 508.16,-781.93"/>
<polygon fill="#2f9e78" stroke="#2f9e78" stroke-width="1.15" points="507.95,-784.37 515.12,-782.49 508.34,-779.49 507.95,-784.37"/>
</g>
<!-- RW_1&#45;&gt;PA_1 -->
<g id="edge16" class="edge">
<title>RW_1&#45;&gt;PA_1</title>
<path fill="none" stroke="#2f9e78" stroke-width="1.15" d="M273.92,-777.32C327.54,-797.37 419.62,-829.33 501.59,-845.58 533.56,-851.92 736.04,-867.75 836.52,-875.36"/>
<polygon fill="#2f9e78" stroke="#2f9e78" stroke-width="1.15" points="836.14,-877.79 843.31,-875.88 836.51,-872.91 836.14,-877.79"/>
</g>
<!-- RW_1&#45;&gt;NW_1 -->
<g id="edge17" class="edge">
<title>RW_1&#45;&gt;NW_1</title>
<path fill="none" stroke="#2f9e78" stroke-width="1.15" d="M274,-774.34C320.16,-789.66 393.21,-815.07 454.59,-841.58 557.72,-886.13 570.9,-929.54 680.18,-955.58 793.94,-982.69 931.59,-959.56 1007.12,-942.27"/>
<polygon fill="#2f9e78" stroke="#2f9e78" stroke-width="1.15" points="1007.61,-944.67 1013.87,-940.7 1006.5,-939.9 1007.61,-944.67"/>
</g>
<!-- PS_1 -->
<g id="node14" class="node">
<title>PS_1</title>
<path fill="#fdecd2" stroke="#c2872a" stroke-width="2.2" d="M1100.2,-875.58C1100.2,-875.58 1028.86,-875.58 1028.86,-875.58 1022.86,-875.58 1016.86,-869.58 1016.86,-863.58 1016.86,-863.58 1016.86,-851.58 1016.86,-851.58 1016.86,-845.58 1022.86,-839.58 1028.86,-839.58 1028.86,-839.58 1100.2,-839.58 1100.2,-839.58 1106.2,-839.58 1112.2,-845.58 1112.2,-851.58 1112.2,-851.58 1112.2,-863.58 1112.2,-863.58 1112.2,-869.58 1106.2,-875.58 1100.2,-875.58"/>
<text xml:space="preserve" text-anchor="middle" x="1064.53" y="-859.13" font-family="Helvetica,sans-Serif" font-size="11.00">PS</text>
<text xml:space="preserve" text-anchor="middle" x="1064.53" y="-847.13" font-family="Helvetica,sans-Serif" font-size="11.00">phonetic spelling</text>
</g>
<!-- RW_1&#45;&gt;PS_1 -->
<g id="edge18" class="edge">
<title>RW_1&#45;&gt;PS_1</title>
<path fill="none" stroke="#2f9e78" stroke-width="1.15" d="M273.97,-770.06C328.03,-782.09 420.9,-801.56 501.59,-812.58 550.81,-819.3 875.45,-843.67 1007.66,-853.46"/>
<polygon fill="#2f9e78" stroke="#2f9e78" stroke-width="1.15" points="1007.18,-855.88 1014.34,-853.96 1007.54,-851 1007.18,-855.88"/>
</g>
<!-- RW_2 -->
<g id="node17" class="node">
<title>RW_2</title>
<path fill="#d6ebe4" stroke="#2f9e78" stroke-width="1.3" d="M601.55,-276.9C601.55,-276.9 533.22,-276.9 533.22,-276.9 527.22,-276.9 521.22,-270.9 521.22,-264.9 521.22,-264.9 521.22,-244.26 521.22,-244.26 521.22,-238.26 527.22,-232.26 533.22,-232.26 533.22,-232.26 601.55,-232.26 601.55,-232.26 607.55,-232.26 613.55,-238.26 613.55,-244.26 613.55,-244.26 613.55,-264.9 613.55,-264.9 613.55,-270.9 607.55,-276.9 601.55,-276.9"/>
<text xml:space="preserve" text-anchor="middle" x="567.38" y="-262.13" font-family="Helvetica,sans-Serif" font-size="11.00">RW</text>
<text xml:space="preserve" text-anchor="middle" x="567.38" y="-250.13" font-family="Helvetica,sans-Serif" font-size="11.00">word repetition</text>
<text xml:space="preserve" text-anchor="middle" x="567.38" y="-238.13" font-family="Helvetica,sans-Serif" font-size="11.00">(phon. memory)</text>
</g>
<!-- RW_1&#45;&gt;RW_2 -->
<g id="edge82" class="edge">
<title>RW_1&#45;&gt;RW_2</title>
<path fill="none" stroke="#aeb4bd" stroke-width="1.1" d="M236.59,-736.86C264.11,-664.02 358.86,-432.93 501.59,-291.58 505.27,-287.93 509.39,-284.52 513.71,-281.36"/>
<polygon fill="#aeb4bd" stroke="#aeb4bd" stroke-width="1.1" points="514.89,-283.52 519.27,-277.54 512.12,-279.48 514.89,-283.52"/>
</g>
<!-- RV_1&#45;&gt;EV_1 -->
<g id="edge19" class="edge">
<title>RV_1&#45;&gt;EV_1</title>
<path fill="none" stroke="#2f9e78" stroke-width="1.15" d="M730.1,-646.21C730.1,-666.32 730.1,-686.43 730.1,-706.53"/>
<polygon fill="#2f9e78" stroke="#2f9e78" stroke-width="1.15" points="727.65,-706.41 730.1,-713.41 732.55,-706.41 727.65,-706.41"/>
</g>
<!-- LF_1 -->
<g id="node5" class="node">
<title>LF_1</title>
<path fill="#eceef1" stroke="#9aa0a8" stroke-width="1.3" d="M925.49,-611.58C925.49,-611.58 862.4,-611.58 862.4,-611.58 856.4,-611.58 850.4,-605.58 850.4,-599.58 850.4,-599.58 850.4,-587.58 850.4,-587.58 850.4,-581.58 856.4,-575.58 862.4,-575.58 862.4,-575.58 925.49,-575.58 925.49,-575.58 931.49,-575.58 937.49,-581.58 937.49,-587.58 937.49,-587.58 937.49,-599.58 937.49,-599.58 937.49,-605.58 931.49,-611.58 925.49,-611.58"/>
<text xml:space="preserve" text-anchor="middle" x="893.94" y="-595.13" font-family="Helvetica,sans-Serif" font-size="11.00">LF</text>
<text xml:space="preserve" text-anchor="middle" x="893.94" y="-583.13" font-family="Helvetica,sans-Serif" font-size="11.00">language fund.</text>
</g>
<!-- RV_1&#45;&gt;LF_1 -->
<g id="edge20" class="edge">
<title>RV_1&#45;&gt;LF_1</title>
<path fill="none" stroke="#2f9e78" stroke-width="1.15" d="M775.75,-618.2C796.06,-613.93 820.22,-608.86 841.31,-604.43"/>
<polygon fill="#2f9e78" stroke="#2f9e78" stroke-width="1.15" points="841.78,-606.83 848.13,-603 840.77,-602.04 841.78,-606.83"/>
</g>
<!-- RG_1 -->
<g id="node6" class="node">
<title>RG_1</title>
<path fill="#eceef1" stroke="#9aa0a8" stroke-width="1.3" d="M934.86,-681.58C934.86,-681.58 853.02,-681.58 853.02,-681.58 847.02,-681.58 841.02,-675.58 841.02,-669.58 841.02,-669.58 841.02,-657.58 841.02,-657.58 841.02,-651.58 847.02,-645.58 853.02,-645.58 853.02,-645.58 934.86,-645.58 934.86,-645.58 940.86,-645.58 946.86,-651.58 946.86,-657.58 946.86,-657.58 946.86,-669.58 946.86,-669.58 946.86,-675.58 940.86,-681.58 934.86,-681.58"/>
<text xml:space="preserve" text-anchor="middle" x="893.94" y="-665.13" font-family="Helvetica,sans-Serif" font-size="11.00">RG</text>
<text xml:space="preserve" text-anchor="middle" x="893.94" y="-653.13" font-family="Helvetica,sans-Serif" font-size="11.00">receptive grammar</text>
</g>
<!-- RV_1&#45;&gt;RG_1 -->
<g id="edge21" class="edge">
<title>RV_1&#45;&gt;RG_1</title>
<path fill="none" stroke="#2f9e78" stroke-width="1.15" d="M775.75,-637.51C793.11,-641.38 813.29,-645.86 831.95,-650.01"/>
<polygon fill="#2f9e78" stroke="#2f9e78" stroke-width="1.15" points="831.34,-652.39 838.7,-651.52 832.4,-647.6 831.34,-652.39"/>
</g>
<!-- WR_1 -->
<g id="node15" class="node">
<title>WR_1</title>
<path fill="#cfe0f7" stroke="#2f6fdb" stroke-width="2.6" d="M1279.79,-831.58C1279.79,-831.58 1197.95,-831.58 1197.95,-831.58 1191.95,-831.58 1185.95,-825.58 1185.95,-819.58 1185.95,-819.58 1185.95,-807.58 1185.95,-807.58 1185.95,-801.58 1191.95,-795.58 1197.95,-795.58 1197.95,-795.58 1279.79,-795.58 1279.79,-795.58 1285.79,-795.58 1291.79,-801.58 1291.79,-807.58 1291.79,-807.58 1291.79,-819.58 1291.79,-819.58 1291.79,-825.58 1285.79,-831.58 1279.79,-831.58"/>
<text xml:space="preserve" text-anchor="middle" x="1238.87" y="-815.13" font-family="Helvetica,sans-Serif" font-weight="bold" font-size="11.00">WR</text>
<text xml:space="preserve" text-anchor="middle" x="1238.87" y="-803.13" font-family="Helvetica,sans-Serif" font-weight="bold" font-size="11.00">WORD READING</text>
</g>
<!-- RV_1&#45;&gt;WR_1 -->
<g id="edge22" class="edge">
<title>RV_1&#45;&gt;WR_1</title>
<path fill="none" stroke="#2f9e78" stroke-width="1.15" d="M776.12,-626.42C872.35,-624.27 1091.71,-621.26 1121.2,-637.58 1179.74,-669.98 1214.11,-745.64 1229.02,-786.41"/>
<polygon fill="#2f9e78" stroke="#2f9e78" stroke-width="1.15" points="1226.68,-787.13 1231.33,-792.91 1231.3,-785.5 1226.68,-787.13"/>
</g>
<!-- RV_2 -->
<g id="node18" class="node">
<title>RV_2</title>
<path fill="#d6ebe4" stroke="#2f9e78" stroke-width="1.3" d="M927.36,-428.58C927.36,-428.58 860.52,-428.58 860.52,-428.58 854.52,-428.58 848.52,-422.58 848.52,-416.58 848.52,-416.58 848.52,-404.58 848.52,-404.58 848.52,-398.58 854.52,-392.58 860.52,-392.58 860.52,-392.58 927.36,-392.58 927.36,-392.58 933.36,-392.58 939.36,-398.58 939.36,-404.58 939.36,-404.58 939.36,-416.58 939.36,-416.58 939.36,-422.58 933.36,-428.58 927.36,-428.58"/>
<text xml:space="preserve" text-anchor="middle" x="893.94" y="-412.13" font-family="Helvetica,sans-Serif" font-size="11.00">RV</text>
<text xml:space="preserve" text-anchor="middle" x="893.94" y="-400.13" font-family="Helvetica,sans-Serif" font-size="11.00">receptive vocab</text>
</g>
<!-- RV_1&#45;&gt;RV_2 -->
<g id="edge83" class="edge">
<title>RV_1&#45;&gt;RV_2</title>
<path fill="none" stroke="#aeb4bd" stroke-width="1.1" d="M744.59,-609.14C754.65,-595.18 768.58,-575.43 780.02,-557.58 808.95,-512.47 806.3,-494.4 841.02,-453.58 846.83,-446.75 853.8,-440.17 860.73,-434.28"/>
<polygon fill="#aeb4bd" stroke="#aeb4bd" stroke-width="1.1" points="861.91,-436.49 865.76,-430.15 858.8,-432.7 861.91,-436.49"/>
</g>
<!-- EI_1 -->
<g id="node7" class="node">
<title>EI_1</title>
<path fill="#eceef1" stroke="#9aa0a8" stroke-width="1.3" d="M925.49,-769.58C925.49,-769.58 862.4,-769.58 862.4,-769.58 856.4,-769.58 850.4,-763.58 850.4,-757.58 850.4,-757.58 850.4,-745.58 850.4,-745.58 850.4,-739.58 856.4,-733.58 862.4,-733.58 862.4,-733.58 925.49,-733.58 925.49,-733.58 931.49,-733.58 937.49,-739.58 937.49,-745.58 937.49,-745.58 937.49,-757.58 937.49,-757.58 937.49,-763.58 931.49,-769.58 925.49,-769.58"/>
<text xml:space="preserve" text-anchor="middle" x="893.94" y="-753.13" font-family="Helvetica,sans-Serif" font-size="11.00">EI</text>
<text xml:space="preserve" text-anchor="middle" x="893.94" y="-741.13" font-family="Helvetica,sans-Serif" font-size="11.00">expressive info</text>
</g>
<!-- EV_1&#45;&gt;EI_1 -->
<g id="edge24" class="edge">
<title>EV_1&#45;&gt;EI_1</title>
<path fill="none" stroke="#2f9e78" stroke-width="1.15" d="M779.66,-738.98C799.12,-741.15 821.58,-743.64 841.34,-745.84"/>
<polygon fill="#2f9e78" stroke="#2f9e78" stroke-width="1.15" points="840.96,-748.26 848.19,-746.6 841.5,-743.39 840.96,-748.26"/>
</g>
<!-- EG_1 -->
<g id="node8" class="node">
<title>EG_1</title>
<path fill="#eceef1" stroke="#9aa0a8" stroke-width="1.3" d="M1109.2,-681.58C1109.2,-681.58 1019.86,-681.58 1019.86,-681.58 1013.86,-681.58 1007.86,-675.58 1007.86,-669.58 1007.86,-669.58 1007.86,-657.58 1007.86,-657.58 1007.86,-651.58 1013.86,-645.58 1019.86,-645.58 1019.86,-645.58 1109.2,-645.58 1109.2,-645.58 1115.2,-645.58 1121.2,-651.58 1121.2,-657.58 1121.2,-657.58 1121.2,-669.58 1121.2,-669.58 1121.2,-675.58 1115.2,-681.58 1109.2,-681.58"/>
<text xml:space="preserve" text-anchor="middle" x="1064.53" y="-665.13" font-family="Helvetica,sans-Serif" font-size="11.00">EG</text>
<text xml:space="preserve" text-anchor="middle" x="1064.53" y="-653.13" font-family="Helvetica,sans-Serif" font-size="11.00">expressive grammar</text>
</g>
<!-- EV_1&#45;&gt;EG_1 -->
<g id="edge23" class="edge">
<title>EV_1&#45;&gt;EG_1</title>
<path fill="none" stroke="#2f9e78" stroke-width="1.15" d="M779.57,-723.96C823.33,-715.21 889.47,-701.83 946.86,-689.58 963.87,-685.95 982.24,-681.91 999.26,-678.12"/>
<polygon fill="#2f9e78" stroke="#2f9e78" stroke-width="1.15" points="999.5,-680.58 1005.8,-676.66 998.43,-675.8 999.5,-680.58"/>
</g>
<!-- EV_1&#45;&gt;PA_1 -->
<g id="edge25" class="edge">
<title>EV_1&#45;&gt;PA_1</title>
<path fill="none" stroke="#2f9e78" stroke-width="1.15" d="M751.6,-752.07C779.27,-777.03 828.84,-821.75 861.31,-851.04"/>
<polygon fill="#2f9e78" stroke="#2f9e78" stroke-width="1.15" points="859.43,-852.65 866.27,-855.52 862.71,-849.01 859.43,-852.65"/>
</g>
<!-- EV_1&#45;&gt;WR_1 -->
<g id="edge26" class="edge">
<title>EV_1&#45;&gt;WR_1</title>
<path fill="none" stroke="#2f9e78" stroke-width="1.15" d="M769.62,-752.2C790.31,-761.37 816.54,-771.7 841.02,-777.58 957.36,-805.51 1097.63,-812.13 1176.4,-813.49"/>
<polygon fill="#2f9e78" stroke="#2f9e78" stroke-width="1.15" points="1175.99,-815.93 1183.02,-813.59 1176.06,-811.04 1175.99,-815.93"/>
</g>
<!-- EV_2 -->
<g id="node19" class="node">
<title>EV_2</title>
<path fill="#d6ebe4" stroke="#2f9e78" stroke-width="1.3" d="M931.11,-304.58C931.11,-304.58 856.77,-304.58 856.77,-304.58 850.77,-304.58 844.77,-298.58 844.77,-292.58 844.77,-292.58 844.77,-280.58 844.77,-280.58 844.77,-274.58 850.77,-268.58 856.77,-268.58 856.77,-268.58 931.11,-268.58 931.11,-268.58 937.11,-268.58 943.11,-274.58 943.11,-280.58 943.11,-280.58 943.11,-292.58 943.11,-292.58 943.11,-298.58 937.11,-304.58 931.11,-304.58"/>
<text xml:space="preserve" text-anchor="middle" x="893.94" y="-288.13" font-family="Helvetica,sans-Serif" font-size="11.00">EV</text>
<text xml:space="preserve" text-anchor="middle" x="893.94" y="-276.13" font-family="Helvetica,sans-Serif" font-size="11.00">expressive vocab</text>
</g>
<!-- EV_1&#45;&gt;EV_2 -->
<g id="edge84" class="edge">
<title>EV_1&#45;&gt;EV_2</title>
<path fill="none" stroke="#aeb4bd" stroke-width="1.1" d="M744.81,-715.11C755.82,-699.47 770.89,-676.05 780.02,-653.58 826.16,-540.01 798.4,-499.52 841.02,-384.58 850.53,-358.92 865.49,-331.55 876.91,-312.27"/>
<polygon fill="#aeb4bd" stroke="#aeb4bd" stroke-width="1.1" points="878.89,-313.73 880.39,-306.47 874.69,-311.21 878.89,-313.73"/>
</g>
<!-- LF_2 -->
<g id="node20" class="node">
<title>LF_2</title>
<path fill="#eceef1" stroke="#9aa0a8" stroke-width="1.3" d="M1096.08,-392.58C1096.08,-392.58 1032.99,-392.58 1032.99,-392.58 1026.99,-392.58 1020.99,-386.58 1020.99,-380.58 1020.99,-380.58 1020.99,-368.58 1020.99,-368.58 1020.99,-362.58 1026.99,-356.58 1032.99,-356.58 1032.99,-356.58 1096.08,-356.58 1096.08,-356.58 1102.08,-356.58 1108.08,-362.58 1108.08,-368.58 1108.08,-368.58 1108.08,-380.58 1108.08,-380.58 1108.08,-386.58 1102.08,-392.58 1096.08,-392.58"/>
<text xml:space="preserve" text-anchor="middle" x="1064.53" y="-376.13" font-family="Helvetica,sans-Serif" font-size="11.00">LF</text>
<text xml:space="preserve" text-anchor="middle" x="1064.53" y="-364.13" font-family="Helvetica,sans-Serif" font-size="11.00">language fund.</text>
</g>
<!-- LF_1&#45;&gt;LF_2 -->
<g id="edge85" class="edge">
<title>LF_1&#45;&gt;LF_2</title>
<path fill="none" stroke="#aeb4bd" stroke-width="1.1" d="M927.72,-574.95C934.65,-569.95 941.49,-564.1 946.86,-557.58 989.75,-505.51 966.62,-471.97 1007.86,-418.58 1013.57,-411.19 1020.78,-404.32 1028.1,-398.31"/>
<polygon fill="#aeb4bd" stroke="#aeb4bd" stroke-width="1.1" points="1029.51,-400.32 1033.5,-394.07 1026.48,-396.46 1029.51,-400.32"/>
</g>
<!-- RG_1&#45;&gt;EG_1 -->
<g id="edge40" class="edge">
<title>RG_1&#45;&gt;EG_1</title>
<path fill="none" stroke="#9aa0a8" stroke-width="1.15" d="M947.36,-663.58C963.72,-663.58 981.97,-663.58 999.06,-663.58"/>
<polygon fill="#9aa0a8" stroke="#9aa0a8" stroke-width="1.15" points="998.6,-666.03 1005.6,-663.58 998.6,-661.13 998.6,-666.03"/>
</g>
<!-- RG_2 -->
<g id="node21" class="node">
<title>RG_2</title>
<path fill="#eceef1" stroke="#9aa0a8" stroke-width="1.3" d="M1105.45,-462.58C1105.45,-462.58 1023.61,-462.58 1023.61,-462.58 1017.61,-462.58 1011.61,-456.58 1011.61,-450.58 1011.61,-450.58 1011.61,-438.58 1011.61,-438.58 1011.61,-432.58 1017.61,-426.58 1023.61,-426.58 1023.61,-426.58 1105.45,-426.58 1105.45,-426.58 1111.45,-426.58 1117.45,-432.58 1117.45,-438.58 1117.45,-438.58 1117.45,-450.58 1117.45,-450.58 1117.45,-456.58 1111.45,-462.58 1105.45,-462.58"/>
<text xml:space="preserve" text-anchor="middle" x="1064.53" y="-446.13" font-family="Helvetica,sans-Serif" font-size="11.00">RG</text>
<text xml:space="preserve" text-anchor="middle" x="1064.53" y="-434.13" font-family="Helvetica,sans-Serif" font-size="11.00">receptive grammar</text>
</g>
<!-- RG_1&#45;&gt;RG_2 -->
<g id="edge86" class="edge">
<title>RG_1&#45;&gt;RG_2</title>
<path fill="none" stroke="#aeb4bd" stroke-width="1.1" d="M919.73,-644.95C928.78,-637.56 938.76,-628.67 946.86,-619.58 989.95,-571.22 1029.34,-505.86 1049.47,-470.27"/>
<polygon fill="#aeb4bd" stroke="#aeb4bd" stroke-width="1.1" points="1051.37,-471.91 1052.65,-464.6 1047.09,-469.51 1051.37,-471.91"/>
</g>
<!-- EI_2 -->
<g id="node22" class="node">
<title>EI_2</title>
<path fill="#eceef1" stroke="#9aa0a8" stroke-width="1.3" d="M1096.08,-286.58C1096.08,-286.58 1032.99,-286.58 1032.99,-286.58 1026.99,-286.58 1020.99,-280.58 1020.99,-274.58 1020.99,-274.58 1020.99,-262.58 1020.99,-262.58 1020.99,-256.58 1026.99,-250.58 1032.99,-250.58 1032.99,-250.58 1096.08,-250.58 1096.08,-250.58 1102.08,-250.58 1108.08,-256.58 1108.08,-262.58 1108.08,-262.58 1108.08,-274.58 1108.08,-274.58 1108.08,-280.58 1102.08,-286.58 1096.08,-286.58"/>
<text xml:space="preserve" text-anchor="middle" x="1064.53" y="-270.13" font-family="Helvetica,sans-Serif" font-size="11.00">EI</text>
<text xml:space="preserve" text-anchor="middle" x="1064.53" y="-258.13" font-family="Helvetica,sans-Serif" font-size="11.00">expressive info</text>
</g>
<!-- EI_1&#45;&gt;EI_2 -->
<g id="edge87" class="edge">
<title>EI_1&#45;&gt;EI_2</title>
<path fill="none" stroke="#aeb4bd" stroke-width="1.1" d="M914.94,-733.06C926.07,-721.6 939.19,-705.99 946.86,-689.58 1012.03,-550.09 948.97,-490.84 1007.86,-348.58 1016.17,-328.52 1030.14,-308.46 1042,-293.45"/>
<polygon fill="#aeb4bd" stroke="#aeb4bd" stroke-width="1.1" points="1043.74,-295.21 1046.23,-288.22 1039.93,-292.12 1043.74,-295.21"/>
</g>
<!-- EG_2 -->
<g id="node23" class="node">
<title>EG_2</title>
<path fill="#eceef1" stroke="#9aa0a8" stroke-width="1.3" d="M1283.54,-354.58C1283.54,-354.58 1194.2,-354.58 1194.2,-354.58 1188.2,-354.58 1182.2,-348.58 1182.2,-342.58 1182.2,-342.58 1182.2,-330.58 1182.2,-330.58 1182.2,-324.58 1188.2,-318.58 1194.2,-318.58 1194.2,-318.58 1283.54,-318.58 1283.54,-318.58 1289.54,-318.58 1295.54,-324.58 1295.54,-330.58 1295.54,-330.58 1295.54,-342.58 1295.54,-342.58 1295.54,-348.58 1289.54,-354.58 1283.54,-354.58"/>
<text xml:space="preserve" text-anchor="middle" x="1238.87" y="-338.13" font-family="Helvetica,sans-Serif" font-size="11.00">EG</text>
<text xml:space="preserve" text-anchor="middle" x="1238.87" y="-326.13" font-family="Helvetica,sans-Serif" font-size="11.00">expressive grammar</text>
</g>
<!-- EG_1&#45;&gt;EG_2 -->
<g id="edge88" class="edge">
<title>EG_1&#45;&gt;EG_2</title>
<path fill="none" stroke="#aeb4bd" stroke-width="1.1" d="M1075.29,-645.06C1104.38,-589.87 1190.55,-426.36 1224.2,-362.52"/>
<polygon fill="#aeb4bd" stroke="#aeb4bd" stroke-width="1.1" points="1226.34,-363.7 1227.44,-356.37 1222.01,-361.42 1226.34,-363.7"/>
</g>
<!-- TR_1&#45;&gt;RV_1 -->
<g id="edge2" class="edge">
<title>TR_1&#45;&gt;RV_1</title>
<path fill="none" stroke="#7a52b3" stroke-width="1.15" d="M614.01,-671.98C633.34,-664.52 655.99,-655.78 676.06,-648.04"/>
<polygon fill="#7a52b3" stroke="#7a52b3" stroke-width="1.15" points="676.92,-650.34 682.57,-645.53 675.16,-645.76 676.92,-650.34"/>
</g>
<!-- TR_1&#45;&gt;EV_1 -->
<g id="edge3" class="edge">
<title>TR_1&#45;&gt;EV_1</title>
<path fill="none" stroke="#7a52b3" stroke-width="1.15" d="M614.01,-702.07C632.12,-707.03 653.14,-712.78 672.22,-718.01"/>
<polygon fill="#7a52b3" stroke="#7a52b3" stroke-width="1.15" points="671.48,-720.34 678.87,-719.83 672.77,-715.62 671.48,-720.34"/>
</g>
<!-- TR_1&#45;&gt;LF_1 -->
<g id="edge4" class="edge">
<title>TR_1&#45;&gt;LF_1</title>
<path fill="none" stroke="#7a52b3" stroke-width="1.15" d="M614.01,-680.62C634.25,-676.75 658.37,-672.27 680.18,-668.58 724.42,-661.1 737.41,-667.64 780.02,-653.58 807.36,-644.56 835.99,-629.27 857.57,-616.39"/>
<polygon fill="#7a52b3" stroke="#7a52b3" stroke-width="1.15" points="858.7,-618.58 863.41,-612.85 856.16,-614.39 858.7,-618.58"/>
</g>
<!-- TR_1&#45;&gt;RG_1 -->
<g id="edge5" class="edge">
<title>TR_1&#45;&gt;RG_1</title>
<path fill="none" stroke="#7a52b3" stroke-width="1.15" d="M614.2,-685.91C671.11,-681.35 768.4,-673.56 831.68,-668.49"/>
<polygon fill="#7a52b3" stroke="#7a52b3" stroke-width="1.15" points="831.85,-670.93 838.64,-667.93 831.46,-666.05 831.85,-670.93"/>
</g>
<!-- TR_1&#45;&gt;TE_1 -->
<g id="edge1" class="edge">
<title>TR_1&#45;&gt;TE_1</title>
<path fill="none" stroke="#7a52b3" stroke-width="1.15" d="M567.38,-708.15C567.38,-725.35 567.38,-742.55 567.38,-759.75"/>
<polygon fill="#7a52b3" stroke="#7a52b3" stroke-width="1.15" points="564.94,-759.46 567.39,-766.46 569.84,-759.46 564.94,-759.46"/>
</g>
<!-- TR_1&#45;&gt;WR_1 -->
<g id="edge6" class="edge">
<title>TR_1&#45;&gt;WR_1</title>
<path fill="none" stroke="#7a52b3" stroke-width="1.15" d="M613.82,-693.15C656.7,-696.58 722.76,-702.06 780.02,-707.58 854.26,-714.74 873.77,-710.72 946.86,-725.58 1027.88,-742.05 1118.7,-771.31 1176.99,-791.54"/>
<polygon fill="#7a52b3" stroke="#7a52b3" stroke-width="1.15" points="1175.94,-793.77 1183.35,-793.76 1177.55,-789.14 1175.94,-793.77"/>
</g>
<!-- TR_2 -->
<g id="node24" class="node">
<title>TR_2</title>
<path fill="#e7ddf5" stroke="#7a52b3" stroke-width="1.3" d="M764.27,-374.58C764.27,-374.58 695.93,-374.58 695.93,-374.58 689.93,-374.58 683.93,-368.58 683.93,-362.58 683.93,-362.58 683.93,-350.58 683.93,-350.58 683.93,-344.58 689.93,-338.58 695.93,-338.58 695.93,-338.58 764.27,-338.58 764.27,-338.58 770.27,-338.58 776.27,-344.58 776.27,-350.58 776.27,-350.58 776.27,-362.58 776.27,-362.58 776.27,-368.58 770.27,-374.58 764.27,-374.58"/>
<text xml:space="preserve" text-anchor="middle" x="730.1" y="-358.13" font-family="Helvetica,sans-Serif" font-size="11.00">TR</text>
<text xml:space="preserve" text-anchor="middle" x="730.1" y="-346.13" font-family="Helvetica,sans-Serif" font-size="11.00">taught receptive</text>
</g>
<!-- TR_1&#45;&gt;TR_2 -->
<g id="edge89" class="edge">
<title>TR_1&#45;&gt;TR_2</title>
<path fill="none" stroke="#aeb4bd" stroke-width="1.1" d="M577.25,-671.2C604.2,-615.37 685.17,-447.6 716.52,-382.65"/>
<polygon fill="#aeb4bd" stroke="#aeb4bd" stroke-width="1.1" points="718.7,-383.77 719.53,-376.4 714.29,-381.64 718.7,-383.77"/>
</g>
<!-- TE_1&#45;&gt;EV_1 -->
<g id="edge7" class="edge">
<title>TE_1&#45;&gt;EV_1</title>
<path fill="none" stroke="#7a52b3" stroke-width="1.15" d="M617.92,-770.25C635.11,-764.58 654.53,-758.17 672.27,-752.32"/>
<polygon fill="#7a52b3" stroke="#7a52b3" stroke-width="1.15" points="672.75,-754.74 678.63,-750.22 671.22,-750.09 672.75,-754.74"/>
</g>
<!-- TE_1&#45;&gt;EI_1 -->
<g id="edge9" class="edge">
<title>TE_1&#45;&gt;EI_1</title>
<path fill="none" stroke="#7a52b3" stroke-width="1.15" d="M617.68,-781.26C678.14,-774.74 780.15,-763.74 841.55,-757.12"/>
<polygon fill="#7a52b3" stroke="#7a52b3" stroke-width="1.15" points="841.51,-759.59 848.21,-756.4 840.99,-754.72 841.51,-759.59"/>
</g>
<!-- TE_1&#45;&gt;EG_1 -->
<g id="edge8" class="edge">
<title>TE_1&#45;&gt;EG_1</title>
<path fill="none" stroke="#7a52b3" stroke-width="1.15" d="M617.66,-789.83C706.33,-794.95 888.94,-801.99 946.86,-777.58 990.22,-759.31 1026.44,-716.73 1046.53,-689.1"/>
<polygon fill="#7a52b3" stroke="#7a52b3" stroke-width="1.15" points="1048.45,-690.62 1050.51,-683.5 1044.46,-687.78 1048.45,-690.62"/>
</g>
<!-- TE_1&#45;&gt;PA_1 -->
<g id="edge10" class="edge">
<title>TE_1&#45;&gt;PA_1</title>
<path fill="none" stroke="#7a52b3" stroke-width="1.15" d="M617.68,-800.71C676.65,-817.6 775.15,-845.83 836.94,-863.54"/>
<polygon fill="#7a52b3" stroke="#7a52b3" stroke-width="1.15" points="835.96,-865.8 843.37,-865.38 837.31,-861.09 835.96,-865.8"/>
</g>
<!-- TE_1&#45;&gt;WR_1 -->
<g id="edge11" class="edge">
<title>TE_1&#45;&gt;WR_1</title>
<path fill="none" stroke="#7a52b3" stroke-width="1.15" d="M617.85,-792.58C637.26,-794.75 659.74,-797.05 680.18,-798.58 825.54,-809.48 862.13,-809.15 1007.86,-812.58 1064.87,-813.92 1129.84,-814.08 1176.16,-813.95"/>
<polygon fill="#7a52b3" stroke="#7a52b3" stroke-width="1.15" points="1176.14,-816.4 1183.13,-813.93 1176.13,-811.5 1176.14,-816.4"/>
</g>
<!-- TE_2 -->
<g id="node25" class="node">
<title>TE_2</title>
<path fill="#e7ddf5" stroke="#7a52b3" stroke-width="1.3" d="M768.02,-268.58C768.02,-268.58 692.18,-268.58 692.18,-268.58 686.18,-268.58 680.18,-262.58 680.18,-256.58 680.18,-256.58 680.18,-244.58 680.18,-244.58 680.18,-238.58 686.18,-232.58 692.18,-232.58 692.18,-232.58 768.02,-232.58 768.02,-232.58 774.02,-232.58 780.02,-238.58 780.02,-244.58 780.02,-244.58 780.02,-256.58 780.02,-256.58 780.02,-262.58 774.02,-268.58 768.02,-268.58"/>
<text xml:space="preserve" text-anchor="middle" x="730.1" y="-252.13" font-family="Helvetica,sans-Serif" font-size="11.00">TE</text>
<text xml:space="preserve" text-anchor="middle" x="730.1" y="-240.13" font-family="Helvetica,sans-Serif" font-size="11.00">taught expressive</text>
</g>
<!-- TE_1&#45;&gt;TE_2 -->
<g id="edge90" class="edge">
<title>TE_1&#45;&gt;TE_2</title>
<path fill="none" stroke="#aeb4bd" stroke-width="1.1" d="M585.26,-768.15C596.69,-754.61 611.13,-735.21 619.18,-715.58 684.9,-555.28 620.29,-493.14 680.18,-330.58 687.34,-311.15 699.46,-291.28 709.84,-276.2"/>
<polygon fill="#aeb4bd" stroke="#aeb4bd" stroke-width="1.1" points="711.78,-277.7 713.81,-270.57 707.78,-274.88 711.78,-277.7"/>
</g>
<!-- LS_1&#45;&gt;PA_1 -->
<g id="edge33" class="edge">
<title>LS_1&#45;&gt;PA_1</title>
<path fill="none" stroke="#c2872a" stroke-width="1.15" d="M768.23,-918.11C788.51,-911.84 814.04,-903.96 836.71,-896.95"/>
<polygon fill="#c2872a" stroke="#c2872a" stroke-width="1.15" points="837.29,-899.34 843.26,-894.93 835.85,-894.66 837.29,-899.34"/>
</g>
<!-- LS_1&#45;&gt;NW_1 -->
<g id="edge32" class="edge">
<title>LS_1&#45;&gt;NW_1</title>
<path fill="none" stroke="#c2872a" stroke-width="1.15" d="M768.27,-929.36C826.35,-929.01 939.04,-928.33 1007.16,-927.92"/>
<polygon fill="#c2872a" stroke="#c2872a" stroke-width="1.15" points="1006.92,-930.37 1013.9,-927.88 1006.89,-925.47 1006.92,-930.37"/>
</g>
<!-- LS_1&#45;&gt;PS_1 -->
<g id="edge34" class="edge">
<title>LS_1&#45;&gt;PS_1</title>
<path fill="none" stroke="#c2872a" stroke-width="1.15" d="M768.2,-927.6C820.74,-924.56 914.11,-918.15 946.86,-909.58 972.46,-902.88 999.55,-891.13 1021.17,-880.49"/>
<polygon fill="#c2872a" stroke="#c2872a" stroke-width="1.15" points="1022.16,-882.73 1027.32,-877.41 1019.97,-878.35 1022.16,-882.73"/>
</g>
<!-- LS_1&#45;&gt;WR_1 -->
<g id="edge35" class="edge">
<title>LS_1&#45;&gt;WR_1</title>
<path fill="none" stroke="#c2872a" stroke-width="1.15" d="M768.24,-943.13C840.27,-967.06 1002.3,-1009.27 1121.2,-953.58 1171.07,-930.22 1207.06,-873.91 1224.99,-840.26"/>
<polygon fill="#c2872a" stroke="#c2872a" stroke-width="1.15" points="1227.1,-841.51 1228.15,-834.17 1222.75,-839.25 1227.1,-841.51"/>
</g>
<!-- LS_2 -->
<g id="node26" class="node">
<title>LS_2</title>
<path fill="#fdecd2" stroke="#c2872a" stroke-width="1.3" d="M919.49,-497.58C919.49,-497.58 868.4,-497.58 868.4,-497.58 862.4,-497.58 856.4,-491.58 856.4,-485.58 856.4,-485.58 856.4,-473.58 856.4,-473.58 856.4,-467.58 862.4,-461.58 868.4,-461.58 868.4,-461.58 919.49,-461.58 919.49,-461.58 925.49,-461.58 931.49,-467.58 931.49,-473.58 931.49,-473.58 931.49,-485.58 931.49,-485.58 931.49,-491.58 925.49,-497.58 919.49,-497.58"/>
<text xml:space="preserve" text-anchor="middle" x="893.94" y="-481.13" font-family="Helvetica,sans-Serif" font-size="11.00">LS</text>
<text xml:space="preserve" text-anchor="middle" x="893.94" y="-469.13" font-family="Helvetica,sans-Serif" font-size="11.00">letter–sound</text>
</g>
<!-- LS_1&#45;&gt;LS_2 -->
<g id="edge91" class="edge">
<title>LS_1&#45;&gt;LS_2</title>
<path fill="none" stroke="#aeb4bd" stroke-width="1.1" d="M736.4,-911.07C757.29,-838.23 833.16,-574.4 841.02,-557.58 849.72,-538.96 862.48,-519.73 873.17,-505.02"/>
<polygon fill="#aeb4bd" stroke="#aeb4bd" stroke-width="1.1" points="875.04,-506.6 877.24,-499.52 871.1,-503.69 875.04,-506.6"/>
</g>
<!-- PA_1&#45;&gt;NW_1 -->
<g id="edge37" class="edge">
<title>PA_1&#45;&gt;NW_1</title>
<path fill="none" stroke="#c2872a" stroke-width="1.15" d="M942.8,-893.21C962.91,-898.93 986.45,-905.63 1007.37,-911.59"/>
<polygon fill="#c2872a" stroke="#c2872a" stroke-width="1.15" points="1006.47,-913.88 1013.88,-913.44 1007.81,-909.17 1006.47,-913.88"/>
</g>
<!-- PA_1&#45;&gt;PS_1 -->
<g id="edge39" class="edge">
<title>PA_1&#45;&gt;PS_1</title>
<path fill="none" stroke="#c2872a" stroke-width="1.15" d="M942.8,-873.34C962.91,-870.71 986.44,-867.64 1007.36,-864.91"/>
<polygon fill="#c2872a" stroke="#c2872a" stroke-width="1.15" points="1007.49,-867.36 1014.12,-864.03 1006.86,-862.51 1007.49,-867.36"/>
</g>
<!-- PA_1&#45;&gt;WR_1 -->
<g id="edge38" class="edge">
<title>PA_1&#45;&gt;WR_1</title>
<path fill="none" stroke="#c2872a" stroke-width="1.15" d="M942.73,-888.17C989.21,-894.74 1061.38,-900.15 1121.2,-883.58 1153.24,-874.71 1185.32,-854.43 1207.71,-837.97"/>
<polygon fill="#c2872a" stroke="#c2872a" stroke-width="1.15" points="1209.11,-839.98 1213.23,-833.82 1206.17,-836.06 1209.11,-839.98"/>
</g>
<!-- PA_2 -->
<g id="node27" class="node">
<title>PA_2</title>
<path fill="#fdecd2" stroke="#c2872a" stroke-width="1.3" d="M1100.95,-180.9C1100.95,-180.9 1028.11,-180.9 1028.11,-180.9 1022.11,-180.9 1016.11,-174.9 1016.11,-168.9 1016.11,-168.9 1016.11,-148.26 1016.11,-148.26 1016.11,-142.26 1022.11,-136.26 1028.11,-136.26 1028.11,-136.26 1100.95,-136.26 1100.95,-136.26 1106.95,-136.26 1112.95,-142.26 1112.95,-148.26 1112.95,-148.26 1112.95,-168.9 1112.95,-168.9 1112.95,-174.9 1106.95,-180.9 1100.95,-180.9"/>
<text xml:space="preserve" text-anchor="middle" x="1064.53" y="-166.13" font-family="Helvetica,sans-Serif" font-size="11.00">PA</text>
<text xml:space="preserve" text-anchor="middle" x="1064.53" y="-154.13" font-family="Helvetica,sans-Serif" font-size="11.00">phoneme aware.</text>
<text xml:space="preserve" text-anchor="middle" x="1064.53" y="-142.13" font-family="Helvetica,sans-Serif" font-size="11.00">(blending)</text>
</g>
<!-- PA_1&#45;&gt;PA_2 -->
<g id="edge92" class="edge">
<title>PA_1&#45;&gt;PA_2</title>
<path fill="none" stroke="#aeb4bd" stroke-width="1.1" d="M909.62,-856.68C921.71,-836.64 938.22,-806.31 946.86,-777.58 1015.79,-548.41 925.93,-467.44 1007.86,-242.58 1015.03,-222.91 1027.66,-203.27 1039.08,-187.94"/>
<polygon fill="#aeb4bd" stroke="#aeb4bd" stroke-width="1.1" points="1040.91,-189.58 1043.21,-182.53 1037.01,-186.61 1040.91,-189.58"/>
</g>
<!-- NW_1&#45;&gt;WR_1 -->
<g id="edge36" class="edge">
<title>NW_1&#45;&gt;WR_1</title>
<path fill="none" stroke="#c2872a" stroke-width="1.15" d="M1101.56,-909.05C1108.18,-905.4 1114.96,-901.48 1121.2,-897.58 1151.11,-878.86 1183.57,-855.2 1206.64,-837.76"/>
<polygon fill="#c2872a" stroke="#c2872a" stroke-width="1.15" points="1208,-839.8 1212.09,-833.62 1205.04,-835.9 1208,-839.8"/>
</g>
<!-- NW_2 -->
<g id="node28" class="node">
<title>NW_2</title>
<path fill="#fdecd2" stroke="#c2872a" stroke-width="1.3" d="M1275.29,-302.58C1275.29,-302.58 1202.45,-302.58 1202.45,-302.58 1196.45,-302.58 1190.45,-296.58 1190.45,-290.58 1190.45,-290.58 1190.45,-278.58 1190.45,-278.58 1190.45,-272.58 1196.45,-266.58 1202.45,-266.58 1202.45,-266.58 1275.29,-266.58 1275.29,-266.58 1281.29,-266.58 1287.29,-272.58 1287.29,-278.58 1287.29,-278.58 1287.29,-290.58 1287.29,-290.58 1287.29,-296.58 1281.29,-302.58 1275.29,-302.58"/>
<text xml:space="preserve" text-anchor="middle" x="1238.87" y="-286.13" font-family="Helvetica,sans-Serif" font-size="11.00">NW</text>
<text xml:space="preserve" text-anchor="middle" x="1238.87" y="-274.13" font-family="Helvetica,sans-Serif" font-size="11.00">nonword reading</text>
</g>
<!-- NW_1&#45;&gt;NW_2 -->
<g id="edge93" class="edge">
<title>NW_1&#45;&gt;NW_2</title>
<path fill="none" stroke="#aeb4bd" stroke-width="1.1" d="M1097.77,-908.98C1106.81,-902.16 1115.67,-893.61 1121.2,-883.58 1244.88,-659.32 1033.4,-519.03 1182.2,-310.58 1182.76,-309.8 1183.35,-309.04 1183.96,-308.3"/>
<polygon fill="#aeb4bd" stroke="#aeb4bd" stroke-width="1.1" points="1185.66,-310.07 1188.95,-303.42 1182.23,-306.57 1185.66,-310.07"/>
</g>
<!-- PS_2 -->
<g id="node29" class="node">
<title>PS_2</title>
<path fill="#fdecd2" stroke="#c2872a" stroke-width="2.2" d="M1274.54,-250.58C1274.54,-250.58 1203.2,-250.58 1203.2,-250.58 1197.2,-250.58 1191.2,-244.58 1191.2,-238.58 1191.2,-238.58 1191.2,-226.58 1191.2,-226.58 1191.2,-220.58 1197.2,-214.58 1203.2,-214.58 1203.2,-214.58 1274.54,-214.58 1274.54,-214.58 1280.54,-214.58 1286.54,-220.58 1286.54,-226.58 1286.54,-226.58 1286.54,-238.58 1286.54,-238.58 1286.54,-244.58 1280.54,-250.58 1274.54,-250.58"/>
<text xml:space="preserve" text-anchor="middle" x="1238.87" y="-234.13" font-family="Helvetica,sans-Serif" font-size="11.00">PS</text>
<text xml:space="preserve" text-anchor="middle" x="1238.87" y="-222.13" font-family="Helvetica,sans-Serif" font-size="11.00">phonetic spelling</text>
</g>
<!-- PS_1&#45;&gt;PS_2 -->
<g id="edge94" class="edge">
<title>PS_1&#45;&gt;PS_2</title>
<path fill="none" stroke="#aeb4bd" stroke-width="1.1" d="M1073.01,-838.75C1084.93,-808.01 1108.22,-744.92 1121.2,-689.58 1165.36,-501.22 1067.09,-414.08 1182.2,-258.58 1182.77,-257.81 1183.37,-257.06 1184,-256.33"/>
<polygon fill="#aeb4bd" stroke="#aeb4bd" stroke-width="1.1" points="1185.69,-258.1 1189.05,-251.5 1182.3,-254.56 1185.69,-258.1"/>
</g>
<!-- WR_1&#45;&gt;RW_2 -->
<g id="edge99" class="edge">
<title>WR_1&#45;&gt;RW_2</title>
<path fill="none" stroke="#d6006e" stroke-width="2.3" stroke-dasharray="5,2" d="M1233.1,-794.43C1222.66,-752 1197.51,-646.79 1182.2,-557.58 1163.93,-451.17 1202.19,-146.97 1121.2,-75.58 973.92,54.23 851.57,-4.82 680.18,-100.58 631.6,-127.72 598.55,-185.82 581.62,-222.39"/>
<polygon fill="#d6006e" stroke="#d6006e" stroke-width="2.3" points="579.53,-221.07 578.9,-228.46 584,-223.08 579.53,-221.07"/>
</g>
<!-- WR_1&#45;&gt;RV_2 -->
<g id="edge97" class="edge">
<title>WR_1&#45;&gt;RV_2</title>
<path fill="none" stroke="#d6006e" stroke-width="2.3" stroke-dasharray="5,2" d="M1233.2,-794.41C1222.96,-751.94 1198.2,-646.67 1182.2,-557.58 1165.18,-462.8 1193.92,-191.7 1121.2,-128.58 1083.16,-95.56 1048.7,-99.09 1007.86,-128.58 938.01,-179.01 980.7,-233.35 946.86,-312.58 936.33,-337.23 921.9,-364.05 910.92,-383.4"/>
<polygon fill="#d6006e" stroke="#d6006e" stroke-width="2.3" points="908.94,-381.94 907.58,-389.23 913.19,-384.38 908.94,-381.94"/>
</g>
<!-- WR_1&#45;&gt;EV_2 -->
<g id="edge96" class="edge">
<title>WR_1&#45;&gt;EV_2</title>
<path fill="none" stroke="#d6006e" stroke-width="2.3" stroke-dasharray="5,2" d="M1233.14,-794.42C1222.8,-751.97 1197.83,-646.73 1182.2,-557.58 1164.55,-456.88 1198.14,-168.91 1121.2,-101.58 1083.29,-68.41 1051.79,-76.93 1007.86,-101.58 947.84,-135.26 915.94,-215.26 902.62,-258.19"/>
<polygon fill="#d6006e" stroke="#d6006e" stroke-width="2.3" points="900.34,-257.27 900.69,-264.67 905.04,-258.66 900.34,-257.27"/>
</g>
<!-- WR_1&#45;&gt;PA_2 -->
<g id="edge98" class="edge">
<title>WR_1&#45;&gt;PA_2</title>
<path fill="none" stroke="#d6006e" stroke-width="2.3" stroke-dasharray="5,2" d="M1233.53,-794.34C1223.95,-751.75 1200.42,-646.24 1182.2,-557.58 1153.49,-417.9 1175.19,-374.57 1121.2,-242.58 1113.49,-223.73 1101.27,-204.65 1090.25,-189.44"/>
<polygon fill="#d6006e" stroke="#d6006e" stroke-width="2.3" points="1092.51,-188.37 1086.36,-184.22 1088.57,-191.3 1092.51,-188.37"/>
</g>
<!-- WR_2 -->
<g id="node30" class="node">
<title>WR_2</title>
<path fill="#cfe0f7" stroke="#2f6fdb" stroke-width="2.6" d="M1450.38,-345.58C1450.38,-345.58 1368.54,-345.58 1368.54,-345.58 1362.54,-345.58 1356.54,-339.58 1356.54,-333.58 1356.54,-333.58 1356.54,-321.58 1356.54,-321.58 1356.54,-315.58 1362.54,-309.58 1368.54,-309.58 1368.54,-309.58 1450.38,-309.58 1450.38,-309.58 1456.38,-309.58 1462.38,-315.58 1462.38,-321.58 1462.38,-321.58 1462.38,-333.58 1462.38,-333.58 1462.38,-339.58 1456.38,-345.58 1450.38,-345.58"/>
<text xml:space="preserve" text-anchor="middle" x="1409.46" y="-329.13" font-family="Helvetica,sans-Serif" font-weight="bold" font-size="11.00">WR</text>
<text xml:space="preserve" text-anchor="middle" x="1409.46" y="-317.13" font-family="Helvetica,sans-Serif" font-weight="bold" font-size="11.00">WORD READING</text>
</g>
<!-- WR_1&#45;&gt;WR_2 -->
<g id="edge95" class="edge">
<title>WR_1&#45;&gt;WR_2</title>
<path fill="none" stroke="#aeb4bd" stroke-width="1.1" d="M1246.48,-794.53C1272.55,-719.37 1368.33,-443.27 1398.97,-354.95"/>
<polygon fill="#aeb4bd" stroke="#aeb4bd" stroke-width="1.1" points="1401.28,-355.75 1401.26,-348.34 1396.65,-354.15 1401.28,-355.75"/>
</g>
<!-- SP_2&#45;&gt;EV_2 -->
<g id="edge68" class="edge">
<title>SP_2&#45;&gt;EV_2</title>
<path fill="none" stroke="#d0433f" stroke-width="1.15" d="M619.81,-312.67C678.62,-307.05 774.64,-297.88 835.76,-292.04"/>
<polygon fill="#d0433f" stroke="#d0433f" stroke-width="1.15" points="835.67,-294.51 842.41,-291.41 835.21,-289.63 835.67,-294.51"/>
</g>
<!-- SP_2&#45;&gt;TE_2 -->
<g id="edge67" class="edge">
<title>SP_2&#45;&gt;TE_2</title>
<path fill="none" stroke="#d0433f" stroke-width="1.15" d="M612.73,-299.1C632.49,-290.85 655.93,-281.08 676.57,-272.48"/>
<polygon fill="#d0433f" stroke="#d0433f" stroke-width="1.15" points="677.5,-274.75 683.02,-269.79 675.61,-270.22 677.5,-274.75"/>
</g>
<!-- SP_2&#45;&gt;LS_2 -->
<g id="edge69" class="edge">
<title>SP_2&#45;&gt;LS_2</title>
<path fill="none" stroke="#d0433f" stroke-width="1.15" d="M588.5,-335.9C609.94,-354.67 645.49,-383.69 680.18,-402.58 734.95,-432.41 803.62,-454.85 847.88,-467.6"/>
<polygon fill="#d0433f" stroke="#d0433f" stroke-width="1.15" points="847.05,-469.91 854.45,-469.47 848.39,-465.2 847.05,-469.91"/>
</g>
<!-- SP_2&#45;&gt;PA_2 -->
<g id="edge70" class="edge">
<title>SP_2&#45;&gt;PA_2</title>
<path fill="none" stroke="#d0433f" stroke-width="1.15" d="M599.17,-299C605.94,-294.53 612.95,-289.59 619.18,-284.58 648.83,-260.77 646.89,-242.96 680.18,-224.58 785.27,-166.54 929.27,-157.28 1007.46,-157.04"/>
<polygon fill="#d0433f" stroke="#d0433f" stroke-width="1.15" points="1007,-159.49 1014,-157.05 1007,-154.59 1007,-159.49"/>
</g>
<!-- SP_2&#45;&gt;NW_2 -->
<g id="edge71" class="edge">
<title>SP_2&#45;&gt;NW_2</title>
<path fill="none" stroke="#d0433f" stroke-width="1.15" d="M619.55,-318.24C692.32,-318.89 829.9,-318.97 946.86,-312.58 1028.62,-308.12 1122.89,-298.16 1181.44,-291.41"/>
<polygon fill="#d0433f" stroke="#d0433f" stroke-width="1.15" points="1181.42,-293.87 1188.09,-290.63 1180.85,-289.01 1181.42,-293.87"/>
</g>
<!-- RW_2&#45;&gt;RV_2 -->
<g id="edge55" class="edge">
<title>RW_2&#45;&gt;RV_2</title>
<path fill="none" stroke="#2f9e78" stroke-width="1.15" d="M603.34,-277.51C608.92,-281.87 614.42,-286.63 619.18,-291.58 652.93,-326.67 638.81,-356.9 680.18,-382.58 728.2,-412.39 794.04,-416.7 839.7,-415.27"/>
<polygon fill="#2f9e78" stroke="#2f9e78" stroke-width="1.15" points="839.63,-417.72 846.53,-414.99 839.43,-412.83 839.63,-417.72"/>
</g>
<!-- RW_2&#45;&gt;EV_2 -->
<g id="edge53" class="edge">
<title>RW_2&#45;&gt;EV_2</title>
<path fill="none" stroke="#2f9e78" stroke-width="1.15" d="M614.1,-265.16C634.25,-269.41 658.28,-273.93 680.18,-276.58 732.55,-282.93 792.63,-285.31 835.56,-286.17"/>
<polygon fill="#2f9e78" stroke="#2f9e78" stroke-width="1.15" points="835.4,-288.62 842.44,-286.29 835.49,-283.72 835.4,-288.62"/>
</g>
<!-- RW_2&#45;&gt;TR_2 -->
<g id="edge54" class="edge">
<title>RW_2&#45;&gt;TR_2</title>
<path fill="none" stroke="#2f9e78" stroke-width="1.15" d="M604.45,-277.47C630.76,-294.17 666.28,-316.71 692.67,-333.46"/>
<polygon fill="#2f9e78" stroke="#2f9e78" stroke-width="1.15" points="691.17,-335.41 698.39,-337.09 693.79,-331.27 691.17,-335.41"/>
</g>
<!-- RW_2&#45;&gt;TE_2 -->
<g id="edge52" class="edge">
<title>RW_2&#45;&gt;TE_2</title>
<path fill="none" stroke="#2f9e78" stroke-width="1.15" d="M614.01,-253.45C631.79,-253 652.39,-252.49 671.2,-252.02"/>
<polygon fill="#2f9e78" stroke="#2f9e78" stroke-width="1.15" points="671.03,-254.48 677.96,-251.85 670.9,-249.58 671.03,-254.48"/>
</g>
<!-- RW_2&#45;&gt;PA_2 -->
<g id="edge56" class="edge">
<title>RW_2&#45;&gt;PA_2</title>
<path fill="none" stroke="#2f9e78" stroke-width="1.15" d="M585.1,-231.69C604.68,-207.01 639.66,-169.17 680.18,-153.58 789.86,-111.37 930.61,-129.77 1007.39,-145.24"/>
<polygon fill="#2f9e78" stroke="#2f9e78" stroke-width="1.15" points="1006.47,-147.56 1013.82,-146.57 1007.46,-142.76 1006.47,-147.56"/>
</g>
<!-- RW_2&#45;&gt;NW_2 -->
<g id="edge57" class="edge">
<title>RW_2&#45;&gt;NW_2</title>
<path fill="none" stroke="#2f9e78" stroke-width="1.15" d="M614.07,-239.42C634.11,-233.52 658.07,-227.5 680.18,-224.58 874.51,-198.96 931.49,-175.28 1121.2,-224.58 1151.24,-232.39 1154.57,-244.45 1182.2,-258.58 1184.62,-259.82 1187.11,-261.07 1189.64,-262.32"/>
<polygon fill="#2f9e78" stroke="#2f9e78" stroke-width="1.15" points="1188.33,-264.41 1195.7,-265.27 1190.48,-260 1188.33,-264.41"/>
</g>
<!-- RW_2&#45;&gt;PS_2 -->
<g id="edge58" class="edge">
<title>RW_2&#45;&gt;PS_2</title>
<path fill="none" stroke="#2f9e78" stroke-width="1.15" d="M580.44,-231.79C597.86,-201.58 633.21,-149.52 680.18,-127.58 768.98,-86.11 1030.13,-92.38 1121.2,-128.58 1161.77,-144.71 1197.42,-181.63 1218.32,-206.85"/>
<polygon fill="#2f9e78" stroke="#2f9e78" stroke-width="1.15" points="1216.4,-208.38 1222.72,-212.28 1220.21,-205.3 1216.4,-208.38"/>
</g>
<!-- RV_2&#45;&gt;EV_2 -->
<g id="edge59" class="edge">
<title>RV_2&#45;&gt;EV_2</title>
<path fill="none" stroke="#2f9e78" stroke-width="1.15" d="M893.94,-392.02C893.94,-365.84 893.94,-339.66 893.94,-313.49"/>
<polygon fill="#2f9e78" stroke="#2f9e78" stroke-width="1.15" points="896.39,-313.73 893.94,-306.73 891.49,-313.73 896.39,-313.73"/>
</g>
<!-- RV_2&#45;&gt;LF_2 -->
<g id="edge60" class="edge">
<title>RV_2&#45;&gt;LF_2</title>
<path fill="none" stroke="#2f9e78" stroke-width="1.15" d="M939.68,-401.03C962,-396.26 989.12,-390.47 1012.28,-385.52"/>
<polygon fill="#2f9e78" stroke="#2f9e78" stroke-width="1.15" points="1012.59,-387.96 1018.92,-384.11 1011.56,-383.17 1012.59,-387.96"/>
</g>
<!-- RV_2&#45;&gt;RG_2 -->
<g id="edge61" class="edge">
<title>RV_2&#45;&gt;RG_2</title>
<path fill="none" stroke="#2f9e78" stroke-width="1.15" d="M939.68,-419.6C958.97,-423.49 981.83,-428.1 1002.63,-432.3"/>
<polygon fill="#2f9e78" stroke="#2f9e78" stroke-width="1.15" points="1002.05,-434.68 1009.39,-433.66 1003.02,-429.88 1002.05,-434.68"/>
</g>
<!-- RV_2&#45;&gt;WR_2 -->
<g id="edge62" class="edge">
<title>RV_2&#45;&gt;WR_2</title>
<path fill="none" stroke="#2f9e78" stroke-width="1.15" d="M920.81,-429.07C942.78,-443.57 975.76,-462.58 1007.86,-470.58 1056.74,-482.76 1072.16,-482.11 1121.2,-470.58 1219.35,-447.5 1322.3,-385.58 1374.2,-351.27"/>
<polygon fill="#2f9e78" stroke="#2f9e78" stroke-width="1.15" points="1375.27,-353.51 1379.73,-347.59 1372.55,-349.43 1375.27,-353.51"/>
</g>
<!-- EV_2&#45;&gt;EI_2 -->
<g id="edge64" class="edge">
<title>EV_2&#45;&gt;EI_2</title>
<path fill="none" stroke="#2f9e78" stroke-width="1.15" d="M943.7,-281.37C965.17,-279.08 990.39,-276.39 1012.15,-274.07"/>
<polygon fill="#2f9e78" stroke="#2f9e78" stroke-width="1.15" points="1012.18,-276.53 1018.88,-273.35 1011.66,-271.65 1012.18,-276.53"/>
</g>
<!-- EV_2&#45;&gt;EG_2 -->
<g id="edge63" class="edge">
<title>EV_2&#45;&gt;EG_2</title>
<path fill="none" stroke="#2f9e78" stroke-width="1.15" d="M943.71,-293.69C1003.91,-302.47 1106.5,-317.43 1173.22,-327.15"/>
<polygon fill="#2f9e78" stroke="#2f9e78" stroke-width="1.15" points="1172.57,-329.54 1179.85,-328.12 1173.28,-324.69 1172.57,-329.54"/>
</g>
<!-- EV_2&#45;&gt;PA_2 -->
<g id="edge65" class="edge">
<title>EV_2&#45;&gt;PA_2</title>
<path fill="none" stroke="#2f9e78" stroke-width="1.15" d="M915.43,-267.96C937.52,-248.27 974.05,-216.78 1007.86,-192.58 1010.89,-190.41 1014.07,-188.23 1017.3,-186.09"/>
<polygon fill="#2f9e78" stroke="#2f9e78" stroke-width="1.15" points="1018.43,-188.28 1022.97,-182.41 1015.76,-184.17 1018.43,-188.28"/>
</g>
<!-- EV_2&#45;&gt;WR_2 -->
<g id="edge66" class="edge">
<title>EV_2&#45;&gt;WR_2</title>
<path fill="none" stroke="#2f9e78" stroke-width="1.15" d="M926.39,-268.01C997.33,-228.7 1173.9,-145.52 1305.79,-206.58 1347.56,-225.92 1378.54,-271.55 1395.02,-300.92"/>
<polygon fill="#2f9e78" stroke="#2f9e78" stroke-width="1.15" points="1392.75,-301.88 1398.26,-306.85 1397.05,-299.53 1392.75,-301.88"/>
</g>
<!-- RG_2&#45;&gt;EG_2 -->
<g id="edge80" class="edge">
<title>RG_2&#45;&gt;EG_2</title>
<path fill="none" stroke="#9aa0a8" stroke-width="1.15" d="M1101.15,-426.03C1107.88,-422.35 1114.8,-418.43 1121.2,-414.58 1150.02,-397.23 1181.69,-375.91 1204.75,-359.95"/>
<polygon fill="#9aa0a8" stroke="#9aa0a8" stroke-width="1.15" points="1206.14,-361.96 1210.49,-355.96 1203.34,-357.94 1206.14,-361.96"/>
</g>
<!-- TR_2&#45;&gt;RV_2 -->
<g id="edge42" class="edge">
<title>TR_2&#45;&gt;RV_2</title>
<path fill="none" stroke="#7a52b3" stroke-width="1.15" d="M776.61,-371.77C796.25,-378.32 819.36,-386.03 839.78,-392.84"/>
<polygon fill="#7a52b3" stroke="#7a52b3" stroke-width="1.15" points="838.98,-395.16 846.4,-395.05 840.53,-390.51 838.98,-395.16"/>
</g>
<!-- TR_2&#45;&gt;EV_2 -->
<g id="edge43" class="edge">
<title>TR_2&#45;&gt;EV_2</title>
<path fill="none" stroke="#7a52b3" stroke-width="1.15" d="M774.05,-338.01C794.98,-328.95 820.3,-318 842.18,-308.53"/>
<polygon fill="#7a52b3" stroke="#7a52b3" stroke-width="1.15" points="843.03,-310.84 848.48,-305.81 841.08,-306.34 843.03,-310.84"/>
</g>
<!-- TR_2&#45;&gt;LF_2 -->
<g id="edge44" class="edge">
<title>TR_2&#45;&gt;LF_2</title>
<path fill="none" stroke="#7a52b3" stroke-width="1.15" d="M776.63,-359.05C838.15,-362.38 947.52,-368.3 1011.99,-371.79"/>
<polygon fill="#7a52b3" stroke="#7a52b3" stroke-width="1.15" points="1011.54,-374.22 1018.66,-372.15 1011.8,-369.33 1011.54,-374.22"/>
</g>
<!-- TR_2&#45;&gt;RG_2 -->
<g id="edge45" class="edge">
<title>TR_2&#45;&gt;RG_2</title>
<path fill="none" stroke="#7a52b3" stroke-width="1.15" d="M776.84,-362.42C839.57,-370.44 944.84,-383.95 946.86,-384.58 975.19,-393.41 1004.9,-408.79 1027.25,-421.77"/>
<polygon fill="#7a52b3" stroke="#7a52b3" stroke-width="1.15" points="1025.76,-423.73 1033.03,-425.18 1028.25,-419.51 1025.76,-423.73"/>
</g>
<!-- TR_2&#45;&gt;TE_2 -->
<g id="edge41" class="edge">
<title>TR_2&#45;&gt;TE_2</title>
<path fill="none" stroke="#7a52b3" stroke-width="1.15" d="M730.1,-338.15C730.1,-318.04 730.1,-297.94 730.1,-277.83"/>
<polygon fill="#7a52b3" stroke="#7a52b3" stroke-width="1.15" points="732.55,-277.95 730.1,-270.95 727.65,-277.95 732.55,-277.95"/>
</g>
<!-- TR_2&#45;&gt;WR_2 -->
<g id="edge46" class="edge">
<title>TR_2&#45;&gt;WR_2</title>
<path fill="none" stroke="#7a52b3" stroke-width="1.15" d="M776.64,-354.86C831.48,-352.88 926.39,-349.76 1007.86,-348.58 1058.23,-347.85 1071.15,-342.91 1121.2,-348.58 1148.84,-351.71 1154.56,-359.45 1182.2,-362.58 1236.78,-368.76 1251.6,-371.56 1305.79,-362.58 1322.01,-359.89 1339.1,-354.97 1354.59,-349.65"/>
<polygon fill="#7a52b3" stroke="#7a52b3" stroke-width="1.15" points="1355.1,-352.06 1360.89,-347.42 1353.47,-347.44 1355.1,-352.06"/>
</g>
<!-- TE_2&#45;&gt;EV_2 -->
<g id="edge47" class="edge">
<title>TE_2&#45;&gt;EV_2</title>
<path fill="none" stroke="#7a52b3" stroke-width="1.15" d="M780.54,-261.58C798.11,-265.49 818.03,-269.92 836.17,-273.95"/>
<polygon fill="#7a52b3" stroke="#7a52b3" stroke-width="1.15" points="835.3,-276.27 842.66,-275.4 836.36,-271.49 835.3,-276.27"/>
</g>
<!-- TE_2&#45;&gt;EI_2 -->
<g id="edge49" class="edge">
<title>TE_2&#45;&gt;EI_2</title>
<path fill="none" stroke="#7a52b3" stroke-width="1.15" d="M780.39,-252.55C824.13,-254.38 889.77,-257.3 946.86,-260.58 968.23,-261.81 991.79,-263.38 1012.11,-264.81"/>
<polygon fill="#7a52b3" stroke="#7a52b3" stroke-width="1.15" points="1011.71,-267.24 1018.87,-265.29 1012.06,-262.35 1011.71,-267.24"/>
</g>
<!-- TE_2&#45;&gt;EG_2 -->
<g id="edge48" class="edge">
<title>TE_2&#45;&gt;EG_2</title>
<path fill="none" stroke="#7a52b3" stroke-width="1.15" d="M780.56,-244.4C871.58,-233.87 1061.74,-216.04 1121.2,-242.58 1158.28,-259.13 1149.59,-286.39 1182.2,-310.58 1183.55,-311.58 1184.94,-312.56 1186.37,-313.51"/>
<polygon fill="#7a52b3" stroke="#7a52b3" stroke-width="1.15" points="1185.02,-315.55 1192.26,-317.13 1187.59,-311.38 1185.02,-315.55"/>
</g>
<!-- TE_2&#45;&gt;PA_2 -->
<g id="edge50" class="edge">
<title>TE_2&#45;&gt;PA_2</title>
<path fill="none" stroke="#7a52b3" stroke-width="1.15" d="M780.51,-236.91C841.09,-220.14 943.54,-191.79 1007.15,-174.18"/>
<polygon fill="#7a52b3" stroke="#7a52b3" stroke-width="1.15" points="1007.7,-176.57 1013.79,-172.35 1006.39,-171.85 1007.7,-176.57"/>
</g>
<!-- TE_2&#45;&gt;WR_2 -->
<g id="edge51" class="edge">
<title>TE_2&#45;&gt;WR_2</title>
<path fill="none" stroke="#7a52b3" stroke-width="1.15" d="M759.22,-232.18C780.96,-218.45 812.13,-199.86 841.02,-186.58 912.35,-153.79 930.45,-141.65 1007.86,-128.58 1057.53,-120.19 1070.94,-125.19 1121.2,-128.58 1203.8,-134.15 1236.82,-107.78 1305.79,-153.58 1358.71,-188.72 1388.14,-261.23 1400.83,-300.65"/>
<polygon fill="#7a52b3" stroke="#7a52b3" stroke-width="1.15" points="1398.35,-300.91 1402.77,-306.87 1403.02,-299.46 1398.35,-300.91"/>
</g>
<!-- LS_2&#45;&gt;PA_2 -->
<g id="edge73" class="edge">
<title>LS_2&#45;&gt;PA_2</title>
<path fill="none" stroke="#c2872a" stroke-width="1.15" d="M923.09,-461.11C931.72,-454.28 940.59,-445.91 946.86,-436.58 997.29,-361.57 968.96,-324.16 1007.86,-242.58 1016.94,-223.55 1029.81,-203.81 1040.89,-188.26"/>
<polygon fill="#c2872a" stroke="#c2872a" stroke-width="1.15" points="1042.69,-189.94 1044.81,-182.84 1038.72,-187.07 1042.69,-189.94"/>
</g>
<!-- LS_2&#45;&gt;NW_2 -->
<g id="edge72" class="edge">
<title>LS_2&#45;&gt;NW_2</title>
<path fill="none" stroke="#c2872a" stroke-width="1.15" d="M931.78,-489.51C980.12,-500.19 1065.33,-510.73 1121.2,-470.58 1183,-426.17 1130.38,-366.31 1182.2,-310.58 1182.84,-309.9 1183.49,-309.23 1184.17,-308.58"/>
<polygon fill="#c2872a" stroke="#c2872a" stroke-width="1.15" points="1185.56,-310.61 1189.38,-304.25 1182.43,-306.84 1185.56,-310.61"/>
</g>
<!-- LS_2&#45;&gt;PS_2 -->
<g id="edge74" class="edge">
<title>LS_2&#45;&gt;PS_2</title>
<path fill="none" stroke="#c2872a" stroke-width="1.15" d="M922.96,-460.96C945.1,-447.13 977.26,-428.94 1007.86,-418.58 1056.17,-402.23 1080.95,-431.9 1121.2,-400.58 1175.41,-358.4 1134.39,-307.9 1182.2,-258.58 1182.66,-258.11 1183.13,-257.64 1183.61,-257.18"/>
<polygon fill="#c2872a" stroke="#c2872a" stroke-width="1.15" points="1185.14,-259.1 1188.97,-252.75 1182.02,-255.32 1185.14,-259.1"/>
</g>
<!-- LS_2&#45;&gt;WR_2 -->
<g id="edge75" class="edge">
<title>LS_2&#45;&gt;WR_2</title>
<path fill="none" stroke="#c2872a" stroke-width="1.15" d="M932.01,-483.69C954.02,-485.93 982.5,-488.46 1007.86,-489.58 1142.98,-495.55 1190.35,-498.06 1305.79,-427.58 1338.32,-407.72 1368.67,-375.83 1387.81,-353.42"/>
<polygon fill="#c2872a" stroke="#c2872a" stroke-width="1.15" points="1389.63,-355.05 1392.26,-348.12 1385.88,-351.9 1389.63,-355.05"/>
</g>
<!-- PA_2&#45;&gt;NW_2 -->
<g id="edge77" class="edge">
<title>PA_2&#45;&gt;NW_2</title>
<path fill="none" stroke="#c2872a" stroke-width="1.15" d="M1090.23,-181.15C1118.48,-206.7 1163.26,-246.36 1182.2,-258.58 1183.96,-259.72 1185.79,-260.84 1187.65,-261.93"/>
<polygon fill="#c2872a" stroke="#c2872a" stroke-width="1.15" points="1186.15,-263.9 1193.46,-265.16 1188.53,-259.62 1186.15,-263.9"/>
</g>
<!-- PA_2&#45;&gt;PS_2 -->
<g id="edge79" class="edge">
<title>PA_2&#45;&gt;PS_2</title>
<path fill="none" stroke="#c2872a" stroke-width="1.15" d="M1113.54,-179.19C1135.99,-188.83 1162.77,-200.33 1185.72,-210.19"/>
<polygon fill="#c2872a" stroke="#c2872a" stroke-width="1.15" points="1184.66,-212.4 1192.06,-212.91 1186.6,-207.9 1184.66,-212.4"/>
</g>
<!-- PA_2&#45;&gt;WR_2 -->
<g id="edge78" class="edge">
<title>PA_2&#45;&gt;WR_2</title>
<path fill="none" stroke="#c2872a" stroke-width="1.15" d="M1113.23,-155.05C1164.36,-153.5 1246.2,-157.62 1305.79,-192.58 1349.1,-217.99 1380.27,-269.46 1396.26,-300.99"/>
<polygon fill="#c2872a" stroke="#c2872a" stroke-width="1.15" points="1393.92,-301.8 1399.22,-306.99 1398.32,-299.63 1393.92,-301.8"/>
</g>
<!-- NW_2&#45;&gt;WR_2 -->
<g id="edge76" class="edge">
<title>NW_2&#45;&gt;WR_2</title>
<path fill="none" stroke="#c2872a" stroke-width="1.15" d="M1287.73,-296.79C1306.21,-301.5 1327.59,-306.95 1347.18,-311.95"/>
<polygon fill="#c2872a" stroke="#c2872a" stroke-width="1.15" points="1346.37,-314.27 1353.76,-313.63 1347.58,-309.52 1346.37,-314.27"/>
</g>
<!-- NOTE -->
<g id="node31" class="node">
<title>NOTE</title>
<polygon fill="#f7f7f9" stroke="#6b7280" stroke-width="1.3" stroke-dasharray="5,2" points="448.59,-1088.28 0,-1088.28 0,-1042.89 454.59,-1042.89 454.59,-1082.28 448.59,-1088.28"/>
<polyline fill="none" stroke="#6b7280" stroke-width="1.3" stroke-dasharray="5,2" points="448.59,-1088.28 448.59,-1082.28"/>
<polyline fill="none" stroke="#6b7280" stroke-width="1.3" stroke-dasharray="5,2" points="454.59,-1082.28 448.59,-1082.28"/>
<text xml:space="preserve" text-anchor="middle" x="227.3" y="-1074.46" font-family="Helvetica,sans-Serif" font-size="10.00">Within each wave: the full base cascade (SP→LS→PA→NW→WR, RV→EV…).</text>
<text xml:space="preserve" text-anchor="middle" x="227.3" y="-1061.71" font-family="Helvetica,sans-Serif" font-size="10.00">Across waves: grey = carry&#45;over (same skill next wave); dashed pink = reverse (reading→language).</text>
<text xml:space="preserve" text-anchor="middle" x="227.3" y="-1048.96" font-family="Helvetica,sans-Serif" font-size="10.00">Omitted: intervention (IG/IS), hearing (HS), age (A), ability (GA) feed the skills each wave.</text>
</g>
</g>
</svg>
