<?xml version="1.0" encoding="UTF-8" standalone="no"?>
<!DOCTYPE svg PUBLIC "-//W3C//DTD SVG 1.1//EN"
 "http://www.w3.org/Graphics/SVG/1.1/DTD/svg11.dtd">
<!-- Generated by graphviz version 15.1.0 (20260618.0150)
 -->
<!-- Title: LRP_DAG Pages: 1 -->
<svg width="1237pt" height="1042pt"
 viewBox="0.00 0.00 1237.00 1042.00" xmlns="http://www.w3.org/2000/svg" xmlns:xlink="http://www.w3.org/1999/xlink">
<g id="graph0" class="graph" transform="scale(1 1) rotate(0) translate(4 1038)">
<title>LRP_DAG</title>
<polygon fill="white" stroke="none" points="-4,4 -4,-1038 1233.13,-1038 1233.13,4 -4,4"/>
<text xml:space="preserve" text-anchor="middle" x="614.57" y="-1013.85" font-family="Helvetica,sans-Serif" font-weight="bold" font-size="17.00">Language &amp; reading causal DAG — locked 2026&#45;06&#45;23 &#160;(causal flow left → right)</text>
<!-- IG -->
<g id="node1" class="node">
<title>IG</title>
<path fill="#dbe8fb" stroke="#2f6fdb" stroke-width="1.3" d="M147.09,-407.32C147.09,-407.32 69,-407.32 69,-407.32 63,-407.32 57,-401.32 57,-395.32 57,-395.32 57,-374.68 57,-374.68 57,-368.68 63,-362.68 69,-362.68 69,-362.68 147.09,-362.68 147.09,-362.68 153.09,-362.68 159.09,-368.68 159.09,-374.68 159.09,-374.68 159.09,-395.32 159.09,-395.32 159.09,-401.32 153.09,-407.32 147.09,-407.32"/>
<text xml:space="preserve" text-anchor="middle" x="108.05" y="-392.55" font-family="Helvetica,sans-Serif" font-size="11.00">IG</text>
<text xml:space="preserve" text-anchor="middle" x="108.05" y="-380.55" font-family="Helvetica,sans-Serif" font-size="11.00">intervention group</text>
<text xml:space="preserve" text-anchor="middle" x="108.05" y="-368.55" font-family="Helvetica,sans-Serif" font-size="11.00">(randomised)</text>
</g>
<!-- IS -->
<g id="node2" class="node">
<title>IS</title>
<path fill="#dbe8fb" stroke="#2f6fdb" stroke-width="1.3" d="M362.93,-403C362.93,-403 296.09,-403 296.09,-403 290.09,-403 284.09,-397 284.09,-391 284.09,-391 284.09,-379 284.09,-379 284.09,-373 290.09,-367 296.09,-367 296.09,-367 362.93,-367 362.93,-367 368.93,-367 374.93,-373 374.93,-379 374.93,-379 374.93,-391 374.93,-391 374.93,-397 368.93,-403 362.93,-403"/>
<text xml:space="preserve" text-anchor="middle" x="329.51" y="-386.55" font-family="Helvetica,sans-Serif" font-size="11.00">IS</text>
<text xml:space="preserve" text-anchor="middle" x="329.51" y="-374.55" font-family="Helvetica,sans-Serif" font-size="11.00">sessions (dose)</text>
</g>
<!-- IG&#45;&gt;IS -->
<g id="edge1" class="edge">
<title>IG&#45;&gt;IS</title>
<path fill="none" stroke="#2f6fdb" stroke-width="1.2" d="M159.67,-385C194.07,-385 239.51,-385 274.58,-385"/>
<polygon fill="#2f6fdb" stroke="#2f6fdb" stroke-width="1.2" points="274.41,-387.63 281.91,-385 274.41,-382.38 274.41,-387.63"/>
</g>
<!-- TR -->
<g id="node3" class="node">
<title>TR</title>
<path fill="#e7ddf5" stroke="#7a52b3" stroke-width="1.3" d="M527.02,-861C527.02,-861 458.68,-861 458.68,-861 452.68,-861 446.68,-855 446.68,-849 446.68,-849 446.68,-837 446.68,-837 446.68,-831 452.68,-825 458.68,-825 458.68,-825 527.02,-825 527.02,-825 533.02,-825 539.02,-831 539.02,-837 539.02,-837 539.02,-849 539.02,-849 539.02,-855 533.02,-861 527.02,-861"/>
<text xml:space="preserve" text-anchor="middle" x="492.85" y="-844.55" font-family="Helvetica,sans-Serif" font-size="11.00">TR</text>
<text xml:space="preserve" text-anchor="middle" x="492.85" y="-832.55" font-family="Helvetica,sans-Serif" font-size="11.00">taught receptive</text>
</g>
<!-- IG&#45;&gt;TR -->
<g id="edge2" class="edge">
<title>IG&#45;&gt;TR</title>
<path fill="none" stroke="#2f6fdb" stroke-width="1.2" d="M159.71,-389.24C180,-393.52 201.88,-401.88 216.09,-418 332.4,-550.02 159.32,-683.94 284.09,-808 323.73,-847.41 390.07,-852.24 437.12,-849.73"/>
<polygon fill="#2f6fdb" stroke="#2f6fdb" stroke-width="1.2" points="437.13,-852.36 444.44,-849.26 436.79,-847.12 437.13,-852.36"/>
</g>
<!-- TE -->
<g id="node4" class="node">
<title>TE</title>
<path fill="#e7ddf5" stroke="#7a52b3" stroke-width="1.3" d="M530.77,-619C530.77,-619 454.93,-619 454.93,-619 448.93,-619 442.93,-613 442.93,-607 442.93,-607 442.93,-595 442.93,-595 442.93,-589 448.93,-583 454.93,-583 454.93,-583 530.77,-583 530.77,-583 536.77,-583 542.77,-589 542.77,-595 542.77,-595 542.77,-607 542.77,-607 542.77,-613 536.77,-619 530.77,-619"/>
<text xml:space="preserve" text-anchor="middle" x="492.85" y="-602.55" font-family="Helvetica,sans-Serif" font-size="11.00">TE</text>
<text xml:space="preserve" text-anchor="middle" x="492.85" y="-590.55" font-family="Helvetica,sans-Serif" font-size="11.00">taught expressive</text>
</g>
<!-- IG&#45;&gt;TE -->
<g id="edge3" class="edge">
<title>IG&#45;&gt;TE</title>
<path fill="none" stroke="#2f6fdb" stroke-width="1.2" d="M159.69,-396.25C178.08,-401.45 198.63,-408.59 216.09,-418 250.56,-436.56 252.25,-451.22 284.09,-474 351.56,-522.26 371.95,-529.07 442.93,-572 445.98,-573.84 449.14,-575.74 452.32,-577.65"/>
<polygon fill="#2f6fdb" stroke="#2f6fdb" stroke-width="1.2" points="450.88,-579.84 458.66,-581.43 453.57,-575.33 450.88,-579.84"/>
</g>
<!-- EI -->
<g id="node10" class="node">
<title>EI</title>
<path fill="#eceef1" stroke="#9aa0a8" stroke-width="1.3" d="M865.33,-542C865.33,-542 802.24,-542 802.24,-542 796.24,-542 790.24,-536 790.24,-530 790.24,-530 790.24,-518 790.24,-518 790.24,-512 796.24,-506 802.24,-506 802.24,-506 865.33,-506 865.33,-506 871.33,-506 877.33,-512 877.33,-518 877.33,-518 877.33,-530 877.33,-530 877.33,-536 871.33,-542 865.33,-542"/>
<text xml:space="preserve" text-anchor="middle" x="833.78" y="-525.55" font-family="Helvetica,sans-Serif" font-size="11.00">EI</text>
<text xml:space="preserve" text-anchor="middle" x="833.78" y="-513.55" font-family="Helvetica,sans-Serif" font-size="11.00">expressive info</text>
</g>
<!-- IG&#45;&gt;EI -->
<g id="edge4" class="edge">
<title>IG&#45;&gt;EI</title>
<path fill="none" stroke="#2f6fdb" stroke-width="1.2" d="M159.65,-394.72C291.98,-420.13 647.26,-488.37 780.95,-514.05"/>
<polygon fill="#2f6fdb" stroke="#2f6fdb" stroke-width="1.2" points="780.17,-516.57 788.03,-515.4 781.16,-511.41 780.17,-516.57"/>
</g>
<!-- EG -->
<g id="node11" class="node">
<title>EG</title>
<path fill="#eceef1" stroke="#9aa0a8" stroke-width="1.3" d="M878.45,-763C878.45,-763 789.11,-763 789.11,-763 783.11,-763 777.11,-757 777.11,-751 777.11,-751 777.11,-739 777.11,-739 777.11,-733 783.11,-727 789.11,-727 789.11,-727 878.45,-727 878.45,-727 884.45,-727 890.45,-733 890.45,-739 890.45,-739 890.45,-751 890.45,-751 890.45,-757 884.45,-763 878.45,-763"/>
<text xml:space="preserve" text-anchor="middle" x="833.78" y="-746.55" font-family="Helvetica,sans-Serif" font-size="11.00">EG</text>
<text xml:space="preserve" text-anchor="middle" x="833.78" y="-734.55" font-family="Helvetica,sans-Serif" font-size="11.00">expressive grammar</text>
</g>
<!-- IG&#45;&gt;EG -->
<g id="edge5" class="edge">
<title>IG&#45;&gt;EG</title>
<path fill="none" stroke="#2f6fdb" stroke-width="1.2" d="M159.48,-393.09C178.57,-397.97 199.64,-405.73 216.09,-418 259.76,-450.58 249.49,-477.91 284.09,-520 347.32,-596.92 359.57,-623.54 442.93,-678 510.03,-721.84 532.05,-728.89 610.77,-744 662.72,-753.97 722.77,-753.54 767.31,-750.99"/>
<polygon fill="#2f6fdb" stroke="#2f6fdb" stroke-width="1.2" points="767.44,-753.61 774.76,-750.53 767.11,-748.37 767.44,-753.61"/>
</g>
<!-- LS -->
<g id="node13" class="node">
<title>LS</title>
<path fill="#fdecd2" stroke="#c2872a" stroke-width="1.3" d="M685.49,-202C685.49,-202 634.4,-202 634.4,-202 628.4,-202 622.4,-196 622.4,-190 622.4,-190 622.4,-178 622.4,-178 622.4,-172 628.4,-166 634.4,-166 634.4,-166 685.49,-166 685.49,-166 691.49,-166 697.49,-172 697.49,-178 697.49,-178 697.49,-190 697.49,-190 697.49,-196 691.49,-202 685.49,-202"/>
<text xml:space="preserve" text-anchor="middle" x="659.94" y="-185.55" font-family="Helvetica,sans-Serif" font-size="11.00">LS</text>
<text xml:space="preserve" text-anchor="middle" x="659.94" y="-173.55" font-family="Helvetica,sans-Serif" font-size="11.00">letter–sound</text>
</g>
<!-- IG&#45;&gt;LS -->
<g id="edge6" class="edge">
<title>IG&#45;&gt;LS</title>
<path fill="none" stroke="#2f6fdb" stroke-width="1.2" d="M133.85,-362.23C166.18,-333.66 225.53,-284.91 284.09,-256 393.5,-202 539.44,-188.43 612.76,-185.07"/>
<polygon fill="#2f6fdb" stroke="#2f6fdb" stroke-width="1.2" points="612.56,-187.7 619.95,-184.77 612.34,-182.46 612.56,-187.7"/>
</g>
<!-- PA -->
<g id="node14" class="node">
<title>PA</title>
<path fill="#fdecd2" stroke="#c2872a" stroke-width="1.3" d="M870.2,-354.32C870.2,-354.32 797.36,-354.32 797.36,-354.32 791.36,-354.32 785.36,-348.32 785.36,-342.32 785.36,-342.32 785.36,-321.68 785.36,-321.68 785.36,-315.68 791.36,-309.68 797.36,-309.68 797.36,-309.68 870.2,-309.68 870.2,-309.68 876.2,-309.68 882.2,-315.68 882.2,-321.68 882.2,-321.68 882.2,-342.32 882.2,-342.32 882.2,-348.32 876.2,-354.32 870.2,-354.32"/>
<text xml:space="preserve" text-anchor="middle" x="833.78" y="-339.55" font-family="Helvetica,sans-Serif" font-size="11.00">PA</text>
<text xml:space="preserve" text-anchor="middle" x="833.78" y="-327.55" font-family="Helvetica,sans-Serif" font-size="11.00">phoneme aware.</text>
<text xml:space="preserve" text-anchor="middle" x="833.78" y="-315.55" font-family="Helvetica,sans-Serif" font-size="11.00">(blending)</text>
</g>
<!-- IG&#45;&gt;PA -->
<g id="edge7" class="edge">
<title>IG&#45;&gt;PA</title>
<path fill="none" stroke="#2f6fdb" stroke-width="1.2" d="M159.39,-375.08C194.26,-368.6 241.82,-360.52 284.09,-356 462.91,-336.87 676.08,-332.9 775.91,-332.14"/>
<polygon fill="#2f6fdb" stroke="#2f6fdb" stroke-width="1.2" points="775.63,-334.76 783.11,-332.09 775.59,-329.51 775.63,-334.76"/>
</g>
<!-- PS -->
<g id="node16" class="node">
<title>PS</title>
<path fill="#fdecd2" stroke="#c2872a" stroke-width="1.3" d="M1042.54,-224C1042.54,-224 971.2,-224 971.2,-224 965.2,-224 959.2,-218 959.2,-212 959.2,-212 959.2,-200 959.2,-200 959.2,-194 965.2,-188 971.2,-188 971.2,-188 1042.54,-188 1042.54,-188 1048.54,-188 1054.54,-194 1054.54,-200 1054.54,-200 1054.54,-212 1054.54,-212 1054.54,-218 1048.54,-224 1042.54,-224"/>
<text xml:space="preserve" text-anchor="middle" x="1006.87" y="-207.55" font-family="Helvetica,sans-Serif" font-size="11.00">PS</text>
<text xml:space="preserve" text-anchor="middle" x="1006.87" y="-195.55" font-family="Helvetica,sans-Serif" font-size="11.00">phonetic spelling</text>
</g>
<!-- IG&#45;&gt;PS -->
<g id="edge8" class="edge">
<title>IG&#45;&gt;PS</title>
<path fill="none" stroke="#2f6fdb" stroke-width="1.2" d="M125.81,-362.03C154.05,-325.15 214.85,-253.21 284.09,-217 506.69,-100.59 823.19,-159.73 950.09,-190.88"/>
<polygon fill="#2f6fdb" stroke="#2f6fdb" stroke-width="1.2" points="949.22,-193.37 957.13,-192.63 950.49,-188.27 949.22,-193.37"/>
</g>
<!-- WR -->
<g id="node17" class="node">
<title>WR</title>
<path fill="#cfe0f7" stroke="#2f6fdb" stroke-width="2.6" d="M1217.13,-257.32C1217.13,-257.32 1135.29,-257.32 1135.29,-257.32 1129.29,-257.32 1123.29,-251.32 1123.29,-245.32 1123.29,-245.32 1123.29,-224.68 1123.29,-224.68 1123.29,-218.68 1129.29,-212.68 1135.29,-212.68 1135.29,-212.68 1217.13,-212.68 1217.13,-212.68 1223.13,-212.68 1229.13,-218.68 1229.13,-224.68 1229.13,-224.68 1229.13,-245.32 1229.13,-245.32 1229.13,-251.32 1223.13,-257.32 1217.13,-257.32"/>
<text xml:space="preserve" text-anchor="middle" x="1176.21" y="-242.55" font-family="Helvetica,sans-Serif" font-weight="bold" font-size="11.00">WR</text>
<text xml:space="preserve" text-anchor="middle" x="1176.21" y="-230.55" font-family="Helvetica,sans-Serif" font-weight="bold" font-size="11.00">WORD READING</text>
<text xml:space="preserve" text-anchor="middle" x="1176.21" y="-218.55" font-family="Helvetica,sans-Serif" font-weight="bold" font-size="11.00">(outcome)</text>
</g>
<!-- IG&#45;&gt;WR -->
<g id="edge9" class="edge">
<title>IG&#45;&gt;WR</title>
<path fill="none" stroke="#2f6fdb" stroke-width="1.2" d="M118.26,-362.07C153.25,-279.19 286.37,0 491.85,0 491.85,0 491.85,0 834.78,0 976.94,0 1102.8,-140.51 1152.57,-204.23"/>
<polygon fill="#2f6fdb" stroke="#2f6fdb" stroke-width="1.2" points="1150.49,-205.83 1157.15,-210.17 1154.64,-202.63 1150.49,-205.83"/>
</g>
<!-- IS&#45;&gt;TR -->
<g id="edge10" class="edge">
<title>IS&#45;&gt;TR</title>
<path fill="none" stroke="#2f6fdb" stroke-width="1.2" d="M334.3,-403.64C346.06,-459.56 384.62,-630.21 442.93,-762 451.42,-781.19 463.62,-801.4 473.71,-816.83"/>
<polygon fill="#2f6fdb" stroke="#2f6fdb" stroke-width="1.2" points="471.42,-818.12 477.76,-822.92 475.79,-815.22 471.42,-818.12"/>
</g>
<!-- IS&#45;&gt;TE -->
<g id="edge11" class="edge">
<title>IS&#45;&gt;TE</title>
<path fill="none" stroke="#2f6fdb" stroke-width="1.2" d="M337.93,-403.48C353.12,-439.52 390.81,-520.2 442.93,-572 444.74,-573.79 446.67,-575.52 448.7,-577.18"/>
<polygon fill="#2f6fdb" stroke="#2f6fdb" stroke-width="1.2" points="446.82,-579.05 454.4,-581.43 449.96,-574.84 446.82,-579.05"/>
</g>
<!-- IS&#45;&gt;EI -->
<g id="edge12" class="edge">
<title>IS&#45;&gt;EI</title>
<path fill="none" stroke="#2f6fdb" stroke-width="1.2" d="M375.29,-385.08C447.86,-386.6 594.57,-395.51 709.11,-440 745.29,-454.05 781.4,-480.35 805.17,-499.79"/>
<polygon fill="#2f6fdb" stroke="#2f6fdb" stroke-width="1.2" points="803.3,-501.65 810.75,-504.42 806.66,-497.61 803.3,-501.65"/>
</g>
<!-- IS&#45;&gt;EG -->
<g id="edge13" class="edge">
<title>IS&#45;&gt;EG</title>
<path fill="none" stroke="#2f6fdb" stroke-width="1.2" d="M333.85,-403.61C342.96,-448.94 372.39,-566.02 442.93,-630 534.24,-712.82 682.48,-736.16 767.43,-742.63"/>
<polygon fill="#2f6fdb" stroke="#2f6fdb" stroke-width="1.2" points="767.23,-745.25 774.9,-743.16 767.6,-740.01 767.23,-745.25"/>
</g>
<!-- IS&#45;&gt;LS -->
<g id="edge14" class="edge">
<title>IS&#45;&gt;LS</title>
<path fill="none" stroke="#2f6fdb" stroke-width="1.2" d="M360.82,-366.45C420.94,-329.66 555.16,-247.51 621.02,-207.21"/>
<polygon fill="#2f6fdb" stroke="#2f6fdb" stroke-width="1.2" points="622.13,-209.61 627.15,-203.45 619.39,-205.13 622.13,-209.61"/>
</g>
<!-- IS&#45;&gt;PA -->
<g id="edge15" class="edge">
<title>IS&#45;&gt;PA</title>
<path fill="none" stroke="#2f6fdb" stroke-width="1.2" d="M375.53,-380.25C467.06,-370.59 674.72,-348.68 775.62,-338.03"/>
<polygon fill="#2f6fdb" stroke="#2f6fdb" stroke-width="1.2" points="775.77,-340.66 782.95,-337.26 775.22,-335.43 775.77,-340.66"/>
</g>
<!-- IS&#45;&gt;PS -->
<g id="edge16" class="edge">
<title>IS&#45;&gt;PS</title>
<path fill="none" stroke="#2f6fdb" stroke-width="1.2" d="M375.35,-373.12C494.57,-341.52 819.26,-255.46 950.11,-220.78"/>
<polygon fill="#2f6fdb" stroke="#2f6fdb" stroke-width="1.2" points="950.49,-223.4 957.06,-218.94 949.14,-218.32 950.49,-223.4"/>
</g>
<!-- IS&#45;&gt;WR -->
<g id="edge17" class="edge">
<title>IS&#45;&gt;WR</title>
<path fill="none" stroke="#2f6fdb" stroke-width="1.2" d="M344.98,-366.43C382.65,-319.81 489.28,-198.47 610.77,-155 796.79,-88.44 866.05,-102.21 1055.29,-159 1086.68,-168.42 1117.82,-188.56 1140.49,-205.74"/>
<polygon fill="#2f6fdb" stroke="#2f6fdb" stroke-width="1.2" points="1138.87,-207.8 1146.41,-210.32 1142.09,-203.65 1138.87,-207.8"/>
</g>
<!-- TR&#45;&gt;TE -->
<g id="edge18" class="edge">
<title>TR&#45;&gt;TE</title>
<path fill="none" stroke="#7a52b3" stroke-width="1.2" d="M492.85,-824.66C492.85,-759.32 492.85,-693.99 492.85,-628.65"/>
<polygon fill="#7a52b3" stroke="#7a52b3" stroke-width="1.2" points="495.48,-628.75 492.85,-621.25 490.23,-628.75 495.48,-628.75"/>
</g>
<!-- RV -->
<g id="node6" class="node">
<title>RV</title>
<path fill="#d6ebe4" stroke="#2f9e78" stroke-width="1.3" d="M693.36,-953C693.36,-953 626.52,-953 626.52,-953 620.52,-953 614.52,-947 614.52,-941 614.52,-941 614.52,-929 614.52,-929 614.52,-923 620.52,-917 626.52,-917 626.52,-917 693.36,-917 693.36,-917 699.36,-917 705.36,-923 705.36,-929 705.36,-929 705.36,-941 705.36,-941 705.36,-947 699.36,-953 693.36,-953"/>
<text xml:space="preserve" text-anchor="middle" x="659.94" y="-936.55" font-family="Helvetica,sans-Serif" font-size="11.00">RV</text>
<text xml:space="preserve" text-anchor="middle" x="659.94" y="-924.55" font-family="Helvetica,sans-Serif" font-size="11.00">receptive vocab</text>
</g>
<!-- TR&#45;&gt;RV -->
<g id="edge19" class="edge">
<title>TR&#45;&gt;RV</title>
<path fill="none" stroke="#7a52b3" stroke-width="1.2" d="M527.26,-861.62C553.33,-876.15 589.68,-896.4 617.58,-911.95"/>
<polygon fill="#7a52b3" stroke="#7a52b3" stroke-width="1.2" points="616.17,-914.17 623.99,-915.53 618.72,-909.58 616.17,-914.17"/>
</g>
<!-- EV -->
<g id="node7" class="node">
<title>EV</title>
<path fill="#d6ebe4" stroke="#2f9e78" stroke-width="1.3" d="M697.11,-619C697.11,-619 622.77,-619 622.77,-619 616.77,-619 610.77,-613 610.77,-607 610.77,-607 610.77,-595 610.77,-595 610.77,-589 616.77,-583 622.77,-583 622.77,-583 697.11,-583 697.11,-583 703.11,-583 709.11,-589 709.11,-595 709.11,-595 709.11,-607 709.11,-607 709.11,-613 703.11,-619 697.11,-619"/>
<text xml:space="preserve" text-anchor="middle" x="659.94" y="-602.55" font-family="Helvetica,sans-Serif" font-size="11.00">EV</text>
<text xml:space="preserve" text-anchor="middle" x="659.94" y="-590.55" font-family="Helvetica,sans-Serif" font-size="11.00">expressive vocab</text>
</g>
<!-- TR&#45;&gt;EV -->
<g id="edge20" class="edge">
<title>TR&#45;&gt;EV</title>
<path fill="none" stroke="#7a52b3" stroke-width="1.2" d="M506.53,-824.41C535.71,-781.64 607.68,-676.14 641.21,-626.98"/>
<polygon fill="#7a52b3" stroke="#7a52b3" stroke-width="1.2" points="643.36,-628.49 645.42,-620.82 639.02,-625.54 643.36,-628.49"/>
</g>
<!-- LF -->
<g id="node8" class="node">
<title>LF</title>
<path fill="#eceef1" stroke="#9aa0a8" stroke-width="1.3" d="M865.33,-901C865.33,-901 802.24,-901 802.24,-901 796.24,-901 790.24,-895 790.24,-889 790.24,-889 790.24,-877 790.24,-877 790.24,-871 796.24,-865 802.24,-865 802.24,-865 865.33,-865 865.33,-865 871.33,-865 877.33,-871 877.33,-877 877.33,-877 877.33,-889 877.33,-889 877.33,-895 871.33,-901 865.33,-901"/>
<text xml:space="preserve" text-anchor="middle" x="833.78" y="-884.55" font-family="Helvetica,sans-Serif" font-size="11.00">LF</text>
<text xml:space="preserve" text-anchor="middle" x="833.78" y="-872.55" font-family="Helvetica,sans-Serif" font-size="11.00">language fund.</text>
</g>
<!-- TR&#45;&gt;LF -->
<g id="edge21" class="edge">
<title>TR&#45;&gt;LF</title>
<path fill="none" stroke="#7a52b3" stroke-width="1.2" d="M539.56,-848.39C602.29,-855.8 714.77,-869.07 780.68,-876.85"/>
<polygon fill="#7a52b3" stroke="#7a52b3" stroke-width="1.2" points="780.11,-879.43 787.86,-877.7 780.72,-874.21 780.11,-879.43"/>
</g>
<!-- RG -->
<g id="node9" class="node">
<title>RG</title>
<path fill="#eceef1" stroke="#9aa0a8" stroke-width="1.3" d="M874.7,-1005C874.7,-1005 792.86,-1005 792.86,-1005 786.86,-1005 780.86,-999 780.86,-993 780.86,-993 780.86,-981 780.86,-981 780.86,-975 786.86,-969 792.86,-969 792.86,-969 874.7,-969 874.7,-969 880.7,-969 886.7,-975 886.7,-981 886.7,-981 886.7,-993 886.7,-993 886.7,-999 880.7,-1005 874.7,-1005"/>
<text xml:space="preserve" text-anchor="middle" x="833.78" y="-988.55" font-family="Helvetica,sans-Serif" font-size="11.00">RG</text>
<text xml:space="preserve" text-anchor="middle" x="833.78" y="-976.55" font-family="Helvetica,sans-Serif" font-size="11.00">receptive grammar</text>
</g>
<!-- TR&#45;&gt;RG -->
<g id="edge22" class="edge">
<title>TR&#45;&gt;RG</title>
<path fill="none" stroke="#7a52b3" stroke-width="1.2" d="M505.22,-861.2C523.61,-888.83 562.7,-940.61 610.77,-964 660.91,-988.4 724.83,-992.64 771.2,-991.67"/>
<polygon fill="#7a52b3" stroke="#7a52b3" stroke-width="1.2" points="770.99,-994.3 778.41,-991.46 770.84,-989.05 770.99,-994.3"/>
</g>
<!-- TR&#45;&gt;WR -->
<g id="edge23" class="edge">
<title>TR&#45;&gt;WR</title>
<path fill="none" stroke="#7a52b3" stroke-width="1.2" d="M539.49,-847.27C618.79,-852.26 783.74,-851.56 890.45,-774 1070.86,-642.88 1147.21,-362.39 1168.57,-267.3"/>
<polygon fill="#7a52b3" stroke="#7a52b3" stroke-width="1.2" points="1171.08,-268.09 1170.13,-260.2 1165.96,-266.96 1171.08,-268.09"/>
</g>
<!-- TE&#45;&gt;EV -->
<g id="edge24" class="edge">
<title>TE&#45;&gt;EV</title>
<path fill="none" stroke="#7a52b3" stroke-width="1.2" d="M543.38,-601C561.58,-601 582.35,-601 601.21,-601"/>
<polygon fill="#7a52b3" stroke="#7a52b3" stroke-width="1.2" points="600.98,-603.63 608.48,-601 600.98,-598.38 600.98,-603.63"/>
</g>
<!-- TE&#45;&gt;EI -->
<g id="edge25" class="edge">
<title>TE&#45;&gt;EI</title>
<path fill="none" stroke="#7a52b3" stroke-width="1.2" d="M543.27,-588.39C564.07,-583.18 588.56,-577.15 610.77,-572 668.81,-558.53 735.67,-544.24 780.73,-534.79"/>
<polygon fill="#7a52b3" stroke="#7a52b3" stroke-width="1.2" points="781.14,-537.39 787.94,-533.28 780.06,-532.25 781.14,-537.39"/>
</g>
<!-- TE&#45;&gt;EG -->
<g id="edge26" class="edge">
<title>TE&#45;&gt;EG</title>
<path fill="none" stroke="#7a52b3" stroke-width="1.2" d="M537.47,-619.53C599.79,-646.01 714.14,-694.59 780.78,-722.91"/>
<polygon fill="#7a52b3" stroke="#7a52b3" stroke-width="1.2" points="779.46,-725.2 787.39,-725.72 781.52,-720.37 779.46,-725.2"/>
</g>
<!-- SP -->
<g id="node12" class="node">
<title>SP</title>
<path fill="#fbe1e0" stroke="#d0433f" stroke-width="1.3" d="M873.58,-643C873.58,-643 793.99,-643 793.99,-643 787.99,-643 781.99,-637 781.99,-631 781.99,-631 781.99,-619 781.99,-619 781.99,-613 787.99,-607 793.99,-607 793.99,-607 873.58,-607 873.58,-607 879.58,-607 885.58,-613 885.58,-619 885.58,-619 885.58,-631 885.58,-631 885.58,-637 879.58,-643 873.58,-643"/>
<text xml:space="preserve" text-anchor="middle" x="833.78" y="-626.55" font-family="Helvetica,sans-Serif" font-size="11.00">SP</text>
<text xml:space="preserve" text-anchor="middle" x="833.78" y="-614.55" font-family="Helvetica,sans-Serif" font-size="11.00">speech production</text>
</g>
<!-- TE&#45;&gt;SP -->
<g id="edge27" class="edge">
<title>TE&#45;&gt;SP</title>
<path fill="none" stroke="#7a52b3" stroke-width="1.2" d="M543.42,-616.12C564.04,-621.67 588.35,-627.26 610.77,-630 665.08,-636.63 727.39,-634.38 772.15,-631.05"/>
<polygon fill="#7a52b3" stroke="#7a52b3" stroke-width="1.2" points="772.35,-633.67 779.62,-630.46 771.94,-628.43 772.35,-633.67"/>
</g>
<!-- TE&#45;&gt;PA -->
<g id="edge28" class="edge">
<title>TE&#45;&gt;PA</title>
<path fill="none" stroke="#7a52b3" stroke-width="1.2" d="M526.67,-582.51C532.14,-579.15 537.68,-575.58 542.77,-572 641.75,-502.35 749.28,-407.88 801.2,-360.94"/>
<polygon fill="#7a52b3" stroke="#7a52b3" stroke-width="1.2" points="802.71,-363.12 806.51,-356.14 799.19,-359.23 802.71,-363.12"/>
</g>
<!-- RW -->
<g id="node5" class="node">
<title>RW</title>
<path fill="#d6ebe4" stroke="#2f9e78" stroke-width="1.3" d="M524.39,-561C524.39,-561 461.31,-561 461.31,-561 455.31,-561 449.31,-555 449.31,-549 449.31,-549 449.31,-537 449.31,-537 449.31,-531 455.31,-525 461.31,-525 461.31,-525 524.39,-525 524.39,-525 530.39,-525 536.39,-531 536.39,-537 536.39,-537 536.39,-549 536.39,-549 536.39,-555 530.39,-561 524.39,-561"/>
<text xml:space="preserve" text-anchor="middle" x="492.85" y="-544.55" font-family="Helvetica,sans-Serif" font-size="11.00">RW</text>
<text xml:space="preserve" text-anchor="middle" x="492.85" y="-532.55" font-family="Helvetica,sans-Serif" font-size="11.00">word repetition</text>
</g>
<!-- RW&#45;&gt;EV -->
<g id="edge29" class="edge">
<title>RW&#45;&gt;EV</title>
<path fill="none" stroke="#2f9e78" stroke-width="1.2" d="M536.79,-558.09C556.61,-565.05 580.42,-573.41 601.73,-580.9"/>
<polygon fill="#2f9e78" stroke="#2f9e78" stroke-width="1.2" points="600.72,-583.33 608.67,-583.34 602.46,-578.38 600.72,-583.33"/>
</g>
<!-- RV&#45;&gt;EV -->
<g id="edge30" class="edge">
<title>RV&#45;&gt;EV</title>
<path fill="none" stroke="#2f9e78" stroke-width="1.2" d="M659.94,-916.52C659.94,-820.64 659.94,-724.75 659.94,-628.87"/>
<polygon fill="#2f9e78" stroke="#2f9e78" stroke-width="1.2" points="662.57,-628.91 659.94,-621.41 657.32,-628.91 662.57,-628.91"/>
</g>
<!-- RV&#45;&gt;LF -->
<g id="edge31" class="edge">
<title>RV&#45;&gt;LF</title>
<path fill="none" stroke="#2f9e78" stroke-width="1.2" d="M705.64,-921.47C728.76,-914.48 757.09,-905.9 781.14,-898.63"/>
<polygon fill="#2f9e78" stroke="#2f9e78" stroke-width="1.2" points="781.63,-901.22 788.05,-896.54 780.11,-896.2 781.63,-901.22"/>
</g>
<!-- RV&#45;&gt;RG -->
<g id="edge32" class="edge">
<title>RV&#45;&gt;RG</title>
<path fill="none" stroke="#2f9e78" stroke-width="1.2" d="M705.64,-948.53C725.74,-954.61 749.79,-961.89 771.53,-968.47"/>
<polygon fill="#2f9e78" stroke="#2f9e78" stroke-width="1.2" points="770.7,-970.96 778.64,-970.62 772.22,-965.93 770.7,-970.96"/>
</g>
<!-- RV&#45;&gt;WR -->
<g id="edge33" class="edge">
<title>RV&#45;&gt;WR</title>
<path fill="none" stroke="#2f9e78" stroke-width="1.2" d="M705.71,-940.7C789.34,-948.54 968.67,-951.5 1055.29,-848 1130.69,-757.9 1164.36,-381.15 1172.93,-267.56"/>
<polygon fill="#2f9e78" stroke="#2f9e78" stroke-width="1.2" points="1175.54,-267.79 1173.48,-260.12 1170.31,-267.41 1175.54,-267.79"/>
</g>
<!-- EV&#45;&gt;EI -->
<g id="edge34" class="edge">
<title>EV&#45;&gt;EI</title>
<path fill="none" stroke="#2f9e78" stroke-width="1.2" d="M702.54,-582.36C726.72,-571.52 757.36,-557.8 782.84,-546.38"/>
<polygon fill="#2f9e78" stroke="#2f9e78" stroke-width="1.2" points="783.84,-548.81 789.61,-543.34 781.69,-544.02 783.84,-548.81"/>
</g>
<!-- EV&#45;&gt;EG -->
<g id="edge35" class="edge">
<title>EV&#45;&gt;EG</title>
<path fill="none" stroke="#2f9e78" stroke-width="1.2" d="M683.05,-619.53C713.86,-645.34 769.73,-692.17 803.82,-720.74"/>
<polygon fill="#2f9e78" stroke="#2f9e78" stroke-width="1.2" points="801.92,-722.57 809.36,-725.37 805.3,-718.54 801.92,-722.57"/>
</g>
<!-- EV&#45;&gt;SP -->
<g id="edge36" class="edge">
<title>EV&#45;&gt;SP</title>
<path fill="none" stroke="#2f9e78" stroke-width="1.2" d="M709.72,-607.81C729.26,-610.54 751.96,-613.71 772.51,-616.58"/>
<polygon fill="#2f9e78" stroke="#2f9e78" stroke-width="1.2" points="771.89,-619.15 779.68,-617.58 772.61,-613.95 771.89,-619.15"/>
</g>
<!-- EV&#45;&gt;PA -->
<g id="edge37" class="edge">
<title>EV&#45;&gt;PA</title>
<path fill="none" stroke="#2f9e78" stroke-width="1.2" d="M672.75,-582.51C701.88,-536.92 777.37,-418.74 813.27,-362.55"/>
<polygon fill="#2f9e78" stroke="#2f9e78" stroke-width="1.2" points="815.46,-363.99 817.29,-356.25 811.04,-361.16 815.46,-363.99"/>
</g>
<!-- RG&#45;&gt;EG -->
<g id="edge38" class="edge">
<title>RG&#45;&gt;EG</title>
<path fill="none" stroke="#9aa0a8" stroke-width="1.2" d="M780.29,-971.59C765.71,-964.67 751.61,-954.84 743.11,-941 725.44,-912.22 732.37,-897.03 743.11,-865 755.67,-827.53 785.07,-792.42 807.01,-769.98"/>
<polygon fill="#9aa0a8" stroke="#9aa0a8" stroke-width="1.2" points="808.82,-771.88 812.27,-764.72 805.11,-768.17 808.82,-771.88"/>
</g>
<!-- LS&#45;&gt;PA -->
<g id="edge39" class="edge">
<title>LS&#45;&gt;PA</title>
<path fill="none" stroke="#c2872a" stroke-width="1.2" d="M682.36,-202.45C711.79,-227.8 765.04,-273.65 799.64,-303.46"/>
<polygon fill="#c2872a" stroke="#c2872a" stroke-width="1.2" points="797.52,-305.1 804.92,-308.01 800.95,-301.12 797.52,-305.1"/>
</g>
<!-- NW -->
<g id="node15" class="node">
<title>NW</title>
<path fill="#fdecd2" stroke="#c2872a" stroke-width="1.3" d="M1043.29,-282C1043.29,-282 970.45,-282 970.45,-282 964.45,-282 958.45,-276 958.45,-270 958.45,-270 958.45,-258 958.45,-258 958.45,-252 964.45,-246 970.45,-246 970.45,-246 1043.29,-246 1043.29,-246 1049.29,-246 1055.29,-252 1055.29,-258 1055.29,-258 1055.29,-270 1055.29,-270 1055.29,-276 1049.29,-282 1043.29,-282"/>
<text xml:space="preserve" text-anchor="middle" x="1006.87" y="-265.55" font-family="Helvetica,sans-Serif" font-size="11.00">NW</text>
<text xml:space="preserve" text-anchor="middle" x="1006.87" y="-253.55" font-family="Helvetica,sans-Serif" font-size="11.00">nonword reading</text>
</g>
<!-- LS&#45;&gt;NW -->
<g id="edge40" class="edge">
<title>LS&#45;&gt;NW</title>
<path fill="none" stroke="#c2872a" stroke-width="1.2" d="M698.06,-193.08C720.85,-198.62 750.65,-205.8 777.11,-212 835.66,-225.71 902.78,-240.9 949.09,-251.31"/>
<polygon fill="#c2872a" stroke="#c2872a" stroke-width="1.2" points="948.41,-253.85 956.3,-252.93 949.56,-248.72 948.41,-253.85"/>
</g>
<!-- LS&#45;&gt;PS -->
<g id="edge41" class="edge">
<title>LS&#45;&gt;PS</title>
<path fill="none" stroke="#c2872a" stroke-width="1.2" d="M697.85,-186.35C758.23,-190.21 878.48,-197.87 949.56,-202.41"/>
<polygon fill="#c2872a" stroke="#c2872a" stroke-width="1.2" points="949.36,-205.03 957.01,-202.88 949.69,-199.79 949.36,-205.03"/>
</g>
<!-- LS&#45;&gt;WR -->
<g id="edge42" class="edge">
<title>LS&#45;&gt;WR</title>
<path fill="none" stroke="#c2872a" stroke-width="1.2" d="M697.98,-177.49C768.57,-166.35 926.81,-147.56 1055.29,-177 1081.18,-182.93 1107.97,-195.21 1129.64,-206.95"/>
<polygon fill="#c2872a" stroke="#c2872a" stroke-width="1.2" points="1128.27,-209.19 1136.1,-210.53 1130.81,-204.6 1128.27,-209.19"/>
</g>
<!-- PA&#45;&gt;NW -->
<g id="edge43" class="edge">
<title>PA&#45;&gt;NW</title>
<path fill="none" stroke="#c2872a" stroke-width="1.2" d="M882.44,-313.06C903.56,-304.66 928.55,-294.73 950.5,-286.01"/>
<polygon fill="#c2872a" stroke="#c2872a" stroke-width="1.2" points="951.37,-288.49 957.37,-283.28 949.43,-283.61 951.37,-288.49"/>
</g>
<!-- PA&#45;&gt;PS -->
<g id="edge44" class="edge">
<title>PA&#45;&gt;PS</title>
<path fill="none" stroke="#c2872a" stroke-width="1.2" d="M868.42,-309.2C875.77,-304.01 883.45,-298.42 890.45,-293 921.86,-268.69 926.3,-258.32 958.45,-235 961.06,-233.1 963.81,-231.21 966.6,-229.34"/>
<polygon fill="#c2872a" stroke="#c2872a" stroke-width="1.2" points="967.66,-231.78 972.52,-225.5 964.8,-227.38 967.66,-231.78"/>
</g>
<!-- PA&#45;&gt;WR -->
<g id="edge45" class="edge">
<title>PA&#45;&gt;WR</title>
<path fill="none" stroke="#c2872a" stroke-width="1.2" d="M882.58,-327.39C927.88,-322.13 997.4,-311.72 1055.29,-293 1079.18,-285.27 1104.38,-273.67 1125.48,-262.86"/>
<polygon fill="#c2872a" stroke="#c2872a" stroke-width="1.2" points="1126.6,-265.24 1132.04,-259.45 1124.18,-260.58 1126.6,-265.24"/>
</g>
<!-- NW&#45;&gt;WR -->
<g id="edge46" class="edge">
<title>NW&#45;&gt;WR</title>
<path fill="none" stroke="#c2872a" stroke-width="1.2" d="M1055.82,-255.69C1073.67,-252.6 1094.18,-249.04 1113.11,-245.76"/>
<polygon fill="#c2872a" stroke="#c2872a" stroke-width="1.2" points="1113.53,-248.35 1120.47,-244.49 1112.63,-243.18 1113.53,-248.35"/>
</g>
<!-- PS&#45;&gt;WR -->
<g id="edge47" class="edge">
<title>PS&#45;&gt;WR</title>
<path fill="none" stroke="#c2872a" stroke-width="1.2" d="M1054.93,-214.16C1072.95,-217.28 1093.8,-220.89 1113.03,-224.22"/>
<polygon fill="#c2872a" stroke="#c2872a" stroke-width="1.2" points="1112.4,-226.78 1120.24,-225.47 1113.29,-221.61 1112.4,-226.78"/>
</g>
<!-- ABG -->
<g id="node18" class="node">
<title>ABG</title>
<polygon fill="#f7f7f9" stroke="#6b7280" stroke-width="1.3" stroke-dasharray="5,2" points="210.09,-484.57 0,-484.57 0,-429.43 216.09,-429.43 216.09,-478.57 210.09,-484.57"/>
<polyline fill="none" stroke="#6b7280" stroke-width="1.3" stroke-dasharray="5,2" points="210.09,-484.57 210.09,-478.57"/>
<polyline fill="none" stroke="#6b7280" stroke-width="1.3" stroke-dasharray="5,2" points="216.09,-478.57 210.09,-478.57"/>
<text xml:space="preserve" text-anchor="middle" x="108.05" y="-470.75" font-family="Helvetica,sans-Serif" font-size="10.00">A · age</text>
<text xml:space="preserve" text-anchor="middle" x="108.05" y="-459.5" font-family="Helvetica,sans-Serif" font-size="10.00">GA · general ability (latent)</text>
<text xml:space="preserve" text-anchor="middle" x="108.05" y="-448.25" font-family="Helvetica,sans-Serif" font-size="10.00">→ common causes of EVERY observed node</text>
<text xml:space="preserve" text-anchor="middle" x="108.05" y="-435.5" font-family="Helvetica,sans-Serif" font-size="10.00">(16 edges each; omitted for clarity)</text>
</g>
<!-- LEG -->
<g id="node19" class="node">
<title>LEG</title>
<path fill="#eceef1" stroke="none" stroke-width="1.3" d="M200.3,-659.5C200.3,-659.5 15.8,-659.5 15.8,-659.5 9.8,-659.5 3.8,-653.5 3.8,-647.5 3.8,-647.5 3.8,-518.5 3.8,-518.5 3.8,-512.5 9.8,-506.5 15.8,-506.5 15.8,-506.5 200.3,-506.5 200.3,-506.5 206.3,-506.5 212.3,-512.5 212.3,-518.5 212.3,-518.5 212.3,-647.5 212.3,-647.5 212.3,-653.5 206.3,-659.5 200.3,-659.5"/>
<text xml:space="preserve" text-anchor="start" x="7.8" y="-646.05" font-family="Helvetica,sans-Serif" font-weight="bold" font-size="11.00">domain</text>
<polygon fill="#dbe8fb" stroke="none" points="4.8,-621.5 4.8,-639.5 22.8,-639.5 22.8,-621.5 4.8,-621.5"/>
<text xml:space="preserve" text-anchor="start" x="12.3" y="-627.5" font-family="Helvetica,sans-Serif" font-size="11.00"> </text>
<text xml:space="preserve" text-anchor="start" x="26.8" y="-627.5" font-family="Helvetica,sans-Serif" font-size="11.00">intervention</text>
<polygon fill="#e7ddf5" stroke="none" points="4.8,-602.5 4.8,-620.5 22.8,-620.5 22.8,-602.5 4.8,-602.5"/>
<text xml:space="preserve" text-anchor="start" x="12.3" y="-608.5" font-family="Helvetica,sans-Serif" font-size="11.00"> </text>
<text xml:space="preserve" text-anchor="start" x="26.8" y="-608.5" font-family="Helvetica,sans-Serif" font-size="11.00">taught vocabulary</text>
<polygon fill="#d6ebe4" stroke="none" points="4.8,-583.5 4.8,-601.5 22.8,-601.5 22.8,-583.5 4.8,-583.5"/>
<text xml:space="preserve" text-anchor="start" x="12.3" y="-589.5" font-family="Helvetica,sans-Serif" font-size="11.00"> </text>
<text xml:space="preserve" text-anchor="start" x="26.8" y="-589.5" font-family="Helvetica,sans-Serif" font-size="11.00">standardised vocab / repetition</text>
<polygon fill="#eceef1" stroke="none" points="4.8,-564.5 4.8,-582.5 22.8,-582.5 22.8,-564.5 4.8,-564.5"/>
<text xml:space="preserve" text-anchor="start" x="12.3" y="-570.5" font-family="Helvetica,sans-Serif" font-size="11.00"> </text>
<text xml:space="preserve" text-anchor="start" x="26.8" y="-570.5" font-family="Helvetica,sans-Serif" font-size="11.00">language &amp; grammar (no path to WR)</text>
<polygon fill="#fbe1e0" stroke="none" points="4.8,-545.5 4.8,-563.5 22.8,-563.5 22.8,-545.5 4.8,-545.5"/>
<text xml:space="preserve" text-anchor="start" x="12.3" y="-551.5" font-family="Helvetica,sans-Serif" font-size="11.00"> </text>
<text xml:space="preserve" text-anchor="start" x="26.8" y="-551.5" font-family="Helvetica,sans-Serif" font-size="11.00">speech (sink)</text>
<polygon fill="#fdecd2" stroke="none" points="4.8,-526.5 4.8,-544.5 22.8,-544.5 22.8,-526.5 4.8,-526.5"/>
<text xml:space="preserve" text-anchor="start" x="12.3" y="-532.5" font-family="Helvetica,sans-Serif" font-size="11.00"> </text>
<text xml:space="preserve" text-anchor="start" x="26.8" y="-532.5" font-family="Helvetica,sans-Serif" font-size="11.00">code / reading route</text>
<polygon fill="#cfe0f7" stroke="none" points="4.8,-507.5 4.8,-525.5 22.8,-525.5 22.8,-507.5 4.8,-507.5"/>
<text xml:space="preserve" text-anchor="start" x="12.3" y="-513.5" font-family="Helvetica,sans-Serif" font-size="11.00"> </text>
<text xml:space="preserve" text-anchor="start" x="26.8" y="-513.5" font-family="Helvetica,sans-Serif" font-size="11.00">outcome</text>
</g>
</g>
</svg>
