<?xml version="1.0" encoding="UTF-8" standalone="no"?>
<!DOCTYPE svg PUBLIC "-//W3C//DTD SVG 1.1//EN"
 "http://www.w3.org/Graphics/SVG/1.1/DTD/svg11.dtd">
<!-- Generated by graphviz version 14.1.2 (0)
 -->
<!-- Pages: 1 -->
<svg width="1157pt" height="438pt"
 viewBox="0.00 0.00 1157.00 438.00" xmlns="http://www.w3.org/2000/svg" xmlns:xlink="http://www.w3.org/1999/xlink">
<g id="graph0" class="graph" transform="scale(1 1) rotate(0) translate(4 433.72)">
<polygon fill="white" stroke="none" points="-4,4 -4,-433.72 1153.19,-433.72 1153.19,4 -4,4"/>
<!-- g -->
<g id="node1" class="node">
<title>g</title>
<ellipse fill="none" stroke="#737373" stroke-dasharray="5,2" cx="455.95" cy="-253.36" rx="82.38" ry="82.38"/>
<text xml:space="preserve" text-anchor="middle" x="455.95" y="-256.56" font-family="Times,serif" font-size="14.00" fill="#737373">General ability (g)</text>
<text xml:space="preserve" text-anchor="middle" x="455.95" y="-240.06" font-family="Times,serif" font-size="14.00" fill="#737373">[latent, not fitted]</text>
</g>
<!-- ls -->
<g id="node2" class="node">
<title>ls</title>
<ellipse fill="none" stroke="black" cx="455.95" cy="-105.99" rx="82.91" ry="28.99"/>
<text xml:space="preserve" text-anchor="middle" x="455.95" y="-109.19" font-family="Times,serif" font-size="14.00">Letter sounds (T1)</text>
<text xml:space="preserve" text-anchor="middle" x="455.95" y="-92.69" font-family="Times,serif" font-size="14.00">YARC&#45;LSK</text>
</g>
<!-- g&#45;&gt;ls -->
<g id="edge1" class="edge">
<title>g&#45;&gt;ls</title>
<path fill="none" stroke="black" d="M455.95,-170.75C455.95,-162.43 455.95,-154.26 455.95,-146.7"/>
<polygon fill="black" stroke="black" points="459.45,-146.89 455.95,-136.89 452.45,-146.89 459.45,-146.89"/>
</g>
<!-- lang -->
<g id="node3" class="node">
<title>lang</title>
<ellipse fill="none" stroke="black" cx="683.95" cy="-105.99" rx="127.46" ry="28.99"/>
<text xml:space="preserve" text-anchor="middle" x="683.95" y="-109.19" font-family="Times,serif" font-size="14.00">Language composite (T1)</text>
<text xml:space="preserve" text-anchor="middle" x="683.95" y="-92.69" font-family="Times,serif" font-size="14.00">ROWPVT+EOWPVT+CELF</text>
</g>
<!-- g&#45;&gt;lang -->
<g id="edge2" class="edge">
<title>g&#45;&gt;lang</title>
<path fill="none" stroke="black" d="M525.28,-208.15C559.83,-186.12 600.89,-159.95 632.58,-139.74"/>
<polygon fill="black" stroke="black" points="634.27,-142.82 640.82,-134.49 630.5,-136.92 634.27,-142.82"/>
</g>
<!-- blend -->
<g id="node4" class="node">
<title>blend</title>
<ellipse fill="none" stroke="black" cx="892.95" cy="-105.99" rx="63.63" ry="18"/>
<text xml:space="preserve" text-anchor="middle" x="892.95" y="-100.94" font-family="Times,serif" font-size="14.00">Blending (T1)</text>
</g>
<!-- g&#45;&gt;blend -->
<g id="edge3" class="edge">
<title>g&#45;&gt;blend</title>
<path fill="none" stroke="black" d="M534.82,-228.28C608.83,-205.37 722.42,-169.38 819.95,-134.98 828.59,-131.93 837.76,-128.55 846.56,-125.21"/>
<polygon fill="black" stroke="black" points="847.57,-128.57 855.66,-121.73 845.07,-122.03 847.57,-128.57"/>
</g>
<!-- nvma -->
<g id="node5" class="node">
<title>nvma</title>
<ellipse fill="none" stroke="black" cx="125.95" cy="-105.99" rx="92.45" ry="28.99"/>
<text xml:space="preserve" text-anchor="middle" x="125.95" y="-109.19" font-family="Times,serif" font-size="14.00">Non&#45;verbal MA (T1)</text>
<text xml:space="preserve" text-anchor="middle" x="125.95" y="-92.69" font-family="Times,serif" font-size="14.00">block design</text>
</g>
<!-- g&#45;&gt;nvma -->
<g id="edge4" class="edge">
<title>g&#45;&gt;nvma</title>
<path fill="none" stroke="black" d="M380.65,-219.19C322.66,-193.65 243.43,-158.74 188.81,-134.68"/>
<polygon fill="black" stroke="black" points="190.52,-131.61 179.95,-130.78 187.69,-138.02 190.52,-131.61"/>
</g>
<!-- wpre -->
<g id="node6" class="node">
<title>wpre</title>
<polygon fill="none" stroke="black" points="355.32,-126.49 236.57,-126.49 236.57,-85.49 355.32,-85.49 355.32,-126.49"/>
<text xml:space="preserve" text-anchor="middle" x="295.95" y="-109.19" font-family="Times,serif" font-size="14.00">Word reading (T1)</text>
<text xml:space="preserve" text-anchor="middle" x="295.95" y="-92.69" font-family="Times,serif" font-size="14.00">W_pre</text>
</g>
<!-- g&#45;&gt;wpre -->
<g id="edge5" class="edge">
<title>g&#45;&gt;wpre</title>
<path fill="none" stroke="black" d="M395.46,-197.4C371.82,-175.93 345.76,-152.25 326.25,-134.52"/>
<polygon fill="black" stroke="black" points="328.64,-131.97 318.89,-127.84 323.94,-137.15 328.64,-131.97"/>
</g>
<!-- wgain -->
<g id="node9" class="node">
<title>wgain</title>
<polygon fill="#e8eef7" stroke="black" points="670.2,-41 469.7,-41 469.7,0 670.2,0 670.2,-41"/>
<text xml:space="preserve" text-anchor="middle" x="569.95" y="-23.7" font-family="Times,serif" font-size="14.00">Word&#45;reading gain</text>
<text xml:space="preserve" text-anchor="middle" x="569.95" y="-7.2" font-family="Times,serif" font-size="14.00">(T1 &#45;&gt; last wave; W_last | W_T1)</text>
</g>
<!-- ls&#45;&gt;wgain -->
<g id="edge9" class="edge">
<title>ls&#45;&gt;wgain</title>
<path fill="none" stroke="black" d="M491.08,-79.26C504.58,-69.37 520.01,-58.07 533.62,-48.1"/>
<polygon fill="black" stroke="black" points="535.49,-51.07 541.49,-42.34 531.35,-45.43 535.49,-51.07"/>
</g>
<!-- lang&#45;&gt;wgain -->
<g id="edge10" class="edge">
<title>lang&#45;&gt;wgain</title>
<path fill="none" stroke="black" d="M646.93,-77.88C633.85,-68.31 619.17,-57.55 606.16,-48.02"/>
<polygon fill="black" stroke="black" points="608.38,-45.31 598.25,-42.23 604.25,-50.96 608.38,-45.31"/>
</g>
<!-- blend&#45;&gt;wgain -->
<g id="edge11" class="edge">
<title>blend&#45;&gt;wgain</title>
<path fill="none" stroke="black" d="M858.41,-90.55C846.37,-85.83 832.68,-80.83 819.95,-77 775.3,-63.56 725.28,-51.82 681.78,-42.64"/>
<polygon fill="black" stroke="black" points="682.56,-39.23 672.06,-40.61 681.13,-46.08 682.56,-39.23"/>
</g>
<!-- nvma&#45;&gt;wgain -->
<g id="edge13" class="edge">
<title>nvma&#45;&gt;wgain</title>
<path fill="none" stroke="#737373" stroke-dasharray="5,2" d="M192.63,-85.59C204.35,-82.5 216.46,-79.5 227.95,-77 304.36,-60.36 391.37,-46.31 458.5,-36.51"/>
<polygon fill="#737373" stroke="#737373" points="458.63,-40.03 468.03,-35.13 457.63,-33.1 458.63,-40.03"/>
</g>
<!-- wpre&#45;&gt;wgain -->
<g id="edge12" class="edge">
<title>wpre&#45;&gt;wgain</title>
<path fill="none" stroke="black" d="M342.1,-85.07C349.36,-82.21 356.81,-79.42 363.95,-77 400.03,-64.77 440.37,-53.41 475.73,-44.19"/>
<polygon fill="black" stroke="black" points="476.26,-47.67 485.06,-41.78 474.51,-40.89 476.26,-47.67"/>
</g>
<!-- ses -->
<g id="node7" class="node">
<title>ses</title>
<ellipse fill="none" stroke="black" cx="305.95" cy="-400.73" rx="88.21" ry="28.99"/>
<text xml:space="preserve" text-anchor="middle" x="305.95" y="-403.93" font-family="Times,serif" font-size="14.00">SES</text>
<text xml:space="preserve" text-anchor="middle" x="305.95" y="-387.43" font-family="Times,serif" font-size="14.00">(parental education)</text>
</g>
<!-- ses&#45;&gt;g -->
<g id="edge6" class="edge">
<title>ses&#45;&gt;g</title>
<path fill="none" stroke="black" d="M333.46,-373.07C349.14,-357.87 369.54,-338.1 389.17,-319.08"/>
<polygon fill="black" stroke="black" points="391.39,-321.8 396.14,-312.32 386.52,-316.77 391.39,-321.8"/>
</g>
<!-- ses&#45;&gt;wgain -->
<g id="edge15" class="edge">
<title>ses&#45;&gt;wgain</title>
<path fill="none" stroke="#737373" stroke-dasharray="5,2" d="M257.58,-376.19C153.45,-322.55 -74.78,-187.4 24.95,-77 53.4,-45.5 307.23,-30.94 458.25,-25.02"/>
<polygon fill="#737373" stroke="#737373" points="458.02,-28.53 467.87,-24.65 457.75,-21.53 458.02,-28.53"/>
</g>
<!-- age -->
<g id="node8" class="node">
<title>age</title>
<ellipse fill="none" stroke="black" cx="605.95" cy="-400.73" rx="45.21" ry="18"/>
<text xml:space="preserve" text-anchor="middle" x="605.95" y="-395.68" font-family="Times,serif" font-size="14.00">Age (T1)</text>
</g>
<!-- age&#45;&gt;g -->
<g id="edge7" class="edge">
<title>age&#45;&gt;g</title>
<path fill="none" stroke="black" d="M589.32,-383.62C573.15,-367.94 547.5,-343.08 522.99,-319.34"/>
<polygon fill="black" stroke="black" points="525.44,-316.84 515.83,-312.39 520.57,-321.86 525.44,-316.84"/>
</g>
<!-- age&#45;&gt;wgain -->
<g id="edge8" class="edge">
<title>age&#45;&gt;wgain</title>
<path fill="none" stroke="black" d="M639.42,-388.16C749.18,-348.57 1084.51,-213.34 965.95,-77 929.72,-35.34 785.67,-24.03 681.75,-21.43"/>
<polygon fill="black" stroke="black" points="681.83,-17.93 671.75,-21.2 681.67,-24.93 681.83,-17.93"/>
</g>
<!-- behav -->
<g id="node10" class="node">
<title>behav</title>
<ellipse fill="none" stroke="black" cx="1080.95" cy="-105.99" rx="68.24" ry="18"/>
<text xml:space="preserve" text-anchor="middle" x="1080.95" y="-100.94" font-family="Times,serif" font-size="14.00">Behaviour (T1)</text>
</g>
<!-- behav&#45;&gt;wgain -->
<g id="edge14" class="edge">
<title>behav&#45;&gt;wgain</title>
<path fill="none" stroke="#737373" stroke-dasharray="5,2" d="M1043.85,-90.57C1029.94,-85.63 1013.89,-80.48 998.95,-77 892.79,-52.28 769.11,-37.75 681.9,-29.8"/>
<polygon fill="#737373" stroke="#737373" points="682.43,-26.33 672.15,-28.93 681.8,-33.31 682.43,-26.33"/>
</g>
</g>
</svg>
