<?xml version="1.0" encoding="UTF-8" standalone="no"?>
<!DOCTYPE svg PUBLIC "-//W3C//DTD SVG 1.1//EN"
 "http://www.w3.org/Graphics/SVG/1.1/DTD/svg11.dtd">
<!-- Generated by graphviz version 14.1.2 (0)
 -->
<!-- Pages: 1 -->
<svg width="1136pt" height="438pt"
 viewBox="0.00 0.00 1136.00 438.00" xmlns="http://www.w3.org/2000/svg" xmlns:xlink="http://www.w3.org/1999/xlink">
<g id="graph0" class="graph" transform="scale(1 1) rotate(0) translate(4 433.72)">
<polygon fill="white" stroke="none" points="-4,4 -4,-433.72 1132.09,-433.72 1132.09,4 -4,4"/>
<!-- g -->
<g id="node1" class="node">
<title>g</title>
<ellipse fill="none" stroke="#737373" stroke-dasharray="5,2" cx="407.85" cy="-253.36" rx="82.38" ry="82.38"/>
<text xml:space="preserve" text-anchor="middle" x="407.85" y="-256.56" font-family="Times,serif" font-size="14.00" fill="#737373">General ability (g)</text>
<text xml:space="preserve" text-anchor="middle" x="407.85" y="-240.06" font-family="Times,serif" font-size="14.00" fill="#737373">[latent, not fitted]</text>
</g>
<!-- ls -->
<g id="node2" class="node">
<title>ls</title>
<ellipse fill="none" stroke="black" cx="414.85" cy="-105.99" rx="82.91" ry="28.99"/>
<text xml:space="preserve" text-anchor="middle" x="414.85" y="-109.19" font-family="Times,serif" font-size="14.00">Letter sounds (T1)</text>
<text xml:space="preserve" text-anchor="middle" x="414.85" y="-92.69" font-family="Times,serif" font-size="14.00">YARC&#45;LSK</text>
</g>
<!-- g&#45;&gt;ls -->
<g id="edge1" class="edge">
<title>g&#45;&gt;ls</title>
<path fill="none" stroke="black" d="M411.78,-170.75C412.18,-162.43 412.57,-154.26 412.94,-146.7"/>
<polygon fill="black" stroke="black" points="416.43,-147.05 413.41,-136.89 409.43,-146.71 416.43,-147.05"/>
</g>
<!-- lang -->
<g id="node3" class="node">
<title>lang</title>
<ellipse fill="none" stroke="black" cx="642.85" cy="-105.99" rx="127.46" ry="28.99"/>
<text xml:space="preserve" text-anchor="middle" x="642.85" y="-109.19" font-family="Times,serif" font-size="14.00">Language composite (T1)</text>
<text xml:space="preserve" text-anchor="middle" x="642.85" y="-92.69" font-family="Times,serif" font-size="14.00">ROWPVT+EOWPVT+CELF</text>
</g>
<!-- g&#45;&gt;lang -->
<g id="edge2" class="edge">
<title>g&#45;&gt;lang</title>
<path fill="none" stroke="black" d="M477.72,-209.14C513.8,-186.82 557.1,-160.04 590.3,-139.5"/>
<polygon fill="black" stroke="black" points="591.87,-142.64 598.53,-134.41 588.19,-136.69 591.87,-142.64"/>
</g>
<!-- blend -->
<g id="node4" class="node">
<title>blend</title>
<ellipse fill="none" stroke="black" cx="113.85" cy="-105.99" rx="63.63" ry="18"/>
<text xml:space="preserve" text-anchor="middle" x="113.85" y="-100.94" font-family="Times,serif" font-size="14.00">Blending (T1)</text>
</g>
<!-- g&#45;&gt;blend -->
<g id="edge3" class="edge">
<title>g&#45;&gt;blend</title>
<path fill="none" stroke="black" d="M347.72,-196.62C335.47,-187.13 322.22,-178.07 308.85,-170.98 258.9,-144.5 240.4,-153.12 186.85,-134.98 178.08,-132.01 168.79,-128.63 159.89,-125.28"/>
<polygon fill="black" stroke="black" points="161.29,-122.07 150.7,-121.77 158.8,-128.61 161.29,-122.07"/>
</g>
<!-- nvma -->
<g id="node5" class="node">
<title>nvma</title>
<ellipse fill="none" stroke="black" cx="880.85" cy="-105.99" rx="92.45" ry="28.99"/>
<text xml:space="preserve" text-anchor="middle" x="880.85" y="-109.19" font-family="Times,serif" font-size="14.00">Non&#45;verbal MA (T1)</text>
<text xml:space="preserve" text-anchor="middle" x="880.85" y="-92.69" font-family="Times,serif" font-size="14.00">block design</text>
</g>
<!-- g&#45;&gt;nvma -->
<g id="edge4" class="edge">
<title>g&#45;&gt;nvma</title>
<path fill="none" stroke="black" d="M486.75,-228.11C575.23,-200.92 717.71,-157.13 804.94,-130.32"/>
<polygon fill="black" stroke="black" points="805.84,-133.71 814.37,-127.42 803.79,-127.01 805.84,-133.71"/>
</g>
<!-- wpre -->
<g id="node6" class="node">
<title>wpre</title>
<polygon fill="none" stroke="black" points="314.23,-126.49 195.48,-126.49 195.48,-85.49 314.23,-85.49 314.23,-126.49"/>
<text xml:space="preserve" text-anchor="middle" x="254.85" y="-109.19" font-family="Times,serif" font-size="14.00">Word reading (T1)</text>
<text xml:space="preserve" text-anchor="middle" x="254.85" y="-92.69" font-family="Times,serif" font-size="14.00">W_pre</text>
</g>
<!-- g&#45;&gt;wpre -->
<g id="edge5" class="edge">
<title>g&#45;&gt;wpre</title>
<path fill="none" stroke="black" d="M348.7,-196.16C326.38,-174.96 301.99,-151.78 283.67,-134.37"/>
<polygon fill="black" stroke="black" points="286.46,-132.2 276.8,-127.85 281.64,-137.27 286.46,-132.2"/>
</g>
<!-- wgain -->
<g id="node9" class="node">
<title>wgain</title>
<polygon fill="#e8eef7" stroke="black" points="435.1,-41 234.6,-41 234.6,0 435.1,0 435.1,-41"/>
<text xml:space="preserve" text-anchor="middle" x="334.85" y="-23.7" font-family="Times,serif" font-size="14.00">Word&#45;reading gain</text>
<text xml:space="preserve" text-anchor="middle" x="334.85" y="-7.2" font-family="Times,serif" font-size="14.00">(T1 &#45;&gt; last wave; W_last | W_T1)</text>
</g>
<!-- ls&#45;&gt;wgain -->
<g id="edge12" class="edge">
<title>ls&#45;&gt;wgain</title>
<path fill="none" stroke="black" d="M389.1,-78.11C380.36,-68.99 370.57,-58.78 361.74,-49.56"/>
<polygon fill="black" stroke="black" points="364.45,-47.33 355,-42.53 359.4,-52.18 364.45,-47.33"/>
</g>
<!-- lang&#45;&gt;wgain -->
<g id="edge13" class="edge">
<title>lang&#45;&gt;wgain</title>
<path fill="none" stroke="black" d="M562.33,-83.16C518.46,-71.27 464.2,-56.56 419.67,-44.49"/>
<polygon fill="black" stroke="black" points="420.6,-41.12 410.03,-41.88 418.77,-47.87 420.6,-41.12"/>
</g>
<!-- blend&#45;&gt;wgain -->
<g id="edge14" class="edge">
<title>blend&#45;&gt;wgain</title>
<path fill="none" stroke="black" d="M150.59,-90.84C162.19,-86.39 175.05,-81.48 186.85,-77 214.36,-66.57 244.79,-55.14 270.87,-45.38"/>
<polygon fill="black" stroke="black" points="271.83,-48.76 279.96,-41.97 269.37,-42.2 271.83,-48.76"/>
</g>
<!-- nvma&#45;&gt;wgain -->
<g id="edge16" class="edge">
<title>nvma&#45;&gt;wgain</title>
<path fill="none" stroke="#737373" stroke-dasharray="5,2" d="M814.79,-85.38C802.9,-82.27 790.56,-79.33 778.85,-77 666.87,-54.76 537.14,-39.76 446.93,-31.02"/>
<polygon fill="#737373" stroke="#737373" points="447.38,-27.55 437.09,-30.08 446.71,-34.52 447.38,-27.55"/>
</g>
<!-- wpre&#45;&gt;wgain -->
<g id="edge15" class="edge">
<title>wpre&#45;&gt;wgain</title>
<path fill="none" stroke="black" d="M273.81,-85.21C284,-74.57 296.73,-61.28 307.93,-49.6"/>
<polygon fill="black" stroke="black" points="310.31,-52.17 314.7,-42.53 305.26,-47.33 310.31,-52.17"/>
</g>
<!-- ses -->
<g id="node7" class="node">
<title>ses</title>
<ellipse fill="none" stroke="black" cx="191.85" cy="-400.73" rx="88.21" ry="28.99"/>
<text xml:space="preserve" text-anchor="middle" x="191.85" y="-403.93" font-family="Times,serif" font-size="14.00">SES</text>
<text xml:space="preserve" text-anchor="middle" x="191.85" y="-387.43" font-family="Times,serif" font-size="14.00">(parental education)</text>
</g>
<!-- ses&#45;&gt;g -->
<g id="edge6" class="edge">
<title>ses&#45;&gt;g</title>
<path fill="none" stroke="black" d="M240.01,-376C261.61,-364.7 287.08,-350.45 308.85,-335.74 318.21,-329.41 327.75,-322.4 337.04,-315.21"/>
<polygon fill="black" stroke="black" points="338.95,-318.15 344.65,-309.22 334.63,-312.65 338.95,-318.15"/>
</g>
<!-- ses&#45;&gt;wgain -->
<g id="edge18" class="edge">
<title>ses&#45;&gt;wgain</title>
<path fill="none" stroke="#737373" stroke-dasharray="5,2" d="M158.83,-373.41C89.8,-315.29 -56.95,-173.5 23.85,-77 49.19,-46.74 144.33,-32.96 222.79,-26.7"/>
<polygon fill="#737373" stroke="#737373" points="223.01,-30.19 232.72,-25.94 222.48,-23.21 223.01,-30.19"/>
</g>
<!-- age -->
<g id="node8" class="node">
<title>age</title>
<ellipse fill="none" stroke="black" cx="254.85" cy="-253.36" rx="45.21" ry="18"/>
<text xml:space="preserve" text-anchor="middle" x="254.85" y="-248.31" font-family="Times,serif" font-size="14.00">Age (T1)</text>
</g>
<!-- age&#45;&gt;ls -->
<g id="edge7" class="edge">
<title>age&#45;&gt;ls</title>
<path fill="none" stroke="black" d="M265.27,-235.43C276.55,-217.96 295.78,-190.58 316.85,-170.98 330.41,-158.38 346.72,-146.64 362.12,-136.75"/>
<polygon fill="black" stroke="black" points="363.66,-139.92 370.27,-131.64 359.94,-133.99 363.66,-139.92"/>
</g>
<!-- age&#45;&gt;lang -->
<g id="edge8" class="edge">
<title>age&#45;&gt;lang</title>
<path fill="none" stroke="black" d="M262.97,-235.35C272.92,-216.45 291.62,-186.57 316.85,-170.98 389.97,-125.8 422.54,-151.65 506.85,-134.98 517.4,-132.9 528.41,-130.69 539.39,-128.46"/>
<polygon fill="black" stroke="black" points="539.76,-131.96 548.86,-126.54 538.37,-125.1 539.76,-131.96"/>
</g>
<!-- age&#45;&gt;blend -->
<g id="edge9" class="edge">
<title>age&#45;&gt;blend</title>
<path fill="none" stroke="black" d="M239.22,-236.25C214.69,-210.95 166.94,-161.72 137.97,-131.86"/>
<polygon fill="black" stroke="black" points="140.51,-129.45 131.04,-124.71 135.49,-134.32 140.51,-129.45"/>
</g>
<!-- age&#45;&gt;wpre -->
<g id="edge10" class="edge">
<title>age&#45;&gt;wpre</title>
<path fill="none" stroke="black" d="M254.85,-235.11C254.85,-211.19 254.85,-167.52 254.85,-137.89"/>
<polygon fill="black" stroke="black" points="258.35,-138.04 254.85,-128.04 251.35,-138.04 258.35,-138.04"/>
</g>
<!-- age&#45;&gt;wgain -->
<g id="edge11" class="edge">
<title>age&#45;&gt;wgain</title>
<path fill="none" stroke="black" d="M220.09,-241.57C145.06,-216.55 -20.53,-151.05 40.85,-77 64.1,-48.95 150.17,-34.97 223.22,-28.07"/>
<polygon fill="black" stroke="black" points="223.21,-31.59 232.85,-27.2 222.58,-24.62 223.21,-31.59"/>
</g>
<!-- behav -->
<g id="node10" class="node">
<title>behav</title>
<ellipse fill="none" stroke="black" cx="1059.85" cy="-105.99" rx="68.24" ry="18"/>
<text xml:space="preserve" text-anchor="middle" x="1059.85" y="-100.94" font-family="Times,serif" font-size="14.00">Behaviour (T1)</text>
</g>
<!-- behav&#45;&gt;wgain -->
<g id="edge17" class="edge">
<title>behav&#45;&gt;wgain</title>
<path fill="none" stroke="#737373" stroke-dasharray="5,2" d="M1024.7,-90.19C1011.48,-85.21 996.19,-80.13 981.85,-77 797.1,-36.64 576.69,-25.35 446.66,-22.35"/>
<polygon fill="#737373" stroke="#737373" points="447.12,-18.86 437.04,-22.14 446.96,-25.86 447.12,-18.86"/>
</g>
</g>
</svg>
