<?xml version="1.0" encoding="UTF-8" standalone="no"?>
<!DOCTYPE svg PUBLIC "-//W3C//DTD SVG 1.1//EN"
 "http://www.w3.org/Graphics/SVG/1.1/DTD/svg11.dtd">
<!-- Generated by graphviz version 14.1.2 (0)
 -->
<!-- Pages: 1 -->
<svg width="1290pt" height="438pt"
 viewBox="0.00 0.00 1290.00 438.00" xmlns="http://www.w3.org/2000/svg" xmlns:xlink="http://www.w3.org/1999/xlink">
<g id="graph0" class="graph" transform="scale(1 1) rotate(0) translate(4 433.72)">
<polygon fill="white" stroke="none" points="-4,4 -4,-433.72 1285.7,-433.72 1285.7,4 -4,4"/>
<!-- g -->
<g id="node1" class="node">
<title>g</title>
<ellipse fill="none" stroke="#737373" stroke-dasharray="5,2" cx="407.45" cy="-253.36" rx="82.38" ry="82.38"/>
<text xml:space="preserve" text-anchor="middle" x="407.45" y="-256.56" font-family="Times,serif" font-size="14.00" fill="#737373">General ability (g)</text>
<text xml:space="preserve" text-anchor="middle" x="407.45" y="-240.06" font-family="Times,serif" font-size="14.00" fill="#737373">[latent, not fitted]</text>
</g>
<!-- ls -->
<g id="node2" class="node">
<title>ls</title>
<ellipse fill="none" stroke="black" cx="567.45" cy="-105.99" rx="82.91" ry="28.99"/>
<text xml:space="preserve" text-anchor="middle" x="567.45" y="-109.19" font-family="Times,serif" font-size="14.00">Letter sounds (T1)</text>
<text xml:space="preserve" text-anchor="middle" x="567.45" y="-92.69" font-family="Times,serif" font-size="14.00">YARC&#45;LSK</text>
</g>
<!-- g&#45;&gt;ls -->
<g id="edge1" class="edge">
<title>g&#45;&gt;ls</title>
<path fill="none" stroke="black" d="M467.94,-197.4C488.72,-178.52 511.37,-157.94 529.81,-141.2"/>
<polygon fill="black" stroke="black" points="532.06,-143.88 537.1,-134.57 527.35,-138.7 532.06,-143.88"/>
</g>
<!-- lang -->
<g id="node3" class="node">
<title>lang</title>
<ellipse fill="none" stroke="black" cx="795.45" cy="-105.99" rx="127.46" ry="28.99"/>
<text xml:space="preserve" text-anchor="middle" x="795.45" y="-109.19" font-family="Times,serif" font-size="14.00">Language composite (T1)</text>
<text xml:space="preserve" text-anchor="middle" x="795.45" y="-92.69" font-family="Times,serif" font-size="14.00">ROWPVT+EOWPVT+CELF</text>
</g>
<!-- g&#45;&gt;lang -->
<g id="edge2" class="edge">
<title>g&#45;&gt;lang</title>
<path fill="none" stroke="black" d="M469.01,-198.09C482.92,-187.89 498.12,-178.18 513.45,-170.98 529.88,-163.27 617.7,-143.86 691.03,-128.42"/>
<polygon fill="black" stroke="black" points="691.65,-131.87 700.71,-126.39 690.21,-125.02 691.65,-131.87"/>
</g>
<!-- blend -->
<g id="node4" class="node">
<title>blend</title>
<ellipse fill="none" stroke="black" cx="266.45" cy="-105.99" rx="63.63" ry="18"/>
<text xml:space="preserve" text-anchor="middle" x="266.45" y="-100.94" font-family="Times,serif" font-size="14.00">Blending (T1)</text>
</g>
<!-- g&#45;&gt;blend -->
<g id="edge3" class="edge">
<title>g&#45;&gt;blend</title>
<path fill="none" stroke="black" d="M350.51,-193.65C329.49,-171.98 306.8,-148.59 290.3,-131.58"/>
<polygon fill="black" stroke="black" points="293.26,-129.6 283.79,-124.86 288.24,-134.47 293.26,-129.6"/>
</g>
<!-- nvma -->
<g id="node5" class="node">
<title>nvma</title>
<ellipse fill="none" stroke="black" cx="92.45" cy="-105.99" rx="92.45" ry="28.99"/>
<text xml:space="preserve" text-anchor="middle" x="92.45" y="-109.19" font-family="Times,serif" font-size="14.00">Non&#45;verbal MA (T1)</text>
<text xml:space="preserve" text-anchor="middle" x="92.45" y="-92.69" font-family="Times,serif" font-size="14.00">block design</text>
</g>
<!-- g&#45;&gt;nvma -->
<g id="edge4" class="edge">
<title>g&#45;&gt;nvma</title>
<path fill="none" stroke="black" d="M332.8,-217.91C278.17,-192.7 204.94,-158.9 153.72,-135.26"/>
<polygon fill="black" stroke="black" points="155.38,-132.18 144.84,-131.16 152.45,-138.53 155.38,-132.18"/>
</g>
<!-- wpre -->
<g id="node6" class="node">
<title>wpre</title>
<polygon fill="none" stroke="black" points="466.83,-126.49 348.08,-126.49 348.08,-85.49 466.83,-85.49 466.83,-126.49"/>
<text xml:space="preserve" text-anchor="middle" x="407.45" y="-109.19" font-family="Times,serif" font-size="14.00">Word reading (T1)</text>
<text xml:space="preserve" text-anchor="middle" x="407.45" y="-92.69" font-family="Times,serif" font-size="14.00">W_pre</text>
</g>
<!-- g&#45;&gt;wpre -->
<g id="edge5" class="edge">
<title>g&#45;&gt;wpre</title>
<path fill="none" stroke="black" d="M407.45,-170.75C407.45,-159.19 407.45,-147.94 407.45,-138.19"/>
<polygon fill="black" stroke="black" points="410.95,-138.24 407.45,-128.24 403.95,-138.24 410.95,-138.24"/>
</g>
<!-- wgain -->
<g id="node9" class="node">
<title>wgain</title>
<polygon fill="#e8eef7" stroke="black" points="740.83,-41 622.08,-41 622.08,0 740.83,0 740.83,-41"/>
<text xml:space="preserve" text-anchor="middle" x="681.45" y="-23.7" font-family="Times,serif" font-size="14.00">Word&#45;reading gain</text>
<text xml:space="preserve" text-anchor="middle" x="681.45" y="-7.2" font-family="Times,serif" font-size="14.00">W_post | W_pre</text>
</g>
<!-- ls&#45;&gt;wgain -->
<g id="edge12" class="edge">
<title>ls&#45;&gt;wgain</title>
<path fill="none" stroke="black" d="M602.59,-79.26C616.09,-69.37 631.52,-58.07 645.13,-48.1"/>
<polygon fill="black" stroke="black" points="647,-51.07 653,-42.34 642.86,-45.43 647,-51.07"/>
</g>
<!-- lang&#45;&gt;wgain -->
<g id="edge13" class="edge">
<title>lang&#45;&gt;wgain</title>
<path fill="none" stroke="black" d="M758.44,-77.88C745.36,-68.31 730.68,-57.55 717.66,-48.02"/>
<polygon fill="black" stroke="black" points="719.89,-45.31 709.75,-42.23 715.75,-50.96 719.89,-45.31"/>
</g>
<!-- blend&#45;&gt;wgain -->
<g id="edge14" class="edge">
<title>blend&#45;&gt;wgain</title>
<path fill="none" stroke="black" d="M300.14,-90.42C312.34,-85.58 326.35,-80.54 339.45,-77 431.46,-52.18 540.57,-36.82 610.38,-28.72"/>
<polygon fill="black" stroke="black" points="610.62,-32.22 620.16,-27.61 609.83,-25.26 610.62,-32.22"/>
</g>
<!-- nvma&#45;&gt;wgain -->
<g id="edge17" class="edge">
<title>nvma&#45;&gt;wgain</title>
<path fill="none" stroke="#737373" stroke-dasharray="5,2" d="M158.11,-85.19C169.81,-82.12 181.93,-79.24 193.45,-77 340.25,-48.49 514.93,-33 610.41,-26.07"/>
<polygon fill="#737373" stroke="#737373" points="610.42,-29.57 620.14,-25.37 609.92,-22.59 610.42,-29.57"/>
</g>
<!-- wpre&#45;&gt;wgain -->
<g id="edge15" class="edge">
<title>wpre&#45;&gt;wgain</title>
<path fill="none" stroke="black" d="M453.61,-85.07C460.86,-82.21 468.32,-79.42 475.45,-77 519.86,-61.95 570.73,-48.21 610.8,-38.17"/>
<polygon fill="black" stroke="black" points="611.47,-41.61 620.34,-35.8 609.79,-34.81 611.47,-41.61"/>
</g>
<!-- ses -->
<g id="node7" class="node">
<title>ses</title>
<ellipse fill="none" stroke="black" cx="407.45" cy="-400.73" rx="88.21" ry="28.99"/>
<text xml:space="preserve" text-anchor="middle" x="407.45" y="-403.93" font-family="Times,serif" font-size="14.00">SES</text>
<text xml:space="preserve" text-anchor="middle" x="407.45" y="-387.43" font-family="Times,serif" font-size="14.00">(parental education)</text>
</g>
<!-- ses&#45;&gt;g -->
<g id="edge6" class="edge">
<title>ses&#45;&gt;g</title>
<path fill="none" stroke="black" d="M407.45,-371.36C407.45,-364.17 407.45,-356.06 407.45,-347.54"/>
<polygon fill="black" stroke="black" points="410.95,-347.65 407.45,-337.65 403.95,-347.65 410.95,-347.65"/>
</g>
<!-- age -->
<g id="node8" class="node">
<title>age</title>
<ellipse fill="none" stroke="black" cx="567.45" cy="-253.36" rx="45.21" ry="18"/>
<text xml:space="preserve" text-anchor="middle" x="567.45" y="-248.31" font-family="Times,serif" font-size="14.00">Age (T1)</text>
</g>
<!-- age&#45;&gt;ls -->
<g id="edge7" class="edge">
<title>age&#45;&gt;ls</title>
<path fill="none" stroke="black" d="M567.45,-235.11C567.45,-213.5 567.45,-175.78 567.45,-146.85"/>
<polygon fill="black" stroke="black" points="570.95,-146.97 567.45,-136.97 563.95,-146.97 570.95,-146.97"/>
</g>
<!-- age&#45;&gt;lang -->
<g id="edge8" class="edge">
<title>age&#45;&gt;lang</title>
<path fill="none" stroke="black" d="M590.57,-237.62C626.26,-214.86 695.69,-170.6 743.77,-139.95"/>
<polygon fill="black" stroke="black" points="745.55,-142.96 752.11,-134.63 741.79,-137.06 745.55,-142.96"/>
</g>
<!-- age&#45;&gt;blend -->
<g id="edge9" class="edge">
<title>age&#45;&gt;blend</title>
<path fill="none" stroke="black" d="M557.82,-235.51C546.21,-216.77 524.9,-187.02 498.45,-170.98 436.5,-133.41 408.79,-156.01 339.45,-134.98 330.3,-132.21 320.66,-128.84 311.49,-125.42"/>
<polygon fill="black" stroke="black" points="313.01,-122.25 302.42,-121.95 310.51,-128.79 313.01,-122.25"/>
</g>
<!-- age&#45;&gt;wpre -->
<g id="edge10" class="edge">
<title>age&#45;&gt;wpre</title>
<path fill="none" stroke="black" d="M555.34,-235.69C542.36,-218.43 520.61,-191.22 498.45,-170.98 483.32,-157.15 465.08,-143.79 448.93,-132.88"/>
<polygon fill="black" stroke="black" points="451.22,-130.21 440.95,-127.6 447.35,-136.04 451.22,-130.21"/>
</g>
<!-- age&#45;&gt;wgain -->
<g id="edge11" class="edge">
<title>age&#45;&gt;wgain</title>
<path fill="none" stroke="black" d="M608.42,-245.32C695.18,-229.48 892.66,-188.25 931.45,-134.98 946.62,-114.15 947.58,-97.1 931.45,-77 909.33,-49.42 818.2,-34.69 752.34,-27.49"/>
<polygon fill="black" stroke="black" points="753,-24.04 742.69,-26.47 752.27,-31 753,-24.04"/>
</g>
<!-- interval -->
<g id="node10" class="node">
<title>interval</title>
<ellipse fill="none" stroke="black" cx="1052.45" cy="-105.99" rx="74.42" ry="28.99"/>
<text xml:space="preserve" text-anchor="middle" x="1052.45" y="-109.19" font-family="Times,serif" font-size="14.00">Time between</text>
<text xml:space="preserve" text-anchor="middle" x="1052.45" y="-92.69" font-family="Times,serif" font-size="14.00">T1 and endpoint</text>
</g>
<!-- interval&#45;&gt;wgain -->
<g id="edge16" class="edge">
<title>interval&#45;&gt;wgain</title>
<path fill="none" stroke="black" d="M996.87,-86.25C986.17,-82.95 975.01,-79.71 964.45,-77 892.95,-58.68 809.95,-43.06 752.41,-33.1"/>
<polygon fill="black" stroke="black" points="753.19,-29.68 742.74,-31.44 752.01,-36.58 753.19,-29.68"/>
</g>
<!-- behav -->
<g id="node11" class="node">
<title>behav</title>
<ellipse fill="none" stroke="black" cx="1213.45" cy="-105.99" rx="68.24" ry="18"/>
<text xml:space="preserve" text-anchor="middle" x="1213.45" y="-100.94" font-family="Times,serif" font-size="14.00">Behaviour (T1)</text>
</g>
<!-- behav&#45;&gt;wgain -->
<g id="edge18" class="edge">
<title>behav&#45;&gt;wgain</title>
<path fill="none" stroke="#737373" stroke-dasharray="5,2" d="M1177.85,-90.32C1164.72,-85.42 1149.59,-80.36 1135.45,-77 1002.23,-45.37 842.49,-31.17 752.4,-25.27"/>
<polygon fill="#737373" stroke="#737373" points="752.68,-21.78 742.48,-24.64 752.23,-28.77 752.68,-21.78"/>
</g>
</g>
</svg>
